%TF.GenerationSoftware,KiCad,Pcbnew,8.0.6*%
%TF.CreationDate,2025-02-23T20:10:21-06:00*%
%TF.ProjectId,fullycustomcontrolle one hand,66756c6c-7963-4757-9374-6f6d636f6e74,rev?*%
%TF.SameCoordinates,Original*%
%TF.FileFunction,Legend,Top*%
%TF.FilePolarity,Positive*%
%FSLAX46Y46*%
G04 Gerber Fmt 4.6, Leading zero omitted, Abs format (unit mm)*
G04 Created by KiCad (PCBNEW 8.0.6) date 2025-02-23 20:10:21*
%MOMM*%
%LPD*%
G01*
G04 APERTURE LIST*
%ADD10C,0.200000*%
%ADD11C,0.100000*%
%ADD12C,0.150000*%
%ADD13C,0.125000*%
%ADD14C,0.120000*%
%ADD15C,0.000000*%
%ADD16C,0.381000*%
%ADD17C,0.127000*%
%ADD18R,1.752600X1.752600*%
%ADD19C,1.752600*%
G04 APERTURE END LIST*
D10*
X187370062Y-31241904D02*
X187322443Y-31337142D01*
X187322443Y-31337142D02*
X187322443Y-31479999D01*
X187322443Y-31479999D02*
X187370062Y-31622856D01*
X187370062Y-31622856D02*
X187465300Y-31718094D01*
X187465300Y-31718094D02*
X187560538Y-31765713D01*
X187560538Y-31765713D02*
X187751014Y-31813332D01*
X187751014Y-31813332D02*
X187893871Y-31813332D01*
X187893871Y-31813332D02*
X188084347Y-31765713D01*
X188084347Y-31765713D02*
X188179585Y-31718094D01*
X188179585Y-31718094D02*
X188274824Y-31622856D01*
X188274824Y-31622856D02*
X188322443Y-31479999D01*
X188322443Y-31479999D02*
X188322443Y-31384761D01*
X188322443Y-31384761D02*
X188274824Y-31241904D01*
X188274824Y-31241904D02*
X188227204Y-31194285D01*
X188227204Y-31194285D02*
X187893871Y-31194285D01*
X187893871Y-31194285D02*
X187893871Y-31384761D01*
X188322443Y-30765713D02*
X187322443Y-30765713D01*
X187322443Y-30765713D02*
X188322443Y-30194285D01*
X188322443Y-30194285D02*
X187322443Y-30194285D01*
X188322443Y-29718094D02*
X187322443Y-29718094D01*
X187322443Y-29718094D02*
X187322443Y-29479999D01*
X187322443Y-29479999D02*
X187370062Y-29337142D01*
X187370062Y-29337142D02*
X187465300Y-29241904D01*
X187465300Y-29241904D02*
X187560538Y-29194285D01*
X187560538Y-29194285D02*
X187751014Y-29146666D01*
X187751014Y-29146666D02*
X187893871Y-29146666D01*
X187893871Y-29146666D02*
X188084347Y-29194285D01*
X188084347Y-29194285D02*
X188179585Y-29241904D01*
X188179585Y-29241904D02*
X188274824Y-29337142D01*
X188274824Y-29337142D02*
X188322443Y-29479999D01*
X188322443Y-29479999D02*
X188322443Y-29718094D01*
X190542331Y-31575237D02*
X191542331Y-31241904D01*
X191542331Y-31241904D02*
X190542331Y-30908571D01*
X191542331Y-30575237D02*
X190542331Y-30575237D01*
X191542331Y-30099047D02*
X190542331Y-30099047D01*
X190542331Y-30099047D02*
X191542331Y-29527619D01*
X191542331Y-29527619D02*
X190542331Y-29527619D01*
X194762219Y-30646666D02*
X194286028Y-30979999D01*
X194762219Y-31218094D02*
X193762219Y-31218094D01*
X193762219Y-31218094D02*
X193762219Y-30837142D01*
X193762219Y-30837142D02*
X193809838Y-30741904D01*
X193809838Y-30741904D02*
X193857457Y-30694285D01*
X193857457Y-30694285D02*
X193952695Y-30646666D01*
X193952695Y-30646666D02*
X194095552Y-30646666D01*
X194095552Y-30646666D02*
X194190790Y-30694285D01*
X194190790Y-30694285D02*
X194238409Y-30741904D01*
X194238409Y-30741904D02*
X194286028Y-30837142D01*
X194286028Y-30837142D02*
X194286028Y-31218094D01*
X193762219Y-30313332D02*
X194762219Y-29646666D01*
X193762219Y-29646666D02*
X194762219Y-30313332D01*
X197982107Y-30599047D02*
X197505916Y-30932380D01*
X197982107Y-31170475D02*
X196982107Y-31170475D01*
X196982107Y-31170475D02*
X196982107Y-30789523D01*
X196982107Y-30789523D02*
X197029726Y-30694285D01*
X197029726Y-30694285D02*
X197077345Y-30646666D01*
X197077345Y-30646666D02*
X197172583Y-30599047D01*
X197172583Y-30599047D02*
X197315440Y-30599047D01*
X197315440Y-30599047D02*
X197410678Y-30646666D01*
X197410678Y-30646666D02*
X197458297Y-30694285D01*
X197458297Y-30694285D02*
X197505916Y-30789523D01*
X197505916Y-30789523D02*
X197505916Y-31170475D01*
X197505916Y-29979999D02*
X197982107Y-29979999D01*
X196982107Y-30313332D02*
X197505916Y-29979999D01*
X197505916Y-29979999D02*
X196982107Y-29646666D01*
X201154376Y-31337142D02*
X201201995Y-31194285D01*
X201201995Y-31194285D02*
X201201995Y-30956190D01*
X201201995Y-30956190D02*
X201154376Y-30860952D01*
X201154376Y-30860952D02*
X201106756Y-30813333D01*
X201106756Y-30813333D02*
X201011518Y-30765714D01*
X201011518Y-30765714D02*
X200916280Y-30765714D01*
X200916280Y-30765714D02*
X200821042Y-30813333D01*
X200821042Y-30813333D02*
X200773423Y-30860952D01*
X200773423Y-30860952D02*
X200725804Y-30956190D01*
X200725804Y-30956190D02*
X200678185Y-31146666D01*
X200678185Y-31146666D02*
X200630566Y-31241904D01*
X200630566Y-31241904D02*
X200582947Y-31289523D01*
X200582947Y-31289523D02*
X200487709Y-31337142D01*
X200487709Y-31337142D02*
X200392471Y-31337142D01*
X200392471Y-31337142D02*
X200297233Y-31289523D01*
X200297233Y-31289523D02*
X200249614Y-31241904D01*
X200249614Y-31241904D02*
X200201995Y-31146666D01*
X200201995Y-31146666D02*
X200201995Y-30908571D01*
X200201995Y-30908571D02*
X200249614Y-30765714D01*
X200201995Y-30432380D02*
X201201995Y-30194285D01*
X201201995Y-30194285D02*
X200487709Y-30003809D01*
X200487709Y-30003809D02*
X201201995Y-29813333D01*
X201201995Y-29813333D02*
X200201995Y-29575238D01*
D11*
X211597419Y-152096115D02*
X212406942Y-152096115D01*
X212406942Y-152096115D02*
X212502180Y-152048496D01*
X212502180Y-152048496D02*
X212549800Y-152000877D01*
X212549800Y-152000877D02*
X212597419Y-151905639D01*
X212597419Y-151905639D02*
X212597419Y-151715163D01*
X212597419Y-151715163D02*
X212549800Y-151619925D01*
X212549800Y-151619925D02*
X212502180Y-151572306D01*
X212502180Y-151572306D02*
X212406942Y-151524687D01*
X212406942Y-151524687D02*
X211597419Y-151524687D01*
X212549800Y-151096115D02*
X212597419Y-150953258D01*
X212597419Y-150953258D02*
X212597419Y-150715163D01*
X212597419Y-150715163D02*
X212549800Y-150619925D01*
X212549800Y-150619925D02*
X212502180Y-150572306D01*
X212502180Y-150572306D02*
X212406942Y-150524687D01*
X212406942Y-150524687D02*
X212311704Y-150524687D01*
X212311704Y-150524687D02*
X212216466Y-150572306D01*
X212216466Y-150572306D02*
X212168847Y-150619925D01*
X212168847Y-150619925D02*
X212121228Y-150715163D01*
X212121228Y-150715163D02*
X212073609Y-150905639D01*
X212073609Y-150905639D02*
X212025990Y-151000877D01*
X212025990Y-151000877D02*
X211978371Y-151048496D01*
X211978371Y-151048496D02*
X211883133Y-151096115D01*
X211883133Y-151096115D02*
X211787895Y-151096115D01*
X211787895Y-151096115D02*
X211692657Y-151048496D01*
X211692657Y-151048496D02*
X211645038Y-151000877D01*
X211645038Y-151000877D02*
X211597419Y-150905639D01*
X211597419Y-150905639D02*
X211597419Y-150667544D01*
X211597419Y-150667544D02*
X211645038Y-150524687D01*
X212073609Y-149762782D02*
X212121228Y-149619925D01*
X212121228Y-149619925D02*
X212168847Y-149572306D01*
X212168847Y-149572306D02*
X212264085Y-149524687D01*
X212264085Y-149524687D02*
X212406942Y-149524687D01*
X212406942Y-149524687D02*
X212502180Y-149572306D01*
X212502180Y-149572306D02*
X212549800Y-149619925D01*
X212549800Y-149619925D02*
X212597419Y-149715163D01*
X212597419Y-149715163D02*
X212597419Y-150096115D01*
X212597419Y-150096115D02*
X211597419Y-150096115D01*
X211597419Y-150096115D02*
X211597419Y-149762782D01*
X211597419Y-149762782D02*
X211645038Y-149667544D01*
X211645038Y-149667544D02*
X211692657Y-149619925D01*
X211692657Y-149619925D02*
X211787895Y-149572306D01*
X211787895Y-149572306D02*
X211883133Y-149572306D01*
X211883133Y-149572306D02*
X211978371Y-149619925D01*
X211978371Y-149619925D02*
X212025990Y-149667544D01*
X212025990Y-149667544D02*
X212073609Y-149762782D01*
X212073609Y-149762782D02*
X212073609Y-150096115D01*
D12*
X202181667Y-61752200D02*
X202324524Y-61799819D01*
X202324524Y-61799819D02*
X202562619Y-61799819D01*
X202562619Y-61799819D02*
X202657857Y-61752200D01*
X202657857Y-61752200D02*
X202705476Y-61704580D01*
X202705476Y-61704580D02*
X202753095Y-61609342D01*
X202753095Y-61609342D02*
X202753095Y-61514104D01*
X202753095Y-61514104D02*
X202705476Y-61418866D01*
X202705476Y-61418866D02*
X202657857Y-61371247D01*
X202657857Y-61371247D02*
X202562619Y-61323628D01*
X202562619Y-61323628D02*
X202372143Y-61276009D01*
X202372143Y-61276009D02*
X202276905Y-61228390D01*
X202276905Y-61228390D02*
X202229286Y-61180771D01*
X202229286Y-61180771D02*
X202181667Y-61085533D01*
X202181667Y-61085533D02*
X202181667Y-60990295D01*
X202181667Y-60990295D02*
X202229286Y-60895057D01*
X202229286Y-60895057D02*
X202276905Y-60847438D01*
X202276905Y-60847438D02*
X202372143Y-60799819D01*
X202372143Y-60799819D02*
X202610238Y-60799819D01*
X202610238Y-60799819D02*
X202753095Y-60847438D01*
X203086429Y-60799819D02*
X203324524Y-61799819D01*
X203324524Y-61799819D02*
X203515000Y-61085533D01*
X203515000Y-61085533D02*
X203705476Y-61799819D01*
X203705476Y-61799819D02*
X203943572Y-60799819D01*
X204372143Y-61799819D02*
X204562619Y-61799819D01*
X204562619Y-61799819D02*
X204657857Y-61752200D01*
X204657857Y-61752200D02*
X204705476Y-61704580D01*
X204705476Y-61704580D02*
X204800714Y-61561723D01*
X204800714Y-61561723D02*
X204848333Y-61371247D01*
X204848333Y-61371247D02*
X204848333Y-60990295D01*
X204848333Y-60990295D02*
X204800714Y-60895057D01*
X204800714Y-60895057D02*
X204753095Y-60847438D01*
X204753095Y-60847438D02*
X204657857Y-60799819D01*
X204657857Y-60799819D02*
X204467381Y-60799819D01*
X204467381Y-60799819D02*
X204372143Y-60847438D01*
X204372143Y-60847438D02*
X204324524Y-60895057D01*
X204324524Y-60895057D02*
X204276905Y-60990295D01*
X204276905Y-60990295D02*
X204276905Y-61228390D01*
X204276905Y-61228390D02*
X204324524Y-61323628D01*
X204324524Y-61323628D02*
X204372143Y-61371247D01*
X204372143Y-61371247D02*
X204467381Y-61418866D01*
X204467381Y-61418866D02*
X204657857Y-61418866D01*
X204657857Y-61418866D02*
X204753095Y-61371247D01*
X204753095Y-61371247D02*
X204800714Y-61323628D01*
X204800714Y-61323628D02*
X204848333Y-61228390D01*
X202081667Y-82032200D02*
X202224524Y-82079819D01*
X202224524Y-82079819D02*
X202462619Y-82079819D01*
X202462619Y-82079819D02*
X202557857Y-82032200D01*
X202557857Y-82032200D02*
X202605476Y-81984580D01*
X202605476Y-81984580D02*
X202653095Y-81889342D01*
X202653095Y-81889342D02*
X202653095Y-81794104D01*
X202653095Y-81794104D02*
X202605476Y-81698866D01*
X202605476Y-81698866D02*
X202557857Y-81651247D01*
X202557857Y-81651247D02*
X202462619Y-81603628D01*
X202462619Y-81603628D02*
X202272143Y-81556009D01*
X202272143Y-81556009D02*
X202176905Y-81508390D01*
X202176905Y-81508390D02*
X202129286Y-81460771D01*
X202129286Y-81460771D02*
X202081667Y-81365533D01*
X202081667Y-81365533D02*
X202081667Y-81270295D01*
X202081667Y-81270295D02*
X202129286Y-81175057D01*
X202129286Y-81175057D02*
X202176905Y-81127438D01*
X202176905Y-81127438D02*
X202272143Y-81079819D01*
X202272143Y-81079819D02*
X202510238Y-81079819D01*
X202510238Y-81079819D02*
X202653095Y-81127438D01*
X202986429Y-81079819D02*
X203224524Y-82079819D01*
X203224524Y-82079819D02*
X203415000Y-81365533D01*
X203415000Y-81365533D02*
X203605476Y-82079819D01*
X203605476Y-82079819D02*
X203843572Y-81079819D01*
X204367381Y-81508390D02*
X204272143Y-81460771D01*
X204272143Y-81460771D02*
X204224524Y-81413152D01*
X204224524Y-81413152D02*
X204176905Y-81317914D01*
X204176905Y-81317914D02*
X204176905Y-81270295D01*
X204176905Y-81270295D02*
X204224524Y-81175057D01*
X204224524Y-81175057D02*
X204272143Y-81127438D01*
X204272143Y-81127438D02*
X204367381Y-81079819D01*
X204367381Y-81079819D02*
X204557857Y-81079819D01*
X204557857Y-81079819D02*
X204653095Y-81127438D01*
X204653095Y-81127438D02*
X204700714Y-81175057D01*
X204700714Y-81175057D02*
X204748333Y-81270295D01*
X204748333Y-81270295D02*
X204748333Y-81317914D01*
X204748333Y-81317914D02*
X204700714Y-81413152D01*
X204700714Y-81413152D02*
X204653095Y-81460771D01*
X204653095Y-81460771D02*
X204557857Y-81508390D01*
X204557857Y-81508390D02*
X204367381Y-81508390D01*
X204367381Y-81508390D02*
X204272143Y-81556009D01*
X204272143Y-81556009D02*
X204224524Y-81603628D01*
X204224524Y-81603628D02*
X204176905Y-81698866D01*
X204176905Y-81698866D02*
X204176905Y-81889342D01*
X204176905Y-81889342D02*
X204224524Y-81984580D01*
X204224524Y-81984580D02*
X204272143Y-82032200D01*
X204272143Y-82032200D02*
X204367381Y-82079819D01*
X204367381Y-82079819D02*
X204557857Y-82079819D01*
X204557857Y-82079819D02*
X204653095Y-82032200D01*
X204653095Y-82032200D02*
X204700714Y-81984580D01*
X204700714Y-81984580D02*
X204748333Y-81889342D01*
X204748333Y-81889342D02*
X204748333Y-81698866D01*
X204748333Y-81698866D02*
X204700714Y-81603628D01*
X204700714Y-81603628D02*
X204653095Y-81556009D01*
X204653095Y-81556009D02*
X204557857Y-81508390D01*
D11*
X205592419Y-49741353D02*
X206592419Y-49074687D01*
X205592419Y-49074687D02*
X206592419Y-49741353D01*
X206497180Y-48122306D02*
X206544800Y-48169925D01*
X206544800Y-48169925D02*
X206592419Y-48312782D01*
X206592419Y-48312782D02*
X206592419Y-48408020D01*
X206592419Y-48408020D02*
X206544800Y-48550877D01*
X206544800Y-48550877D02*
X206449561Y-48646115D01*
X206449561Y-48646115D02*
X206354323Y-48693734D01*
X206354323Y-48693734D02*
X206163847Y-48741353D01*
X206163847Y-48741353D02*
X206020990Y-48741353D01*
X206020990Y-48741353D02*
X205830514Y-48693734D01*
X205830514Y-48693734D02*
X205735276Y-48646115D01*
X205735276Y-48646115D02*
X205640038Y-48550877D01*
X205640038Y-48550877D02*
X205592419Y-48408020D01*
X205592419Y-48408020D02*
X205592419Y-48312782D01*
X205592419Y-48312782D02*
X205640038Y-48169925D01*
X205640038Y-48169925D02*
X205687657Y-48122306D01*
X206592419Y-47217544D02*
X206592419Y-47693734D01*
X206592419Y-47693734D02*
X205592419Y-47693734D01*
X195390038Y-49122306D02*
X195342419Y-49217544D01*
X195342419Y-49217544D02*
X195342419Y-49360401D01*
X195342419Y-49360401D02*
X195390038Y-49503258D01*
X195390038Y-49503258D02*
X195485276Y-49598496D01*
X195485276Y-49598496D02*
X195580514Y-49646115D01*
X195580514Y-49646115D02*
X195770990Y-49693734D01*
X195770990Y-49693734D02*
X195913847Y-49693734D01*
X195913847Y-49693734D02*
X196104323Y-49646115D01*
X196104323Y-49646115D02*
X196199561Y-49598496D01*
X196199561Y-49598496D02*
X196294800Y-49503258D01*
X196294800Y-49503258D02*
X196342419Y-49360401D01*
X196342419Y-49360401D02*
X196342419Y-49265163D01*
X196342419Y-49265163D02*
X196294800Y-49122306D01*
X196294800Y-49122306D02*
X196247180Y-49074687D01*
X196247180Y-49074687D02*
X195913847Y-49074687D01*
X195913847Y-49074687D02*
X195913847Y-49265163D01*
X196342419Y-48646115D02*
X195342419Y-48646115D01*
X195342419Y-48646115D02*
X196342419Y-48074687D01*
X196342419Y-48074687D02*
X195342419Y-48074687D01*
X196342419Y-47598496D02*
X195342419Y-47598496D01*
X195342419Y-47598496D02*
X195342419Y-47360401D01*
X195342419Y-47360401D02*
X195390038Y-47217544D01*
X195390038Y-47217544D02*
X195485276Y-47122306D01*
X195485276Y-47122306D02*
X195580514Y-47074687D01*
X195580514Y-47074687D02*
X195770990Y-47027068D01*
X195770990Y-47027068D02*
X195913847Y-47027068D01*
X195913847Y-47027068D02*
X196104323Y-47074687D01*
X196104323Y-47074687D02*
X196199561Y-47122306D01*
X196199561Y-47122306D02*
X196294800Y-47217544D01*
X196294800Y-47217544D02*
X196342419Y-47360401D01*
X196342419Y-47360401D02*
X196342419Y-47598496D01*
X203092419Y-49741353D02*
X204092419Y-49074687D01*
X203092419Y-49074687D02*
X204092419Y-49741353D01*
X204092419Y-48693734D02*
X203092419Y-48693734D01*
X203092419Y-48693734D02*
X203092419Y-48455639D01*
X203092419Y-48455639D02*
X203140038Y-48312782D01*
X203140038Y-48312782D02*
X203235276Y-48217544D01*
X203235276Y-48217544D02*
X203330514Y-48169925D01*
X203330514Y-48169925D02*
X203520990Y-48122306D01*
X203520990Y-48122306D02*
X203663847Y-48122306D01*
X203663847Y-48122306D02*
X203854323Y-48169925D01*
X203854323Y-48169925D02*
X203949561Y-48217544D01*
X203949561Y-48217544D02*
X204044800Y-48312782D01*
X204044800Y-48312782D02*
X204092419Y-48455639D01*
X204092419Y-48455639D02*
X204092419Y-48693734D01*
X203806704Y-47741353D02*
X203806704Y-47265163D01*
X204092419Y-47836591D02*
X203092419Y-47503258D01*
X203092419Y-47503258D02*
X204092419Y-47169925D01*
X208806704Y-49693734D02*
X208806704Y-49217544D01*
X209092419Y-49788972D02*
X208092419Y-49455639D01*
X208092419Y-49455639D02*
X209092419Y-49122306D01*
X209092419Y-48788972D02*
X208092419Y-48788972D01*
X208092419Y-48788972D02*
X208092419Y-48550877D01*
X208092419Y-48550877D02*
X208140038Y-48408020D01*
X208140038Y-48408020D02*
X208235276Y-48312782D01*
X208235276Y-48312782D02*
X208330514Y-48265163D01*
X208330514Y-48265163D02*
X208520990Y-48217544D01*
X208520990Y-48217544D02*
X208663847Y-48217544D01*
X208663847Y-48217544D02*
X208854323Y-48265163D01*
X208854323Y-48265163D02*
X208949561Y-48312782D01*
X208949561Y-48312782D02*
X209044800Y-48408020D01*
X209044800Y-48408020D02*
X209092419Y-48550877D01*
X209092419Y-48550877D02*
X209092419Y-48788972D01*
X208092419Y-47598496D02*
X208092419Y-47503258D01*
X208092419Y-47503258D02*
X208140038Y-47408020D01*
X208140038Y-47408020D02*
X208187657Y-47360401D01*
X208187657Y-47360401D02*
X208282895Y-47312782D01*
X208282895Y-47312782D02*
X208473371Y-47265163D01*
X208473371Y-47265163D02*
X208711466Y-47265163D01*
X208711466Y-47265163D02*
X208901942Y-47312782D01*
X208901942Y-47312782D02*
X208997180Y-47360401D01*
X208997180Y-47360401D02*
X209044800Y-47408020D01*
X209044800Y-47408020D02*
X209092419Y-47503258D01*
X209092419Y-47503258D02*
X209092419Y-47598496D01*
X209092419Y-47598496D02*
X209044800Y-47693734D01*
X209044800Y-47693734D02*
X208997180Y-47741353D01*
X208997180Y-47741353D02*
X208901942Y-47788972D01*
X208901942Y-47788972D02*
X208711466Y-47836591D01*
X208711466Y-47836591D02*
X208473371Y-47836591D01*
X208473371Y-47836591D02*
X208282895Y-47788972D01*
X208282895Y-47788972D02*
X208187657Y-47741353D01*
X208187657Y-47741353D02*
X208140038Y-47693734D01*
X208140038Y-47693734D02*
X208092419Y-47598496D01*
X192842419Y-49788972D02*
X193842419Y-49455639D01*
X193842419Y-49455639D02*
X192842419Y-49122306D01*
X193747180Y-48217544D02*
X193794800Y-48265163D01*
X193794800Y-48265163D02*
X193842419Y-48408020D01*
X193842419Y-48408020D02*
X193842419Y-48503258D01*
X193842419Y-48503258D02*
X193794800Y-48646115D01*
X193794800Y-48646115D02*
X193699561Y-48741353D01*
X193699561Y-48741353D02*
X193604323Y-48788972D01*
X193604323Y-48788972D02*
X193413847Y-48836591D01*
X193413847Y-48836591D02*
X193270990Y-48836591D01*
X193270990Y-48836591D02*
X193080514Y-48788972D01*
X193080514Y-48788972D02*
X192985276Y-48741353D01*
X192985276Y-48741353D02*
X192890038Y-48646115D01*
X192890038Y-48646115D02*
X192842419Y-48503258D01*
X192842419Y-48503258D02*
X192842419Y-48408020D01*
X192842419Y-48408020D02*
X192890038Y-48265163D01*
X192890038Y-48265163D02*
X192937657Y-48217544D01*
X193747180Y-47217544D02*
X193794800Y-47265163D01*
X193794800Y-47265163D02*
X193842419Y-47408020D01*
X193842419Y-47408020D02*
X193842419Y-47503258D01*
X193842419Y-47503258D02*
X193794800Y-47646115D01*
X193794800Y-47646115D02*
X193699561Y-47741353D01*
X193699561Y-47741353D02*
X193604323Y-47788972D01*
X193604323Y-47788972D02*
X193413847Y-47836591D01*
X193413847Y-47836591D02*
X193270990Y-47836591D01*
X193270990Y-47836591D02*
X193080514Y-47788972D01*
X193080514Y-47788972D02*
X192985276Y-47741353D01*
X192985276Y-47741353D02*
X192890038Y-47646115D01*
X192890038Y-47646115D02*
X192842419Y-47503258D01*
X192842419Y-47503258D02*
X192842419Y-47408020D01*
X192842419Y-47408020D02*
X192890038Y-47265163D01*
X192890038Y-47265163D02*
X192937657Y-47217544D01*
X198794800Y-49693734D02*
X198842419Y-49550877D01*
X198842419Y-49550877D02*
X198842419Y-49312782D01*
X198842419Y-49312782D02*
X198794800Y-49217544D01*
X198794800Y-49217544D02*
X198747180Y-49169925D01*
X198747180Y-49169925D02*
X198651942Y-49122306D01*
X198651942Y-49122306D02*
X198556704Y-49122306D01*
X198556704Y-49122306D02*
X198461466Y-49169925D01*
X198461466Y-49169925D02*
X198413847Y-49217544D01*
X198413847Y-49217544D02*
X198366228Y-49312782D01*
X198366228Y-49312782D02*
X198318609Y-49503258D01*
X198318609Y-49503258D02*
X198270990Y-49598496D01*
X198270990Y-49598496D02*
X198223371Y-49646115D01*
X198223371Y-49646115D02*
X198128133Y-49693734D01*
X198128133Y-49693734D02*
X198032895Y-49693734D01*
X198032895Y-49693734D02*
X197937657Y-49646115D01*
X197937657Y-49646115D02*
X197890038Y-49598496D01*
X197890038Y-49598496D02*
X197842419Y-49503258D01*
X197842419Y-49503258D02*
X197842419Y-49265163D01*
X197842419Y-49265163D02*
X197890038Y-49122306D01*
X198747180Y-48122306D02*
X198794800Y-48169925D01*
X198794800Y-48169925D02*
X198842419Y-48312782D01*
X198842419Y-48312782D02*
X198842419Y-48408020D01*
X198842419Y-48408020D02*
X198794800Y-48550877D01*
X198794800Y-48550877D02*
X198699561Y-48646115D01*
X198699561Y-48646115D02*
X198604323Y-48693734D01*
X198604323Y-48693734D02*
X198413847Y-48741353D01*
X198413847Y-48741353D02*
X198270990Y-48741353D01*
X198270990Y-48741353D02*
X198080514Y-48693734D01*
X198080514Y-48693734D02*
X197985276Y-48646115D01*
X197985276Y-48646115D02*
X197890038Y-48550877D01*
X197890038Y-48550877D02*
X197842419Y-48408020D01*
X197842419Y-48408020D02*
X197842419Y-48312782D01*
X197842419Y-48312782D02*
X197890038Y-48169925D01*
X197890038Y-48169925D02*
X197937657Y-48122306D01*
X198842419Y-47217544D02*
X198842419Y-47693734D01*
X198842419Y-47693734D02*
X197842419Y-47693734D01*
X211592419Y-49646115D02*
X210592419Y-49646115D01*
X211592419Y-49169925D02*
X210592419Y-49169925D01*
X210592419Y-49169925D02*
X211592419Y-48598497D01*
X211592419Y-48598497D02*
X210592419Y-48598497D01*
X210592419Y-48265163D02*
X210592419Y-47693735D01*
X211592419Y-47979449D02*
X210592419Y-47979449D01*
X201294800Y-49693734D02*
X201342419Y-49550877D01*
X201342419Y-49550877D02*
X201342419Y-49312782D01*
X201342419Y-49312782D02*
X201294800Y-49217544D01*
X201294800Y-49217544D02*
X201247180Y-49169925D01*
X201247180Y-49169925D02*
X201151942Y-49122306D01*
X201151942Y-49122306D02*
X201056704Y-49122306D01*
X201056704Y-49122306D02*
X200961466Y-49169925D01*
X200961466Y-49169925D02*
X200913847Y-49217544D01*
X200913847Y-49217544D02*
X200866228Y-49312782D01*
X200866228Y-49312782D02*
X200818609Y-49503258D01*
X200818609Y-49503258D02*
X200770990Y-49598496D01*
X200770990Y-49598496D02*
X200723371Y-49646115D01*
X200723371Y-49646115D02*
X200628133Y-49693734D01*
X200628133Y-49693734D02*
X200532895Y-49693734D01*
X200532895Y-49693734D02*
X200437657Y-49646115D01*
X200437657Y-49646115D02*
X200390038Y-49598496D01*
X200390038Y-49598496D02*
X200342419Y-49503258D01*
X200342419Y-49503258D02*
X200342419Y-49265163D01*
X200342419Y-49265163D02*
X200390038Y-49122306D01*
X201342419Y-48693734D02*
X200342419Y-48693734D01*
X200342419Y-48693734D02*
X200342419Y-48455639D01*
X200342419Y-48455639D02*
X200390038Y-48312782D01*
X200390038Y-48312782D02*
X200485276Y-48217544D01*
X200485276Y-48217544D02*
X200580514Y-48169925D01*
X200580514Y-48169925D02*
X200770990Y-48122306D01*
X200770990Y-48122306D02*
X200913847Y-48122306D01*
X200913847Y-48122306D02*
X201104323Y-48169925D01*
X201104323Y-48169925D02*
X201199561Y-48217544D01*
X201199561Y-48217544D02*
X201294800Y-48312782D01*
X201294800Y-48312782D02*
X201342419Y-48455639D01*
X201342419Y-48455639D02*
X201342419Y-48693734D01*
X201056704Y-47741353D02*
X201056704Y-47265163D01*
X201342419Y-47836591D02*
X200342419Y-47503258D01*
X200342419Y-47503258D02*
X201342419Y-47169925D01*
D12*
X186549819Y-26343333D02*
X187264104Y-26343333D01*
X187264104Y-26343333D02*
X187406961Y-26390952D01*
X187406961Y-26390952D02*
X187502200Y-26486190D01*
X187502200Y-26486190D02*
X187549819Y-26629047D01*
X187549819Y-26629047D02*
X187549819Y-26724285D01*
X187549819Y-25343333D02*
X187549819Y-25914761D01*
X187549819Y-25629047D02*
X186549819Y-25629047D01*
X186549819Y-25629047D02*
X186692676Y-25724285D01*
X186692676Y-25724285D02*
X186787914Y-25819523D01*
X186787914Y-25819523D02*
X186835533Y-25914761D01*
D13*
X178450477Y-32909904D02*
X178388572Y-32878952D01*
X178388572Y-32878952D02*
X178295715Y-32878952D01*
X178295715Y-32878952D02*
X178202858Y-32909904D01*
X178202858Y-32909904D02*
X178140953Y-32971809D01*
X178140953Y-32971809D02*
X178110000Y-33033714D01*
X178110000Y-33033714D02*
X178079048Y-33157523D01*
X178079048Y-33157523D02*
X178079048Y-33250380D01*
X178079048Y-33250380D02*
X178110000Y-33374190D01*
X178110000Y-33374190D02*
X178140953Y-33436095D01*
X178140953Y-33436095D02*
X178202858Y-33498000D01*
X178202858Y-33498000D02*
X178295715Y-33528952D01*
X178295715Y-33528952D02*
X178357619Y-33528952D01*
X178357619Y-33528952D02*
X178450477Y-33498000D01*
X178450477Y-33498000D02*
X178481429Y-33467047D01*
X178481429Y-33467047D02*
X178481429Y-33250380D01*
X178481429Y-33250380D02*
X178357619Y-33250380D01*
X178760000Y-33528952D02*
X178760000Y-32878952D01*
X178760000Y-32878952D02*
X179131429Y-33528952D01*
X179131429Y-33528952D02*
X179131429Y-32878952D01*
X179440952Y-33528952D02*
X179440952Y-32878952D01*
X179440952Y-32878952D02*
X179595714Y-32878952D01*
X179595714Y-32878952D02*
X179688571Y-32909904D01*
X179688571Y-32909904D02*
X179750476Y-32971809D01*
X179750476Y-32971809D02*
X179781429Y-33033714D01*
X179781429Y-33033714D02*
X179812381Y-33157523D01*
X179812381Y-33157523D02*
X179812381Y-33250380D01*
X179812381Y-33250380D02*
X179781429Y-33374190D01*
X179781429Y-33374190D02*
X179750476Y-33436095D01*
X179750476Y-33436095D02*
X179688571Y-33498000D01*
X179688571Y-33498000D02*
X179595714Y-33528952D01*
X179595714Y-33528952D02*
X179440952Y-33528952D01*
X181205238Y-32878952D02*
X181329047Y-32878952D01*
X181329047Y-32878952D02*
X181390952Y-32909904D01*
X181390952Y-32909904D02*
X181452857Y-32971809D01*
X181452857Y-32971809D02*
X181483809Y-33095619D01*
X181483809Y-33095619D02*
X181483809Y-33312285D01*
X181483809Y-33312285D02*
X181452857Y-33436095D01*
X181452857Y-33436095D02*
X181390952Y-33498000D01*
X181390952Y-33498000D02*
X181329047Y-33528952D01*
X181329047Y-33528952D02*
X181205238Y-33528952D01*
X181205238Y-33528952D02*
X181143333Y-33498000D01*
X181143333Y-33498000D02*
X181081428Y-33436095D01*
X181081428Y-33436095D02*
X181050476Y-33312285D01*
X181050476Y-33312285D02*
X181050476Y-33095619D01*
X181050476Y-33095619D02*
X181081428Y-32971809D01*
X181081428Y-32971809D02*
X181143333Y-32909904D01*
X181143333Y-32909904D02*
X181205238Y-32878952D01*
X181762380Y-32878952D02*
X181762380Y-33405142D01*
X181762380Y-33405142D02*
X181793333Y-33467047D01*
X181793333Y-33467047D02*
X181824285Y-33498000D01*
X181824285Y-33498000D02*
X181886190Y-33528952D01*
X181886190Y-33528952D02*
X182009999Y-33528952D01*
X182009999Y-33528952D02*
X182071904Y-33498000D01*
X182071904Y-33498000D02*
X182102857Y-33467047D01*
X182102857Y-33467047D02*
X182133809Y-33405142D01*
X182133809Y-33405142D02*
X182133809Y-32878952D01*
X182350475Y-32878952D02*
X182721904Y-32878952D01*
X182536190Y-33528952D02*
X182536190Y-32878952D01*
X183929046Y-33528952D02*
X183929046Y-32878952D01*
X184238570Y-33528952D02*
X184238570Y-32878952D01*
X184238570Y-32878952D02*
X184609999Y-33528952D01*
X184609999Y-33528952D02*
X184609999Y-32878952D01*
D14*
%TO.C,SW9*%
X197825000Y-63145000D02*
X197825000Y-65655000D01*
X197825000Y-63145000D02*
X210045000Y-63145000D01*
X197825000Y-67955000D02*
X197825000Y-70555000D01*
X197825000Y-72855000D02*
X197825000Y-75365000D01*
X210045000Y-63145000D02*
X210045000Y-65655000D01*
X210045000Y-67955000D02*
X210045000Y-70555000D01*
X210045000Y-72855000D02*
X210045000Y-75365000D01*
X210045000Y-75365000D02*
X197825000Y-75365000D01*
X207485000Y-69255000D02*
G75*
G02*
X200385000Y-69255000I-3550000J0D01*
G01*
X200385000Y-69255000D02*
G75*
G02*
X207485000Y-69255000I3550000J0D01*
G01*
%TO.C,SW8*%
X197725000Y-83425000D02*
X197725000Y-85935000D01*
X197725000Y-83425000D02*
X209945000Y-83425000D01*
X197725000Y-88235000D02*
X197725000Y-90835000D01*
X197725000Y-93135000D02*
X197725000Y-95645000D01*
X209945000Y-83425000D02*
X209945000Y-85935000D01*
X209945000Y-88235000D02*
X209945000Y-90835000D01*
X209945000Y-93135000D02*
X209945000Y-95645000D01*
X209945000Y-95645000D02*
X197725000Y-95645000D01*
X207385000Y-89535000D02*
G75*
G02*
X200285000Y-89535000I-3550000J0D01*
G01*
X200285000Y-89535000D02*
G75*
G02*
X207385000Y-89535000I3550000J0D01*
G01*
%TO.C,MPU1*%
D11*
X191970000Y-52450000D02*
X212470000Y-52450000D01*
X212470000Y-36450000D01*
X191970000Y-36450000D01*
X191970000Y-52450000D01*
%TO.C,SW5*%
X212680000Y-57780000D02*
X203680000Y-57780000D01*
X203680000Y-53780000D01*
X212680000Y-53780000D01*
X212680000Y-57780000D01*
D14*
%TO.C,SW6*%
X179845000Y-83465000D02*
X192065000Y-83465000D01*
X179845000Y-85975000D02*
X179845000Y-83465000D01*
X179845000Y-90875000D02*
X179845000Y-88275000D01*
X179845000Y-95685000D02*
X179845000Y-93175000D01*
X192065000Y-85975000D02*
X192065000Y-83465000D01*
X192065000Y-90875000D02*
X192065000Y-88275000D01*
X192065000Y-95685000D02*
X179845000Y-95685000D01*
X192065000Y-95685000D02*
X192065000Y-93175000D01*
X189505000Y-89575000D02*
G75*
G02*
X182405000Y-89575000I-3550000J0D01*
G01*
X182405000Y-89575000D02*
G75*
G02*
X189505000Y-89575000I3550000J0D01*
G01*
D15*
%TO.C,G\u002A\u002A\u002A*%
G36*
X212647188Y-29845000D02*
G01*
X212647188Y-34847188D01*
X207645000Y-34847188D01*
X202642812Y-34847188D01*
X202642812Y-30202242D01*
X203629319Y-30202242D01*
X203632204Y-30237897D01*
X203640290Y-30295253D01*
X203652681Y-30369918D01*
X203668484Y-30457501D01*
X203686806Y-30553610D01*
X203706751Y-30653854D01*
X203727427Y-30753841D01*
X203747940Y-30849180D01*
X203767395Y-30935480D01*
X203784898Y-31008348D01*
X203799556Y-31063394D01*
X203810475Y-31096227D01*
X203811935Y-31099361D01*
X203827601Y-31125001D01*
X203848372Y-31147095D01*
X203877601Y-31167090D01*
X203918640Y-31186428D01*
X203974839Y-31206555D01*
X204049550Y-31228915D01*
X204146126Y-31254952D01*
X204212943Y-31272171D01*
X204304810Y-31295330D01*
X204377221Y-31312445D01*
X204437583Y-31324586D01*
X204493302Y-31332824D01*
X204551787Y-31338229D01*
X204620443Y-31341871D01*
X204706679Y-31344822D01*
X204718024Y-31345164D01*
X204966048Y-31352604D01*
X205080258Y-31637450D01*
X205114530Y-31722446D01*
X205146253Y-31800223D01*
X205173670Y-31866543D01*
X205195024Y-31917168D01*
X205208557Y-31947860D01*
X205211337Y-31953516D01*
X205229096Y-31977437D01*
X205256403Y-31997835D01*
X205296470Y-32015712D01*
X205352511Y-32032073D01*
X205427740Y-32047920D01*
X205525371Y-32064258D01*
X205602440Y-32075626D01*
X205686302Y-32087936D01*
X205760719Y-32099583D01*
X205821313Y-32109823D01*
X205863703Y-32117911D01*
X205883510Y-32123103D01*
X205884203Y-32123530D01*
X205877505Y-32135636D01*
X205854833Y-32167900D01*
X205817448Y-32218678D01*
X205766607Y-32286326D01*
X205703569Y-32369198D01*
X205629593Y-32465651D01*
X205545937Y-32574041D01*
X205453860Y-32692722D01*
X205354621Y-32820050D01*
X205249478Y-32954381D01*
X205200990Y-33016145D01*
X205092737Y-33154092D01*
X204989123Y-33286468D01*
X204891487Y-33411545D01*
X204801167Y-33527594D01*
X204719498Y-33632886D01*
X204647819Y-33725691D01*
X204587468Y-33804280D01*
X204539780Y-33866925D01*
X204506094Y-33911896D01*
X204487747Y-33937464D01*
X204485009Y-33941859D01*
X204468583Y-33995903D01*
X204464335Y-34062345D01*
X204472036Y-34128721D01*
X204489370Y-34178810D01*
X204530105Y-34227620D01*
X204587922Y-34260672D01*
X204655987Y-34276361D01*
X204727465Y-34273083D01*
X204793611Y-34250256D01*
X204812199Y-34238158D01*
X204851492Y-34210786D01*
X204909822Y-34169347D01*
X204985520Y-34115052D01*
X205076919Y-34049108D01*
X205182349Y-33972725D01*
X205300143Y-33887111D01*
X205428633Y-33793475D01*
X205566150Y-33693027D01*
X205711025Y-33586974D01*
X205861591Y-33476526D01*
X205873391Y-33467861D01*
X206901619Y-32712704D01*
X207134608Y-33005302D01*
X207211429Y-33100444D01*
X207279289Y-33181808D01*
X207336445Y-33247409D01*
X207381154Y-33295265D01*
X207411672Y-33323392D01*
X207418263Y-33327965D01*
X207442701Y-33340704D01*
X207469178Y-33349280D01*
X207503700Y-33354490D01*
X207552275Y-33357130D01*
X207620909Y-33357997D01*
X207645000Y-33358031D01*
X207720456Y-33357523D01*
X207774140Y-33355470D01*
X207812058Y-33351074D01*
X207840217Y-33343539D01*
X207864624Y-33332069D01*
X207871737Y-33327965D01*
X207897251Y-33306700D01*
X207937525Y-33265058D01*
X207990814Y-33205025D01*
X208055376Y-33128583D01*
X208129467Y-33037715D01*
X208155391Y-33005302D01*
X208388380Y-32712704D01*
X209416608Y-33467861D01*
X209567544Y-33578597D01*
X209712917Y-33685032D01*
X209851061Y-33785956D01*
X209980306Y-33880160D01*
X210098984Y-33966435D01*
X210205428Y-34043573D01*
X210297968Y-34110365D01*
X210374937Y-34165602D01*
X210434665Y-34208075D01*
X210475486Y-34236575D01*
X210495730Y-34249894D01*
X210496388Y-34250256D01*
X210564180Y-34273403D01*
X210635100Y-34276319D01*
X210702463Y-34260663D01*
X210759588Y-34228095D01*
X210799789Y-34180273D01*
X210802882Y-34174172D01*
X210820747Y-34114853D01*
X210826035Y-34046289D01*
X210818633Y-33980854D01*
X210804990Y-33941859D01*
X210793124Y-33924500D01*
X210765387Y-33887049D01*
X210723115Y-33831235D01*
X210667647Y-33758789D01*
X210600319Y-33671438D01*
X210522469Y-33570912D01*
X210435433Y-33458940D01*
X210340550Y-33337251D01*
X210239157Y-33207575D01*
X210132591Y-33071639D01*
X210089009Y-33016145D01*
X209981638Y-32879220D01*
X209879609Y-32748564D01*
X209784181Y-32625821D01*
X209696612Y-32512637D01*
X209618161Y-32410655D01*
X209550087Y-32321519D01*
X209493649Y-32246875D01*
X209450104Y-32188367D01*
X209420712Y-32147639D01*
X209406731Y-32126336D01*
X209405797Y-32123530D01*
X209422312Y-32118774D01*
X209461985Y-32111024D01*
X209520437Y-32101025D01*
X209593288Y-32089520D01*
X209676159Y-32077254D01*
X209687560Y-32075626D01*
X209801491Y-32058430D01*
X209890929Y-32042378D01*
X209959088Y-32026466D01*
X210009182Y-32009689D01*
X210044424Y-31991045D01*
X210068030Y-31969530D01*
X210078663Y-31953516D01*
X210088666Y-31931753D01*
X210107176Y-31888405D01*
X210132435Y-31827707D01*
X210162687Y-31753898D01*
X210196173Y-31671216D01*
X210209741Y-31637450D01*
X210323952Y-31352604D01*
X210571976Y-31345164D01*
X210660700Y-31342225D01*
X210730997Y-31338716D01*
X210790271Y-31333567D01*
X210845932Y-31325709D01*
X210905385Y-31314069D01*
X210976039Y-31297579D01*
X211065299Y-31275167D01*
X211077057Y-31272171D01*
X211187738Y-31243362D01*
X211274627Y-31219062D01*
X211341074Y-31197826D01*
X211390431Y-31178210D01*
X211426049Y-31158769D01*
X211451280Y-31138060D01*
X211469475Y-31114638D01*
X211478065Y-31099361D01*
X211488191Y-31070971D01*
X211502225Y-31019599D01*
X211519271Y-30949636D01*
X211538434Y-30865473D01*
X211558819Y-30771501D01*
X211579532Y-30672110D01*
X211599678Y-30571691D01*
X211618362Y-30474635D01*
X211634690Y-30385332D01*
X211647766Y-30308174D01*
X211656696Y-30247549D01*
X211660585Y-30207851D01*
X211660681Y-30203267D01*
X211649550Y-30122029D01*
X211617157Y-30058279D01*
X211564857Y-30013355D01*
X211494004Y-29988596D01*
X211438758Y-29983949D01*
X211413877Y-29985241D01*
X211387100Y-29990089D01*
X211354841Y-29999954D01*
X211313509Y-30016297D01*
X211259515Y-30040578D01*
X211189271Y-30074258D01*
X211099188Y-30118797D01*
X211063162Y-30136794D01*
X210757714Y-30289639D01*
X210358487Y-30289639D01*
X209959260Y-30289639D01*
X209552458Y-30057547D01*
X209145656Y-29825456D01*
X209145656Y-29623055D01*
X209145656Y-29420654D01*
X209277239Y-29289619D01*
X209408821Y-29158583D01*
X209619781Y-29199210D01*
X209693744Y-29214225D01*
X209758416Y-29228804D01*
X209808676Y-29241680D01*
X209839401Y-29251587D01*
X209845994Y-29255180D01*
X209858480Y-29271463D01*
X209883331Y-29306764D01*
X209917657Y-29356876D01*
X209958565Y-29417588D01*
X209990181Y-29465064D01*
X210045873Y-29547309D01*
X210091168Y-29608602D01*
X210129746Y-29651948D01*
X210165286Y-29680357D01*
X210201470Y-29696836D01*
X210241978Y-29704392D01*
X210285043Y-29706050D01*
X210328319Y-29704523D01*
X210364984Y-29698116D01*
X210398163Y-29684090D01*
X210430977Y-29659703D01*
X210466549Y-29622216D01*
X210508000Y-29568889D01*
X210558452Y-29496983D01*
X210609118Y-29421652D01*
X210658657Y-29346842D01*
X210704165Y-29277243D01*
X210742890Y-29217133D01*
X210772082Y-29170787D01*
X210788989Y-29142482D01*
X210790466Y-29139728D01*
X210806046Y-29089754D01*
X210812563Y-29025508D01*
X210809998Y-28958862D01*
X210798333Y-28901691D01*
X210790858Y-28883633D01*
X210772627Y-28854696D01*
X210739778Y-28808903D01*
X210694902Y-28749433D01*
X210640588Y-28679463D01*
X210579428Y-28602170D01*
X210514012Y-28520734D01*
X210446930Y-28438331D01*
X210380774Y-28358139D01*
X210318133Y-28283335D01*
X210261598Y-28217099D01*
X210213761Y-28162608D01*
X210177211Y-28123038D01*
X210154539Y-28101569D01*
X210151721Y-28099620D01*
X210120605Y-28086097D01*
X210070316Y-28071712D01*
X209998556Y-28055944D01*
X209903028Y-28038268D01*
X209822028Y-28024684D01*
X209736848Y-28010491D01*
X209661072Y-27997214D01*
X209598968Y-27985652D01*
X209554805Y-27976608D01*
X209532849Y-27970882D01*
X209531391Y-27970120D01*
X209534118Y-27955879D01*
X209545072Y-27917243D01*
X209563627Y-27856159D01*
X209589157Y-27774574D01*
X209621037Y-27674435D01*
X209658639Y-27557688D01*
X209701339Y-27426281D01*
X209748510Y-27282161D01*
X209799527Y-27127274D01*
X209853763Y-26963568D01*
X209889186Y-26857134D01*
X209964456Y-26630743D01*
X210030727Y-26430079D01*
X210088162Y-26254630D01*
X210136922Y-26103886D01*
X210177169Y-25977337D01*
X210209063Y-25874472D01*
X210232767Y-25794781D01*
X210248442Y-25737752D01*
X210256249Y-25702876D01*
X210257254Y-25693423D01*
X210250427Y-25641426D01*
X210233528Y-25588081D01*
X210228667Y-25577683D01*
X210187848Y-25526214D01*
X210128338Y-25487331D01*
X210056996Y-25462698D01*
X209980684Y-25453978D01*
X209906263Y-25462834D01*
X209849166Y-25485682D01*
X209840747Y-25491693D01*
X209830426Y-25501582D01*
X209817502Y-25516472D01*
X209801270Y-25537486D01*
X209781030Y-25565745D01*
X209756079Y-25602372D01*
X209725714Y-25648489D01*
X209689233Y-25705219D01*
X209645934Y-25773685D01*
X209595114Y-25855008D01*
X209536072Y-25950312D01*
X209468104Y-26060718D01*
X209390509Y-26187348D01*
X209302584Y-26331326D01*
X209203626Y-26493774D01*
X209092934Y-26675814D01*
X208969805Y-26878568D01*
X208833536Y-27103160D01*
X208723673Y-27284327D01*
X208600557Y-27487309D01*
X208481346Y-27683704D01*
X208366837Y-27872206D01*
X208257827Y-28051510D01*
X208155112Y-28220312D01*
X208059488Y-28377306D01*
X207971752Y-28521188D01*
X207892699Y-28650652D01*
X207823127Y-28764395D01*
X207763831Y-28861110D01*
X207715609Y-28939493D01*
X207679255Y-28998238D01*
X207655567Y-29036042D01*
X207645341Y-29051599D01*
X207645000Y-29051937D01*
X207637127Y-29040268D01*
X207615658Y-29006132D01*
X207581389Y-28950833D01*
X207535115Y-28875677D01*
X207477635Y-28781968D01*
X207409743Y-28671011D01*
X207332237Y-28544112D01*
X207245912Y-28402574D01*
X207151565Y-28247704D01*
X207049992Y-28080806D01*
X206941990Y-27903185D01*
X206828354Y-27716145D01*
X206709882Y-27520993D01*
X206587369Y-27319032D01*
X206566326Y-27284327D01*
X206419869Y-27042831D01*
X206287071Y-26824003D01*
X206167230Y-26626722D01*
X206059645Y-26449864D01*
X205963612Y-26292308D01*
X205878430Y-26152931D01*
X205803395Y-26030610D01*
X205737807Y-25924224D01*
X205680961Y-25832649D01*
X205632157Y-25754763D01*
X205590691Y-25689445D01*
X205555862Y-25635571D01*
X205526967Y-25592019D01*
X205503303Y-25557668D01*
X205484169Y-25531393D01*
X205468861Y-25512073D01*
X205456678Y-25498586D01*
X205446918Y-25489809D01*
X205440834Y-25485682D01*
X205373497Y-25460433D01*
X205298386Y-25454186D01*
X205222364Y-25465277D01*
X205152290Y-25492045D01*
X205095026Y-25532824D01*
X205061333Y-25577683D01*
X205042844Y-25628182D01*
X205033162Y-25682455D01*
X205032746Y-25693423D01*
X205036584Y-25717146D01*
X205048208Y-25762760D01*
X205067777Y-25830775D01*
X205095455Y-25921702D01*
X205131401Y-26036052D01*
X205175779Y-26174334D01*
X205228749Y-26337060D01*
X205290472Y-26524740D01*
X205361111Y-26737885D01*
X205400813Y-26857134D01*
X205456752Y-27025383D01*
X205509863Y-27186035D01*
X205559522Y-27337144D01*
X205605103Y-27476761D01*
X205645980Y-27602941D01*
X205681526Y-27713736D01*
X205711116Y-27807200D01*
X205734124Y-27881385D01*
X205749924Y-27934344D01*
X205757891Y-27964131D01*
X205758609Y-27970120D01*
X205742352Y-27974971D01*
X205702908Y-27983325D01*
X205644544Y-27994379D01*
X205571529Y-28007334D01*
X205488129Y-28021387D01*
X205467971Y-28024684D01*
X205354699Y-28043979D01*
X205266780Y-28061008D01*
X205201917Y-28076292D01*
X205157813Y-28090354D01*
X205138279Y-28099620D01*
X205118937Y-28116772D01*
X205085159Y-28152709D01*
X205039536Y-28204253D01*
X204984657Y-28268226D01*
X204923113Y-28341451D01*
X204857495Y-28420751D01*
X204790394Y-28502946D01*
X204724400Y-28584860D01*
X204662103Y-28663314D01*
X204606095Y-28735131D01*
X204558965Y-28797133D01*
X204523305Y-28846142D01*
X204501705Y-28878981D01*
X204499141Y-28883633D01*
X204483714Y-28933430D01*
X204477394Y-28997602D01*
X204480163Y-29064278D01*
X204492003Y-29121585D01*
X204499533Y-29139728D01*
X204514035Y-29164475D01*
X204541296Y-29208004D01*
X204578568Y-29266038D01*
X204623098Y-29334300D01*
X204672137Y-29408514D01*
X204680882Y-29421652D01*
X204741121Y-29510967D01*
X204789781Y-29579439D01*
X204829983Y-29629809D01*
X204864849Y-29664817D01*
X204897502Y-29687201D01*
X204931064Y-29699704D01*
X204968657Y-29705063D01*
X205004956Y-29706050D01*
X205052477Y-29703941D01*
X205092372Y-29695609D01*
X205128321Y-29678046D01*
X205164004Y-29648245D01*
X205203101Y-29603199D01*
X205249291Y-29539898D01*
X205299818Y-29465064D01*
X205343656Y-29399360D01*
X205382974Y-29341254D01*
X205414882Y-29294955D01*
X205436486Y-29264671D01*
X205444005Y-29255180D01*
X205462389Y-29247346D01*
X205503003Y-29235875D01*
X205560727Y-29222034D01*
X205630437Y-29207091D01*
X205670218Y-29199210D01*
X205881178Y-29158583D01*
X206012761Y-29289619D01*
X206144343Y-29420654D01*
X206144343Y-29623055D01*
X206144343Y-29825456D01*
X205737541Y-30057547D01*
X205330739Y-30289639D01*
X204931512Y-30289639D01*
X204532285Y-30289639D01*
X204226838Y-30136794D01*
X204128933Y-30088111D01*
X204052105Y-30050809D01*
X203992783Y-30023433D01*
X203947398Y-30004525D01*
X203912378Y-29992628D01*
X203884155Y-29986286D01*
X203859157Y-29984042D01*
X203852266Y-29983949D01*
X203769831Y-29994871D01*
X203705064Y-30026728D01*
X203659357Y-30078155D01*
X203634105Y-30147789D01*
X203629319Y-30202242D01*
X202642812Y-30202242D01*
X202642812Y-29845000D01*
X202642812Y-24842812D01*
X207645000Y-24842812D01*
X212647188Y-24842812D01*
X212647188Y-29845000D01*
G37*
G36*
X209539801Y-26694472D02*
G01*
X209528370Y-26732172D01*
X209509634Y-26791501D01*
X209484359Y-26870100D01*
X209453310Y-26965609D01*
X209417255Y-27075669D01*
X209376959Y-27197921D01*
X209333188Y-27330006D01*
X209298247Y-27434983D01*
X209252146Y-27573654D01*
X209208799Y-27704853D01*
X209168996Y-27826140D01*
X209133523Y-27935073D01*
X209103169Y-28029212D01*
X209078723Y-28106116D01*
X209060973Y-28163343D01*
X209050707Y-28198454D01*
X209048391Y-28208723D01*
X209050094Y-28227061D01*
X209056988Y-28242701D01*
X209071753Y-28256463D01*
X209097070Y-28269166D01*
X209135619Y-28281630D01*
X209190080Y-28294672D01*
X209263133Y-28309113D01*
X209357457Y-28325771D01*
X209475734Y-28345466D01*
X209518751Y-28352490D01*
X209938078Y-28420766D01*
X210170614Y-28711318D01*
X210232466Y-28788789D01*
X210288445Y-28859267D01*
X210336241Y-28919812D01*
X210373544Y-28967488D01*
X210398045Y-28999356D01*
X210407425Y-29012462D01*
X210402229Y-29027663D01*
X210385521Y-29058548D01*
X210361726Y-29098145D01*
X210335266Y-29139488D01*
X210310563Y-29175607D01*
X210292041Y-29199532D01*
X210285043Y-29205297D01*
X210275227Y-29194381D01*
X210253450Y-29164551D01*
X210222835Y-29120235D01*
X210186502Y-29065860D01*
X210182731Y-29060125D01*
X210144457Y-29003953D01*
X210109627Y-28956666D01*
X210081949Y-28923049D01*
X210065134Y-28907888D01*
X210064554Y-28907670D01*
X210035689Y-28900243D01*
X209985158Y-28889023D01*
X209917548Y-28874888D01*
X209837449Y-28858718D01*
X209749449Y-28841391D01*
X209658136Y-28823786D01*
X209568099Y-28806781D01*
X209483926Y-28791256D01*
X209410207Y-28778090D01*
X209351529Y-28768161D01*
X209312481Y-28762348D01*
X209299740Y-28761192D01*
X209282764Y-28762594D01*
X209265111Y-28768355D01*
X209243958Y-28780806D01*
X209216485Y-28802279D01*
X209179870Y-28835106D01*
X209131292Y-28881619D01*
X209067929Y-28944149D01*
X209017581Y-28994386D01*
X208784387Y-29227580D01*
X208784387Y-29630899D01*
X208784716Y-29757092D01*
X208785766Y-29857787D01*
X208787629Y-29935268D01*
X208790399Y-29991820D01*
X208794170Y-30029727D01*
X208799034Y-30051275D01*
X208801756Y-30056441D01*
X208817263Y-30067925D01*
X208854342Y-30091500D01*
X208910362Y-30125605D01*
X208982691Y-30168678D01*
X209068696Y-30219158D01*
X209165745Y-30275483D01*
X209271206Y-30336091D01*
X209321479Y-30364786D01*
X209823834Y-30650908D01*
X210353394Y-30650908D01*
X210882954Y-30650908D01*
X211050952Y-30566693D01*
X211112869Y-30536347D01*
X211165503Y-30511859D01*
X211204130Y-30495328D01*
X211224025Y-30488855D01*
X211225562Y-30489092D01*
X211226260Y-30505460D01*
X211221355Y-30542527D01*
X211212196Y-30594083D01*
X211200130Y-30653921D01*
X211186507Y-30715833D01*
X211172676Y-30773610D01*
X211159984Y-30821044D01*
X211149782Y-30851928D01*
X211144913Y-30860333D01*
X211126927Y-30866602D01*
X211086644Y-30878064D01*
X211028793Y-30893456D01*
X210958107Y-30911511D01*
X210895215Y-30927091D01*
X210660830Y-30984387D01*
X210378327Y-30984387D01*
X210271548Y-30984960D01*
X210190148Y-30986770D01*
X210131739Y-30989953D01*
X210093934Y-30994645D01*
X210074342Y-31000982D01*
X210073235Y-31001756D01*
X210062123Y-31018986D01*
X210042577Y-31058467D01*
X210016218Y-31116543D01*
X209984666Y-31189556D01*
X209949542Y-31273851D01*
X209917519Y-31353071D01*
X209784393Y-31687017D01*
X209294825Y-31756025D01*
X209158984Y-31775300D01*
X209048141Y-31791543D01*
X208959758Y-31805470D01*
X208891296Y-31817794D01*
X208840218Y-31829231D01*
X208803986Y-31840495D01*
X208780061Y-31852301D01*
X208765905Y-31865364D01*
X208758979Y-31880398D01*
X208756747Y-31898117D01*
X208756597Y-31907572D01*
X208756746Y-31915374D01*
X208757998Y-31923510D01*
X208761559Y-31933596D01*
X208768636Y-31947246D01*
X208780437Y-31966076D01*
X208798169Y-31991702D01*
X208823038Y-32025738D01*
X208856251Y-32069801D01*
X208899016Y-32125505D01*
X208952538Y-32194466D01*
X209018026Y-32278300D01*
X209096686Y-32378621D01*
X209189726Y-32497045D01*
X209298351Y-32635188D01*
X209336268Y-32683400D01*
X209420923Y-32791156D01*
X209500136Y-32892208D01*
X209572284Y-32984472D01*
X209635748Y-33065865D01*
X209688908Y-33134305D01*
X209730142Y-33187710D01*
X209757832Y-33223995D01*
X209770357Y-33241080D01*
X209770930Y-33242119D01*
X209760057Y-33235215D01*
X209728718Y-33213235D01*
X209678833Y-33177569D01*
X209612319Y-33129609D01*
X209531097Y-33070745D01*
X209437085Y-33002368D01*
X209332202Y-32925870D01*
X209218368Y-32842641D01*
X209097501Y-32754072D01*
X209088534Y-32747494D01*
X208966120Y-32657824D01*
X208849704Y-32572825D01*
X208741327Y-32493971D01*
X208643029Y-32422731D01*
X208556851Y-32360577D01*
X208484832Y-32308980D01*
X208429013Y-32269413D01*
X208391434Y-32243345D01*
X208374134Y-32232248D01*
X208373968Y-32232170D01*
X208350544Y-32224001D01*
X208327904Y-32223440D01*
X208303438Y-32232665D01*
X208274535Y-32253851D01*
X208238585Y-32289175D01*
X208192975Y-32340813D01*
X208135096Y-32410942D01*
X208085592Y-32472563D01*
X207895109Y-32711119D01*
X207895109Y-31807060D01*
X207895124Y-31621732D01*
X207895063Y-31462254D01*
X207894770Y-31326688D01*
X207894384Y-31262140D01*
X208286336Y-31262140D01*
X208365148Y-31285057D01*
X208522723Y-31330769D01*
X208672106Y-31373899D01*
X208811129Y-31413831D01*
X208937623Y-31449954D01*
X209049419Y-31481653D01*
X209144347Y-31508314D01*
X209220240Y-31529324D01*
X209274928Y-31544069D01*
X209306241Y-31551936D01*
X209312564Y-31553104D01*
X209328166Y-31543932D01*
X209360036Y-31517719D01*
X209405036Y-31477315D01*
X209460027Y-31425569D01*
X209521871Y-31365331D01*
X209547734Y-31339586D01*
X209618835Y-31267924D01*
X209672021Y-31213029D01*
X209709389Y-31172391D01*
X209733035Y-31143494D01*
X209745059Y-31123827D01*
X209747556Y-31110877D01*
X209744373Y-31103980D01*
X209733822Y-31080131D01*
X209735816Y-31068365D01*
X209741054Y-31054888D01*
X209739885Y-31053862D01*
X209725749Y-31050934D01*
X209687194Y-31042551D01*
X209626922Y-31029308D01*
X209547638Y-31011804D01*
X209452043Y-30990637D01*
X209342842Y-30966403D01*
X209222737Y-30939702D01*
X209110317Y-30914670D01*
X208982257Y-30886306D01*
X208862190Y-30860042D01*
X208752904Y-30836463D01*
X208657184Y-30816157D01*
X208577817Y-30799707D01*
X208517588Y-30787701D01*
X208479285Y-30780725D01*
X208466003Y-30779194D01*
X208454375Y-30793627D01*
X208436067Y-30832247D01*
X208412107Y-30892539D01*
X208383525Y-30971991D01*
X208366348Y-31022525D01*
X208286336Y-31262140D01*
X207894384Y-31262140D01*
X207894090Y-31213096D01*
X207892865Y-31119538D01*
X207890939Y-31044076D01*
X207888157Y-30984771D01*
X207884361Y-30939684D01*
X207879395Y-30906876D01*
X207873103Y-30884409D01*
X207865329Y-30870343D01*
X207855916Y-30862740D01*
X207844709Y-30859661D01*
X207831549Y-30859168D01*
X207818687Y-30859332D01*
X207793813Y-30862701D01*
X207772419Y-30875683D01*
X207750804Y-30902588D01*
X207725267Y-30947728D01*
X207701369Y-30996034D01*
X207678013Y-31042544D01*
X207658598Y-31077434D01*
X207646528Y-31094690D01*
X207645000Y-31095547D01*
X207635432Y-31083934D01*
X207617620Y-31053104D01*
X207594971Y-31009071D01*
X207588630Y-30996034D01*
X207557738Y-30934423D01*
X207533536Y-30894274D01*
X207512324Y-30871277D01*
X207490403Y-30861119D01*
X207471313Y-30859332D01*
X207456368Y-30859153D01*
X207443508Y-30859908D01*
X207432577Y-30863535D01*
X207423417Y-30871975D01*
X207415873Y-30887165D01*
X207409788Y-30911044D01*
X207405005Y-30945551D01*
X207401370Y-30992625D01*
X207398724Y-31054205D01*
X207396912Y-31132230D01*
X207395778Y-31228638D01*
X207395165Y-31345368D01*
X207394917Y-31484359D01*
X207394877Y-31647550D01*
X207394890Y-31807060D01*
X207394890Y-32711119D01*
X207204407Y-32472563D01*
X207136327Y-32388115D01*
X207082354Y-32323689D01*
X207039878Y-32277110D01*
X207006287Y-32246200D01*
X206978970Y-32228784D01*
X206955317Y-32222684D01*
X206932717Y-32225725D01*
X206916031Y-32232170D01*
X206899303Y-32242845D01*
X206862241Y-32268531D01*
X206806884Y-32307756D01*
X206735273Y-32359049D01*
X206649448Y-32420939D01*
X206551449Y-32491955D01*
X206443316Y-32570624D01*
X206327089Y-32655477D01*
X206204808Y-32745041D01*
X206201465Y-32747494D01*
X206080164Y-32836395D01*
X205965757Y-32920057D01*
X205860162Y-32997089D01*
X205765299Y-33066100D01*
X205683087Y-33125699D01*
X205615445Y-33174495D01*
X205564291Y-33211097D01*
X205531546Y-33234114D01*
X205519128Y-33242155D01*
X205519070Y-33242119D01*
X205527402Y-33230347D01*
X205551320Y-33198835D01*
X205589202Y-33149665D01*
X205639428Y-33084919D01*
X205700379Y-33006681D01*
X205770433Y-32917033D01*
X205847971Y-32818057D01*
X205931373Y-32711838D01*
X205953732Y-32683400D01*
X206067555Y-32538663D01*
X206165408Y-32414157D01*
X206248500Y-32308267D01*
X206318036Y-32219377D01*
X206375225Y-32145872D01*
X206421272Y-32086137D01*
X206457385Y-32038555D01*
X206484770Y-32001513D01*
X206504636Y-31973394D01*
X206518188Y-31952582D01*
X206526633Y-31937464D01*
X206531179Y-31926422D01*
X206533033Y-31917843D01*
X206533401Y-31910109D01*
X206533402Y-31907572D01*
X206532498Y-31888344D01*
X206528094Y-31872137D01*
X206517651Y-31858238D01*
X206498631Y-31845930D01*
X206468496Y-31834501D01*
X206424708Y-31823234D01*
X206364729Y-31811415D01*
X206286021Y-31798330D01*
X206186045Y-31783264D01*
X206062263Y-31765503D01*
X205995174Y-31756025D01*
X205505606Y-31687017D01*
X205372480Y-31353071D01*
X205335574Y-31261965D01*
X205300837Y-31178978D01*
X205272387Y-31113507D01*
X205542286Y-31113507D01*
X205546879Y-31127840D01*
X205561500Y-31149493D01*
X205588249Y-31180979D01*
X205629222Y-31224810D01*
X205686516Y-31283499D01*
X205742265Y-31339586D01*
X205805576Y-31402369D01*
X205862773Y-31457899D01*
X205910821Y-31503326D01*
X205946684Y-31535802D01*
X205967329Y-31552474D01*
X205970675Y-31554081D01*
X205987108Y-31550395D01*
X206026900Y-31539955D01*
X206086704Y-31523684D01*
X206163172Y-31502505D01*
X206252954Y-31477342D01*
X206352703Y-31449120D01*
X206401587Y-31435200D01*
X206509570Y-31404364D01*
X206613331Y-31374683D01*
X206708645Y-31347371D01*
X206791284Y-31323639D01*
X206857024Y-31304700D01*
X206901639Y-31291767D01*
X206910898Y-31289055D01*
X207003547Y-31261790D01*
X206923593Y-31022350D01*
X206892936Y-30933545D01*
X206866337Y-30862525D01*
X206844827Y-30811804D01*
X206829435Y-30783898D01*
X206823997Y-30779194D01*
X206806784Y-30781375D01*
X206765249Y-30789090D01*
X206702179Y-30801752D01*
X206620359Y-30818776D01*
X206522576Y-30839575D01*
X206411616Y-30863563D01*
X206290265Y-30890156D01*
X206179682Y-30914670D01*
X206052226Y-30943047D01*
X205933297Y-30969481D01*
X205825600Y-30993375D01*
X205731837Y-31014131D01*
X205654712Y-31031150D01*
X205596927Y-31043836D01*
X205561185Y-31051591D01*
X205550115Y-31053862D01*
X205551227Y-31063021D01*
X205554183Y-31068365D01*
X205553890Y-31089655D01*
X205545626Y-31103980D01*
X205542286Y-31113507D01*
X205272387Y-31113507D01*
X205269891Y-31107764D01*
X205244355Y-31051982D01*
X205225851Y-31015286D01*
X205216764Y-31001756D01*
X205198963Y-30995237D01*
X205163200Y-30990377D01*
X205107087Y-30987040D01*
X205028237Y-30985091D01*
X204924259Y-30984393D01*
X204911672Y-30984387D01*
X204629170Y-30984387D01*
X204394784Y-30927091D01*
X204317213Y-30907813D01*
X204248675Y-30890181D01*
X204193904Y-30875462D01*
X204157628Y-30864920D01*
X204145086Y-30860333D01*
X204137376Y-30844422D01*
X204126249Y-30807695D01*
X204113056Y-30756358D01*
X204099145Y-30696621D01*
X204085864Y-30634690D01*
X204074563Y-30576775D01*
X204066589Y-30529084D01*
X204063292Y-30497824D01*
X204064438Y-30489092D01*
X204078564Y-30492541D01*
X204112676Y-30506605D01*
X204162050Y-30529185D01*
X204221963Y-30558180D01*
X204239048Y-30566693D01*
X204407045Y-30650908D01*
X204936605Y-30650908D01*
X205466165Y-30650908D01*
X205968520Y-30364786D01*
X206076949Y-30302741D01*
X206178168Y-30244265D01*
X206269547Y-30190920D01*
X206348451Y-30144269D01*
X206412250Y-30105872D01*
X206458311Y-30077292D01*
X206484002Y-30060089D01*
X206488244Y-30056441D01*
X206493660Y-30041868D01*
X206497938Y-30012020D01*
X206501172Y-29964614D01*
X206503455Y-29897365D01*
X206504880Y-29807988D01*
X206505540Y-29694198D01*
X206505612Y-29630899D01*
X206505612Y-29227580D01*
X206272419Y-28994386D01*
X206197955Y-28920217D01*
X206140106Y-28863578D01*
X206096051Y-28822137D01*
X206062969Y-28793563D01*
X206038037Y-28775525D01*
X206018434Y-28765689D01*
X206001340Y-28761725D01*
X205990259Y-28761192D01*
X205966566Y-28763831D01*
X205920235Y-28771162D01*
X205855856Y-28782306D01*
X205778016Y-28796384D01*
X205691305Y-28812518D01*
X205600310Y-28829829D01*
X205509621Y-28847437D01*
X205423825Y-28864465D01*
X205347511Y-28880033D01*
X205285269Y-28893263D01*
X205241685Y-28903275D01*
X205225446Y-28907670D01*
X205209396Y-28921578D01*
X205182263Y-28954227D01*
X205147756Y-29000832D01*
X205109583Y-29056608D01*
X205107268Y-29060125D01*
X205070541Y-29115251D01*
X205039224Y-29160756D01*
X205016438Y-29192210D01*
X205005304Y-29205186D01*
X205004956Y-29205297D01*
X204993560Y-29194354D01*
X204972824Y-29166238D01*
X204947169Y-29127918D01*
X204921018Y-29086363D01*
X204898794Y-29048541D01*
X204884921Y-29021422D01*
X204882574Y-29012462D01*
X204892070Y-28999204D01*
X204916662Y-28967221D01*
X204954043Y-28919451D01*
X205001900Y-28858830D01*
X205057925Y-28788297D01*
X205119385Y-28711318D01*
X205351921Y-28420766D01*
X205771249Y-28352490D01*
X205897695Y-28331659D01*
X205999337Y-28314125D01*
X206078856Y-28299069D01*
X206138932Y-28285671D01*
X206182245Y-28273112D01*
X206211475Y-28260574D01*
X206229302Y-28247237D01*
X206238406Y-28232282D01*
X206241467Y-28214890D01*
X206241608Y-28208723D01*
X206237315Y-28191335D01*
X206224961Y-28150045D01*
X206205336Y-28087294D01*
X206179226Y-28005521D01*
X206147420Y-27907169D01*
X206110707Y-27794679D01*
X206069874Y-27670490D01*
X206025710Y-27537044D01*
X205991752Y-27434983D01*
X205945862Y-27297028D01*
X205902868Y-27167123D01*
X205863535Y-27047625D01*
X205828630Y-26940895D01*
X205798918Y-26849291D01*
X205775166Y-26775172D01*
X205758140Y-26720898D01*
X205748607Y-26688829D01*
X205746839Y-26680760D01*
X205754522Y-26691776D01*
X205775723Y-26725137D01*
X205809568Y-26779415D01*
X205855183Y-26853182D01*
X205911694Y-26945010D01*
X205978227Y-27053472D01*
X206053908Y-27177138D01*
X206137863Y-27314582D01*
X206229219Y-27464374D01*
X206327100Y-27625089D01*
X206430634Y-27795296D01*
X206538946Y-27973569D01*
X206639242Y-28138827D01*
X206751734Y-28324089D01*
X206860695Y-28503173D01*
X206965210Y-28674595D01*
X207064364Y-28836869D01*
X207157241Y-28988508D01*
X207242927Y-29128028D01*
X207320506Y-29253943D01*
X207389064Y-29364766D01*
X207447684Y-29459013D01*
X207495453Y-29535197D01*
X207531454Y-29591833D01*
X207554773Y-29627434D01*
X207563940Y-29640049D01*
X207610966Y-29672164D01*
X207660577Y-29677224D01*
X207709011Y-29655229D01*
X207726060Y-29640049D01*
X207737876Y-29623499D01*
X207763153Y-29584651D01*
X207800976Y-29524993D01*
X207850428Y-29446008D01*
X207910595Y-29349184D01*
X207980563Y-29236005D01*
X208059415Y-29107958D01*
X208146236Y-28966527D01*
X208240112Y-28813200D01*
X208340127Y-28649461D01*
X208445366Y-28476797D01*
X208554915Y-28296693D01*
X208650757Y-28138827D01*
X208762605Y-27954546D01*
X208870457Y-27777051D01*
X208973440Y-27607772D01*
X209070678Y-27448135D01*
X209161299Y-27299570D01*
X209244428Y-27163504D01*
X209319191Y-27041364D01*
X209384715Y-26934579D01*
X209440125Y-26844578D01*
X209484547Y-26772787D01*
X209517107Y-26720634D01*
X209536932Y-26689549D01*
X209543160Y-26680760D01*
X209539801Y-26694472D01*
G37*
D16*
%TO.C,U1*%
X179705000Y-160655000D02*
X210185000Y-160655000D01*
X210185000Y-160655000D02*
X210185000Y-142875000D01*
X207645000Y-145415000D02*
X207645000Y-142875000D01*
X210185000Y-145415000D02*
X207645000Y-145415000D01*
X179705000Y-142875000D02*
X179705000Y-160655000D01*
X210185000Y-142875000D02*
X179705000Y-142875000D01*
D14*
%TO.C,SW7*%
X179945000Y-103110000D02*
X179945000Y-105620000D01*
X179945000Y-103110000D02*
X192165000Y-103110000D01*
X179945000Y-107920000D02*
X179945000Y-110520000D01*
X179945000Y-112820000D02*
X179945000Y-115330000D01*
X192165000Y-103110000D02*
X192165000Y-105620000D01*
X192165000Y-107920000D02*
X192165000Y-110520000D01*
X192165000Y-112820000D02*
X192165000Y-115330000D01*
X192165000Y-115330000D02*
X179945000Y-115330000D01*
X189605000Y-109220000D02*
G75*
G02*
X182505000Y-109220000I-3550000J0D01*
G01*
X182505000Y-109220000D02*
G75*
G02*
X189605000Y-109220000I3550000J0D01*
G01*
%TO.C,J1*%
X188535000Y-24680000D02*
X189865000Y-24680000D01*
X188535000Y-26010000D02*
X188535000Y-24680000D01*
X191135000Y-24680000D02*
X201355000Y-24680000D01*
X191135000Y-27340000D02*
X191135000Y-24680000D01*
X191135000Y-27340000D02*
X201355000Y-27340000D01*
X201355000Y-27340000D02*
X201355000Y-24680000D01*
%TO.C,SW1*%
X197825000Y-103150000D02*
X197825000Y-105660000D01*
X197825000Y-103150000D02*
X210045000Y-103150000D01*
X197825000Y-107960000D02*
X197825000Y-110560000D01*
X197825000Y-112860000D02*
X197825000Y-115370000D01*
X210045000Y-103150000D02*
X210045000Y-105660000D01*
X210045000Y-107960000D02*
X210045000Y-110560000D01*
X210045000Y-112860000D02*
X210045000Y-115370000D01*
X210045000Y-115370000D02*
X197825000Y-115370000D01*
X207485000Y-109260000D02*
G75*
G02*
X200385000Y-109260000I-3550000J0D01*
G01*
X200385000Y-109260000D02*
G75*
G02*
X207485000Y-109260000I3550000J0D01*
G01*
D17*
%TO.C,U3*%
X177485000Y-56920000D02*
X177485000Y-40870000D01*
X190815000Y-56920000D02*
X177485000Y-56920000D01*
X177485000Y-40870000D02*
X190815000Y-40870000D01*
X190815000Y-40870000D02*
X190815000Y-56920000D01*
D14*
%TO.C,SW2*%
X197725000Y-123430000D02*
X209945000Y-123430000D01*
X197725000Y-125940000D02*
X197725000Y-123430000D01*
X197725000Y-130840000D02*
X197725000Y-128240000D01*
X197725000Y-135650000D02*
X197725000Y-133140000D01*
X209945000Y-125940000D02*
X209945000Y-123430000D01*
X209945000Y-130840000D02*
X209945000Y-128240000D01*
X209945000Y-135650000D02*
X197725000Y-135650000D01*
X209945000Y-135650000D02*
X209945000Y-133140000D01*
X207385000Y-129540000D02*
G75*
G02*
X200285000Y-129540000I-3550000J0D01*
G01*
X200285000Y-129540000D02*
G75*
G02*
X207385000Y-129540000I3550000J0D01*
G01*
%TO.C,SW3*%
X179945000Y-63105000D02*
X192165000Y-63105000D01*
X179945000Y-65615000D02*
X179945000Y-63105000D01*
X179945000Y-70515000D02*
X179945000Y-67915000D01*
X179945000Y-75325000D02*
X179945000Y-72815000D01*
X192165000Y-65615000D02*
X192165000Y-63105000D01*
X192165000Y-70515000D02*
X192165000Y-67915000D01*
X192165000Y-75325000D02*
X179945000Y-75325000D01*
X192165000Y-75325000D02*
X192165000Y-72815000D01*
X189605000Y-69215000D02*
G75*
G02*
X182505000Y-69215000I-3550000J0D01*
G01*
X182505000Y-69215000D02*
G75*
G02*
X189605000Y-69215000I3550000J0D01*
G01*
%TO.C,U2*%
D11*
X186110000Y-24515000D02*
X177110000Y-24515000D01*
X177110000Y-37515000D01*
X186110000Y-37515000D01*
X186110000Y-24515000D01*
D14*
%TO.C,SW4*%
X179945000Y-123430000D02*
X179945000Y-125940000D01*
X179945000Y-123430000D02*
X192165000Y-123430000D01*
X179945000Y-128240000D02*
X179945000Y-130840000D01*
X179945000Y-133140000D02*
X179945000Y-135650000D01*
X192165000Y-123430000D02*
X192165000Y-125940000D01*
X192165000Y-128240000D02*
X192165000Y-130840000D01*
X192165000Y-133140000D02*
X192165000Y-135650000D01*
X192165000Y-135650000D02*
X179945000Y-135650000D01*
X189605000Y-129540000D02*
G75*
G02*
X182505000Y-129540000I-3550000J0D01*
G01*
X182505000Y-129540000D02*
G75*
G02*
X189605000Y-129540000I3550000J0D01*
G01*
%TD*%
D18*
%TO.C,U1*%
X208915000Y-144145000D03*
D19*
X206375000Y-144145000D03*
X203835000Y-144145000D03*
X201295000Y-144145000D03*
X198755000Y-144145000D03*
X196215000Y-144145000D03*
X193675000Y-144145000D03*
X191135000Y-144145000D03*
X188595000Y-144145000D03*
X186055000Y-144145000D03*
X183515000Y-144145000D03*
X180975000Y-144145000D03*
X180975000Y-159385000D03*
X183515000Y-159385000D03*
X186055000Y-159385000D03*
X188595000Y-159385000D03*
X191135000Y-159385000D03*
X193675000Y-159385000D03*
X196215000Y-159385000D03*
X198755000Y-159385000D03*
X201295000Y-159385000D03*
X203835000Y-159385000D03*
X206375000Y-159385000D03*
X208915000Y-159385000D03*
%TD*%
M02*
