%TF.GenerationSoftware,KiCad,Pcbnew,8.0.6*%
%TF.CreationDate,2025-02-23T20:10:21-06:00*%
%TF.ProjectId,fullycustomcontrolle one hand,66756c6c-7963-4757-9374-6f6d636f6e74,rev?*%
%TF.SameCoordinates,Original*%
%TF.FileFunction,Soldermask,Top*%
%TF.FilePolarity,Negative*%
%FSLAX46Y46*%
G04 Gerber Fmt 4.6, Leading zero omitted, Abs format (unit mm)*
G04 Created by KiCad (PCBNEW 8.0.6) date 2025-02-23 20:10:21*
%MOMM*%
%LPD*%
G01*
G04 APERTURE LIST*
G04 Aperture macros list*
%AMRoundRect*
0 Rectangle with rounded corners*
0 $1 Rounding radius*
0 $2 $3 $4 $5 $6 $7 $8 $9 X,Y pos of 4 corners*
0 Add a 4 corners polygon primitive as box body*
4,1,4,$2,$3,$4,$5,$6,$7,$8,$9,$2,$3,0*
0 Add four circle primitives for the rounded corners*
1,1,$1+$1,$2,$3*
1,1,$1+$1,$4,$5*
1,1,$1+$1,$6,$7*
1,1,$1+$1,$8,$9*
0 Add four rect primitives between the rounded corners*
20,1,$1+$1,$2,$3,$4,$5,0*
20,1,$1+$1,$4,$5,$6,$7,0*
20,1,$1+$1,$6,$7,$8,$9,0*
20,1,$1+$1,$8,$9,$2,$3,0*%
G04 Aperture macros list end*
%ADD10O,3.200000X1.900000*%
%ADD11O,1.200000X2.000000*%
%ADD12R,1.752600X1.752600*%
%ADD13C,1.752600*%
%ADD14R,1.700000X1.700000*%
%ADD15O,1.700000X1.700000*%
%ADD16C,1.728000*%
%ADD17RoundRect,0.102000X0.762000X0.762000X-0.762000X0.762000X-0.762000X-0.762000X0.762000X-0.762000X0*%
%ADD18R,1.500000X2.300000*%
%ADD19O,1.500000X2.300000*%
G04 APERTURE END LIST*
D10*
%TO.C,SW9*%
X197685000Y-66755000D03*
X210185000Y-66755000D03*
X197685000Y-71755000D03*
X210185000Y-71755000D03*
%TD*%
%TO.C,SW8*%
X197585000Y-87035000D03*
X210085000Y-87035000D03*
X197585000Y-92035000D03*
X210085000Y-92035000D03*
%TD*%
D11*
%TO.C,MPU1*%
X193330000Y-50950000D03*
X195870000Y-50950000D03*
X198410000Y-50950000D03*
X200950000Y-50950000D03*
X203490000Y-50950000D03*
X206030000Y-50950000D03*
X208570000Y-50950000D03*
X211110000Y-50950000D03*
%TD*%
%TO.C,SW5*%
X210820000Y-55880000D03*
X208280000Y-55880000D03*
X205740000Y-55880000D03*
%TD*%
D10*
%TO.C,SW6*%
X192205000Y-92075000D03*
X179705000Y-92075000D03*
X192205000Y-87075000D03*
X179705000Y-87075000D03*
%TD*%
D12*
%TO.C,U1*%
X208915000Y-144145000D03*
D13*
X206375000Y-144145000D03*
X203835000Y-144145000D03*
X201295000Y-144145000D03*
X198755000Y-144145000D03*
X196215000Y-144145000D03*
X193675000Y-144145000D03*
X191135000Y-144145000D03*
X188595000Y-144145000D03*
X186055000Y-144145000D03*
X183515000Y-144145000D03*
X180975000Y-144145000D03*
X180975000Y-159385000D03*
X183515000Y-159385000D03*
X186055000Y-159385000D03*
X188595000Y-159385000D03*
X191135000Y-159385000D03*
X193675000Y-159385000D03*
X196215000Y-159385000D03*
X198755000Y-159385000D03*
X201295000Y-159385000D03*
X203835000Y-159385000D03*
X206375000Y-159385000D03*
X208915000Y-159385000D03*
%TD*%
D10*
%TO.C,SW7*%
X179805000Y-106720000D03*
X192305000Y-106720000D03*
X179805000Y-111720000D03*
X192305000Y-111720000D03*
%TD*%
D14*
%TO.C,J1*%
X189865000Y-26010000D03*
D15*
X192405000Y-26010000D03*
X194945000Y-26010000D03*
X197485000Y-26010000D03*
X200025000Y-26010000D03*
%TD*%
D10*
%TO.C,SW1*%
X197685000Y-106760000D03*
X210185000Y-106760000D03*
X197685000Y-111760000D03*
X210185000Y-111760000D03*
%TD*%
D16*
%TO.C,U3*%
X179070000Y-47625000D03*
X189230000Y-47625000D03*
X179070000Y-50165000D03*
D17*
X179070000Y-55245000D03*
D16*
X179070000Y-52705000D03*
X179070000Y-45085000D03*
X179070000Y-42545000D03*
X189230000Y-50165000D03*
D17*
X189230000Y-55245000D03*
D16*
X189230000Y-52705000D03*
X189230000Y-45085000D03*
X189230000Y-42545000D03*
%TD*%
D10*
%TO.C,SW2*%
X210085000Y-132040000D03*
X197585000Y-132040000D03*
X210085000Y-127040000D03*
X197585000Y-127040000D03*
%TD*%
%TO.C,SW3*%
X192305000Y-71715000D03*
X179805000Y-71715000D03*
X192305000Y-66715000D03*
X179805000Y-66715000D03*
%TD*%
D18*
%TO.C,U2*%
X184100000Y-36015000D03*
D19*
X181560000Y-36015000D03*
X179110000Y-36015000D03*
%TD*%
D10*
%TO.C,SW4*%
X179805000Y-127040000D03*
X192305000Y-127040000D03*
X179805000Y-132040000D03*
X192305000Y-132040000D03*
%TD*%
M02*
