M48
; DRILL file {KiCad 8.0.6} date 2025-02-23T20:10:17-0600
; FORMAT={-:-/ absolute / inch / decimal}
; #@! TF.CreationDate,2025-02-23T20:10:17-06:00
; #@! TF.GenerationSoftware,Kicad,Pcbnew,8.0.6
; #@! TF.FileFunction,Plated,1,2,PTH
FMAT,2
INCH
; #@! TA.AperFunction,Plated,PTH,ViaDrill
T1C0.0118
; #@! TA.AperFunction,Plated,PTH,ComponentDrill
T2C0.0315
; #@! TA.AperFunction,Plated,PTH,ComponentDrill
T3C0.0394
; #@! TA.AperFunction,Plated,PTH,ComponentDrill
T4C0.0400
; #@! TA.AperFunction,Plated,PTH,ComponentDrill
T5C0.0430
; #@! TA.AperFunction,Plated,PTH,ComponentDrill
T6C0.0512
%
G90
G05
T1
X6.9578Y-3.0751
X7.2177Y-5.4143
X7.3177Y-5.5313
X7.375Y-6.137
X7.4234Y-4.2545
X7.525Y-5.7736
X7.5892Y-1.1109
X7.6318Y-5.617
X7.861Y-6.2317
T2
X7.6114Y-2.0059
X7.7114Y-2.0059
X7.8114Y-2.0059
X7.9114Y-2.0059
X8.0114Y-2.0059
X8.1Y-2.2
X8.1114Y-2.0059
X8.2Y-2.2
X8.2114Y-2.0059
X8.3Y-2.2
X8.3114Y-2.0059
T3
X7.0516Y-1.4179
X7.148Y-1.4179
X7.248Y-1.4179
X7.475Y-1.024
X7.575Y-1.024
X7.675Y-1.024
X7.775Y-1.024
X7.875Y-1.024
T4
X7.05Y-1.675
X7.05Y-1.775
X7.05Y-1.875
X7.05Y-1.975
X7.05Y-2.075
X7.05Y-2.175
X7.45Y-1.675
X7.45Y-1.775
X7.45Y-1.875
X7.45Y-1.975
X7.45Y-2.075
X7.45Y-2.175
T5
X7.125Y-5.675
X7.125Y-6.275
X7.225Y-5.675
X7.225Y-6.275
X7.325Y-5.675
X7.325Y-6.275
X7.425Y-5.675
X7.425Y-6.275
X7.525Y-5.675
X7.525Y-6.275
X7.625Y-5.675
X7.625Y-6.275
X7.725Y-5.675
X7.725Y-6.275
X7.825Y-5.675
X7.825Y-6.275
X7.925Y-5.675
X7.925Y-6.275
X8.025Y-5.675
X8.025Y-6.275
X8.125Y-5.675
X8.125Y-6.275
X8.225Y-5.675
X8.225Y-6.275
T6
X7.075Y-3.4281
X7.075Y-3.625
X7.0789Y-2.6266
X7.0789Y-2.8234
X7.0789Y-4.2016
X7.0789Y-4.3984
X7.0789Y-5.0016
X7.0789Y-5.1984
X7.5671Y-3.4281
X7.5671Y-3.625
X7.5711Y-2.6266
X7.5711Y-2.8234
X7.5711Y-4.2016
X7.5711Y-4.3984
X7.5711Y-5.0016
X7.5711Y-5.1984
X7.7789Y-3.4266
X7.7789Y-3.6234
X7.7789Y-5.0016
X7.7789Y-5.1984
X7.7829Y-2.6281
X7.7829Y-2.825
X7.7829Y-4.2031
X7.7829Y-4.4
X8.2711Y-3.4266
X8.2711Y-3.6234
X8.2711Y-5.0016
X8.2711Y-5.1984
X8.275Y-2.6281
X8.275Y-2.825
X8.275Y-4.2031
X8.275Y-4.4
M30
