%TF.GenerationSoftware,KiCad,Pcbnew,8.0.6*%
%TF.CreationDate,2025-02-23T20:10:18-06:00*%
%TF.ProjectId,fullycustomcontrolle one hand,66756c6c-7963-4757-9374-6f6d636f6e74,rev?*%
%TF.SameCoordinates,Original*%
%TF.FileFunction,Drillmap*%
%TF.FilePolarity,Positive*%
%FSLAX45Y45*%
G04 Gerber Fmt 4.5, Leading zero omitted, Abs format (unit mm)*
G04 Created by KiCad (PCBNEW 8.0.6) date 2025-02-23 20:10:18*
%MOMM*%
%LPD*%
G01*
G04 APERTURE LIST*
%ADD10C,0.050000*%
%ADD11C,0.200000*%
G04 APERTURE END LIST*
D10*
X17575000Y-2325000D02*
X21350000Y-2325000D01*
X21350000Y-16267500D01*
X17575000Y-16267500D01*
X17575000Y-2325000D01*
D11*
X17833277Y-16581484D02*
X17833277Y-16381484D01*
X17833277Y-16381484D02*
X17880896Y-16381484D01*
X17880896Y-16381484D02*
X17909467Y-16391008D01*
X17909467Y-16391008D02*
X17928515Y-16410055D01*
X17928515Y-16410055D02*
X17938039Y-16429103D01*
X17938039Y-16429103D02*
X17947563Y-16467198D01*
X17947563Y-16467198D02*
X17947563Y-16495769D01*
X17947563Y-16495769D02*
X17938039Y-16533865D01*
X17938039Y-16533865D02*
X17928515Y-16552912D01*
X17928515Y-16552912D02*
X17909467Y-16571960D01*
X17909467Y-16571960D02*
X17880896Y-16581484D01*
X17880896Y-16581484D02*
X17833277Y-16581484D01*
X18033277Y-16581484D02*
X18033277Y-16448150D01*
X18033277Y-16486246D02*
X18042801Y-16467198D01*
X18042801Y-16467198D02*
X18052324Y-16457674D01*
X18052324Y-16457674D02*
X18071372Y-16448150D01*
X18071372Y-16448150D02*
X18090420Y-16448150D01*
X18157086Y-16581484D02*
X18157086Y-16448150D01*
X18157086Y-16381484D02*
X18147563Y-16391008D01*
X18147563Y-16391008D02*
X18157086Y-16400531D01*
X18157086Y-16400531D02*
X18166610Y-16391008D01*
X18166610Y-16391008D02*
X18157086Y-16381484D01*
X18157086Y-16381484D02*
X18157086Y-16400531D01*
X18280896Y-16581484D02*
X18261848Y-16571960D01*
X18261848Y-16571960D02*
X18252324Y-16552912D01*
X18252324Y-16552912D02*
X18252324Y-16381484D01*
X18385658Y-16581484D02*
X18366610Y-16571960D01*
X18366610Y-16571960D02*
X18357086Y-16552912D01*
X18357086Y-16552912D02*
X18357086Y-16381484D01*
X18614229Y-16581484D02*
X18614229Y-16381484D01*
X18614229Y-16381484D02*
X18680896Y-16524341D01*
X18680896Y-16524341D02*
X18747563Y-16381484D01*
X18747563Y-16381484D02*
X18747563Y-16581484D01*
X18928515Y-16581484D02*
X18928515Y-16476722D01*
X18928515Y-16476722D02*
X18918991Y-16457674D01*
X18918991Y-16457674D02*
X18899944Y-16448150D01*
X18899944Y-16448150D02*
X18861848Y-16448150D01*
X18861848Y-16448150D02*
X18842801Y-16457674D01*
X18928515Y-16571960D02*
X18909467Y-16581484D01*
X18909467Y-16581484D02*
X18861848Y-16581484D01*
X18861848Y-16581484D02*
X18842801Y-16571960D01*
X18842801Y-16571960D02*
X18833277Y-16552912D01*
X18833277Y-16552912D02*
X18833277Y-16533865D01*
X18833277Y-16533865D02*
X18842801Y-16514817D01*
X18842801Y-16514817D02*
X18861848Y-16505293D01*
X18861848Y-16505293D02*
X18909467Y-16505293D01*
X18909467Y-16505293D02*
X18928515Y-16495769D01*
X19023753Y-16448150D02*
X19023753Y-16648150D01*
X19023753Y-16457674D02*
X19042801Y-16448150D01*
X19042801Y-16448150D02*
X19080896Y-16448150D01*
X19080896Y-16448150D02*
X19099944Y-16457674D01*
X19099944Y-16457674D02*
X19109467Y-16467198D01*
X19109467Y-16467198D02*
X19118991Y-16486246D01*
X19118991Y-16486246D02*
X19118991Y-16543388D01*
X19118991Y-16543388D02*
X19109467Y-16562436D01*
X19109467Y-16562436D02*
X19099944Y-16571960D01*
X19099944Y-16571960D02*
X19080896Y-16581484D01*
X19080896Y-16581484D02*
X19042801Y-16581484D01*
X19042801Y-16581484D02*
X19023753Y-16571960D01*
X19204705Y-16562436D02*
X19214229Y-16571960D01*
X19214229Y-16571960D02*
X19204705Y-16581484D01*
X19204705Y-16581484D02*
X19195182Y-16571960D01*
X19195182Y-16571960D02*
X19204705Y-16562436D01*
X19204705Y-16562436D02*
X19204705Y-16581484D01*
X19204705Y-16457674D02*
X19214229Y-16467198D01*
X19214229Y-16467198D02*
X19204705Y-16476722D01*
X19204705Y-16476722D02*
X19195182Y-16467198D01*
X19195182Y-16467198D02*
X19204705Y-16457674D01*
X19204705Y-16457674D02*
X19204705Y-16476722D01*
M02*
