%TF.GenerationSoftware,KiCad,Pcbnew,8.0.6*%
%TF.CreationDate,2025-02-23T20:10:21-06:00*%
%TF.ProjectId,fullycustomcontrolle one hand,66756c6c-7963-4757-9374-6f6d636f6e74,rev?*%
%TF.SameCoordinates,Original*%
%TF.FileFunction,Copper,L2,Bot*%
%TF.FilePolarity,Positive*%
%FSLAX46Y46*%
G04 Gerber Fmt 4.6, Leading zero omitted, Abs format (unit mm)*
G04 Created by KiCad (PCBNEW 8.0.6) date 2025-02-23 20:10:21*
%MOMM*%
%LPD*%
G01*
G04 APERTURE LIST*
%TA.AperFunction,ComponentPad*%
%ADD10O,3.200000X1.900000*%
%TD*%
%TA.AperFunction,ComponentPad*%
%ADD11O,1.200000X2.000000*%
%TD*%
%TA.AperFunction,ComponentPad*%
%ADD12R,1.752600X1.752600*%
%TD*%
%TA.AperFunction,ComponentPad*%
%ADD13C,1.752600*%
%TD*%
%TA.AperFunction,ComponentPad*%
%ADD14R,1.700000X1.700000*%
%TD*%
%TA.AperFunction,ComponentPad*%
%ADD15O,1.700000X1.700000*%
%TD*%
%TA.AperFunction,ComponentPad*%
%ADD16C,1.524000*%
%TD*%
%TA.AperFunction,ComponentPad*%
%ADD17R,1.524000X1.524000*%
%TD*%
%TA.AperFunction,ComponentPad*%
%ADD18R,1.500000X2.300000*%
%TD*%
%TA.AperFunction,ComponentPad*%
%ADD19O,1.500000X2.300000*%
%TD*%
%TA.AperFunction,ViaPad*%
%ADD20C,0.600000*%
%TD*%
%TA.AperFunction,Conductor*%
%ADD21C,0.200000*%
%TD*%
G04 APERTURE END LIST*
D10*
%TO.P,SW9,1,1*%
%TO.N,Net-(SW9-Pad1)*%
X197685000Y-66755000D03*
X210185000Y-66755000D03*
%TO.P,SW9,2,2*%
%TO.N,Net-(U1-B6)*%
X197685000Y-71755000D03*
X210185000Y-71755000D03*
%TD*%
%TO.P,SW8,1,1*%
%TO.N,Net-(SW5-B)*%
X197585000Y-87035000D03*
X210085000Y-87035000D03*
%TO.P,SW8,2,2*%
%TO.N,Net-(U1-B2)*%
X197585000Y-92035000D03*
X210085000Y-92035000D03*
%TD*%
D11*
%TO.P,MPU1,1,VCC*%
%TO.N,Net-(MPU1-VCC)*%
X193330000Y-50950000D03*
%TO.P,MPU1,2,GND*%
%TO.N,Net-(J1-Pin_1)*%
X195870000Y-50950000D03*
%TO.P,MPU1,3,SCL*%
%TO.N,Net-(MPU1-SCL)*%
X198410000Y-50950000D03*
%TO.P,MPU1,4,SDA*%
%TO.N,Net-(MPU1-SDA)*%
X200950000Y-50950000D03*
%TO.P,MPU1,5,XDA*%
%TO.N,unconnected-(MPU1-XDA-Pad5)*%
X203490000Y-50950000D03*
%TO.P,MPU1,6,XCL*%
%TO.N,unconnected-(MPU1-XCL-Pad6)*%
X206030000Y-50950000D03*
%TO.P,MPU1,7,AD0*%
%TO.N,unconnected-(MPU1-AD0-Pad7)*%
X208570000Y-50950000D03*
%TO.P,MPU1,8,INT*%
%TO.N,unconnected-(MPU1-INT-Pad8)*%
X211110000Y-50950000D03*
%TD*%
%TO.P,SW5,1,A*%
%TO.N,Net-(SW5-A)*%
X210820000Y-55880000D03*
%TO.P,SW5,2,B*%
%TO.N,Net-(SW5-B)*%
X208280000Y-55880000D03*
%TO.P,SW5,3,C*%
%TO.N,Net-(SW5-C)*%
X205740000Y-55880000D03*
%TD*%
D10*
%TO.P,SW6,1,1*%
%TO.N,Net-(U1-E6)*%
X192205000Y-92075000D03*
X179705000Y-92075000D03*
%TO.P,SW6,2,2*%
%TO.N,Net-(SW5-B)*%
X192205000Y-87075000D03*
X179705000Y-87075000D03*
%TD*%
D12*
%TO.P,U1,1,TX*%
%TO.N,Net-(SW5-A)*%
X208915000Y-144145000D03*
D13*
%TO.P,U1,2,RX*%
%TO.N,Net-(SW5-C)*%
X206375000Y-144145000D03*
%TO.P,U1,3,GND*%
%TO.N,Net-(SW5-B)*%
X203835000Y-144145000D03*
%TO.P,U1,4,GND*%
%TO.N,Net-(SW9-Pad1)*%
X201295000Y-144145000D03*
%TO.P,U1,5,SDA*%
%TO.N,Net-(U1-SDA)*%
X198755000Y-144145000D03*
%TO.P,U1,6,SCL*%
%TO.N,Net-(U1-SCL)*%
X196215000Y-144145000D03*
%TO.P,U1,7,D4*%
%TO.N,Net-(U1-D4)*%
X193675000Y-144145000D03*
%TO.P,U1,8,C6*%
%TO.N,Net-(U1-C6)*%
X191135000Y-144145000D03*
%TO.P,U1,9,D7*%
%TO.N,Net-(U1-D7)*%
X188595000Y-144145000D03*
%TO.P,U1,10,E6*%
%TO.N,Net-(U1-E6)*%
X186055000Y-144145000D03*
%TO.P,U1,11,B4*%
%TO.N,Net-(U1-B4)*%
X183515000Y-144145000D03*
%TO.P,U1,12,B5*%
%TO.N,Net-(U1-B5)*%
X180975000Y-144145000D03*
%TO.P,U1,13,B6*%
%TO.N,Net-(U1-B6)*%
X180975000Y-159385000D03*
%TO.P,U1,14,B2*%
%TO.N,Net-(U1-B2)*%
X183515000Y-159385000D03*
%TO.P,U1,15,B3*%
%TO.N,unconnected-(U1-B3-Pad15)*%
X186055000Y-159385000D03*
%TO.P,U1,16,B1*%
%TO.N,Net-(J1-Pin_5)*%
X188595000Y-159385000D03*
%TO.P,U1,17,F7*%
%TO.N,Net-(J1-Pin_4)*%
X191135000Y-159385000D03*
%TO.P,U1,18,F6*%
%TO.N,Net-(J1-Pin_3)*%
X193675000Y-159385000D03*
%TO.P,U1,19,F5*%
%TO.N,unconnected-(U1-F5-Pad19)*%
X196215000Y-159385000D03*
%TO.P,U1,20,F4*%
%TO.N,unconnected-(U1-F4-Pad20)*%
X198755000Y-159385000D03*
%TO.P,U1,21,VCC*%
%TO.N,Net-(J1-Pin_2)*%
X201295000Y-159385000D03*
%TO.P,U1,22,RST*%
%TO.N,unconnected-(U1-RST-Pad22)*%
X203835000Y-159385000D03*
%TO.P,U1,23,GND*%
%TO.N,Net-(J1-Pin_1)*%
X206375000Y-159385000D03*
%TO.P,U1,24,RAW*%
%TO.N,unconnected-(U1-RAW-Pad24)*%
X208915000Y-159385000D03*
%TD*%
D10*
%TO.P,SW7,1,1*%
%TO.N,Net-(U1-B4)*%
X179805000Y-106720000D03*
X192305000Y-106720000D03*
%TO.P,SW7,2,2*%
%TO.N,Net-(SW5-B)*%
X179805000Y-111720000D03*
X192305000Y-111720000D03*
%TD*%
D14*
%TO.P,J1,1,Pin_1*%
%TO.N,Net-(J1-Pin_1)*%
X189865000Y-26010000D03*
D15*
%TO.P,J1,2,Pin_2*%
%TO.N,Net-(J1-Pin_2)*%
X192405000Y-26010000D03*
%TO.P,J1,3,Pin_3*%
%TO.N,Net-(J1-Pin_3)*%
X194945000Y-26010000D03*
%TO.P,J1,4,Pin_4*%
%TO.N,Net-(J1-Pin_4)*%
X197485000Y-26010000D03*
%TO.P,J1,5,Pin_5*%
%TO.N,Net-(J1-Pin_5)*%
X200025000Y-26010000D03*
%TD*%
D10*
%TO.P,SW1,1,1*%
%TO.N,Net-(U1-D7)*%
X197685000Y-106760000D03*
X210185000Y-106760000D03*
%TO.P,SW1,2,2*%
%TO.N,Net-(SW5-B)*%
X197685000Y-111760000D03*
X210185000Y-111760000D03*
%TD*%
D16*
%TO.P,U3,GND_1,GND*%
%TO.N,Net-(J1-Pin_1)*%
X179070000Y-47625000D03*
%TO.P,U3,GND_2,GND*%
X189230000Y-47625000D03*
%TO.P,U3,HV,HV*%
%TO.N,Net-(J1-Pin_2)*%
X179070000Y-50165000D03*
D17*
%TO.P,U3,HV1,HV1*%
%TO.N,Net-(U1-SDA)*%
X179070000Y-55245000D03*
D16*
%TO.P,U3,HV2,HV2*%
%TO.N,Net-(U1-SCL)*%
X179070000Y-52705000D03*
%TO.P,U3,HV3,HV3*%
%TO.N,unconnected-(U3-PadHV3)*%
X179070000Y-45085000D03*
%TO.P,U3,HV4,HV4*%
%TO.N,unconnected-(U3-PadHV4)*%
X179070000Y-42545000D03*
%TO.P,U3,LV,LV*%
%TO.N,Net-(MPU1-VCC)*%
X189230000Y-50165000D03*
D17*
%TO.P,U3,LV1,LV1*%
%TO.N,Net-(MPU1-SDA)*%
X189230000Y-55245000D03*
D16*
%TO.P,U3,LV2,LV2*%
%TO.N,Net-(MPU1-SCL)*%
X189230000Y-52705000D03*
%TO.P,U3,LV3,LV3*%
%TO.N,unconnected-(U3-PadLV3)*%
X189230000Y-45085000D03*
%TO.P,U3,LV4,LV4*%
%TO.N,unconnected-(U3-PadLV4)*%
X189230000Y-42545000D03*
%TD*%
D10*
%TO.P,SW2,1,1*%
%TO.N,Net-(U1-D4)*%
X210085000Y-132040000D03*
X197585000Y-132040000D03*
%TO.P,SW2,2,2*%
%TO.N,Net-(SW5-B)*%
X210085000Y-127040000D03*
X197585000Y-127040000D03*
%TD*%
%TO.P,SW3,1,1*%
%TO.N,Net-(U1-B5)*%
X192305000Y-71715000D03*
X179805000Y-71715000D03*
%TO.P,SW3,2,2*%
%TO.N,Net-(SW5-B)*%
X192305000Y-66715000D03*
X179805000Y-66715000D03*
%TD*%
D18*
%TO.P,U2,1,IN*%
%TO.N,Net-(J1-Pin_2)*%
X184100000Y-36015000D03*
D19*
%TO.P,U2,2,OUT*%
%TO.N,Net-(MPU1-VCC)*%
X181560000Y-36015000D03*
%TO.P,U2,3,GND*%
%TO.N,Net-(J1-Pin_1)*%
X179110000Y-36015000D03*
%TD*%
D10*
%TO.P,SW4,1,1*%
%TO.N,Net-(U1-C6)*%
X179805000Y-127040000D03*
X192305000Y-127040000D03*
%TO.P,SW4,2,2*%
%TO.N,Net-(SW5-B)*%
X179805000Y-132040000D03*
X192305000Y-132040000D03*
%TD*%
D20*
%TO.N,Net-(U1-B6)*%
X176728400Y-78107200D03*
%TO.N,Net-(U1-SDA)*%
X183328600Y-137523200D03*
%TO.N,Net-(U1-B2)*%
X199669900Y-158284100D03*
%TO.N,Net-(U1-SCL)*%
X185869200Y-140494000D03*
%TO.N,Net-(J1-Pin_5)*%
X192764700Y-28216700D03*
%TO.N,Net-(J1-Pin_4)*%
X193848900Y-142670600D03*
X191135000Y-146649500D03*
%TO.N,Net-(U1-D7)*%
X188555400Y-108063400D03*
%TO.N,Net-(J1-Pin_2)*%
X187325000Y-155879700D03*
%TD*%
D21*
%TO.N,Net-(SW9-Pad1)*%
X210185000Y-66755000D02*
X197685000Y-66755000D01*
%TO.N,Net-(U1-B6)*%
X210185000Y-71755000D02*
X197685000Y-71755000D01*
X189431100Y-78107200D02*
X195783300Y-71755000D01*
X176728400Y-78107200D02*
X189431100Y-78107200D01*
X197685000Y-71755000D02*
X195783300Y-71755000D01*
%TO.N,Net-(SW5-B)*%
X194206700Y-134516700D02*
X194206700Y-132040000D01*
X203835000Y-144145000D02*
X194206700Y-134516700D01*
X208280000Y-55880000D02*
X207378300Y-55880000D01*
X179805000Y-66715000D02*
X192305000Y-66715000D01*
X207378300Y-55976700D02*
X207378300Y-55880000D01*
X198541700Y-64813300D02*
X207378300Y-55976700D01*
X196108400Y-64813300D02*
X198541700Y-64813300D01*
X194206700Y-66715000D02*
X196108400Y-64813300D01*
X192305000Y-66715000D02*
X194206700Y-66715000D01*
X197585000Y-127040000D02*
X210085000Y-127040000D01*
X195683300Y-130563400D02*
X194206700Y-132040000D01*
X195683300Y-127040000D02*
X195683300Y-130563400D01*
X197585000Y-127040000D02*
X195683300Y-127040000D01*
X179705000Y-87075000D02*
X192205000Y-87075000D01*
X195643300Y-87075000D02*
X195683300Y-87035000D01*
X192205000Y-87075000D02*
X195643300Y-87075000D01*
X197585000Y-87035000D02*
X195683300Y-87035000D01*
X193255900Y-132040000D02*
X194206700Y-132040000D01*
X193255900Y-132040000D02*
X192305000Y-132040000D01*
X192305000Y-132040000D02*
X179805000Y-132040000D01*
X210185000Y-111760000D02*
X197685000Y-111760000D01*
X194246700Y-111760000D02*
X194206700Y-111720000D01*
X197685000Y-111760000D02*
X194246700Y-111760000D01*
X193255900Y-111720000D02*
X194206700Y-111720000D01*
X193255900Y-111720000D02*
X192305000Y-111720000D01*
X192305000Y-111720000D02*
X179805000Y-111720000D01*
X210085000Y-87035000D02*
X197585000Y-87035000D01*
%TO.N,Net-(U1-C6)*%
X192305000Y-127040000D02*
X179805000Y-127040000D01*
%TO.N,Net-(U1-B4)*%
X192305000Y-106720000D02*
X179805000Y-106720000D01*
%TO.N,Net-(U1-SDA)*%
X192133200Y-137523200D02*
X198755000Y-144145000D01*
X183328600Y-137523200D02*
X192133200Y-137523200D01*
%TO.N,Net-(U1-B2)*%
X210085000Y-92035000D02*
X197585000Y-92035000D01*
X199522200Y-158136400D02*
X199669900Y-158284100D01*
X188100100Y-158136400D02*
X199522200Y-158136400D01*
X187325000Y-158911500D02*
X188100100Y-158136400D01*
X187325000Y-159815300D02*
X187325000Y-158911500D01*
X186532300Y-160608000D02*
X187325000Y-159815300D01*
X184738000Y-160608000D02*
X186532300Y-160608000D01*
X183515000Y-159385000D02*
X184738000Y-160608000D01*
%TO.N,Net-(U1-E6)*%
X179705000Y-92075000D02*
X192205000Y-92075000D01*
%TO.N,Net-(U1-SCL)*%
X192564000Y-140494000D02*
X196215000Y-144145000D01*
X185869200Y-140494000D02*
X192564000Y-140494000D01*
%TO.N,Net-(J1-Pin_5)*%
X198873300Y-26278500D02*
X198873300Y-26010000D01*
X196935100Y-28216700D02*
X198873300Y-26278500D01*
X192764700Y-28216700D02*
X196935100Y-28216700D01*
X200025000Y-26010000D02*
X198873300Y-26010000D01*
%TO.N,Net-(J1-Pin_4)*%
X193890400Y-142670600D02*
X193848900Y-142670600D01*
X194856000Y-143636200D02*
X193890400Y-142670600D01*
X194856000Y-144710900D02*
X194856000Y-143636200D01*
X192917400Y-146649500D02*
X194856000Y-144710900D01*
X191135000Y-146649500D02*
X192917400Y-146649500D01*
%TO.N,Net-(U1-B5)*%
X179805000Y-71715000D02*
X192305000Y-71715000D01*
%TO.N,Net-(U1-D4)*%
X197585000Y-132040000D02*
X210085000Y-132040000D01*
%TO.N,Net-(U1-D7)*%
X194479900Y-108063400D02*
X188555400Y-108063400D01*
X195783300Y-106760000D02*
X194479900Y-108063400D01*
X197685000Y-106760000D02*
X195783300Y-106760000D01*
X210185000Y-106760000D02*
X197685000Y-106760000D01*
%TO.N,Net-(J1-Pin_2)*%
X185151700Y-34415000D02*
X192405000Y-27161700D01*
X185151700Y-36015000D02*
X185151700Y-34415000D01*
X184100000Y-36015000D02*
X185151700Y-36015000D01*
X192405000Y-26010000D02*
X192405000Y-27161700D01*
X198116400Y-155879700D02*
X187325000Y-155879700D01*
X201295000Y-159058300D02*
X198116400Y-155879700D01*
X201295000Y-159385000D02*
X201295000Y-159058300D01*
%TO.N,Net-(MPU1-SCL)*%
X198410000Y-50950000D02*
X198410000Y-52251700D01*
X197956700Y-52705000D02*
X198410000Y-52251700D01*
X189230000Y-52705000D02*
X197956700Y-52705000D01*
%TO.N,Net-(J1-Pin_1)*%
X193846700Y-47625000D02*
X195870000Y-49648300D01*
X189230000Y-47625000D02*
X193846700Y-47625000D01*
X195870000Y-50950000D02*
X195870000Y-49648300D01*
X191530300Y-52251700D02*
X195870000Y-52251700D01*
X190572000Y-51293400D02*
X191530300Y-52251700D01*
X182738400Y-51293400D02*
X190572000Y-51293400D01*
X179070000Y-47625000D02*
X182738400Y-51293400D01*
X195870000Y-50950000D02*
X195870000Y-52251700D01*
%TO.N,Net-(MPU1-VCC)*%
X193330000Y-50950000D02*
X193330000Y-49648300D01*
X189230000Y-50165000D02*
X189230000Y-49648300D01*
X181560000Y-41978300D02*
X189230000Y-49648300D01*
X181560000Y-36015000D02*
X181560000Y-41978300D01*
X189230000Y-49648300D02*
X193330000Y-49648300D01*
%TO.N,Net-(MPU1-SDA)*%
X200950000Y-50950000D02*
X200950000Y-52251700D01*
X197956700Y-55245000D02*
X200950000Y-52251700D01*
X189230000Y-55245000D02*
X197956700Y-55245000D01*
%TD*%
M02*
