%TF.GenerationSoftware,KiCad,Pcbnew,8.0.3*%
%TF.CreationDate,2024-07-08T22:13:47-05:00*%
%TF.ProjectId,3.3v Pro Micro,332e3376-2050-4726-9f20-4d6963726f2e,rev?*%
%TF.SameCoordinates,Original*%
%TF.FileFunction,Soldermask,Bot*%
%TF.FilePolarity,Negative*%
%FSLAX46Y46*%
G04 Gerber Fmt 4.6, Leading zero omitted, Abs format (unit mm)*
G04 Created by KiCad (PCBNEW 8.0.3) date 2024-07-08 22:13:47*
%MOMM*%
%LPD*%
G01*
G04 APERTURE LIST*
G04 Aperture macros list*
%AMRoundRect*
0 Rectangle with rounded corners*
0 $1 Rounding radius*
0 $2 $3 $4 $5 $6 $7 $8 $9 X,Y pos of 4 corners*
0 Add a 4 corners polygon primitive as box body*
4,1,4,$2,$3,$4,$5,$6,$7,$8,$9,$2,$3,0*
0 Add four circle primitives for the rounded corners*
1,1,$1+$1,$2,$3*
1,1,$1+$1,$4,$5*
1,1,$1+$1,$6,$7*
1,1,$1+$1,$8,$9*
0 Add four rect primitives between the rounded corners*
20,1,$1+$1,$2,$3,$4,$5,0*
20,1,$1+$1,$4,$5,$6,$7,0*
20,1,$1+$1,$6,$7,$8,$9,0*
20,1,$1+$1,$8,$9,$2,$3,0*%
G04 Aperture macros list end*
%ADD10O,1.500000X2.300000*%
%ADD11R,1.500000X2.300000*%
%ADD12O,1.700000X1.700000*%
%ADD13R,1.700000X1.700000*%
%ADD14C,1.728000*%
%ADD15RoundRect,0.102000X0.762000X-0.762000X0.762000X0.762000X-0.762000X0.762000X-0.762000X-0.762000X0*%
%ADD16C,1.752600*%
%ADD17R,1.752600X1.752600*%
G04 APERTURE END LIST*
D10*
%TO.C,U4*%
X154853000Y-106447500D03*
X152313000Y-106447500D03*
D11*
X149773000Y-106447500D03*
%TD*%
D12*
%TO.C,J1*%
X148600000Y-111740000D03*
X151140000Y-111740000D03*
X153680000Y-111740000D03*
D13*
X156220000Y-111740000D03*
%TD*%
D14*
%TO.C,U3*%
X137800000Y-102240000D03*
X137800000Y-112400000D03*
X135260000Y-102240000D03*
D15*
X130180000Y-102240000D03*
D14*
X132720000Y-102240000D03*
X140340000Y-102240000D03*
X142880000Y-102240000D03*
X135260000Y-112400000D03*
D15*
X130180000Y-112400000D03*
D14*
X132720000Y-112400000D03*
X140340000Y-112400000D03*
X142880000Y-112400000D03*
%TD*%
D16*
%TO.C,U2*%
X129180000Y-82500000D03*
X131720000Y-82500000D03*
X134260000Y-82500000D03*
X136800000Y-82500000D03*
X139340000Y-82500000D03*
X141880000Y-82500000D03*
X144420000Y-82500000D03*
X146960000Y-82500000D03*
X149500000Y-82500000D03*
X152040000Y-82500000D03*
X154580000Y-82500000D03*
X157120000Y-82500000D03*
X157120000Y-97740000D03*
X154580000Y-97740000D03*
X152040000Y-97740000D03*
X149500000Y-97740000D03*
X146960000Y-97740000D03*
X144420000Y-97740000D03*
X141880000Y-97740000D03*
X139340000Y-97740000D03*
X136800000Y-97740000D03*
X134260000Y-97740000D03*
X131720000Y-97740000D03*
D17*
X129180000Y-97740000D03*
%TD*%
M02*
