%TF.GenerationSoftware,KiCad,Pcbnew,8.0.3*%
%TF.CreationDate,2024-07-08T22:13:50-05:00*%
%TF.ProjectId,3.3v Pro Micro,332e3376-2050-4726-9f20-4d6963726f2e,rev?*%
%TF.SameCoordinates,Original*%
%TF.FileFunction,Drillmap*%
%TF.FilePolarity,Positive*%
%FSLAX45Y45*%
G04 Gerber Fmt 4.5, Leading zero omitted, Abs format (unit mm)*
G04 Created by KiCad (PCBNEW 8.0.3) date 2024-07-08 22:13:50*
%MOMM*%
%LPD*%
G01*
G04 APERTURE LIST*
%ADD10C,0.050000*%
%ADD11C,0.200000*%
%ADD12C,0.100000*%
%ADD13C,0.101600*%
%ADD14C,0.109220*%
G04 APERTURE END LIST*
D10*
X12472000Y-7924000D02*
X16122000Y-7924000D01*
X16122000Y-11574000D01*
X12472000Y-11574000D01*
X12472000Y-7924000D01*
D11*
D12*
X14810000Y-11124000D02*
X14910000Y-11224000D01*
X14910000Y-11124000D02*
X14810000Y-11224000D01*
X14927300Y-10594750D02*
X15027300Y-10694750D01*
X15027300Y-10594750D02*
X14927300Y-10694750D01*
X15064000Y-11124000D02*
X15164000Y-11224000D01*
X15164000Y-11124000D02*
X15064000Y-11224000D01*
X15181300Y-10594750D02*
X15281300Y-10694750D01*
X15281300Y-10594750D02*
X15181300Y-10694750D01*
X15318000Y-11124000D02*
X15418000Y-11224000D01*
X15418000Y-11124000D02*
X15318000Y-11224000D01*
X15435300Y-10594750D02*
X15535300Y-10694750D01*
X15535300Y-10594750D02*
X15435300Y-10694750D01*
X15572000Y-11124000D02*
X15672000Y-11224000D01*
X15672000Y-11124000D02*
X15572000Y-11224000D01*
D13*
X13068800Y-10224000D02*
G75*
G02*
X12967200Y-10224000I-50800J0D01*
G01*
X12967200Y-10224000D02*
G75*
G02*
X13068800Y-10224000I50800J0D01*
G01*
X13068800Y-11240000D02*
G75*
G02*
X12967200Y-11240000I-50800J0D01*
G01*
X12967200Y-11240000D02*
G75*
G02*
X13068800Y-11240000I50800J0D01*
G01*
X13322800Y-10224000D02*
G75*
G02*
X13221200Y-10224000I-50800J0D01*
G01*
X13221200Y-10224000D02*
G75*
G02*
X13322800Y-10224000I50800J0D01*
G01*
X13322800Y-11240000D02*
G75*
G02*
X13221200Y-11240000I-50800J0D01*
G01*
X13221200Y-11240000D02*
G75*
G02*
X13322800Y-11240000I50800J0D01*
G01*
X13576800Y-10224000D02*
G75*
G02*
X13475200Y-10224000I-50800J0D01*
G01*
X13475200Y-10224000D02*
G75*
G02*
X13576800Y-10224000I50800J0D01*
G01*
X13576800Y-11240000D02*
G75*
G02*
X13475200Y-11240000I-50800J0D01*
G01*
X13475200Y-11240000D02*
G75*
G02*
X13576800Y-11240000I50800J0D01*
G01*
X13830800Y-10224000D02*
G75*
G02*
X13729200Y-10224000I-50800J0D01*
G01*
X13729200Y-10224000D02*
G75*
G02*
X13830800Y-10224000I50800J0D01*
G01*
X13830800Y-11240000D02*
G75*
G02*
X13729200Y-11240000I-50800J0D01*
G01*
X13729200Y-11240000D02*
G75*
G02*
X13830800Y-11240000I50800J0D01*
G01*
X14084800Y-10224000D02*
G75*
G02*
X13983200Y-10224000I-50800J0D01*
G01*
X13983200Y-10224000D02*
G75*
G02*
X14084800Y-10224000I50800J0D01*
G01*
X14084800Y-11240000D02*
G75*
G02*
X13983200Y-11240000I-50800J0D01*
G01*
X13983200Y-11240000D02*
G75*
G02*
X14084800Y-11240000I50800J0D01*
G01*
X14338800Y-10224000D02*
G75*
G02*
X14237200Y-10224000I-50800J0D01*
G01*
X14237200Y-10224000D02*
G75*
G02*
X14338800Y-10224000I50800J0D01*
G01*
X14338800Y-11240000D02*
G75*
G02*
X14237200Y-11240000I-50800J0D01*
G01*
X14237200Y-11240000D02*
G75*
G02*
X14338800Y-11240000I50800J0D01*
G01*
D14*
X12918000Y-8195390D02*
X12918000Y-8304610D01*
X12863390Y-8250000D02*
X12972610Y-8250000D01*
X12918000Y-9719390D02*
X12918000Y-9828610D01*
X12863390Y-9774000D02*
X12972610Y-9774000D01*
X13172000Y-8195390D02*
X13172000Y-8304610D01*
X13117390Y-8250000D02*
X13226610Y-8250000D01*
X13172000Y-9719390D02*
X13172000Y-9828610D01*
X13117390Y-9774000D02*
X13226610Y-9774000D01*
X13426000Y-8195390D02*
X13426000Y-8304610D01*
X13371390Y-8250000D02*
X13480610Y-8250000D01*
X13426000Y-9719390D02*
X13426000Y-9828610D01*
X13371390Y-9774000D02*
X13480610Y-9774000D01*
X13680000Y-8195390D02*
X13680000Y-8304610D01*
X13625390Y-8250000D02*
X13734610Y-8250000D01*
X13680000Y-9719390D02*
X13680000Y-9828610D01*
X13625390Y-9774000D02*
X13734610Y-9774000D01*
X13934000Y-8195390D02*
X13934000Y-8304610D01*
X13879390Y-8250000D02*
X13988610Y-8250000D01*
X13934000Y-9719390D02*
X13934000Y-9828610D01*
X13879390Y-9774000D02*
X13988610Y-9774000D01*
X14188000Y-8195390D02*
X14188000Y-8304610D01*
X14133390Y-8250000D02*
X14242610Y-8250000D01*
X14188000Y-9719390D02*
X14188000Y-9828610D01*
X14133390Y-9774000D02*
X14242610Y-9774000D01*
X14442000Y-8195390D02*
X14442000Y-8304610D01*
X14387390Y-8250000D02*
X14496610Y-8250000D01*
X14442000Y-9719390D02*
X14442000Y-9828610D01*
X14387390Y-9774000D02*
X14496610Y-9774000D01*
X14696000Y-8195390D02*
X14696000Y-8304610D01*
X14641390Y-8250000D02*
X14750610Y-8250000D01*
X14696000Y-9719390D02*
X14696000Y-9828610D01*
X14641390Y-9774000D02*
X14750610Y-9774000D01*
X14950000Y-8195390D02*
X14950000Y-8304610D01*
X14895390Y-8250000D02*
X15004610Y-8250000D01*
X14950000Y-9719390D02*
X14950000Y-9828610D01*
X14895390Y-9774000D02*
X15004610Y-9774000D01*
X15204000Y-8195390D02*
X15204000Y-8304610D01*
X15149390Y-8250000D02*
X15258610Y-8250000D01*
X15204000Y-9719390D02*
X15204000Y-9828610D01*
X15149390Y-9774000D02*
X15258610Y-9774000D01*
X15458000Y-8195390D02*
X15458000Y-8304610D01*
X15403390Y-8250000D02*
X15512610Y-8250000D01*
X15458000Y-9719390D02*
X15458000Y-9828610D01*
X15403390Y-9774000D02*
X15512610Y-9774000D01*
X15712000Y-8195390D02*
X15712000Y-8304610D01*
X15657390Y-8250000D02*
X15766610Y-8250000D01*
X15712000Y-9719390D02*
X15712000Y-9828610D01*
X15657390Y-9774000D02*
X15766610Y-9774000D01*
D11*
X12730277Y-11887984D02*
X12730277Y-11687984D01*
X12730277Y-11687984D02*
X12777896Y-11687984D01*
X12777896Y-11687984D02*
X12806467Y-11697508D01*
X12806467Y-11697508D02*
X12825515Y-11716555D01*
X12825515Y-11716555D02*
X12835039Y-11735603D01*
X12835039Y-11735603D02*
X12844562Y-11773698D01*
X12844562Y-11773698D02*
X12844562Y-11802269D01*
X12844562Y-11802269D02*
X12835039Y-11840365D01*
X12835039Y-11840365D02*
X12825515Y-11859412D01*
X12825515Y-11859412D02*
X12806467Y-11878460D01*
X12806467Y-11878460D02*
X12777896Y-11887984D01*
X12777896Y-11887984D02*
X12730277Y-11887984D01*
X12930277Y-11887984D02*
X12930277Y-11754650D01*
X12930277Y-11792746D02*
X12939801Y-11773698D01*
X12939801Y-11773698D02*
X12949324Y-11764174D01*
X12949324Y-11764174D02*
X12968372Y-11754650D01*
X12968372Y-11754650D02*
X12987420Y-11754650D01*
X13054086Y-11887984D02*
X13054086Y-11754650D01*
X13054086Y-11687984D02*
X13044562Y-11697508D01*
X13044562Y-11697508D02*
X13054086Y-11707031D01*
X13054086Y-11707031D02*
X13063610Y-11697508D01*
X13063610Y-11697508D02*
X13054086Y-11687984D01*
X13054086Y-11687984D02*
X13054086Y-11707031D01*
X13177896Y-11887984D02*
X13158848Y-11878460D01*
X13158848Y-11878460D02*
X13149324Y-11859412D01*
X13149324Y-11859412D02*
X13149324Y-11687984D01*
X13282658Y-11887984D02*
X13263610Y-11878460D01*
X13263610Y-11878460D02*
X13254086Y-11859412D01*
X13254086Y-11859412D02*
X13254086Y-11687984D01*
X13511229Y-11887984D02*
X13511229Y-11687984D01*
X13511229Y-11687984D02*
X13577896Y-11830841D01*
X13577896Y-11830841D02*
X13644562Y-11687984D01*
X13644562Y-11687984D02*
X13644562Y-11887984D01*
X13825515Y-11887984D02*
X13825515Y-11783222D01*
X13825515Y-11783222D02*
X13815991Y-11764174D01*
X13815991Y-11764174D02*
X13796943Y-11754650D01*
X13796943Y-11754650D02*
X13758848Y-11754650D01*
X13758848Y-11754650D02*
X13739801Y-11764174D01*
X13825515Y-11878460D02*
X13806467Y-11887984D01*
X13806467Y-11887984D02*
X13758848Y-11887984D01*
X13758848Y-11887984D02*
X13739801Y-11878460D01*
X13739801Y-11878460D02*
X13730277Y-11859412D01*
X13730277Y-11859412D02*
X13730277Y-11840365D01*
X13730277Y-11840365D02*
X13739801Y-11821317D01*
X13739801Y-11821317D02*
X13758848Y-11811793D01*
X13758848Y-11811793D02*
X13806467Y-11811793D01*
X13806467Y-11811793D02*
X13825515Y-11802269D01*
X13920753Y-11754650D02*
X13920753Y-11954650D01*
X13920753Y-11764174D02*
X13939801Y-11754650D01*
X13939801Y-11754650D02*
X13977896Y-11754650D01*
X13977896Y-11754650D02*
X13996943Y-11764174D01*
X13996943Y-11764174D02*
X14006467Y-11773698D01*
X14006467Y-11773698D02*
X14015991Y-11792746D01*
X14015991Y-11792746D02*
X14015991Y-11849888D01*
X14015991Y-11849888D02*
X14006467Y-11868936D01*
X14006467Y-11868936D02*
X13996943Y-11878460D01*
X13996943Y-11878460D02*
X13977896Y-11887984D01*
X13977896Y-11887984D02*
X13939801Y-11887984D01*
X13939801Y-11887984D02*
X13920753Y-11878460D01*
X14101705Y-11868936D02*
X14111229Y-11878460D01*
X14111229Y-11878460D02*
X14101705Y-11887984D01*
X14101705Y-11887984D02*
X14092182Y-11878460D01*
X14092182Y-11878460D02*
X14101705Y-11868936D01*
X14101705Y-11868936D02*
X14101705Y-11887984D01*
X14101705Y-11764174D02*
X14111229Y-11773698D01*
X14111229Y-11773698D02*
X14101705Y-11783222D01*
X14101705Y-11783222D02*
X14092182Y-11773698D01*
X14092182Y-11773698D02*
X14101705Y-11764174D01*
X14101705Y-11764174D02*
X14101705Y-11783222D01*
D12*
X12369500Y-12166500D02*
X12469500Y-12266500D01*
X12469500Y-12166500D02*
X12369500Y-12266500D01*
D11*
X12835039Y-12307984D02*
X12720753Y-12307984D01*
X12777896Y-12307984D02*
X12777896Y-12107984D01*
X12777896Y-12107984D02*
X12758848Y-12136555D01*
X12758848Y-12136555D02*
X12739801Y-12155603D01*
X12739801Y-12155603D02*
X12720753Y-12165127D01*
X12920753Y-12288936D02*
X12930277Y-12298460D01*
X12930277Y-12298460D02*
X12920753Y-12307984D01*
X12920753Y-12307984D02*
X12911229Y-12298460D01*
X12911229Y-12298460D02*
X12920753Y-12288936D01*
X12920753Y-12288936D02*
X12920753Y-12307984D01*
X13054086Y-12107984D02*
X13073134Y-12107984D01*
X13073134Y-12107984D02*
X13092182Y-12117508D01*
X13092182Y-12117508D02*
X13101705Y-12127031D01*
X13101705Y-12127031D02*
X13111229Y-12146079D01*
X13111229Y-12146079D02*
X13120753Y-12184174D01*
X13120753Y-12184174D02*
X13120753Y-12231793D01*
X13120753Y-12231793D02*
X13111229Y-12269888D01*
X13111229Y-12269888D02*
X13101705Y-12288936D01*
X13101705Y-12288936D02*
X13092182Y-12298460D01*
X13092182Y-12298460D02*
X13073134Y-12307984D01*
X13073134Y-12307984D02*
X13054086Y-12307984D01*
X13054086Y-12307984D02*
X13035039Y-12298460D01*
X13035039Y-12298460D02*
X13025515Y-12288936D01*
X13025515Y-12288936D02*
X13015991Y-12269888D01*
X13015991Y-12269888D02*
X13006467Y-12231793D01*
X13006467Y-12231793D02*
X13006467Y-12184174D01*
X13006467Y-12184174D02*
X13015991Y-12146079D01*
X13015991Y-12146079D02*
X13025515Y-12127031D01*
X13025515Y-12127031D02*
X13035039Y-12117508D01*
X13035039Y-12117508D02*
X13054086Y-12107984D01*
X13244562Y-12107984D02*
X13263610Y-12107984D01*
X13263610Y-12107984D02*
X13282658Y-12117508D01*
X13282658Y-12117508D02*
X13292182Y-12127031D01*
X13292182Y-12127031D02*
X13301705Y-12146079D01*
X13301705Y-12146079D02*
X13311229Y-12184174D01*
X13311229Y-12184174D02*
X13311229Y-12231793D01*
X13311229Y-12231793D02*
X13301705Y-12269888D01*
X13301705Y-12269888D02*
X13292182Y-12288936D01*
X13292182Y-12288936D02*
X13282658Y-12298460D01*
X13282658Y-12298460D02*
X13263610Y-12307984D01*
X13263610Y-12307984D02*
X13244562Y-12307984D01*
X13244562Y-12307984D02*
X13225515Y-12298460D01*
X13225515Y-12298460D02*
X13215991Y-12288936D01*
X13215991Y-12288936D02*
X13206467Y-12269888D01*
X13206467Y-12269888D02*
X13196943Y-12231793D01*
X13196943Y-12231793D02*
X13196943Y-12184174D01*
X13196943Y-12184174D02*
X13206467Y-12146079D01*
X13206467Y-12146079D02*
X13215991Y-12127031D01*
X13215991Y-12127031D02*
X13225515Y-12117508D01*
X13225515Y-12117508D02*
X13244562Y-12107984D01*
X13435039Y-12107984D02*
X13454086Y-12107984D01*
X13454086Y-12107984D02*
X13473134Y-12117508D01*
X13473134Y-12117508D02*
X13482658Y-12127031D01*
X13482658Y-12127031D02*
X13492182Y-12146079D01*
X13492182Y-12146079D02*
X13501705Y-12184174D01*
X13501705Y-12184174D02*
X13501705Y-12231793D01*
X13501705Y-12231793D02*
X13492182Y-12269888D01*
X13492182Y-12269888D02*
X13482658Y-12288936D01*
X13482658Y-12288936D02*
X13473134Y-12298460D01*
X13473134Y-12298460D02*
X13454086Y-12307984D01*
X13454086Y-12307984D02*
X13435039Y-12307984D01*
X13435039Y-12307984D02*
X13415991Y-12298460D01*
X13415991Y-12298460D02*
X13406467Y-12288936D01*
X13406467Y-12288936D02*
X13396943Y-12269888D01*
X13396943Y-12269888D02*
X13387420Y-12231793D01*
X13387420Y-12231793D02*
X13387420Y-12184174D01*
X13387420Y-12184174D02*
X13396943Y-12146079D01*
X13396943Y-12146079D02*
X13406467Y-12127031D01*
X13406467Y-12127031D02*
X13415991Y-12117508D01*
X13415991Y-12117508D02*
X13435039Y-12107984D01*
X13587420Y-12307984D02*
X13587420Y-12174650D01*
X13587420Y-12193698D02*
X13596943Y-12184174D01*
X13596943Y-12184174D02*
X13615991Y-12174650D01*
X13615991Y-12174650D02*
X13644563Y-12174650D01*
X13644563Y-12174650D02*
X13663610Y-12184174D01*
X13663610Y-12184174D02*
X13673134Y-12203222D01*
X13673134Y-12203222D02*
X13673134Y-12307984D01*
X13673134Y-12203222D02*
X13682658Y-12184174D01*
X13682658Y-12184174D02*
X13701705Y-12174650D01*
X13701705Y-12174650D02*
X13730277Y-12174650D01*
X13730277Y-12174650D02*
X13749324Y-12184174D01*
X13749324Y-12184174D02*
X13758848Y-12203222D01*
X13758848Y-12203222D02*
X13758848Y-12307984D01*
X13854086Y-12307984D02*
X13854086Y-12174650D01*
X13854086Y-12193698D02*
X13863610Y-12184174D01*
X13863610Y-12184174D02*
X13882658Y-12174650D01*
X13882658Y-12174650D02*
X13911229Y-12174650D01*
X13911229Y-12174650D02*
X13930277Y-12184174D01*
X13930277Y-12184174D02*
X13939801Y-12203222D01*
X13939801Y-12203222D02*
X13939801Y-12307984D01*
X13939801Y-12203222D02*
X13949324Y-12184174D01*
X13949324Y-12184174D02*
X13968372Y-12174650D01*
X13968372Y-12174650D02*
X13996943Y-12174650D01*
X13996943Y-12174650D02*
X14015991Y-12184174D01*
X14015991Y-12184174D02*
X14025515Y-12203222D01*
X14025515Y-12203222D02*
X14025515Y-12307984D01*
X14415991Y-12098460D02*
X14244563Y-12355603D01*
X14673134Y-12107984D02*
X14692182Y-12107984D01*
X14692182Y-12107984D02*
X14711229Y-12117508D01*
X14711229Y-12117508D02*
X14720753Y-12127031D01*
X14720753Y-12127031D02*
X14730277Y-12146079D01*
X14730277Y-12146079D02*
X14739801Y-12184174D01*
X14739801Y-12184174D02*
X14739801Y-12231793D01*
X14739801Y-12231793D02*
X14730277Y-12269888D01*
X14730277Y-12269888D02*
X14720753Y-12288936D01*
X14720753Y-12288936D02*
X14711229Y-12298460D01*
X14711229Y-12298460D02*
X14692182Y-12307984D01*
X14692182Y-12307984D02*
X14673134Y-12307984D01*
X14673134Y-12307984D02*
X14654086Y-12298460D01*
X14654086Y-12298460D02*
X14644563Y-12288936D01*
X14644563Y-12288936D02*
X14635039Y-12269888D01*
X14635039Y-12269888D02*
X14625515Y-12231793D01*
X14625515Y-12231793D02*
X14625515Y-12184174D01*
X14625515Y-12184174D02*
X14635039Y-12146079D01*
X14635039Y-12146079D02*
X14644563Y-12127031D01*
X14644563Y-12127031D02*
X14654086Y-12117508D01*
X14654086Y-12117508D02*
X14673134Y-12107984D01*
X14825515Y-12288936D02*
X14835039Y-12298460D01*
X14835039Y-12298460D02*
X14825515Y-12307984D01*
X14825515Y-12307984D02*
X14815991Y-12298460D01*
X14815991Y-12298460D02*
X14825515Y-12288936D01*
X14825515Y-12288936D02*
X14825515Y-12307984D01*
X14958848Y-12107984D02*
X14977896Y-12107984D01*
X14977896Y-12107984D02*
X14996944Y-12117508D01*
X14996944Y-12117508D02*
X15006467Y-12127031D01*
X15006467Y-12127031D02*
X15015991Y-12146079D01*
X15015991Y-12146079D02*
X15025515Y-12184174D01*
X15025515Y-12184174D02*
X15025515Y-12231793D01*
X15025515Y-12231793D02*
X15015991Y-12269888D01*
X15015991Y-12269888D02*
X15006467Y-12288936D01*
X15006467Y-12288936D02*
X14996944Y-12298460D01*
X14996944Y-12298460D02*
X14977896Y-12307984D01*
X14977896Y-12307984D02*
X14958848Y-12307984D01*
X14958848Y-12307984D02*
X14939801Y-12298460D01*
X14939801Y-12298460D02*
X14930277Y-12288936D01*
X14930277Y-12288936D02*
X14920753Y-12269888D01*
X14920753Y-12269888D02*
X14911229Y-12231793D01*
X14911229Y-12231793D02*
X14911229Y-12184174D01*
X14911229Y-12184174D02*
X14920753Y-12146079D01*
X14920753Y-12146079D02*
X14930277Y-12127031D01*
X14930277Y-12127031D02*
X14939801Y-12117508D01*
X14939801Y-12117508D02*
X14958848Y-12107984D01*
X15092182Y-12107984D02*
X15215991Y-12107984D01*
X15215991Y-12107984D02*
X15149325Y-12184174D01*
X15149325Y-12184174D02*
X15177896Y-12184174D01*
X15177896Y-12184174D02*
X15196944Y-12193698D01*
X15196944Y-12193698D02*
X15206467Y-12203222D01*
X15206467Y-12203222D02*
X15215991Y-12222269D01*
X15215991Y-12222269D02*
X15215991Y-12269888D01*
X15215991Y-12269888D02*
X15206467Y-12288936D01*
X15206467Y-12288936D02*
X15196944Y-12298460D01*
X15196944Y-12298460D02*
X15177896Y-12307984D01*
X15177896Y-12307984D02*
X15120753Y-12307984D01*
X15120753Y-12307984D02*
X15101706Y-12298460D01*
X15101706Y-12298460D02*
X15092182Y-12288936D01*
X15311229Y-12307984D02*
X15349325Y-12307984D01*
X15349325Y-12307984D02*
X15368372Y-12298460D01*
X15368372Y-12298460D02*
X15377896Y-12288936D01*
X15377896Y-12288936D02*
X15396944Y-12260365D01*
X15396944Y-12260365D02*
X15406467Y-12222269D01*
X15406467Y-12222269D02*
X15406467Y-12146079D01*
X15406467Y-12146079D02*
X15396944Y-12127031D01*
X15396944Y-12127031D02*
X15387420Y-12117508D01*
X15387420Y-12117508D02*
X15368372Y-12107984D01*
X15368372Y-12107984D02*
X15330277Y-12107984D01*
X15330277Y-12107984D02*
X15311229Y-12117508D01*
X15311229Y-12117508D02*
X15301706Y-12127031D01*
X15301706Y-12127031D02*
X15292182Y-12146079D01*
X15292182Y-12146079D02*
X15292182Y-12193698D01*
X15292182Y-12193698D02*
X15301706Y-12212746D01*
X15301706Y-12212746D02*
X15311229Y-12222269D01*
X15311229Y-12222269D02*
X15330277Y-12231793D01*
X15330277Y-12231793D02*
X15368372Y-12231793D01*
X15368372Y-12231793D02*
X15387420Y-12222269D01*
X15387420Y-12222269D02*
X15396944Y-12212746D01*
X15396944Y-12212746D02*
X15406467Y-12193698D01*
X15577896Y-12174650D02*
X15577896Y-12307984D01*
X15530277Y-12098460D02*
X15482658Y-12241317D01*
X15482658Y-12241317D02*
X15606467Y-12241317D01*
X15673134Y-12107984D02*
X15673134Y-12146079D01*
X15749325Y-12107984D02*
X15749325Y-12146079D01*
X16044563Y-12384174D02*
X16035039Y-12374650D01*
X16035039Y-12374650D02*
X16015991Y-12346079D01*
X16015991Y-12346079D02*
X16006468Y-12327031D01*
X16006468Y-12327031D02*
X15996944Y-12298460D01*
X15996944Y-12298460D02*
X15987420Y-12250841D01*
X15987420Y-12250841D02*
X15987420Y-12212746D01*
X15987420Y-12212746D02*
X15996944Y-12165127D01*
X15996944Y-12165127D02*
X16006468Y-12136555D01*
X16006468Y-12136555D02*
X16015991Y-12117508D01*
X16015991Y-12117508D02*
X16035039Y-12088936D01*
X16035039Y-12088936D02*
X16044563Y-12079412D01*
X16101706Y-12107984D02*
X16235039Y-12107984D01*
X16235039Y-12107984D02*
X16149325Y-12307984D01*
X16463610Y-12307984D02*
X16463610Y-12107984D01*
X16549325Y-12307984D02*
X16549325Y-12203222D01*
X16549325Y-12203222D02*
X16539801Y-12184174D01*
X16539801Y-12184174D02*
X16520753Y-12174650D01*
X16520753Y-12174650D02*
X16492182Y-12174650D01*
X16492182Y-12174650D02*
X16473134Y-12184174D01*
X16473134Y-12184174D02*
X16463610Y-12193698D01*
X16673134Y-12307984D02*
X16654087Y-12298460D01*
X16654087Y-12298460D02*
X16644563Y-12288936D01*
X16644563Y-12288936D02*
X16635039Y-12269888D01*
X16635039Y-12269888D02*
X16635039Y-12212746D01*
X16635039Y-12212746D02*
X16644563Y-12193698D01*
X16644563Y-12193698D02*
X16654087Y-12184174D01*
X16654087Y-12184174D02*
X16673134Y-12174650D01*
X16673134Y-12174650D02*
X16701706Y-12174650D01*
X16701706Y-12174650D02*
X16720753Y-12184174D01*
X16720753Y-12184174D02*
X16730277Y-12193698D01*
X16730277Y-12193698D02*
X16739801Y-12212746D01*
X16739801Y-12212746D02*
X16739801Y-12269888D01*
X16739801Y-12269888D02*
X16730277Y-12288936D01*
X16730277Y-12288936D02*
X16720753Y-12298460D01*
X16720753Y-12298460D02*
X16701706Y-12307984D01*
X16701706Y-12307984D02*
X16673134Y-12307984D01*
X16854087Y-12307984D02*
X16835039Y-12298460D01*
X16835039Y-12298460D02*
X16825515Y-12279412D01*
X16825515Y-12279412D02*
X16825515Y-12107984D01*
X17006468Y-12298460D02*
X16987420Y-12307984D01*
X16987420Y-12307984D02*
X16949325Y-12307984D01*
X16949325Y-12307984D02*
X16930277Y-12298460D01*
X16930277Y-12298460D02*
X16920753Y-12279412D01*
X16920753Y-12279412D02*
X16920753Y-12203222D01*
X16920753Y-12203222D02*
X16930277Y-12184174D01*
X16930277Y-12184174D02*
X16949325Y-12174650D01*
X16949325Y-12174650D02*
X16987420Y-12174650D01*
X16987420Y-12174650D02*
X17006468Y-12184174D01*
X17006468Y-12184174D02*
X17015992Y-12203222D01*
X17015992Y-12203222D02*
X17015992Y-12222269D01*
X17015992Y-12222269D02*
X16920753Y-12241317D01*
X17092182Y-12298460D02*
X17111230Y-12307984D01*
X17111230Y-12307984D02*
X17149325Y-12307984D01*
X17149325Y-12307984D02*
X17168373Y-12298460D01*
X17168373Y-12298460D02*
X17177896Y-12279412D01*
X17177896Y-12279412D02*
X17177896Y-12269888D01*
X17177896Y-12269888D02*
X17168373Y-12250841D01*
X17168373Y-12250841D02*
X17149325Y-12241317D01*
X17149325Y-12241317D02*
X17120753Y-12241317D01*
X17120753Y-12241317D02*
X17101706Y-12231793D01*
X17101706Y-12231793D02*
X17092182Y-12212746D01*
X17092182Y-12212746D02*
X17092182Y-12203222D01*
X17092182Y-12203222D02*
X17101706Y-12184174D01*
X17101706Y-12184174D02*
X17120753Y-12174650D01*
X17120753Y-12174650D02*
X17149325Y-12174650D01*
X17149325Y-12174650D02*
X17168373Y-12184174D01*
X17244563Y-12384174D02*
X17254087Y-12374650D01*
X17254087Y-12374650D02*
X17273134Y-12346079D01*
X17273134Y-12346079D02*
X17282658Y-12327031D01*
X17282658Y-12327031D02*
X17292182Y-12298460D01*
X17292182Y-12298460D02*
X17301706Y-12250841D01*
X17301706Y-12250841D02*
X17301706Y-12212746D01*
X17301706Y-12212746D02*
X17292182Y-12165127D01*
X17292182Y-12165127D02*
X17282658Y-12136555D01*
X17282658Y-12136555D02*
X17273134Y-12117508D01*
X17273134Y-12117508D02*
X17254087Y-12088936D01*
X17254087Y-12088936D02*
X17244563Y-12079412D01*
D13*
X12469500Y-12480500D02*
G75*
G02*
X12367900Y-12480500I-50800J0D01*
G01*
X12367900Y-12480500D02*
G75*
G02*
X12469500Y-12480500I50800J0D01*
G01*
D11*
X12835039Y-12571984D02*
X12720753Y-12571984D01*
X12777896Y-12571984D02*
X12777896Y-12371984D01*
X12777896Y-12371984D02*
X12758848Y-12400555D01*
X12758848Y-12400555D02*
X12739801Y-12419603D01*
X12739801Y-12419603D02*
X12720753Y-12429127D01*
X12920753Y-12552936D02*
X12930277Y-12562460D01*
X12930277Y-12562460D02*
X12920753Y-12571984D01*
X12920753Y-12571984D02*
X12911229Y-12562460D01*
X12911229Y-12562460D02*
X12920753Y-12552936D01*
X12920753Y-12552936D02*
X12920753Y-12571984D01*
X13054086Y-12371984D02*
X13073134Y-12371984D01*
X13073134Y-12371984D02*
X13092182Y-12381508D01*
X13092182Y-12381508D02*
X13101705Y-12391031D01*
X13101705Y-12391031D02*
X13111229Y-12410079D01*
X13111229Y-12410079D02*
X13120753Y-12448174D01*
X13120753Y-12448174D02*
X13120753Y-12495793D01*
X13120753Y-12495793D02*
X13111229Y-12533888D01*
X13111229Y-12533888D02*
X13101705Y-12552936D01*
X13101705Y-12552936D02*
X13092182Y-12562460D01*
X13092182Y-12562460D02*
X13073134Y-12571984D01*
X13073134Y-12571984D02*
X13054086Y-12571984D01*
X13054086Y-12571984D02*
X13035039Y-12562460D01*
X13035039Y-12562460D02*
X13025515Y-12552936D01*
X13025515Y-12552936D02*
X13015991Y-12533888D01*
X13015991Y-12533888D02*
X13006467Y-12495793D01*
X13006467Y-12495793D02*
X13006467Y-12448174D01*
X13006467Y-12448174D02*
X13015991Y-12410079D01*
X13015991Y-12410079D02*
X13025515Y-12391031D01*
X13025515Y-12391031D02*
X13035039Y-12381508D01*
X13035039Y-12381508D02*
X13054086Y-12371984D01*
X13311229Y-12571984D02*
X13196943Y-12571984D01*
X13254086Y-12571984D02*
X13254086Y-12371984D01*
X13254086Y-12371984D02*
X13235039Y-12400555D01*
X13235039Y-12400555D02*
X13215991Y-12419603D01*
X13215991Y-12419603D02*
X13196943Y-12429127D01*
X13482658Y-12371984D02*
X13444562Y-12371984D01*
X13444562Y-12371984D02*
X13425515Y-12381508D01*
X13425515Y-12381508D02*
X13415991Y-12391031D01*
X13415991Y-12391031D02*
X13396943Y-12419603D01*
X13396943Y-12419603D02*
X13387420Y-12457698D01*
X13387420Y-12457698D02*
X13387420Y-12533888D01*
X13387420Y-12533888D02*
X13396943Y-12552936D01*
X13396943Y-12552936D02*
X13406467Y-12562460D01*
X13406467Y-12562460D02*
X13425515Y-12571984D01*
X13425515Y-12571984D02*
X13463610Y-12571984D01*
X13463610Y-12571984D02*
X13482658Y-12562460D01*
X13482658Y-12562460D02*
X13492182Y-12552936D01*
X13492182Y-12552936D02*
X13501705Y-12533888D01*
X13501705Y-12533888D02*
X13501705Y-12486269D01*
X13501705Y-12486269D02*
X13492182Y-12467222D01*
X13492182Y-12467222D02*
X13482658Y-12457698D01*
X13482658Y-12457698D02*
X13463610Y-12448174D01*
X13463610Y-12448174D02*
X13425515Y-12448174D01*
X13425515Y-12448174D02*
X13406467Y-12457698D01*
X13406467Y-12457698D02*
X13396943Y-12467222D01*
X13396943Y-12467222D02*
X13387420Y-12486269D01*
X13587420Y-12571984D02*
X13587420Y-12438650D01*
X13587420Y-12457698D02*
X13596943Y-12448174D01*
X13596943Y-12448174D02*
X13615991Y-12438650D01*
X13615991Y-12438650D02*
X13644563Y-12438650D01*
X13644563Y-12438650D02*
X13663610Y-12448174D01*
X13663610Y-12448174D02*
X13673134Y-12467222D01*
X13673134Y-12467222D02*
X13673134Y-12571984D01*
X13673134Y-12467222D02*
X13682658Y-12448174D01*
X13682658Y-12448174D02*
X13701705Y-12438650D01*
X13701705Y-12438650D02*
X13730277Y-12438650D01*
X13730277Y-12438650D02*
X13749324Y-12448174D01*
X13749324Y-12448174D02*
X13758848Y-12467222D01*
X13758848Y-12467222D02*
X13758848Y-12571984D01*
X13854086Y-12571984D02*
X13854086Y-12438650D01*
X13854086Y-12457698D02*
X13863610Y-12448174D01*
X13863610Y-12448174D02*
X13882658Y-12438650D01*
X13882658Y-12438650D02*
X13911229Y-12438650D01*
X13911229Y-12438650D02*
X13930277Y-12448174D01*
X13930277Y-12448174D02*
X13939801Y-12467222D01*
X13939801Y-12467222D02*
X13939801Y-12571984D01*
X13939801Y-12467222D02*
X13949324Y-12448174D01*
X13949324Y-12448174D02*
X13968372Y-12438650D01*
X13968372Y-12438650D02*
X13996943Y-12438650D01*
X13996943Y-12438650D02*
X14015991Y-12448174D01*
X14015991Y-12448174D02*
X14025515Y-12467222D01*
X14025515Y-12467222D02*
X14025515Y-12571984D01*
X14415991Y-12362460D02*
X14244563Y-12619603D01*
X14673134Y-12371984D02*
X14692182Y-12371984D01*
X14692182Y-12371984D02*
X14711229Y-12381508D01*
X14711229Y-12381508D02*
X14720753Y-12391031D01*
X14720753Y-12391031D02*
X14730277Y-12410079D01*
X14730277Y-12410079D02*
X14739801Y-12448174D01*
X14739801Y-12448174D02*
X14739801Y-12495793D01*
X14739801Y-12495793D02*
X14730277Y-12533888D01*
X14730277Y-12533888D02*
X14720753Y-12552936D01*
X14720753Y-12552936D02*
X14711229Y-12562460D01*
X14711229Y-12562460D02*
X14692182Y-12571984D01*
X14692182Y-12571984D02*
X14673134Y-12571984D01*
X14673134Y-12571984D02*
X14654086Y-12562460D01*
X14654086Y-12562460D02*
X14644563Y-12552936D01*
X14644563Y-12552936D02*
X14635039Y-12533888D01*
X14635039Y-12533888D02*
X14625515Y-12495793D01*
X14625515Y-12495793D02*
X14625515Y-12448174D01*
X14625515Y-12448174D02*
X14635039Y-12410079D01*
X14635039Y-12410079D02*
X14644563Y-12391031D01*
X14644563Y-12391031D02*
X14654086Y-12381508D01*
X14654086Y-12381508D02*
X14673134Y-12371984D01*
X14825515Y-12552936D02*
X14835039Y-12562460D01*
X14835039Y-12562460D02*
X14825515Y-12571984D01*
X14825515Y-12571984D02*
X14815991Y-12562460D01*
X14815991Y-12562460D02*
X14825515Y-12552936D01*
X14825515Y-12552936D02*
X14825515Y-12571984D01*
X14958848Y-12371984D02*
X14977896Y-12371984D01*
X14977896Y-12371984D02*
X14996944Y-12381508D01*
X14996944Y-12381508D02*
X15006467Y-12391031D01*
X15006467Y-12391031D02*
X15015991Y-12410079D01*
X15015991Y-12410079D02*
X15025515Y-12448174D01*
X15025515Y-12448174D02*
X15025515Y-12495793D01*
X15025515Y-12495793D02*
X15015991Y-12533888D01*
X15015991Y-12533888D02*
X15006467Y-12552936D01*
X15006467Y-12552936D02*
X14996944Y-12562460D01*
X14996944Y-12562460D02*
X14977896Y-12571984D01*
X14977896Y-12571984D02*
X14958848Y-12571984D01*
X14958848Y-12571984D02*
X14939801Y-12562460D01*
X14939801Y-12562460D02*
X14930277Y-12552936D01*
X14930277Y-12552936D02*
X14920753Y-12533888D01*
X14920753Y-12533888D02*
X14911229Y-12495793D01*
X14911229Y-12495793D02*
X14911229Y-12448174D01*
X14911229Y-12448174D02*
X14920753Y-12410079D01*
X14920753Y-12410079D02*
X14930277Y-12391031D01*
X14930277Y-12391031D02*
X14939801Y-12381508D01*
X14939801Y-12381508D02*
X14958848Y-12371984D01*
X15196944Y-12438650D02*
X15196944Y-12571984D01*
X15149325Y-12362460D02*
X15101706Y-12505317D01*
X15101706Y-12505317D02*
X15225515Y-12505317D01*
X15339801Y-12371984D02*
X15358848Y-12371984D01*
X15358848Y-12371984D02*
X15377896Y-12381508D01*
X15377896Y-12381508D02*
X15387420Y-12391031D01*
X15387420Y-12391031D02*
X15396944Y-12410079D01*
X15396944Y-12410079D02*
X15406467Y-12448174D01*
X15406467Y-12448174D02*
X15406467Y-12495793D01*
X15406467Y-12495793D02*
X15396944Y-12533888D01*
X15396944Y-12533888D02*
X15387420Y-12552936D01*
X15387420Y-12552936D02*
X15377896Y-12562460D01*
X15377896Y-12562460D02*
X15358848Y-12571984D01*
X15358848Y-12571984D02*
X15339801Y-12571984D01*
X15339801Y-12571984D02*
X15320753Y-12562460D01*
X15320753Y-12562460D02*
X15311229Y-12552936D01*
X15311229Y-12552936D02*
X15301706Y-12533888D01*
X15301706Y-12533888D02*
X15292182Y-12495793D01*
X15292182Y-12495793D02*
X15292182Y-12448174D01*
X15292182Y-12448174D02*
X15301706Y-12410079D01*
X15301706Y-12410079D02*
X15311229Y-12391031D01*
X15311229Y-12391031D02*
X15320753Y-12381508D01*
X15320753Y-12381508D02*
X15339801Y-12371984D01*
X15530277Y-12371984D02*
X15549325Y-12371984D01*
X15549325Y-12371984D02*
X15568372Y-12381508D01*
X15568372Y-12381508D02*
X15577896Y-12391031D01*
X15577896Y-12391031D02*
X15587420Y-12410079D01*
X15587420Y-12410079D02*
X15596944Y-12448174D01*
X15596944Y-12448174D02*
X15596944Y-12495793D01*
X15596944Y-12495793D02*
X15587420Y-12533888D01*
X15587420Y-12533888D02*
X15577896Y-12552936D01*
X15577896Y-12552936D02*
X15568372Y-12562460D01*
X15568372Y-12562460D02*
X15549325Y-12571984D01*
X15549325Y-12571984D02*
X15530277Y-12571984D01*
X15530277Y-12571984D02*
X15511229Y-12562460D01*
X15511229Y-12562460D02*
X15501706Y-12552936D01*
X15501706Y-12552936D02*
X15492182Y-12533888D01*
X15492182Y-12533888D02*
X15482658Y-12495793D01*
X15482658Y-12495793D02*
X15482658Y-12448174D01*
X15482658Y-12448174D02*
X15492182Y-12410079D01*
X15492182Y-12410079D02*
X15501706Y-12391031D01*
X15501706Y-12391031D02*
X15511229Y-12381508D01*
X15511229Y-12381508D02*
X15530277Y-12371984D01*
X15673134Y-12371984D02*
X15673134Y-12410079D01*
X15749325Y-12371984D02*
X15749325Y-12410079D01*
X16044563Y-12648174D02*
X16035039Y-12638650D01*
X16035039Y-12638650D02*
X16015991Y-12610079D01*
X16015991Y-12610079D02*
X16006468Y-12591031D01*
X16006468Y-12591031D02*
X15996944Y-12562460D01*
X15996944Y-12562460D02*
X15987420Y-12514841D01*
X15987420Y-12514841D02*
X15987420Y-12476746D01*
X15987420Y-12476746D02*
X15996944Y-12429127D01*
X15996944Y-12429127D02*
X16006468Y-12400555D01*
X16006468Y-12400555D02*
X16015991Y-12381508D01*
X16015991Y-12381508D02*
X16035039Y-12352936D01*
X16035039Y-12352936D02*
X16044563Y-12343412D01*
X16225515Y-12571984D02*
X16111229Y-12571984D01*
X16168372Y-12571984D02*
X16168372Y-12371984D01*
X16168372Y-12371984D02*
X16149325Y-12400555D01*
X16149325Y-12400555D02*
X16130277Y-12419603D01*
X16130277Y-12419603D02*
X16111229Y-12429127D01*
X16301706Y-12391031D02*
X16311229Y-12381508D01*
X16311229Y-12381508D02*
X16330277Y-12371984D01*
X16330277Y-12371984D02*
X16377896Y-12371984D01*
X16377896Y-12371984D02*
X16396944Y-12381508D01*
X16396944Y-12381508D02*
X16406468Y-12391031D01*
X16406468Y-12391031D02*
X16415991Y-12410079D01*
X16415991Y-12410079D02*
X16415991Y-12429127D01*
X16415991Y-12429127D02*
X16406468Y-12457698D01*
X16406468Y-12457698D02*
X16292182Y-12571984D01*
X16292182Y-12571984D02*
X16415991Y-12571984D01*
X16654087Y-12571984D02*
X16654087Y-12371984D01*
X16739801Y-12571984D02*
X16739801Y-12467222D01*
X16739801Y-12467222D02*
X16730277Y-12448174D01*
X16730277Y-12448174D02*
X16711230Y-12438650D01*
X16711230Y-12438650D02*
X16682658Y-12438650D01*
X16682658Y-12438650D02*
X16663610Y-12448174D01*
X16663610Y-12448174D02*
X16654087Y-12457698D01*
X16863611Y-12571984D02*
X16844563Y-12562460D01*
X16844563Y-12562460D02*
X16835039Y-12552936D01*
X16835039Y-12552936D02*
X16825515Y-12533888D01*
X16825515Y-12533888D02*
X16825515Y-12476746D01*
X16825515Y-12476746D02*
X16835039Y-12457698D01*
X16835039Y-12457698D02*
X16844563Y-12448174D01*
X16844563Y-12448174D02*
X16863611Y-12438650D01*
X16863611Y-12438650D02*
X16892182Y-12438650D01*
X16892182Y-12438650D02*
X16911230Y-12448174D01*
X16911230Y-12448174D02*
X16920753Y-12457698D01*
X16920753Y-12457698D02*
X16930277Y-12476746D01*
X16930277Y-12476746D02*
X16930277Y-12533888D01*
X16930277Y-12533888D02*
X16920753Y-12552936D01*
X16920753Y-12552936D02*
X16911230Y-12562460D01*
X16911230Y-12562460D02*
X16892182Y-12571984D01*
X16892182Y-12571984D02*
X16863611Y-12571984D01*
X17044563Y-12571984D02*
X17025515Y-12562460D01*
X17025515Y-12562460D02*
X17015992Y-12543412D01*
X17015992Y-12543412D02*
X17015992Y-12371984D01*
X17196944Y-12562460D02*
X17177896Y-12571984D01*
X17177896Y-12571984D02*
X17139801Y-12571984D01*
X17139801Y-12571984D02*
X17120753Y-12562460D01*
X17120753Y-12562460D02*
X17111230Y-12543412D01*
X17111230Y-12543412D02*
X17111230Y-12467222D01*
X17111230Y-12467222D02*
X17120753Y-12448174D01*
X17120753Y-12448174D02*
X17139801Y-12438650D01*
X17139801Y-12438650D02*
X17177896Y-12438650D01*
X17177896Y-12438650D02*
X17196944Y-12448174D01*
X17196944Y-12448174D02*
X17206468Y-12467222D01*
X17206468Y-12467222D02*
X17206468Y-12486269D01*
X17206468Y-12486269D02*
X17111230Y-12505317D01*
X17282658Y-12562460D02*
X17301706Y-12571984D01*
X17301706Y-12571984D02*
X17339801Y-12571984D01*
X17339801Y-12571984D02*
X17358849Y-12562460D01*
X17358849Y-12562460D02*
X17368373Y-12543412D01*
X17368373Y-12543412D02*
X17368373Y-12533888D01*
X17368373Y-12533888D02*
X17358849Y-12514841D01*
X17358849Y-12514841D02*
X17339801Y-12505317D01*
X17339801Y-12505317D02*
X17311230Y-12505317D01*
X17311230Y-12505317D02*
X17292182Y-12495793D01*
X17292182Y-12495793D02*
X17282658Y-12476746D01*
X17282658Y-12476746D02*
X17282658Y-12467222D01*
X17282658Y-12467222D02*
X17292182Y-12448174D01*
X17292182Y-12448174D02*
X17311230Y-12438650D01*
X17311230Y-12438650D02*
X17339801Y-12438650D01*
X17339801Y-12438650D02*
X17358849Y-12448174D01*
X17435039Y-12648174D02*
X17444563Y-12638650D01*
X17444563Y-12638650D02*
X17463611Y-12610079D01*
X17463611Y-12610079D02*
X17473134Y-12591031D01*
X17473134Y-12591031D02*
X17482658Y-12562460D01*
X17482658Y-12562460D02*
X17492182Y-12514841D01*
X17492182Y-12514841D02*
X17492182Y-12476746D01*
X17492182Y-12476746D02*
X17482658Y-12429127D01*
X17482658Y-12429127D02*
X17473134Y-12400555D01*
X17473134Y-12400555D02*
X17463611Y-12381508D01*
X17463611Y-12381508D02*
X17444563Y-12352936D01*
X17444563Y-12352936D02*
X17435039Y-12343412D01*
D14*
X12414890Y-12689890D02*
X12414890Y-12799110D01*
X12360280Y-12744500D02*
X12469500Y-12744500D01*
D11*
X12835039Y-12835984D02*
X12720753Y-12835984D01*
X12777896Y-12835984D02*
X12777896Y-12635984D01*
X12777896Y-12635984D02*
X12758848Y-12664555D01*
X12758848Y-12664555D02*
X12739801Y-12683603D01*
X12739801Y-12683603D02*
X12720753Y-12693127D01*
X12920753Y-12816936D02*
X12930277Y-12826460D01*
X12930277Y-12826460D02*
X12920753Y-12835984D01*
X12920753Y-12835984D02*
X12911229Y-12826460D01*
X12911229Y-12826460D02*
X12920753Y-12816936D01*
X12920753Y-12816936D02*
X12920753Y-12835984D01*
X13054086Y-12635984D02*
X13073134Y-12635984D01*
X13073134Y-12635984D02*
X13092182Y-12645508D01*
X13092182Y-12645508D02*
X13101705Y-12655031D01*
X13101705Y-12655031D02*
X13111229Y-12674079D01*
X13111229Y-12674079D02*
X13120753Y-12712174D01*
X13120753Y-12712174D02*
X13120753Y-12759793D01*
X13120753Y-12759793D02*
X13111229Y-12797888D01*
X13111229Y-12797888D02*
X13101705Y-12816936D01*
X13101705Y-12816936D02*
X13092182Y-12826460D01*
X13092182Y-12826460D02*
X13073134Y-12835984D01*
X13073134Y-12835984D02*
X13054086Y-12835984D01*
X13054086Y-12835984D02*
X13035039Y-12826460D01*
X13035039Y-12826460D02*
X13025515Y-12816936D01*
X13025515Y-12816936D02*
X13015991Y-12797888D01*
X13015991Y-12797888D02*
X13006467Y-12759793D01*
X13006467Y-12759793D02*
X13006467Y-12712174D01*
X13006467Y-12712174D02*
X13015991Y-12674079D01*
X13015991Y-12674079D02*
X13025515Y-12655031D01*
X13025515Y-12655031D02*
X13035039Y-12645508D01*
X13035039Y-12645508D02*
X13054086Y-12635984D01*
X13215991Y-12835984D02*
X13254086Y-12835984D01*
X13254086Y-12835984D02*
X13273134Y-12826460D01*
X13273134Y-12826460D02*
X13282658Y-12816936D01*
X13282658Y-12816936D02*
X13301705Y-12788365D01*
X13301705Y-12788365D02*
X13311229Y-12750269D01*
X13311229Y-12750269D02*
X13311229Y-12674079D01*
X13311229Y-12674079D02*
X13301705Y-12655031D01*
X13301705Y-12655031D02*
X13292182Y-12645508D01*
X13292182Y-12645508D02*
X13273134Y-12635984D01*
X13273134Y-12635984D02*
X13235039Y-12635984D01*
X13235039Y-12635984D02*
X13215991Y-12645508D01*
X13215991Y-12645508D02*
X13206467Y-12655031D01*
X13206467Y-12655031D02*
X13196943Y-12674079D01*
X13196943Y-12674079D02*
X13196943Y-12721698D01*
X13196943Y-12721698D02*
X13206467Y-12740746D01*
X13206467Y-12740746D02*
X13215991Y-12750269D01*
X13215991Y-12750269D02*
X13235039Y-12759793D01*
X13235039Y-12759793D02*
X13273134Y-12759793D01*
X13273134Y-12759793D02*
X13292182Y-12750269D01*
X13292182Y-12750269D02*
X13301705Y-12740746D01*
X13301705Y-12740746D02*
X13311229Y-12721698D01*
X13387420Y-12655031D02*
X13396943Y-12645508D01*
X13396943Y-12645508D02*
X13415991Y-12635984D01*
X13415991Y-12635984D02*
X13463610Y-12635984D01*
X13463610Y-12635984D02*
X13482658Y-12645508D01*
X13482658Y-12645508D02*
X13492182Y-12655031D01*
X13492182Y-12655031D02*
X13501705Y-12674079D01*
X13501705Y-12674079D02*
X13501705Y-12693127D01*
X13501705Y-12693127D02*
X13492182Y-12721698D01*
X13492182Y-12721698D02*
X13377896Y-12835984D01*
X13377896Y-12835984D02*
X13501705Y-12835984D01*
X13587420Y-12835984D02*
X13587420Y-12702650D01*
X13587420Y-12721698D02*
X13596943Y-12712174D01*
X13596943Y-12712174D02*
X13615991Y-12702650D01*
X13615991Y-12702650D02*
X13644563Y-12702650D01*
X13644563Y-12702650D02*
X13663610Y-12712174D01*
X13663610Y-12712174D02*
X13673134Y-12731222D01*
X13673134Y-12731222D02*
X13673134Y-12835984D01*
X13673134Y-12731222D02*
X13682658Y-12712174D01*
X13682658Y-12712174D02*
X13701705Y-12702650D01*
X13701705Y-12702650D02*
X13730277Y-12702650D01*
X13730277Y-12702650D02*
X13749324Y-12712174D01*
X13749324Y-12712174D02*
X13758848Y-12731222D01*
X13758848Y-12731222D02*
X13758848Y-12835984D01*
X13854086Y-12835984D02*
X13854086Y-12702650D01*
X13854086Y-12721698D02*
X13863610Y-12712174D01*
X13863610Y-12712174D02*
X13882658Y-12702650D01*
X13882658Y-12702650D02*
X13911229Y-12702650D01*
X13911229Y-12702650D02*
X13930277Y-12712174D01*
X13930277Y-12712174D02*
X13939801Y-12731222D01*
X13939801Y-12731222D02*
X13939801Y-12835984D01*
X13939801Y-12731222D02*
X13949324Y-12712174D01*
X13949324Y-12712174D02*
X13968372Y-12702650D01*
X13968372Y-12702650D02*
X13996943Y-12702650D01*
X13996943Y-12702650D02*
X14015991Y-12712174D01*
X14015991Y-12712174D02*
X14025515Y-12731222D01*
X14025515Y-12731222D02*
X14025515Y-12835984D01*
X14415991Y-12626460D02*
X14244563Y-12883603D01*
X14673134Y-12635984D02*
X14692182Y-12635984D01*
X14692182Y-12635984D02*
X14711229Y-12645508D01*
X14711229Y-12645508D02*
X14720753Y-12655031D01*
X14720753Y-12655031D02*
X14730277Y-12674079D01*
X14730277Y-12674079D02*
X14739801Y-12712174D01*
X14739801Y-12712174D02*
X14739801Y-12759793D01*
X14739801Y-12759793D02*
X14730277Y-12797888D01*
X14730277Y-12797888D02*
X14720753Y-12816936D01*
X14720753Y-12816936D02*
X14711229Y-12826460D01*
X14711229Y-12826460D02*
X14692182Y-12835984D01*
X14692182Y-12835984D02*
X14673134Y-12835984D01*
X14673134Y-12835984D02*
X14654086Y-12826460D01*
X14654086Y-12826460D02*
X14644563Y-12816936D01*
X14644563Y-12816936D02*
X14635039Y-12797888D01*
X14635039Y-12797888D02*
X14625515Y-12759793D01*
X14625515Y-12759793D02*
X14625515Y-12712174D01*
X14625515Y-12712174D02*
X14635039Y-12674079D01*
X14635039Y-12674079D02*
X14644563Y-12655031D01*
X14644563Y-12655031D02*
X14654086Y-12645508D01*
X14654086Y-12645508D02*
X14673134Y-12635984D01*
X14825515Y-12816936D02*
X14835039Y-12826460D01*
X14835039Y-12826460D02*
X14825515Y-12835984D01*
X14825515Y-12835984D02*
X14815991Y-12826460D01*
X14815991Y-12826460D02*
X14825515Y-12816936D01*
X14825515Y-12816936D02*
X14825515Y-12835984D01*
X14958848Y-12635984D02*
X14977896Y-12635984D01*
X14977896Y-12635984D02*
X14996944Y-12645508D01*
X14996944Y-12645508D02*
X15006467Y-12655031D01*
X15006467Y-12655031D02*
X15015991Y-12674079D01*
X15015991Y-12674079D02*
X15025515Y-12712174D01*
X15025515Y-12712174D02*
X15025515Y-12759793D01*
X15025515Y-12759793D02*
X15015991Y-12797888D01*
X15015991Y-12797888D02*
X15006467Y-12816936D01*
X15006467Y-12816936D02*
X14996944Y-12826460D01*
X14996944Y-12826460D02*
X14977896Y-12835984D01*
X14977896Y-12835984D02*
X14958848Y-12835984D01*
X14958848Y-12835984D02*
X14939801Y-12826460D01*
X14939801Y-12826460D02*
X14930277Y-12816936D01*
X14930277Y-12816936D02*
X14920753Y-12797888D01*
X14920753Y-12797888D02*
X14911229Y-12759793D01*
X14911229Y-12759793D02*
X14911229Y-12712174D01*
X14911229Y-12712174D02*
X14920753Y-12674079D01*
X14920753Y-12674079D02*
X14930277Y-12655031D01*
X14930277Y-12655031D02*
X14939801Y-12645508D01*
X14939801Y-12645508D02*
X14958848Y-12635984D01*
X15196944Y-12702650D02*
X15196944Y-12835984D01*
X15149325Y-12626460D02*
X15101706Y-12769317D01*
X15101706Y-12769317D02*
X15225515Y-12769317D01*
X15282658Y-12635984D02*
X15406467Y-12635984D01*
X15406467Y-12635984D02*
X15339801Y-12712174D01*
X15339801Y-12712174D02*
X15368372Y-12712174D01*
X15368372Y-12712174D02*
X15387420Y-12721698D01*
X15387420Y-12721698D02*
X15396944Y-12731222D01*
X15396944Y-12731222D02*
X15406467Y-12750269D01*
X15406467Y-12750269D02*
X15406467Y-12797888D01*
X15406467Y-12797888D02*
X15396944Y-12816936D01*
X15396944Y-12816936D02*
X15387420Y-12826460D01*
X15387420Y-12826460D02*
X15368372Y-12835984D01*
X15368372Y-12835984D02*
X15311229Y-12835984D01*
X15311229Y-12835984D02*
X15292182Y-12826460D01*
X15292182Y-12826460D02*
X15282658Y-12816936D01*
X15530277Y-12635984D02*
X15549325Y-12635984D01*
X15549325Y-12635984D02*
X15568372Y-12645508D01*
X15568372Y-12645508D02*
X15577896Y-12655031D01*
X15577896Y-12655031D02*
X15587420Y-12674079D01*
X15587420Y-12674079D02*
X15596944Y-12712174D01*
X15596944Y-12712174D02*
X15596944Y-12759793D01*
X15596944Y-12759793D02*
X15587420Y-12797888D01*
X15587420Y-12797888D02*
X15577896Y-12816936D01*
X15577896Y-12816936D02*
X15568372Y-12826460D01*
X15568372Y-12826460D02*
X15549325Y-12835984D01*
X15549325Y-12835984D02*
X15530277Y-12835984D01*
X15530277Y-12835984D02*
X15511229Y-12826460D01*
X15511229Y-12826460D02*
X15501706Y-12816936D01*
X15501706Y-12816936D02*
X15492182Y-12797888D01*
X15492182Y-12797888D02*
X15482658Y-12759793D01*
X15482658Y-12759793D02*
X15482658Y-12712174D01*
X15482658Y-12712174D02*
X15492182Y-12674079D01*
X15492182Y-12674079D02*
X15501706Y-12655031D01*
X15501706Y-12655031D02*
X15511229Y-12645508D01*
X15511229Y-12645508D02*
X15530277Y-12635984D01*
X15673134Y-12635984D02*
X15673134Y-12674079D01*
X15749325Y-12635984D02*
X15749325Y-12674079D01*
X16044563Y-12912174D02*
X16035039Y-12902650D01*
X16035039Y-12902650D02*
X16015991Y-12874079D01*
X16015991Y-12874079D02*
X16006468Y-12855031D01*
X16006468Y-12855031D02*
X15996944Y-12826460D01*
X15996944Y-12826460D02*
X15987420Y-12778841D01*
X15987420Y-12778841D02*
X15987420Y-12740746D01*
X15987420Y-12740746D02*
X15996944Y-12693127D01*
X15996944Y-12693127D02*
X16006468Y-12664555D01*
X16006468Y-12664555D02*
X16015991Y-12645508D01*
X16015991Y-12645508D02*
X16035039Y-12616936D01*
X16035039Y-12616936D02*
X16044563Y-12607412D01*
X16111229Y-12655031D02*
X16120753Y-12645508D01*
X16120753Y-12645508D02*
X16139801Y-12635984D01*
X16139801Y-12635984D02*
X16187420Y-12635984D01*
X16187420Y-12635984D02*
X16206468Y-12645508D01*
X16206468Y-12645508D02*
X16215991Y-12655031D01*
X16215991Y-12655031D02*
X16225515Y-12674079D01*
X16225515Y-12674079D02*
X16225515Y-12693127D01*
X16225515Y-12693127D02*
X16215991Y-12721698D01*
X16215991Y-12721698D02*
X16101706Y-12835984D01*
X16101706Y-12835984D02*
X16225515Y-12835984D01*
X16396944Y-12702650D02*
X16396944Y-12835984D01*
X16349325Y-12626460D02*
X16301706Y-12769317D01*
X16301706Y-12769317D02*
X16425515Y-12769317D01*
X16654087Y-12835984D02*
X16654087Y-12635984D01*
X16739801Y-12835984D02*
X16739801Y-12731222D01*
X16739801Y-12731222D02*
X16730277Y-12712174D01*
X16730277Y-12712174D02*
X16711230Y-12702650D01*
X16711230Y-12702650D02*
X16682658Y-12702650D01*
X16682658Y-12702650D02*
X16663610Y-12712174D01*
X16663610Y-12712174D02*
X16654087Y-12721698D01*
X16863611Y-12835984D02*
X16844563Y-12826460D01*
X16844563Y-12826460D02*
X16835039Y-12816936D01*
X16835039Y-12816936D02*
X16825515Y-12797888D01*
X16825515Y-12797888D02*
X16825515Y-12740746D01*
X16825515Y-12740746D02*
X16835039Y-12721698D01*
X16835039Y-12721698D02*
X16844563Y-12712174D01*
X16844563Y-12712174D02*
X16863611Y-12702650D01*
X16863611Y-12702650D02*
X16892182Y-12702650D01*
X16892182Y-12702650D02*
X16911230Y-12712174D01*
X16911230Y-12712174D02*
X16920753Y-12721698D01*
X16920753Y-12721698D02*
X16930277Y-12740746D01*
X16930277Y-12740746D02*
X16930277Y-12797888D01*
X16930277Y-12797888D02*
X16920753Y-12816936D01*
X16920753Y-12816936D02*
X16911230Y-12826460D01*
X16911230Y-12826460D02*
X16892182Y-12835984D01*
X16892182Y-12835984D02*
X16863611Y-12835984D01*
X17044563Y-12835984D02*
X17025515Y-12826460D01*
X17025515Y-12826460D02*
X17015992Y-12807412D01*
X17015992Y-12807412D02*
X17015992Y-12635984D01*
X17196944Y-12826460D02*
X17177896Y-12835984D01*
X17177896Y-12835984D02*
X17139801Y-12835984D01*
X17139801Y-12835984D02*
X17120753Y-12826460D01*
X17120753Y-12826460D02*
X17111230Y-12807412D01*
X17111230Y-12807412D02*
X17111230Y-12731222D01*
X17111230Y-12731222D02*
X17120753Y-12712174D01*
X17120753Y-12712174D02*
X17139801Y-12702650D01*
X17139801Y-12702650D02*
X17177896Y-12702650D01*
X17177896Y-12702650D02*
X17196944Y-12712174D01*
X17196944Y-12712174D02*
X17206468Y-12731222D01*
X17206468Y-12731222D02*
X17206468Y-12750269D01*
X17206468Y-12750269D02*
X17111230Y-12769317D01*
X17282658Y-12826460D02*
X17301706Y-12835984D01*
X17301706Y-12835984D02*
X17339801Y-12835984D01*
X17339801Y-12835984D02*
X17358849Y-12826460D01*
X17358849Y-12826460D02*
X17368373Y-12807412D01*
X17368373Y-12807412D02*
X17368373Y-12797888D01*
X17368373Y-12797888D02*
X17358849Y-12778841D01*
X17358849Y-12778841D02*
X17339801Y-12769317D01*
X17339801Y-12769317D02*
X17311230Y-12769317D01*
X17311230Y-12769317D02*
X17292182Y-12759793D01*
X17292182Y-12759793D02*
X17282658Y-12740746D01*
X17282658Y-12740746D02*
X17282658Y-12731222D01*
X17282658Y-12731222D02*
X17292182Y-12712174D01*
X17292182Y-12712174D02*
X17311230Y-12702650D01*
X17311230Y-12702650D02*
X17339801Y-12702650D01*
X17339801Y-12702650D02*
X17358849Y-12712174D01*
X17435039Y-12912174D02*
X17444563Y-12902650D01*
X17444563Y-12902650D02*
X17463611Y-12874079D01*
X17463611Y-12874079D02*
X17473134Y-12855031D01*
X17473134Y-12855031D02*
X17482658Y-12826460D01*
X17482658Y-12826460D02*
X17492182Y-12778841D01*
X17492182Y-12778841D02*
X17492182Y-12740746D01*
X17492182Y-12740746D02*
X17482658Y-12693127D01*
X17482658Y-12693127D02*
X17473134Y-12664555D01*
X17473134Y-12664555D02*
X17463611Y-12645508D01*
X17463611Y-12645508D02*
X17444563Y-12616936D01*
X17444563Y-12616936D02*
X17435039Y-12607412D01*
M02*
