%TF.GenerationSoftware,KiCad,Pcbnew,8.0.3*%
%TF.CreationDate,2024-07-08T22:13:50-05:00*%
%TF.ProjectId,3.3v Pro Micro,332e3376-2050-4726-9f20-4d6963726f2e,rev?*%
%TF.SameCoordinates,Original*%
%TF.FileFunction,Drillmap*%
%TF.FilePolarity,Positive*%
%FSLAX45Y45*%
G04 Gerber Fmt 4.5, Leading zero omitted, Abs format (unit mm)*
G04 Created by KiCad (PCBNEW 8.0.3) date 2024-07-08 22:13:50*
%MOMM*%
%LPD*%
G01*
G04 APERTURE LIST*
%ADD10C,0.050000*%
%ADD11C,0.200000*%
G04 APERTURE END LIST*
D10*
X12472000Y-7924000D02*
X16122000Y-7924000D01*
X16122000Y-11574000D01*
X12472000Y-11574000D01*
X12472000Y-7924000D01*
D11*
X12730277Y-11887984D02*
X12730277Y-11687984D01*
X12730277Y-11687984D02*
X12777896Y-11687984D01*
X12777896Y-11687984D02*
X12806467Y-11697508D01*
X12806467Y-11697508D02*
X12825515Y-11716555D01*
X12825515Y-11716555D02*
X12835039Y-11735603D01*
X12835039Y-11735603D02*
X12844562Y-11773698D01*
X12844562Y-11773698D02*
X12844562Y-11802269D01*
X12844562Y-11802269D02*
X12835039Y-11840365D01*
X12835039Y-11840365D02*
X12825515Y-11859412D01*
X12825515Y-11859412D02*
X12806467Y-11878460D01*
X12806467Y-11878460D02*
X12777896Y-11887984D01*
X12777896Y-11887984D02*
X12730277Y-11887984D01*
X12930277Y-11887984D02*
X12930277Y-11754650D01*
X12930277Y-11792746D02*
X12939801Y-11773698D01*
X12939801Y-11773698D02*
X12949324Y-11764174D01*
X12949324Y-11764174D02*
X12968372Y-11754650D01*
X12968372Y-11754650D02*
X12987420Y-11754650D01*
X13054086Y-11887984D02*
X13054086Y-11754650D01*
X13054086Y-11687984D02*
X13044562Y-11697508D01*
X13044562Y-11697508D02*
X13054086Y-11707031D01*
X13054086Y-11707031D02*
X13063610Y-11697508D01*
X13063610Y-11697508D02*
X13054086Y-11687984D01*
X13054086Y-11687984D02*
X13054086Y-11707031D01*
X13177896Y-11887984D02*
X13158848Y-11878460D01*
X13158848Y-11878460D02*
X13149324Y-11859412D01*
X13149324Y-11859412D02*
X13149324Y-11687984D01*
X13282658Y-11887984D02*
X13263610Y-11878460D01*
X13263610Y-11878460D02*
X13254086Y-11859412D01*
X13254086Y-11859412D02*
X13254086Y-11687984D01*
X13511229Y-11887984D02*
X13511229Y-11687984D01*
X13511229Y-11687984D02*
X13577896Y-11830841D01*
X13577896Y-11830841D02*
X13644562Y-11687984D01*
X13644562Y-11687984D02*
X13644562Y-11887984D01*
X13825515Y-11887984D02*
X13825515Y-11783222D01*
X13825515Y-11783222D02*
X13815991Y-11764174D01*
X13815991Y-11764174D02*
X13796943Y-11754650D01*
X13796943Y-11754650D02*
X13758848Y-11754650D01*
X13758848Y-11754650D02*
X13739801Y-11764174D01*
X13825515Y-11878460D02*
X13806467Y-11887984D01*
X13806467Y-11887984D02*
X13758848Y-11887984D01*
X13758848Y-11887984D02*
X13739801Y-11878460D01*
X13739801Y-11878460D02*
X13730277Y-11859412D01*
X13730277Y-11859412D02*
X13730277Y-11840365D01*
X13730277Y-11840365D02*
X13739801Y-11821317D01*
X13739801Y-11821317D02*
X13758848Y-11811793D01*
X13758848Y-11811793D02*
X13806467Y-11811793D01*
X13806467Y-11811793D02*
X13825515Y-11802269D01*
X13920753Y-11754650D02*
X13920753Y-11954650D01*
X13920753Y-11764174D02*
X13939801Y-11754650D01*
X13939801Y-11754650D02*
X13977896Y-11754650D01*
X13977896Y-11754650D02*
X13996943Y-11764174D01*
X13996943Y-11764174D02*
X14006467Y-11773698D01*
X14006467Y-11773698D02*
X14015991Y-11792746D01*
X14015991Y-11792746D02*
X14015991Y-11849888D01*
X14015991Y-11849888D02*
X14006467Y-11868936D01*
X14006467Y-11868936D02*
X13996943Y-11878460D01*
X13996943Y-11878460D02*
X13977896Y-11887984D01*
X13977896Y-11887984D02*
X13939801Y-11887984D01*
X13939801Y-11887984D02*
X13920753Y-11878460D01*
X14101705Y-11868936D02*
X14111229Y-11878460D01*
X14111229Y-11878460D02*
X14101705Y-11887984D01*
X14101705Y-11887984D02*
X14092182Y-11878460D01*
X14092182Y-11878460D02*
X14101705Y-11868936D01*
X14101705Y-11868936D02*
X14101705Y-11887984D01*
X14101705Y-11764174D02*
X14111229Y-11773698D01*
X14111229Y-11773698D02*
X14101705Y-11783222D01*
X14101705Y-11783222D02*
X14092182Y-11773698D01*
X14092182Y-11773698D02*
X14101705Y-11764174D01*
X14101705Y-11764174D02*
X14101705Y-11783222D01*
M02*
