%TF.GenerationSoftware,KiCad,Pcbnew,8.0.3*%
%TF.CreationDate,2024-07-14T23:37:16-05:00*%
%TF.ProjectId,3.3v Pro Micro Long,332e3376-2050-4726-9f20-4d6963726f20,rev?*%
%TF.SameCoordinates,Original*%
%TF.FileFunction,Soldermask,Bot*%
%TF.FilePolarity,Negative*%
%FSLAX46Y46*%
G04 Gerber Fmt 4.6, Leading zero omitted, Abs format (unit mm)*
G04 Created by KiCad (PCBNEW 8.0.3) date 2024-07-14 23:37:16*
%MOMM*%
%LPD*%
G01*
G04 APERTURE LIST*
G04 Aperture macros list*
%AMRoundRect*
0 Rectangle with rounded corners*
0 $1 Rounding radius*
0 $2 $3 $4 $5 $6 $7 $8 $9 X,Y pos of 4 corners*
0 Add a 4 corners polygon primitive as box body*
4,1,4,$2,$3,$4,$5,$6,$7,$8,$9,$2,$3,0*
0 Add four circle primitives for the rounded corners*
1,1,$1+$1,$2,$3*
1,1,$1+$1,$4,$5*
1,1,$1+$1,$6,$7*
1,1,$1+$1,$8,$9*
0 Add four rect primitives between the rounded corners*
20,1,$1+$1,$2,$3,$4,$5,0*
20,1,$1+$1,$4,$5,$6,$7,0*
20,1,$1+$1,$6,$7,$8,$9,0*
20,1,$1+$1,$8,$9,$2,$3,0*%
G04 Aperture macros list end*
%ADD10C,1.728000*%
%ADD11RoundRect,0.102000X0.762000X-0.762000X0.762000X0.762000X-0.762000X0.762000X-0.762000X-0.762000X0*%
%ADD12R,1.700000X1.700000*%
%ADD13O,1.700000X1.700000*%
%ADD14R,1.752600X1.752600*%
%ADD15C,1.752600*%
%ADD16R,1.500000X2.300000*%
%ADD17O,1.500000X2.300000*%
G04 APERTURE END LIST*
D10*
%TO.C,U3*%
X168460000Y-81500000D03*
X168460000Y-91660000D03*
X165920000Y-81500000D03*
D11*
X160840000Y-81500000D03*
D10*
X163380000Y-81500000D03*
X171000000Y-81500000D03*
X173540000Y-81500000D03*
X165920000Y-91660000D03*
D11*
X160840000Y-91660000D03*
D10*
X163380000Y-91660000D03*
X171000000Y-91660000D03*
X173540000Y-91660000D03*
%TD*%
D12*
%TO.C,J1*%
X185300000Y-93500000D03*
D13*
X182760000Y-93500000D03*
X180220000Y-93500000D03*
X177680000Y-93500000D03*
%TD*%
D14*
%TO.C,U2*%
X128530000Y-99240000D03*
D15*
X131070000Y-99240000D03*
X133610000Y-99240000D03*
X136150000Y-99240000D03*
X138690000Y-99240000D03*
X141230000Y-99240000D03*
X143770000Y-99240000D03*
X146310000Y-99240000D03*
X148850000Y-99240000D03*
X151390000Y-99240000D03*
X153930000Y-99240000D03*
X156470000Y-99240000D03*
X156470000Y-84000000D03*
X153930000Y-84000000D03*
X151390000Y-84000000D03*
X148850000Y-84000000D03*
X146310000Y-84000000D03*
X143770000Y-84000000D03*
X141230000Y-84000000D03*
X138690000Y-84000000D03*
X136150000Y-84000000D03*
X133610000Y-84000000D03*
X131070000Y-84000000D03*
X128530000Y-84000000D03*
%TD*%
D16*
%TO.C,U4*%
X165053000Y-101207500D03*
D17*
X167593000Y-101207500D03*
X170133000Y-101207500D03*
%TD*%
M02*
