%TF.GenerationSoftware,KiCad,Pcbnew,8.0.3*%
%TF.CreationDate,2024-07-14T23:37:16-05:00*%
%TF.ProjectId,3.3v Pro Micro Long,332e3376-2050-4726-9f20-4d6963726f20,rev?*%
%TF.SameCoordinates,Original*%
%TF.FileFunction,Legend,Top*%
%TF.FilePolarity,Positive*%
%FSLAX46Y46*%
G04 Gerber Fmt 4.6, Leading zero omitted, Abs format (unit mm)*
G04 Created by KiCad (PCBNEW 8.0.3) date 2024-07-14 23:37:16*
%MOMM*%
%LPD*%
G01*
G04 APERTURE LIST*
%ADD10C,0.200000*%
%ADD11C,0.250000*%
%ADD12C,0.100000*%
%ADD13C,0.000000*%
%ADD14C,0.127000*%
%ADD15C,0.120000*%
%ADD16C,0.381000*%
%ADD17R,1.752600X1.752600*%
%ADD18C,1.752600*%
G04 APERTURE END LIST*
D10*
X159845863Y-95367219D02*
X159369673Y-95367219D01*
X159369673Y-95367219D02*
X159369673Y-94367219D01*
X160703006Y-95367219D02*
X160131578Y-95367219D01*
X160417292Y-95367219D02*
X160417292Y-94367219D01*
X160417292Y-94367219D02*
X160322054Y-94510076D01*
X160322054Y-94510076D02*
X160226816Y-94605314D01*
X160226816Y-94605314D02*
X160131578Y-94652933D01*
D11*
X134759711Y-80864619D02*
X135093044Y-81864619D01*
X135093044Y-81864619D02*
X135426377Y-80864619D01*
X136331139Y-81769380D02*
X136283520Y-81817000D01*
X136283520Y-81817000D02*
X136140663Y-81864619D01*
X136140663Y-81864619D02*
X136045425Y-81864619D01*
X136045425Y-81864619D02*
X135902568Y-81817000D01*
X135902568Y-81817000D02*
X135807330Y-81721761D01*
X135807330Y-81721761D02*
X135759711Y-81626523D01*
X135759711Y-81626523D02*
X135712092Y-81436047D01*
X135712092Y-81436047D02*
X135712092Y-81293190D01*
X135712092Y-81293190D02*
X135759711Y-81102714D01*
X135759711Y-81102714D02*
X135807330Y-81007476D01*
X135807330Y-81007476D02*
X135902568Y-80912238D01*
X135902568Y-80912238D02*
X136045425Y-80864619D01*
X136045425Y-80864619D02*
X136140663Y-80864619D01*
X136140663Y-80864619D02*
X136283520Y-80912238D01*
X136283520Y-80912238D02*
X136331139Y-80959857D01*
X137331139Y-81769380D02*
X137283520Y-81817000D01*
X137283520Y-81817000D02*
X137140663Y-81864619D01*
X137140663Y-81864619D02*
X137045425Y-81864619D01*
X137045425Y-81864619D02*
X136902568Y-81817000D01*
X136902568Y-81817000D02*
X136807330Y-81721761D01*
X136807330Y-81721761D02*
X136759711Y-81626523D01*
X136759711Y-81626523D02*
X136712092Y-81436047D01*
X136712092Y-81436047D02*
X136712092Y-81293190D01*
X136712092Y-81293190D02*
X136759711Y-81102714D01*
X136759711Y-81102714D02*
X136807330Y-81007476D01*
X136807330Y-81007476D02*
X136902568Y-80912238D01*
X136902568Y-80912238D02*
X137045425Y-80864619D01*
X137045425Y-80864619D02*
X137140663Y-80864619D01*
X137140663Y-80864619D02*
X137283520Y-80912238D01*
X137283520Y-80912238D02*
X137331139Y-80959857D01*
D10*
X163869673Y-99367219D02*
X163869673Y-98367219D01*
X164345863Y-99367219D02*
X164345863Y-98367219D01*
X164345863Y-98367219D02*
X164917291Y-99367219D01*
X164917291Y-99367219D02*
X164917291Y-98367219D01*
X166345863Y-98367219D02*
X166536339Y-98367219D01*
X166536339Y-98367219D02*
X166631577Y-98414838D01*
X166631577Y-98414838D02*
X166726815Y-98510076D01*
X166726815Y-98510076D02*
X166774434Y-98700552D01*
X166774434Y-98700552D02*
X166774434Y-99033885D01*
X166774434Y-99033885D02*
X166726815Y-99224361D01*
X166726815Y-99224361D02*
X166631577Y-99319600D01*
X166631577Y-99319600D02*
X166536339Y-99367219D01*
X166536339Y-99367219D02*
X166345863Y-99367219D01*
X166345863Y-99367219D02*
X166250625Y-99319600D01*
X166250625Y-99319600D02*
X166155387Y-99224361D01*
X166155387Y-99224361D02*
X166107768Y-99033885D01*
X166107768Y-99033885D02*
X166107768Y-98700552D01*
X166107768Y-98700552D02*
X166155387Y-98510076D01*
X166155387Y-98510076D02*
X166250625Y-98414838D01*
X166250625Y-98414838D02*
X166345863Y-98367219D01*
X167203006Y-98367219D02*
X167203006Y-99176742D01*
X167203006Y-99176742D02*
X167250625Y-99271980D01*
X167250625Y-99271980D02*
X167298244Y-99319600D01*
X167298244Y-99319600D02*
X167393482Y-99367219D01*
X167393482Y-99367219D02*
X167583958Y-99367219D01*
X167583958Y-99367219D02*
X167679196Y-99319600D01*
X167679196Y-99319600D02*
X167726815Y-99271980D01*
X167726815Y-99271980D02*
X167774434Y-99176742D01*
X167774434Y-99176742D02*
X167774434Y-98367219D01*
X168107768Y-98367219D02*
X168679196Y-98367219D01*
X168393482Y-99367219D02*
X168393482Y-98367219D01*
X170298244Y-98414838D02*
X170203006Y-98367219D01*
X170203006Y-98367219D02*
X170060149Y-98367219D01*
X170060149Y-98367219D02*
X169917292Y-98414838D01*
X169917292Y-98414838D02*
X169822054Y-98510076D01*
X169822054Y-98510076D02*
X169774435Y-98605314D01*
X169774435Y-98605314D02*
X169726816Y-98795790D01*
X169726816Y-98795790D02*
X169726816Y-98938647D01*
X169726816Y-98938647D02*
X169774435Y-99129123D01*
X169774435Y-99129123D02*
X169822054Y-99224361D01*
X169822054Y-99224361D02*
X169917292Y-99319600D01*
X169917292Y-99319600D02*
X170060149Y-99367219D01*
X170060149Y-99367219D02*
X170155387Y-99367219D01*
X170155387Y-99367219D02*
X170298244Y-99319600D01*
X170298244Y-99319600D02*
X170345863Y-99271980D01*
X170345863Y-99271980D02*
X170345863Y-98938647D01*
X170345863Y-98938647D02*
X170155387Y-98938647D01*
X170774435Y-99367219D02*
X170774435Y-98367219D01*
X170774435Y-98367219D02*
X171345863Y-99367219D01*
X171345863Y-99367219D02*
X171345863Y-98367219D01*
X171822054Y-99367219D02*
X171822054Y-98367219D01*
X171822054Y-98367219D02*
X172060149Y-98367219D01*
X172060149Y-98367219D02*
X172203006Y-98414838D01*
X172203006Y-98414838D02*
X172298244Y-98510076D01*
X172298244Y-98510076D02*
X172345863Y-98605314D01*
X172345863Y-98605314D02*
X172393482Y-98795790D01*
X172393482Y-98795790D02*
X172393482Y-98938647D01*
X172393482Y-98938647D02*
X172345863Y-99129123D01*
X172345863Y-99129123D02*
X172298244Y-99224361D01*
X172298244Y-99224361D02*
X172203006Y-99319600D01*
X172203006Y-99319600D02*
X172060149Y-99367219D01*
X172060149Y-99367219D02*
X171822054Y-99367219D01*
D12*
X177619047Y-98762475D02*
X177952380Y-99762475D01*
X177952380Y-99762475D02*
X178285713Y-98762475D01*
X179190475Y-99667236D02*
X179142856Y-99714856D01*
X179142856Y-99714856D02*
X178999999Y-99762475D01*
X178999999Y-99762475D02*
X178904761Y-99762475D01*
X178904761Y-99762475D02*
X178761904Y-99714856D01*
X178761904Y-99714856D02*
X178666666Y-99619617D01*
X178666666Y-99619617D02*
X178619047Y-99524379D01*
X178619047Y-99524379D02*
X178571428Y-99333903D01*
X178571428Y-99333903D02*
X178571428Y-99191046D01*
X178571428Y-99191046D02*
X178619047Y-99000570D01*
X178619047Y-99000570D02*
X178666666Y-98905332D01*
X178666666Y-98905332D02*
X178761904Y-98810094D01*
X178761904Y-98810094D02*
X178904761Y-98762475D01*
X178904761Y-98762475D02*
X178999999Y-98762475D01*
X178999999Y-98762475D02*
X179142856Y-98810094D01*
X179142856Y-98810094D02*
X179190475Y-98857713D01*
X180190475Y-99762475D02*
X179857142Y-99286284D01*
X179619047Y-99762475D02*
X179619047Y-98762475D01*
X179619047Y-98762475D02*
X179999999Y-98762475D01*
X179999999Y-98762475D02*
X180095237Y-98810094D01*
X180095237Y-98810094D02*
X180142856Y-98857713D01*
X180142856Y-98857713D02*
X180190475Y-98952951D01*
X180190475Y-98952951D02*
X180190475Y-99095808D01*
X180190475Y-99095808D02*
X180142856Y-99191046D01*
X180142856Y-99191046D02*
X180095237Y-99238665D01*
X180095237Y-99238665D02*
X179999999Y-99286284D01*
X179999999Y-99286284D02*
X179619047Y-99286284D01*
X181047618Y-99714856D02*
X180952380Y-99762475D01*
X180952380Y-99762475D02*
X180761904Y-99762475D01*
X180761904Y-99762475D02*
X180666666Y-99714856D01*
X180666666Y-99714856D02*
X180619047Y-99667236D01*
X180619047Y-99667236D02*
X180571428Y-99571998D01*
X180571428Y-99571998D02*
X180571428Y-99286284D01*
X180571428Y-99286284D02*
X180619047Y-99191046D01*
X180619047Y-99191046D02*
X180666666Y-99143427D01*
X180666666Y-99143427D02*
X180761904Y-99095808D01*
X180761904Y-99095808D02*
X180952380Y-99095808D01*
X180952380Y-99095808D02*
X181047618Y-99143427D01*
X181476190Y-99762475D02*
X181476190Y-98762475D01*
X181904761Y-99762475D02*
X181904761Y-99238665D01*
X181904761Y-99238665D02*
X181857142Y-99143427D01*
X181857142Y-99143427D02*
X181761904Y-99095808D01*
X181761904Y-99095808D02*
X181619047Y-99095808D01*
X181619047Y-99095808D02*
X181523809Y-99143427D01*
X181523809Y-99143427D02*
X181476190Y-99191046D01*
X182380952Y-99762475D02*
X182380952Y-99095808D01*
X182380952Y-98762475D02*
X182333333Y-98810094D01*
X182333333Y-98810094D02*
X182380952Y-98857713D01*
X182380952Y-98857713D02*
X182428571Y-98810094D01*
X182428571Y-98810094D02*
X182380952Y-98762475D01*
X182380952Y-98762475D02*
X182380952Y-98857713D01*
X182714285Y-99095808D02*
X183095237Y-99095808D01*
X182857142Y-98762475D02*
X182857142Y-99619617D01*
X182857142Y-99619617D02*
X182904761Y-99714856D01*
X182904761Y-99714856D02*
X182999999Y-99762475D01*
X182999999Y-99762475D02*
X183095237Y-99762475D01*
X183809523Y-99714856D02*
X183714285Y-99762475D01*
X183714285Y-99762475D02*
X183523809Y-99762475D01*
X183523809Y-99762475D02*
X183428571Y-99714856D01*
X183428571Y-99714856D02*
X183380952Y-99619617D01*
X183380952Y-99619617D02*
X183380952Y-99238665D01*
X183380952Y-99238665D02*
X183428571Y-99143427D01*
X183428571Y-99143427D02*
X183523809Y-99095808D01*
X183523809Y-99095808D02*
X183714285Y-99095808D01*
X183714285Y-99095808D02*
X183809523Y-99143427D01*
X183809523Y-99143427D02*
X183857142Y-99238665D01*
X183857142Y-99238665D02*
X183857142Y-99333903D01*
X183857142Y-99333903D02*
X183380952Y-99429141D01*
X184714285Y-99714856D02*
X184619047Y-99762475D01*
X184619047Y-99762475D02*
X184428571Y-99762475D01*
X184428571Y-99762475D02*
X184333333Y-99714856D01*
X184333333Y-99714856D02*
X184285714Y-99667236D01*
X184285714Y-99667236D02*
X184238095Y-99571998D01*
X184238095Y-99571998D02*
X184238095Y-99286284D01*
X184238095Y-99286284D02*
X184285714Y-99191046D01*
X184285714Y-99191046D02*
X184333333Y-99143427D01*
X184333333Y-99143427D02*
X184428571Y-99095808D01*
X184428571Y-99095808D02*
X184619047Y-99095808D01*
X184619047Y-99095808D02*
X184714285Y-99143427D01*
X185000000Y-99095808D02*
X185380952Y-99095808D01*
X185142857Y-98762475D02*
X185142857Y-99619617D01*
X185142857Y-99619617D02*
X185190476Y-99714856D01*
X185190476Y-99714856D02*
X185285714Y-99762475D01*
X185285714Y-99762475D02*
X185380952Y-99762475D01*
X179785714Y-100467657D02*
X179833333Y-100420038D01*
X179833333Y-100420038D02*
X179928571Y-100372419D01*
X179928571Y-100372419D02*
X180166666Y-100372419D01*
X180166666Y-100372419D02*
X180261904Y-100420038D01*
X180261904Y-100420038D02*
X180309523Y-100467657D01*
X180309523Y-100467657D02*
X180357142Y-100562895D01*
X180357142Y-100562895D02*
X180357142Y-100658133D01*
X180357142Y-100658133D02*
X180309523Y-100800990D01*
X180309523Y-100800990D02*
X179738095Y-101372419D01*
X179738095Y-101372419D02*
X180357142Y-101372419D01*
X180976190Y-100372419D02*
X181071428Y-100372419D01*
X181071428Y-100372419D02*
X181166666Y-100420038D01*
X181166666Y-100420038D02*
X181214285Y-100467657D01*
X181214285Y-100467657D02*
X181261904Y-100562895D01*
X181261904Y-100562895D02*
X181309523Y-100753371D01*
X181309523Y-100753371D02*
X181309523Y-100991466D01*
X181309523Y-100991466D02*
X181261904Y-101181942D01*
X181261904Y-101181942D02*
X181214285Y-101277180D01*
X181214285Y-101277180D02*
X181166666Y-101324800D01*
X181166666Y-101324800D02*
X181071428Y-101372419D01*
X181071428Y-101372419D02*
X180976190Y-101372419D01*
X180976190Y-101372419D02*
X180880952Y-101324800D01*
X180880952Y-101324800D02*
X180833333Y-101277180D01*
X180833333Y-101277180D02*
X180785714Y-101181942D01*
X180785714Y-101181942D02*
X180738095Y-100991466D01*
X180738095Y-100991466D02*
X180738095Y-100753371D01*
X180738095Y-100753371D02*
X180785714Y-100562895D01*
X180785714Y-100562895D02*
X180833333Y-100467657D01*
X180833333Y-100467657D02*
X180880952Y-100420038D01*
X180880952Y-100420038D02*
X180976190Y-100372419D01*
X181690476Y-100467657D02*
X181738095Y-100420038D01*
X181738095Y-100420038D02*
X181833333Y-100372419D01*
X181833333Y-100372419D02*
X182071428Y-100372419D01*
X182071428Y-100372419D02*
X182166666Y-100420038D01*
X182166666Y-100420038D02*
X182214285Y-100467657D01*
X182214285Y-100467657D02*
X182261904Y-100562895D01*
X182261904Y-100562895D02*
X182261904Y-100658133D01*
X182261904Y-100658133D02*
X182214285Y-100800990D01*
X182214285Y-100800990D02*
X181642857Y-101372419D01*
X181642857Y-101372419D02*
X182261904Y-101372419D01*
X183119047Y-100705752D02*
X183119047Y-101372419D01*
X182880952Y-100324800D02*
X182642857Y-101039085D01*
X182642857Y-101039085D02*
X183261904Y-101039085D01*
D10*
X156869673Y-80867219D02*
X156869673Y-79867219D01*
X156869673Y-80343409D02*
X157441101Y-80343409D01*
X157441101Y-80867219D02*
X157441101Y-79867219D01*
X158441101Y-80867219D02*
X157869673Y-80867219D01*
X158155387Y-80867219D02*
X158155387Y-79867219D01*
X158155387Y-79867219D02*
X158060149Y-80010076D01*
X158060149Y-80010076D02*
X157964911Y-80105314D01*
X157964911Y-80105314D02*
X157869673Y-80152933D01*
X177214285Y-95986266D02*
X177976190Y-95986266D01*
X179976190Y-95986266D02*
X180738095Y-95986266D01*
X180357142Y-96367219D02*
X180357142Y-95605314D01*
X182738095Y-96367219D02*
X182738095Y-95367219D01*
X182738095Y-95367219D02*
X182976190Y-95367219D01*
X182976190Y-95367219D02*
X183119047Y-95414838D01*
X183119047Y-95414838D02*
X183214285Y-95510076D01*
X183214285Y-95510076D02*
X183261904Y-95605314D01*
X183261904Y-95605314D02*
X183309523Y-95795790D01*
X183309523Y-95795790D02*
X183309523Y-95938647D01*
X183309523Y-95938647D02*
X183261904Y-96129123D01*
X183261904Y-96129123D02*
X183214285Y-96224361D01*
X183214285Y-96224361D02*
X183119047Y-96319600D01*
X183119047Y-96319600D02*
X182976190Y-96367219D01*
X182976190Y-96367219D02*
X182738095Y-96367219D01*
X185833333Y-96271980D02*
X185785714Y-96319600D01*
X185785714Y-96319600D02*
X185642857Y-96367219D01*
X185642857Y-96367219D02*
X185547619Y-96367219D01*
X185547619Y-96367219D02*
X185404762Y-96319600D01*
X185404762Y-96319600D02*
X185309524Y-96224361D01*
X185309524Y-96224361D02*
X185261905Y-96129123D01*
X185261905Y-96129123D02*
X185214286Y-95938647D01*
X185214286Y-95938647D02*
X185214286Y-95795790D01*
X185214286Y-95795790D02*
X185261905Y-95605314D01*
X185261905Y-95605314D02*
X185309524Y-95510076D01*
X185309524Y-95510076D02*
X185404762Y-95414838D01*
X185404762Y-95414838D02*
X185547619Y-95367219D01*
X185547619Y-95367219D02*
X185642857Y-95367219D01*
X185642857Y-95367219D02*
X185785714Y-95414838D01*
X185785714Y-95414838D02*
X185833333Y-95462457D01*
D13*
%TO.C,G\u002A\u002A\u002A*%
G36*
X186502188Y-85000000D02*
G01*
X186502188Y-90002188D01*
X181500000Y-90002188D01*
X176497812Y-90002188D01*
X176497812Y-85357242D01*
X177484319Y-85357242D01*
X177487204Y-85392897D01*
X177495290Y-85450253D01*
X177507681Y-85524918D01*
X177523484Y-85612501D01*
X177541806Y-85708610D01*
X177561751Y-85808854D01*
X177582427Y-85908841D01*
X177602940Y-86004180D01*
X177622395Y-86090480D01*
X177639898Y-86163348D01*
X177654556Y-86218394D01*
X177665475Y-86251227D01*
X177666935Y-86254361D01*
X177682601Y-86280001D01*
X177703372Y-86302095D01*
X177732601Y-86322090D01*
X177773640Y-86341428D01*
X177829839Y-86361555D01*
X177904550Y-86383915D01*
X178001126Y-86409952D01*
X178067943Y-86427171D01*
X178159810Y-86450330D01*
X178232221Y-86467445D01*
X178292583Y-86479586D01*
X178348302Y-86487824D01*
X178406787Y-86493229D01*
X178475443Y-86496871D01*
X178561679Y-86499822D01*
X178573024Y-86500164D01*
X178821048Y-86507604D01*
X178935258Y-86792450D01*
X178969530Y-86877446D01*
X179001253Y-86955223D01*
X179028670Y-87021543D01*
X179050024Y-87072168D01*
X179063557Y-87102860D01*
X179066337Y-87108516D01*
X179084096Y-87132437D01*
X179111403Y-87152835D01*
X179151470Y-87170712D01*
X179207511Y-87187073D01*
X179282740Y-87202920D01*
X179380371Y-87219258D01*
X179457440Y-87230626D01*
X179541302Y-87242936D01*
X179615719Y-87254583D01*
X179676313Y-87264823D01*
X179718703Y-87272911D01*
X179738510Y-87278103D01*
X179739203Y-87278530D01*
X179732505Y-87290636D01*
X179709833Y-87322900D01*
X179672448Y-87373678D01*
X179621607Y-87441326D01*
X179558569Y-87524198D01*
X179484593Y-87620651D01*
X179400937Y-87729041D01*
X179308860Y-87847722D01*
X179209621Y-87975050D01*
X179104478Y-88109381D01*
X179055990Y-88171145D01*
X178947737Y-88309092D01*
X178844123Y-88441468D01*
X178746487Y-88566545D01*
X178656167Y-88682594D01*
X178574498Y-88787886D01*
X178502819Y-88880691D01*
X178442468Y-88959280D01*
X178394780Y-89021925D01*
X178361094Y-89066896D01*
X178342747Y-89092464D01*
X178340009Y-89096859D01*
X178323583Y-89150903D01*
X178319335Y-89217345D01*
X178327036Y-89283721D01*
X178344370Y-89333810D01*
X178385105Y-89382620D01*
X178442922Y-89415672D01*
X178510987Y-89431361D01*
X178582465Y-89428083D01*
X178648611Y-89405256D01*
X178667199Y-89393158D01*
X178706492Y-89365786D01*
X178764822Y-89324347D01*
X178840520Y-89270052D01*
X178931919Y-89204108D01*
X179037349Y-89127725D01*
X179155143Y-89042111D01*
X179283633Y-88948475D01*
X179421150Y-88848027D01*
X179566025Y-88741974D01*
X179716591Y-88631526D01*
X179728391Y-88622861D01*
X180756619Y-87867704D01*
X180989608Y-88160302D01*
X181066429Y-88255444D01*
X181134289Y-88336808D01*
X181191445Y-88402409D01*
X181236154Y-88450265D01*
X181266672Y-88478392D01*
X181273263Y-88482965D01*
X181297701Y-88495704D01*
X181324178Y-88504280D01*
X181358700Y-88509490D01*
X181407275Y-88512130D01*
X181475909Y-88512997D01*
X181500000Y-88513031D01*
X181575456Y-88512523D01*
X181629140Y-88510470D01*
X181667058Y-88506074D01*
X181695217Y-88498539D01*
X181719624Y-88487069D01*
X181726737Y-88482965D01*
X181752251Y-88461700D01*
X181792525Y-88420058D01*
X181845814Y-88360025D01*
X181910376Y-88283583D01*
X181984467Y-88192715D01*
X182010391Y-88160302D01*
X182243380Y-87867704D01*
X183271608Y-88622861D01*
X183422544Y-88733597D01*
X183567917Y-88840032D01*
X183706061Y-88940956D01*
X183835306Y-89035160D01*
X183953984Y-89121435D01*
X184060428Y-89198573D01*
X184152968Y-89265365D01*
X184229937Y-89320602D01*
X184289665Y-89363075D01*
X184330486Y-89391575D01*
X184350730Y-89404894D01*
X184351388Y-89405256D01*
X184419180Y-89428403D01*
X184490100Y-89431319D01*
X184557463Y-89415663D01*
X184614588Y-89383095D01*
X184654789Y-89335273D01*
X184657882Y-89329172D01*
X184675747Y-89269853D01*
X184681035Y-89201289D01*
X184673633Y-89135854D01*
X184659990Y-89096859D01*
X184648124Y-89079500D01*
X184620387Y-89042049D01*
X184578115Y-88986235D01*
X184522647Y-88913789D01*
X184455319Y-88826438D01*
X184377469Y-88725912D01*
X184290433Y-88613940D01*
X184195550Y-88492251D01*
X184094157Y-88362575D01*
X183987591Y-88226639D01*
X183944009Y-88171145D01*
X183836638Y-88034220D01*
X183734609Y-87903564D01*
X183639181Y-87780821D01*
X183551612Y-87667637D01*
X183473161Y-87565655D01*
X183405087Y-87476519D01*
X183348649Y-87401875D01*
X183305104Y-87343367D01*
X183275712Y-87302639D01*
X183261731Y-87281336D01*
X183260797Y-87278530D01*
X183277312Y-87273774D01*
X183316985Y-87266024D01*
X183375437Y-87256025D01*
X183448288Y-87244520D01*
X183531159Y-87232254D01*
X183542560Y-87230626D01*
X183656491Y-87213430D01*
X183745929Y-87197378D01*
X183814088Y-87181466D01*
X183864182Y-87164689D01*
X183899424Y-87146045D01*
X183923030Y-87124530D01*
X183933663Y-87108516D01*
X183943666Y-87086753D01*
X183962176Y-87043405D01*
X183987435Y-86982707D01*
X184017687Y-86908898D01*
X184051173Y-86826216D01*
X184064741Y-86792450D01*
X184178952Y-86507604D01*
X184426976Y-86500164D01*
X184515700Y-86497225D01*
X184585997Y-86493716D01*
X184645271Y-86488567D01*
X184700932Y-86480709D01*
X184760385Y-86469069D01*
X184831039Y-86452579D01*
X184920299Y-86430167D01*
X184932057Y-86427171D01*
X185042738Y-86398362D01*
X185129627Y-86374062D01*
X185196074Y-86352826D01*
X185245431Y-86333210D01*
X185281049Y-86313769D01*
X185306280Y-86293060D01*
X185324475Y-86269638D01*
X185333065Y-86254361D01*
X185343191Y-86225971D01*
X185357225Y-86174599D01*
X185374271Y-86104636D01*
X185393434Y-86020473D01*
X185413819Y-85926501D01*
X185434532Y-85827110D01*
X185454678Y-85726691D01*
X185473362Y-85629635D01*
X185489690Y-85540332D01*
X185502766Y-85463174D01*
X185511696Y-85402549D01*
X185515585Y-85362851D01*
X185515681Y-85358267D01*
X185504550Y-85277029D01*
X185472157Y-85213279D01*
X185419857Y-85168355D01*
X185349004Y-85143596D01*
X185293758Y-85138949D01*
X185268877Y-85140241D01*
X185242100Y-85145089D01*
X185209841Y-85154954D01*
X185168509Y-85171297D01*
X185114515Y-85195578D01*
X185044271Y-85229258D01*
X184954188Y-85273797D01*
X184918162Y-85291794D01*
X184612714Y-85444639D01*
X184213487Y-85444639D01*
X183814260Y-85444639D01*
X183407458Y-85212547D01*
X183000656Y-84980456D01*
X183000656Y-84778055D01*
X183000656Y-84575654D01*
X183132239Y-84444619D01*
X183263821Y-84313583D01*
X183474781Y-84354210D01*
X183548744Y-84369225D01*
X183613416Y-84383804D01*
X183663676Y-84396680D01*
X183694401Y-84406587D01*
X183700994Y-84410180D01*
X183713480Y-84426463D01*
X183738331Y-84461764D01*
X183772657Y-84511876D01*
X183813565Y-84572588D01*
X183845181Y-84620064D01*
X183900873Y-84702309D01*
X183946168Y-84763602D01*
X183984746Y-84806948D01*
X184020286Y-84835357D01*
X184056470Y-84851836D01*
X184096978Y-84859392D01*
X184140043Y-84861050D01*
X184183319Y-84859523D01*
X184219984Y-84853116D01*
X184253163Y-84839090D01*
X184285977Y-84814703D01*
X184321549Y-84777216D01*
X184363000Y-84723889D01*
X184413452Y-84651983D01*
X184464118Y-84576652D01*
X184513657Y-84501842D01*
X184559165Y-84432243D01*
X184597890Y-84372133D01*
X184627082Y-84325787D01*
X184643989Y-84297482D01*
X184645466Y-84294728D01*
X184661046Y-84244754D01*
X184667563Y-84180508D01*
X184664998Y-84113862D01*
X184653333Y-84056691D01*
X184645858Y-84038633D01*
X184627627Y-84009696D01*
X184594778Y-83963903D01*
X184549902Y-83904433D01*
X184495588Y-83834463D01*
X184434428Y-83757170D01*
X184369012Y-83675734D01*
X184301930Y-83593331D01*
X184235774Y-83513139D01*
X184173133Y-83438335D01*
X184116598Y-83372099D01*
X184068761Y-83317608D01*
X184032211Y-83278038D01*
X184009539Y-83256569D01*
X184006721Y-83254620D01*
X183975605Y-83241097D01*
X183925316Y-83226712D01*
X183853556Y-83210944D01*
X183758028Y-83193268D01*
X183677028Y-83179684D01*
X183591848Y-83165491D01*
X183516072Y-83152214D01*
X183453968Y-83140652D01*
X183409805Y-83131608D01*
X183387849Y-83125882D01*
X183386391Y-83125120D01*
X183389118Y-83110879D01*
X183400072Y-83072243D01*
X183418627Y-83011159D01*
X183444157Y-82929574D01*
X183476037Y-82829435D01*
X183513639Y-82712688D01*
X183556339Y-82581281D01*
X183603510Y-82437161D01*
X183654527Y-82282274D01*
X183708763Y-82118568D01*
X183744186Y-82012134D01*
X183819456Y-81785743D01*
X183885727Y-81585079D01*
X183943162Y-81409630D01*
X183991922Y-81258886D01*
X184032169Y-81132337D01*
X184064063Y-81029472D01*
X184087767Y-80949781D01*
X184103442Y-80892752D01*
X184111249Y-80857876D01*
X184112254Y-80848423D01*
X184105427Y-80796426D01*
X184088528Y-80743081D01*
X184083667Y-80732683D01*
X184042848Y-80681214D01*
X183983338Y-80642331D01*
X183911996Y-80617698D01*
X183835684Y-80608978D01*
X183761263Y-80617834D01*
X183704166Y-80640682D01*
X183695747Y-80646693D01*
X183685426Y-80656582D01*
X183672502Y-80671472D01*
X183656270Y-80692486D01*
X183636030Y-80720745D01*
X183611079Y-80757372D01*
X183580714Y-80803489D01*
X183544233Y-80860219D01*
X183500934Y-80928685D01*
X183450114Y-81010008D01*
X183391072Y-81105312D01*
X183323104Y-81215718D01*
X183245509Y-81342348D01*
X183157584Y-81486326D01*
X183058626Y-81648774D01*
X182947934Y-81830814D01*
X182824805Y-82033568D01*
X182688536Y-82258160D01*
X182578673Y-82439327D01*
X182455557Y-82642309D01*
X182336346Y-82838704D01*
X182221837Y-83027206D01*
X182112827Y-83206510D01*
X182010112Y-83375312D01*
X181914488Y-83532306D01*
X181826752Y-83676188D01*
X181747699Y-83805652D01*
X181678127Y-83919395D01*
X181618831Y-84016110D01*
X181570609Y-84094493D01*
X181534255Y-84153238D01*
X181510567Y-84191042D01*
X181500341Y-84206599D01*
X181500000Y-84206937D01*
X181492127Y-84195268D01*
X181470658Y-84161132D01*
X181436389Y-84105833D01*
X181390115Y-84030677D01*
X181332635Y-83936968D01*
X181264743Y-83826011D01*
X181187237Y-83699112D01*
X181100912Y-83557574D01*
X181006565Y-83402704D01*
X180904992Y-83235806D01*
X180796990Y-83058185D01*
X180683354Y-82871145D01*
X180564882Y-82675993D01*
X180442369Y-82474032D01*
X180421326Y-82439327D01*
X180274869Y-82197831D01*
X180142071Y-81979003D01*
X180022230Y-81781722D01*
X179914645Y-81604864D01*
X179818612Y-81447308D01*
X179733430Y-81307931D01*
X179658395Y-81185610D01*
X179592807Y-81079224D01*
X179535961Y-80987649D01*
X179487157Y-80909763D01*
X179445691Y-80844445D01*
X179410862Y-80790571D01*
X179381967Y-80747019D01*
X179358303Y-80712668D01*
X179339169Y-80686393D01*
X179323861Y-80667073D01*
X179311678Y-80653586D01*
X179301918Y-80644809D01*
X179295834Y-80640682D01*
X179228497Y-80615433D01*
X179153386Y-80609186D01*
X179077364Y-80620277D01*
X179007290Y-80647045D01*
X178950026Y-80687824D01*
X178916333Y-80732683D01*
X178897844Y-80783182D01*
X178888162Y-80837455D01*
X178887746Y-80848423D01*
X178891584Y-80872146D01*
X178903208Y-80917760D01*
X178922777Y-80985775D01*
X178950455Y-81076702D01*
X178986401Y-81191052D01*
X179030779Y-81329334D01*
X179083749Y-81492060D01*
X179145472Y-81679740D01*
X179216111Y-81892885D01*
X179255813Y-82012134D01*
X179311752Y-82180383D01*
X179364863Y-82341035D01*
X179414522Y-82492144D01*
X179460103Y-82631761D01*
X179500980Y-82757941D01*
X179536526Y-82868736D01*
X179566116Y-82962200D01*
X179589124Y-83036385D01*
X179604924Y-83089344D01*
X179612891Y-83119131D01*
X179613609Y-83125120D01*
X179597352Y-83129971D01*
X179557908Y-83138325D01*
X179499544Y-83149379D01*
X179426529Y-83162334D01*
X179343129Y-83176387D01*
X179322971Y-83179684D01*
X179209699Y-83198979D01*
X179121780Y-83216008D01*
X179056917Y-83231292D01*
X179012813Y-83245354D01*
X178993279Y-83254620D01*
X178973937Y-83271772D01*
X178940159Y-83307709D01*
X178894536Y-83359253D01*
X178839657Y-83423226D01*
X178778113Y-83496451D01*
X178712495Y-83575751D01*
X178645394Y-83657946D01*
X178579400Y-83739860D01*
X178517103Y-83818314D01*
X178461095Y-83890131D01*
X178413965Y-83952133D01*
X178378305Y-84001142D01*
X178356705Y-84033981D01*
X178354141Y-84038633D01*
X178338714Y-84088430D01*
X178332394Y-84152602D01*
X178335163Y-84219278D01*
X178347003Y-84276585D01*
X178354533Y-84294728D01*
X178369035Y-84319475D01*
X178396296Y-84363004D01*
X178433568Y-84421038D01*
X178478098Y-84489300D01*
X178527137Y-84563514D01*
X178535882Y-84576652D01*
X178596121Y-84665967D01*
X178644781Y-84734439D01*
X178684983Y-84784809D01*
X178719849Y-84819817D01*
X178752502Y-84842201D01*
X178786064Y-84854704D01*
X178823657Y-84860063D01*
X178859956Y-84861050D01*
X178907477Y-84858941D01*
X178947372Y-84850609D01*
X178983321Y-84833046D01*
X179019004Y-84803245D01*
X179058101Y-84758199D01*
X179104291Y-84694898D01*
X179154818Y-84620064D01*
X179198656Y-84554360D01*
X179237974Y-84496254D01*
X179269882Y-84449955D01*
X179291486Y-84419671D01*
X179299005Y-84410180D01*
X179317389Y-84402346D01*
X179358003Y-84390875D01*
X179415727Y-84377034D01*
X179485437Y-84362091D01*
X179525218Y-84354210D01*
X179736178Y-84313583D01*
X179867761Y-84444619D01*
X179999343Y-84575654D01*
X179999343Y-84778055D01*
X179999343Y-84980456D01*
X179592541Y-85212547D01*
X179185739Y-85444639D01*
X178786512Y-85444639D01*
X178387285Y-85444639D01*
X178081838Y-85291794D01*
X177983933Y-85243111D01*
X177907105Y-85205809D01*
X177847783Y-85178433D01*
X177802398Y-85159525D01*
X177767378Y-85147628D01*
X177739155Y-85141286D01*
X177714157Y-85139042D01*
X177707266Y-85138949D01*
X177624831Y-85149871D01*
X177560064Y-85181728D01*
X177514357Y-85233155D01*
X177489105Y-85302789D01*
X177484319Y-85357242D01*
X176497812Y-85357242D01*
X176497812Y-85000000D01*
X176497812Y-79997812D01*
X181500000Y-79997812D01*
X186502188Y-79997812D01*
X186502188Y-85000000D01*
G37*
G36*
X183394801Y-81849472D02*
G01*
X183383370Y-81887172D01*
X183364634Y-81946501D01*
X183339359Y-82025100D01*
X183308310Y-82120609D01*
X183272255Y-82230669D01*
X183231959Y-82352921D01*
X183188188Y-82485006D01*
X183153247Y-82589983D01*
X183107146Y-82728654D01*
X183063799Y-82859853D01*
X183023996Y-82981140D01*
X182988523Y-83090073D01*
X182958169Y-83184212D01*
X182933723Y-83261116D01*
X182915973Y-83318343D01*
X182905707Y-83353454D01*
X182903391Y-83363723D01*
X182905094Y-83382061D01*
X182911988Y-83397701D01*
X182926753Y-83411463D01*
X182952070Y-83424166D01*
X182990619Y-83436630D01*
X183045080Y-83449672D01*
X183118133Y-83464113D01*
X183212457Y-83480771D01*
X183330734Y-83500466D01*
X183373751Y-83507490D01*
X183793078Y-83575766D01*
X184025614Y-83866318D01*
X184087466Y-83943789D01*
X184143445Y-84014267D01*
X184191241Y-84074812D01*
X184228544Y-84122488D01*
X184253045Y-84154356D01*
X184262425Y-84167462D01*
X184257229Y-84182663D01*
X184240521Y-84213548D01*
X184216726Y-84253145D01*
X184190266Y-84294488D01*
X184165563Y-84330607D01*
X184147041Y-84354532D01*
X184140043Y-84360297D01*
X184130227Y-84349381D01*
X184108450Y-84319551D01*
X184077835Y-84275235D01*
X184041502Y-84220860D01*
X184037731Y-84215125D01*
X183999457Y-84158953D01*
X183964627Y-84111666D01*
X183936949Y-84078049D01*
X183920134Y-84062888D01*
X183919554Y-84062670D01*
X183890689Y-84055243D01*
X183840158Y-84044023D01*
X183772548Y-84029888D01*
X183692449Y-84013718D01*
X183604449Y-83996391D01*
X183513136Y-83978786D01*
X183423099Y-83961781D01*
X183338926Y-83946256D01*
X183265207Y-83933090D01*
X183206529Y-83923161D01*
X183167481Y-83917348D01*
X183154740Y-83916192D01*
X183137764Y-83917594D01*
X183120111Y-83923355D01*
X183098958Y-83935806D01*
X183071485Y-83957279D01*
X183034870Y-83990106D01*
X182986292Y-84036619D01*
X182922929Y-84099149D01*
X182872581Y-84149386D01*
X182639387Y-84382580D01*
X182639387Y-84785899D01*
X182639716Y-84912092D01*
X182640766Y-85012787D01*
X182642629Y-85090268D01*
X182645399Y-85146820D01*
X182649170Y-85184727D01*
X182654034Y-85206275D01*
X182656756Y-85211441D01*
X182672263Y-85222925D01*
X182709342Y-85246500D01*
X182765362Y-85280605D01*
X182837691Y-85323678D01*
X182923696Y-85374158D01*
X183020745Y-85430483D01*
X183126206Y-85491091D01*
X183176479Y-85519786D01*
X183678834Y-85805908D01*
X184208394Y-85805908D01*
X184737954Y-85805908D01*
X184905952Y-85721693D01*
X184967869Y-85691347D01*
X185020503Y-85666859D01*
X185059130Y-85650328D01*
X185079025Y-85643855D01*
X185080562Y-85644092D01*
X185081260Y-85660460D01*
X185076355Y-85697527D01*
X185067196Y-85749083D01*
X185055130Y-85808921D01*
X185041507Y-85870833D01*
X185027676Y-85928610D01*
X185014984Y-85976044D01*
X185004782Y-86006928D01*
X184999913Y-86015333D01*
X184981927Y-86021602D01*
X184941644Y-86033064D01*
X184883793Y-86048456D01*
X184813107Y-86066511D01*
X184750215Y-86082091D01*
X184515830Y-86139387D01*
X184233327Y-86139387D01*
X184126548Y-86139960D01*
X184045148Y-86141770D01*
X183986739Y-86144953D01*
X183948934Y-86149645D01*
X183929342Y-86155982D01*
X183928235Y-86156756D01*
X183917123Y-86173986D01*
X183897577Y-86213467D01*
X183871218Y-86271543D01*
X183839666Y-86344556D01*
X183804542Y-86428851D01*
X183772519Y-86508071D01*
X183639393Y-86842017D01*
X183149825Y-86911025D01*
X183013984Y-86930300D01*
X182903141Y-86946543D01*
X182814758Y-86960470D01*
X182746296Y-86972794D01*
X182695218Y-86984231D01*
X182658986Y-86995495D01*
X182635061Y-87007301D01*
X182620905Y-87020364D01*
X182613979Y-87035398D01*
X182611747Y-87053117D01*
X182611597Y-87062572D01*
X182611746Y-87070374D01*
X182612998Y-87078510D01*
X182616559Y-87088596D01*
X182623636Y-87102246D01*
X182635437Y-87121076D01*
X182653169Y-87146702D01*
X182678038Y-87180738D01*
X182711251Y-87224801D01*
X182754016Y-87280505D01*
X182807538Y-87349466D01*
X182873026Y-87433300D01*
X182951686Y-87533621D01*
X183044726Y-87652045D01*
X183153351Y-87790188D01*
X183191268Y-87838400D01*
X183275923Y-87946156D01*
X183355136Y-88047208D01*
X183427284Y-88139472D01*
X183490748Y-88220865D01*
X183543908Y-88289305D01*
X183585142Y-88342710D01*
X183612832Y-88378995D01*
X183625357Y-88396080D01*
X183625930Y-88397119D01*
X183615057Y-88390215D01*
X183583718Y-88368235D01*
X183533833Y-88332569D01*
X183467319Y-88284609D01*
X183386097Y-88225745D01*
X183292085Y-88157368D01*
X183187202Y-88080870D01*
X183073368Y-87997641D01*
X182952501Y-87909072D01*
X182943534Y-87902494D01*
X182821120Y-87812824D01*
X182704704Y-87727825D01*
X182596327Y-87648971D01*
X182498029Y-87577731D01*
X182411851Y-87515577D01*
X182339832Y-87463980D01*
X182284013Y-87424413D01*
X182246434Y-87398345D01*
X182229134Y-87387248D01*
X182228968Y-87387170D01*
X182205544Y-87379001D01*
X182182904Y-87378440D01*
X182158438Y-87387665D01*
X182129535Y-87408851D01*
X182093585Y-87444175D01*
X182047975Y-87495813D01*
X181990096Y-87565942D01*
X181940592Y-87627563D01*
X181750109Y-87866119D01*
X181750109Y-86962060D01*
X181750124Y-86776732D01*
X181750063Y-86617254D01*
X181749770Y-86481688D01*
X181749384Y-86417140D01*
X182141336Y-86417140D01*
X182220148Y-86440057D01*
X182377723Y-86485769D01*
X182527106Y-86528899D01*
X182666129Y-86568831D01*
X182792623Y-86604954D01*
X182904419Y-86636653D01*
X182999347Y-86663314D01*
X183075240Y-86684324D01*
X183129928Y-86699069D01*
X183161241Y-86706936D01*
X183167564Y-86708104D01*
X183183166Y-86698932D01*
X183215036Y-86672719D01*
X183260036Y-86632315D01*
X183315027Y-86580569D01*
X183376871Y-86520331D01*
X183402734Y-86494586D01*
X183473835Y-86422924D01*
X183527021Y-86368029D01*
X183564389Y-86327391D01*
X183588035Y-86298494D01*
X183600059Y-86278827D01*
X183602556Y-86265877D01*
X183599373Y-86258980D01*
X183588822Y-86235131D01*
X183590816Y-86223365D01*
X183596054Y-86209888D01*
X183594885Y-86208862D01*
X183580749Y-86205934D01*
X183542194Y-86197551D01*
X183481922Y-86184308D01*
X183402638Y-86166804D01*
X183307043Y-86145637D01*
X183197842Y-86121403D01*
X183077737Y-86094702D01*
X182965317Y-86069670D01*
X182837257Y-86041306D01*
X182717190Y-86015042D01*
X182607904Y-85991463D01*
X182512184Y-85971157D01*
X182432817Y-85954707D01*
X182372588Y-85942701D01*
X182334285Y-85935725D01*
X182321003Y-85934194D01*
X182309375Y-85948627D01*
X182291067Y-85987247D01*
X182267107Y-86047539D01*
X182238525Y-86126991D01*
X182221348Y-86177525D01*
X182141336Y-86417140D01*
X181749384Y-86417140D01*
X181749090Y-86368096D01*
X181747865Y-86274538D01*
X181745939Y-86199076D01*
X181743157Y-86139771D01*
X181739361Y-86094684D01*
X181734395Y-86061876D01*
X181728103Y-86039409D01*
X181720329Y-86025343D01*
X181710916Y-86017740D01*
X181699709Y-86014661D01*
X181686549Y-86014168D01*
X181673687Y-86014332D01*
X181648813Y-86017701D01*
X181627419Y-86030683D01*
X181605804Y-86057588D01*
X181580267Y-86102728D01*
X181556369Y-86151034D01*
X181533013Y-86197544D01*
X181513598Y-86232434D01*
X181501528Y-86249690D01*
X181500000Y-86250547D01*
X181490432Y-86238934D01*
X181472620Y-86208104D01*
X181449971Y-86164071D01*
X181443630Y-86151034D01*
X181412738Y-86089423D01*
X181388536Y-86049274D01*
X181367324Y-86026277D01*
X181345403Y-86016119D01*
X181326313Y-86014332D01*
X181311368Y-86014153D01*
X181298508Y-86014908D01*
X181287577Y-86018535D01*
X181278417Y-86026975D01*
X181270873Y-86042165D01*
X181264788Y-86066044D01*
X181260005Y-86100551D01*
X181256370Y-86147625D01*
X181253724Y-86209205D01*
X181251912Y-86287230D01*
X181250778Y-86383638D01*
X181250165Y-86500368D01*
X181249917Y-86639359D01*
X181249877Y-86802550D01*
X181249890Y-86962060D01*
X181249890Y-87866119D01*
X181059407Y-87627563D01*
X180991327Y-87543115D01*
X180937354Y-87478689D01*
X180894878Y-87432110D01*
X180861287Y-87401200D01*
X180833970Y-87383784D01*
X180810317Y-87377684D01*
X180787717Y-87380725D01*
X180771031Y-87387170D01*
X180754303Y-87397845D01*
X180717241Y-87423531D01*
X180661884Y-87462756D01*
X180590273Y-87514049D01*
X180504448Y-87575939D01*
X180406449Y-87646955D01*
X180298316Y-87725624D01*
X180182089Y-87810477D01*
X180059808Y-87900041D01*
X180056465Y-87902494D01*
X179935164Y-87991395D01*
X179820757Y-88075057D01*
X179715162Y-88152089D01*
X179620299Y-88221100D01*
X179538087Y-88280699D01*
X179470445Y-88329495D01*
X179419291Y-88366097D01*
X179386546Y-88389114D01*
X179374128Y-88397155D01*
X179374070Y-88397119D01*
X179382402Y-88385347D01*
X179406320Y-88353835D01*
X179444202Y-88304665D01*
X179494428Y-88239919D01*
X179555379Y-88161681D01*
X179625433Y-88072033D01*
X179702971Y-87973057D01*
X179786373Y-87866838D01*
X179808732Y-87838400D01*
X179922555Y-87693663D01*
X180020408Y-87569157D01*
X180103500Y-87463267D01*
X180173036Y-87374377D01*
X180230225Y-87300872D01*
X180276272Y-87241137D01*
X180312385Y-87193555D01*
X180339770Y-87156513D01*
X180359636Y-87128394D01*
X180373188Y-87107582D01*
X180381633Y-87092464D01*
X180386179Y-87081422D01*
X180388033Y-87072843D01*
X180388401Y-87065109D01*
X180388402Y-87062572D01*
X180387498Y-87043344D01*
X180383094Y-87027137D01*
X180372651Y-87013238D01*
X180353631Y-87000930D01*
X180323496Y-86989501D01*
X180279708Y-86978234D01*
X180219729Y-86966415D01*
X180141021Y-86953330D01*
X180041045Y-86938264D01*
X179917263Y-86920503D01*
X179850174Y-86911025D01*
X179360606Y-86842017D01*
X179227480Y-86508071D01*
X179190574Y-86416965D01*
X179155837Y-86333978D01*
X179127387Y-86268507D01*
X179397286Y-86268507D01*
X179401879Y-86282840D01*
X179416500Y-86304493D01*
X179443249Y-86335979D01*
X179484222Y-86379810D01*
X179541516Y-86438499D01*
X179597265Y-86494586D01*
X179660576Y-86557369D01*
X179717773Y-86612899D01*
X179765821Y-86658326D01*
X179801684Y-86690802D01*
X179822329Y-86707474D01*
X179825675Y-86709081D01*
X179842108Y-86705395D01*
X179881900Y-86694955D01*
X179941704Y-86678684D01*
X180018172Y-86657505D01*
X180107954Y-86632342D01*
X180207703Y-86604120D01*
X180256587Y-86590200D01*
X180364570Y-86559364D01*
X180468331Y-86529683D01*
X180563645Y-86502371D01*
X180646284Y-86478639D01*
X180712024Y-86459700D01*
X180756639Y-86446767D01*
X180765898Y-86444055D01*
X180858547Y-86416790D01*
X180778593Y-86177350D01*
X180747936Y-86088545D01*
X180721337Y-86017525D01*
X180699827Y-85966804D01*
X180684435Y-85938898D01*
X180678997Y-85934194D01*
X180661784Y-85936375D01*
X180620249Y-85944090D01*
X180557179Y-85956752D01*
X180475359Y-85973776D01*
X180377576Y-85994575D01*
X180266616Y-86018563D01*
X180145265Y-86045156D01*
X180034682Y-86069670D01*
X179907226Y-86098047D01*
X179788297Y-86124481D01*
X179680600Y-86148375D01*
X179586837Y-86169131D01*
X179509712Y-86186150D01*
X179451927Y-86198836D01*
X179416185Y-86206591D01*
X179405115Y-86208862D01*
X179406227Y-86218021D01*
X179409183Y-86223365D01*
X179408890Y-86244655D01*
X179400626Y-86258980D01*
X179397286Y-86268507D01*
X179127387Y-86268507D01*
X179124891Y-86262764D01*
X179099355Y-86206982D01*
X179080851Y-86170286D01*
X179071764Y-86156756D01*
X179053963Y-86150237D01*
X179018200Y-86145377D01*
X178962087Y-86142040D01*
X178883237Y-86140091D01*
X178779259Y-86139393D01*
X178766672Y-86139387D01*
X178484170Y-86139387D01*
X178249784Y-86082091D01*
X178172213Y-86062813D01*
X178103675Y-86045181D01*
X178048904Y-86030462D01*
X178012628Y-86019920D01*
X178000086Y-86015333D01*
X177992376Y-85999422D01*
X177981249Y-85962695D01*
X177968056Y-85911358D01*
X177954145Y-85851621D01*
X177940864Y-85789690D01*
X177929563Y-85731775D01*
X177921589Y-85684084D01*
X177918292Y-85652824D01*
X177919438Y-85644092D01*
X177933564Y-85647541D01*
X177967676Y-85661605D01*
X178017050Y-85684185D01*
X178076963Y-85713180D01*
X178094048Y-85721693D01*
X178262045Y-85805908D01*
X178791605Y-85805908D01*
X179321165Y-85805908D01*
X179823520Y-85519786D01*
X179931949Y-85457741D01*
X180033168Y-85399265D01*
X180124547Y-85345920D01*
X180203451Y-85299269D01*
X180267250Y-85260872D01*
X180313311Y-85232292D01*
X180339002Y-85215089D01*
X180343244Y-85211441D01*
X180348660Y-85196868D01*
X180352938Y-85167020D01*
X180356172Y-85119614D01*
X180358455Y-85052365D01*
X180359880Y-84962988D01*
X180360540Y-84849198D01*
X180360612Y-84785899D01*
X180360612Y-84382580D01*
X180127419Y-84149386D01*
X180052955Y-84075217D01*
X179995106Y-84018578D01*
X179951051Y-83977137D01*
X179917969Y-83948563D01*
X179893037Y-83930525D01*
X179873434Y-83920689D01*
X179856340Y-83916725D01*
X179845259Y-83916192D01*
X179821566Y-83918831D01*
X179775235Y-83926162D01*
X179710856Y-83937306D01*
X179633016Y-83951384D01*
X179546305Y-83967518D01*
X179455310Y-83984829D01*
X179364621Y-84002437D01*
X179278825Y-84019465D01*
X179202511Y-84035033D01*
X179140269Y-84048263D01*
X179096685Y-84058275D01*
X179080446Y-84062670D01*
X179064396Y-84076578D01*
X179037263Y-84109227D01*
X179002756Y-84155832D01*
X178964583Y-84211608D01*
X178962268Y-84215125D01*
X178925541Y-84270251D01*
X178894224Y-84315756D01*
X178871438Y-84347210D01*
X178860304Y-84360186D01*
X178859956Y-84360297D01*
X178848560Y-84349354D01*
X178827824Y-84321238D01*
X178802169Y-84282918D01*
X178776018Y-84241363D01*
X178753794Y-84203541D01*
X178739921Y-84176422D01*
X178737574Y-84167462D01*
X178747070Y-84154204D01*
X178771662Y-84122221D01*
X178809043Y-84074451D01*
X178856900Y-84013830D01*
X178912925Y-83943297D01*
X178974385Y-83866318D01*
X179206921Y-83575766D01*
X179626249Y-83507490D01*
X179752695Y-83486659D01*
X179854337Y-83469125D01*
X179933856Y-83454069D01*
X179993932Y-83440671D01*
X180037245Y-83428112D01*
X180066475Y-83415574D01*
X180084302Y-83402237D01*
X180093406Y-83387282D01*
X180096467Y-83369890D01*
X180096608Y-83363723D01*
X180092315Y-83346335D01*
X180079961Y-83305045D01*
X180060336Y-83242294D01*
X180034226Y-83160521D01*
X180002420Y-83062169D01*
X179965707Y-82949679D01*
X179924874Y-82825490D01*
X179880710Y-82692044D01*
X179846752Y-82589983D01*
X179800862Y-82452028D01*
X179757868Y-82322123D01*
X179718535Y-82202625D01*
X179683630Y-82095895D01*
X179653918Y-82004291D01*
X179630166Y-81930172D01*
X179613140Y-81875898D01*
X179603607Y-81843829D01*
X179601839Y-81835760D01*
X179609522Y-81846776D01*
X179630723Y-81880137D01*
X179664568Y-81934415D01*
X179710183Y-82008182D01*
X179766694Y-82100010D01*
X179833227Y-82208472D01*
X179908908Y-82332138D01*
X179992863Y-82469582D01*
X180084219Y-82619374D01*
X180182100Y-82780089D01*
X180285634Y-82950296D01*
X180393946Y-83128569D01*
X180494242Y-83293827D01*
X180606734Y-83479089D01*
X180715695Y-83658173D01*
X180820210Y-83829595D01*
X180919364Y-83991869D01*
X181012241Y-84143508D01*
X181097927Y-84283028D01*
X181175506Y-84408943D01*
X181244064Y-84519766D01*
X181302684Y-84614013D01*
X181350453Y-84690197D01*
X181386454Y-84746833D01*
X181409773Y-84782434D01*
X181418940Y-84795049D01*
X181465966Y-84827164D01*
X181515577Y-84832224D01*
X181564011Y-84810229D01*
X181581060Y-84795049D01*
X181592876Y-84778499D01*
X181618153Y-84739651D01*
X181655976Y-84679993D01*
X181705428Y-84601008D01*
X181765595Y-84504184D01*
X181835563Y-84391005D01*
X181914415Y-84262958D01*
X182001236Y-84121527D01*
X182095112Y-83968200D01*
X182195127Y-83804461D01*
X182300366Y-83631797D01*
X182409915Y-83451693D01*
X182505757Y-83293827D01*
X182617605Y-83109546D01*
X182725457Y-82932051D01*
X182828440Y-82762772D01*
X182925678Y-82603135D01*
X183016299Y-82454570D01*
X183099428Y-82318504D01*
X183174191Y-82196364D01*
X183239715Y-82089579D01*
X183295125Y-81999578D01*
X183339547Y-81927787D01*
X183372107Y-81875634D01*
X183391932Y-81844549D01*
X183398160Y-81835760D01*
X183394801Y-81849472D01*
G37*
D14*
%TO.C,U3*%
X159165000Y-79915000D02*
X175215000Y-79915000D01*
X159165000Y-93245000D02*
X159165000Y-79915000D01*
X175215000Y-79915000D02*
X175215000Y-93245000D01*
X175215000Y-93245000D02*
X159165000Y-93245000D01*
D15*
%TO.C,J1*%
X176350000Y-92170000D02*
X176350000Y-94830000D01*
X184030000Y-92170000D02*
X176350000Y-92170000D01*
X184030000Y-92170000D02*
X184030000Y-94830000D01*
X184030000Y-94830000D02*
X176350000Y-94830000D01*
X186630000Y-93500000D02*
X186630000Y-94830000D01*
X186630000Y-94830000D02*
X185300000Y-94830000D01*
D16*
%TO.C,U2*%
X127260000Y-82730000D02*
X127260000Y-100510000D01*
X127260000Y-97970000D02*
X129800000Y-97970000D01*
X127260000Y-100510000D02*
X157740000Y-100510000D01*
X129800000Y-97970000D02*
X129800000Y-100510000D01*
X157740000Y-82730000D02*
X127260000Y-82730000D01*
X157740000Y-100510000D02*
X157740000Y-82730000D01*
D15*
%TO.C,U4*%
X161442000Y-103507500D02*
X162682000Y-103507500D01*
X161682000Y-103267500D02*
X173403000Y-103267500D01*
X161442000Y-102267500D02*
X161442000Y-103507500D01*
X161682000Y-94647500D02*
X161682000Y-103267500D01*
X161682000Y-94647500D02*
X173403000Y-94647500D01*
X173403000Y-94647500D02*
X173403000Y-103267500D01*
%TD*%
D17*
%TO.C,U2*%
X128530000Y-99240000D03*
D18*
X131070000Y-99240000D03*
X133610000Y-99240000D03*
X136150000Y-99240000D03*
X138690000Y-99240000D03*
X141230000Y-99240000D03*
X143770000Y-99240000D03*
X146310000Y-99240000D03*
X148850000Y-99240000D03*
X151390000Y-99240000D03*
X153930000Y-99240000D03*
X156470000Y-99240000D03*
X156470000Y-84000000D03*
X153930000Y-84000000D03*
X151390000Y-84000000D03*
X148850000Y-84000000D03*
X146310000Y-84000000D03*
X143770000Y-84000000D03*
X141230000Y-84000000D03*
X138690000Y-84000000D03*
X136150000Y-84000000D03*
X133610000Y-84000000D03*
X131070000Y-84000000D03*
X128530000Y-84000000D03*
%TD*%
M02*
