%TF.GenerationSoftware,KiCad,Pcbnew,8.0.3*%
%TF.CreationDate,2024-07-14T23:37:10-05:00*%
%TF.ProjectId,3.3v Pro Micro Long,332e3376-2050-4726-9f20-4d6963726f20,rev?*%
%TF.SameCoordinates,Original*%
%TF.FileFunction,Drillmap*%
%TF.FilePolarity,Positive*%
%FSLAX45Y45*%
G04 Gerber Fmt 4.5, Leading zero omitted, Abs format (unit mm)*
G04 Created by KiCad (PCBNEW 8.0.3) date 2024-07-14 23:37:10*
%MOMM*%
%LPD*%
G01*
G04 APERTURE LIST*
%ADD10C,0.050000*%
%ADD11C,0.200000*%
%ADD12C,0.100000*%
%ADD13C,0.101600*%
%ADD14C,0.109220*%
G04 APERTURE END LIST*
D10*
X12622000Y-7924000D02*
X18772000Y-7924000D01*
X18772000Y-10424000D01*
X12622000Y-10424000D01*
X12622000Y-7924000D01*
D11*
D12*
X16455300Y-10070750D02*
X16555300Y-10170750D01*
X16555300Y-10070750D02*
X16455300Y-10170750D01*
X16709300Y-10070750D02*
X16809300Y-10170750D01*
X16809300Y-10070750D02*
X16709300Y-10170750D01*
X16963300Y-10070750D02*
X17063300Y-10170750D01*
X17063300Y-10070750D02*
X16963300Y-10170750D01*
X17718000Y-9300000D02*
X17818000Y-9400000D01*
X17818000Y-9300000D02*
X17718000Y-9400000D01*
X17972000Y-9300000D02*
X18072000Y-9400000D01*
X18072000Y-9300000D02*
X17972000Y-9400000D01*
X18226000Y-9300000D02*
X18326000Y-9400000D01*
X18326000Y-9300000D02*
X18226000Y-9400000D01*
X18480000Y-9300000D02*
X18580000Y-9400000D01*
X18580000Y-9300000D02*
X18480000Y-9400000D01*
D13*
X16134800Y-8150000D02*
G75*
G02*
X16033200Y-8150000I-50800J0D01*
G01*
X16033200Y-8150000D02*
G75*
G02*
X16134800Y-8150000I50800J0D01*
G01*
X16134800Y-9166000D02*
G75*
G02*
X16033200Y-9166000I-50800J0D01*
G01*
X16033200Y-9166000D02*
G75*
G02*
X16134800Y-9166000I50800J0D01*
G01*
X16388800Y-8150000D02*
G75*
G02*
X16287200Y-8150000I-50800J0D01*
G01*
X16287200Y-8150000D02*
G75*
G02*
X16388800Y-8150000I50800J0D01*
G01*
X16388800Y-9166000D02*
G75*
G02*
X16287200Y-9166000I-50800J0D01*
G01*
X16287200Y-9166000D02*
G75*
G02*
X16388800Y-9166000I50800J0D01*
G01*
X16642800Y-8150000D02*
G75*
G02*
X16541200Y-8150000I-50800J0D01*
G01*
X16541200Y-8150000D02*
G75*
G02*
X16642800Y-8150000I50800J0D01*
G01*
X16642800Y-9166000D02*
G75*
G02*
X16541200Y-9166000I-50800J0D01*
G01*
X16541200Y-9166000D02*
G75*
G02*
X16642800Y-9166000I50800J0D01*
G01*
X16896800Y-8150000D02*
G75*
G02*
X16795200Y-8150000I-50800J0D01*
G01*
X16795200Y-8150000D02*
G75*
G02*
X16896800Y-8150000I50800J0D01*
G01*
X16896800Y-9166000D02*
G75*
G02*
X16795200Y-9166000I-50800J0D01*
G01*
X16795200Y-9166000D02*
G75*
G02*
X16896800Y-9166000I50800J0D01*
G01*
X17150800Y-8150000D02*
G75*
G02*
X17049200Y-8150000I-50800J0D01*
G01*
X17049200Y-8150000D02*
G75*
G02*
X17150800Y-8150000I50800J0D01*
G01*
X17150800Y-9166000D02*
G75*
G02*
X17049200Y-9166000I-50800J0D01*
G01*
X17049200Y-9166000D02*
G75*
G02*
X17150800Y-9166000I50800J0D01*
G01*
X17404800Y-8150000D02*
G75*
G02*
X17303200Y-8150000I-50800J0D01*
G01*
X17303200Y-8150000D02*
G75*
G02*
X17404800Y-8150000I50800J0D01*
G01*
X17404800Y-9166000D02*
G75*
G02*
X17303200Y-9166000I-50800J0D01*
G01*
X17303200Y-9166000D02*
G75*
G02*
X17404800Y-9166000I50800J0D01*
G01*
D14*
X12853000Y-8345390D02*
X12853000Y-8454610D01*
X12798390Y-8400000D02*
X12907610Y-8400000D01*
X12853000Y-9869390D02*
X12853000Y-9978610D01*
X12798390Y-9924000D02*
X12907610Y-9924000D01*
X13107000Y-8345390D02*
X13107000Y-8454610D01*
X13052390Y-8400000D02*
X13161610Y-8400000D01*
X13107000Y-9869390D02*
X13107000Y-9978610D01*
X13052390Y-9924000D02*
X13161610Y-9924000D01*
X13361000Y-8345390D02*
X13361000Y-8454610D01*
X13306390Y-8400000D02*
X13415610Y-8400000D01*
X13361000Y-9869390D02*
X13361000Y-9978610D01*
X13306390Y-9924000D02*
X13415610Y-9924000D01*
X13615000Y-8345390D02*
X13615000Y-8454610D01*
X13560390Y-8400000D02*
X13669610Y-8400000D01*
X13615000Y-9869390D02*
X13615000Y-9978610D01*
X13560390Y-9924000D02*
X13669610Y-9924000D01*
X13869000Y-8345390D02*
X13869000Y-8454610D01*
X13814390Y-8400000D02*
X13923610Y-8400000D01*
X13869000Y-9869390D02*
X13869000Y-9978610D01*
X13814390Y-9924000D02*
X13923610Y-9924000D01*
X14123000Y-8345390D02*
X14123000Y-8454610D01*
X14068390Y-8400000D02*
X14177610Y-8400000D01*
X14123000Y-9869390D02*
X14123000Y-9978610D01*
X14068390Y-9924000D02*
X14177610Y-9924000D01*
X14377000Y-8345390D02*
X14377000Y-8454610D01*
X14322390Y-8400000D02*
X14431610Y-8400000D01*
X14377000Y-9869390D02*
X14377000Y-9978610D01*
X14322390Y-9924000D02*
X14431610Y-9924000D01*
X14631000Y-8345390D02*
X14631000Y-8454610D01*
X14576390Y-8400000D02*
X14685610Y-8400000D01*
X14631000Y-9869390D02*
X14631000Y-9978610D01*
X14576390Y-9924000D02*
X14685610Y-9924000D01*
X14885000Y-8345390D02*
X14885000Y-8454610D01*
X14830390Y-8400000D02*
X14939610Y-8400000D01*
X14885000Y-9869390D02*
X14885000Y-9978610D01*
X14830390Y-9924000D02*
X14939610Y-9924000D01*
X15139000Y-8345390D02*
X15139000Y-8454610D01*
X15084390Y-8400000D02*
X15193610Y-8400000D01*
X15139000Y-9869390D02*
X15139000Y-9978610D01*
X15084390Y-9924000D02*
X15193610Y-9924000D01*
X15393000Y-8345390D02*
X15393000Y-8454610D01*
X15338390Y-8400000D02*
X15447610Y-8400000D01*
X15393000Y-9869390D02*
X15393000Y-9978610D01*
X15338390Y-9924000D02*
X15447610Y-9924000D01*
X15647000Y-8345390D02*
X15647000Y-8454610D01*
X15592390Y-8400000D02*
X15701610Y-8400000D01*
X15647000Y-9869390D02*
X15647000Y-9978610D01*
X15592390Y-9924000D02*
X15701610Y-9924000D01*
D11*
X12880277Y-10737984D02*
X12880277Y-10537984D01*
X12880277Y-10537984D02*
X12927896Y-10537984D01*
X12927896Y-10537984D02*
X12956467Y-10547508D01*
X12956467Y-10547508D02*
X12975515Y-10566555D01*
X12975515Y-10566555D02*
X12985039Y-10585603D01*
X12985039Y-10585603D02*
X12994562Y-10623698D01*
X12994562Y-10623698D02*
X12994562Y-10652270D01*
X12994562Y-10652270D02*
X12985039Y-10690365D01*
X12985039Y-10690365D02*
X12975515Y-10709412D01*
X12975515Y-10709412D02*
X12956467Y-10728460D01*
X12956467Y-10728460D02*
X12927896Y-10737984D01*
X12927896Y-10737984D02*
X12880277Y-10737984D01*
X13080277Y-10737984D02*
X13080277Y-10604650D01*
X13080277Y-10642746D02*
X13089801Y-10623698D01*
X13089801Y-10623698D02*
X13099324Y-10614174D01*
X13099324Y-10614174D02*
X13118372Y-10604650D01*
X13118372Y-10604650D02*
X13137420Y-10604650D01*
X13204086Y-10737984D02*
X13204086Y-10604650D01*
X13204086Y-10537984D02*
X13194562Y-10547508D01*
X13194562Y-10547508D02*
X13204086Y-10557031D01*
X13204086Y-10557031D02*
X13213610Y-10547508D01*
X13213610Y-10547508D02*
X13204086Y-10537984D01*
X13204086Y-10537984D02*
X13204086Y-10557031D01*
X13327896Y-10737984D02*
X13308848Y-10728460D01*
X13308848Y-10728460D02*
X13299324Y-10709412D01*
X13299324Y-10709412D02*
X13299324Y-10537984D01*
X13432658Y-10737984D02*
X13413610Y-10728460D01*
X13413610Y-10728460D02*
X13404086Y-10709412D01*
X13404086Y-10709412D02*
X13404086Y-10537984D01*
X13661229Y-10737984D02*
X13661229Y-10537984D01*
X13661229Y-10537984D02*
X13727896Y-10680841D01*
X13727896Y-10680841D02*
X13794562Y-10537984D01*
X13794562Y-10537984D02*
X13794562Y-10737984D01*
X13975515Y-10737984D02*
X13975515Y-10633222D01*
X13975515Y-10633222D02*
X13965991Y-10614174D01*
X13965991Y-10614174D02*
X13946943Y-10604650D01*
X13946943Y-10604650D02*
X13908848Y-10604650D01*
X13908848Y-10604650D02*
X13889801Y-10614174D01*
X13975515Y-10728460D02*
X13956467Y-10737984D01*
X13956467Y-10737984D02*
X13908848Y-10737984D01*
X13908848Y-10737984D02*
X13889801Y-10728460D01*
X13889801Y-10728460D02*
X13880277Y-10709412D01*
X13880277Y-10709412D02*
X13880277Y-10690365D01*
X13880277Y-10690365D02*
X13889801Y-10671317D01*
X13889801Y-10671317D02*
X13908848Y-10661793D01*
X13908848Y-10661793D02*
X13956467Y-10661793D01*
X13956467Y-10661793D02*
X13975515Y-10652270D01*
X14070753Y-10604650D02*
X14070753Y-10804650D01*
X14070753Y-10614174D02*
X14089801Y-10604650D01*
X14089801Y-10604650D02*
X14127896Y-10604650D01*
X14127896Y-10604650D02*
X14146943Y-10614174D01*
X14146943Y-10614174D02*
X14156467Y-10623698D01*
X14156467Y-10623698D02*
X14165991Y-10642746D01*
X14165991Y-10642746D02*
X14165991Y-10699889D01*
X14165991Y-10699889D02*
X14156467Y-10718936D01*
X14156467Y-10718936D02*
X14146943Y-10728460D01*
X14146943Y-10728460D02*
X14127896Y-10737984D01*
X14127896Y-10737984D02*
X14089801Y-10737984D01*
X14089801Y-10737984D02*
X14070753Y-10728460D01*
X14251705Y-10718936D02*
X14261229Y-10728460D01*
X14261229Y-10728460D02*
X14251705Y-10737984D01*
X14251705Y-10737984D02*
X14242182Y-10728460D01*
X14242182Y-10728460D02*
X14251705Y-10718936D01*
X14251705Y-10718936D02*
X14251705Y-10737984D01*
X14251705Y-10614174D02*
X14261229Y-10623698D01*
X14261229Y-10623698D02*
X14251705Y-10633222D01*
X14251705Y-10633222D02*
X14242182Y-10623698D01*
X14242182Y-10623698D02*
X14251705Y-10614174D01*
X14251705Y-10614174D02*
X14251705Y-10633222D01*
D12*
X12519500Y-11016500D02*
X12619500Y-11116500D01*
X12619500Y-11016500D02*
X12519500Y-11116500D01*
D11*
X12985039Y-11157984D02*
X12870753Y-11157984D01*
X12927896Y-11157984D02*
X12927896Y-10957984D01*
X12927896Y-10957984D02*
X12908848Y-10986555D01*
X12908848Y-10986555D02*
X12889801Y-11005603D01*
X12889801Y-11005603D02*
X12870753Y-11015127D01*
X13070753Y-11138936D02*
X13080277Y-11148460D01*
X13080277Y-11148460D02*
X13070753Y-11157984D01*
X13070753Y-11157984D02*
X13061229Y-11148460D01*
X13061229Y-11148460D02*
X13070753Y-11138936D01*
X13070753Y-11138936D02*
X13070753Y-11157984D01*
X13204086Y-10957984D02*
X13223134Y-10957984D01*
X13223134Y-10957984D02*
X13242182Y-10967508D01*
X13242182Y-10967508D02*
X13251705Y-10977031D01*
X13251705Y-10977031D02*
X13261229Y-10996079D01*
X13261229Y-10996079D02*
X13270753Y-11034174D01*
X13270753Y-11034174D02*
X13270753Y-11081793D01*
X13270753Y-11081793D02*
X13261229Y-11119889D01*
X13261229Y-11119889D02*
X13251705Y-11138936D01*
X13251705Y-11138936D02*
X13242182Y-11148460D01*
X13242182Y-11148460D02*
X13223134Y-11157984D01*
X13223134Y-11157984D02*
X13204086Y-11157984D01*
X13204086Y-11157984D02*
X13185039Y-11148460D01*
X13185039Y-11148460D02*
X13175515Y-11138936D01*
X13175515Y-11138936D02*
X13165991Y-11119889D01*
X13165991Y-11119889D02*
X13156467Y-11081793D01*
X13156467Y-11081793D02*
X13156467Y-11034174D01*
X13156467Y-11034174D02*
X13165991Y-10996079D01*
X13165991Y-10996079D02*
X13175515Y-10977031D01*
X13175515Y-10977031D02*
X13185039Y-10967508D01*
X13185039Y-10967508D02*
X13204086Y-10957984D01*
X13394562Y-10957984D02*
X13413610Y-10957984D01*
X13413610Y-10957984D02*
X13432658Y-10967508D01*
X13432658Y-10967508D02*
X13442182Y-10977031D01*
X13442182Y-10977031D02*
X13451705Y-10996079D01*
X13451705Y-10996079D02*
X13461229Y-11034174D01*
X13461229Y-11034174D02*
X13461229Y-11081793D01*
X13461229Y-11081793D02*
X13451705Y-11119889D01*
X13451705Y-11119889D02*
X13442182Y-11138936D01*
X13442182Y-11138936D02*
X13432658Y-11148460D01*
X13432658Y-11148460D02*
X13413610Y-11157984D01*
X13413610Y-11157984D02*
X13394562Y-11157984D01*
X13394562Y-11157984D02*
X13375515Y-11148460D01*
X13375515Y-11148460D02*
X13365991Y-11138936D01*
X13365991Y-11138936D02*
X13356467Y-11119889D01*
X13356467Y-11119889D02*
X13346943Y-11081793D01*
X13346943Y-11081793D02*
X13346943Y-11034174D01*
X13346943Y-11034174D02*
X13356467Y-10996079D01*
X13356467Y-10996079D02*
X13365991Y-10977031D01*
X13365991Y-10977031D02*
X13375515Y-10967508D01*
X13375515Y-10967508D02*
X13394562Y-10957984D01*
X13585039Y-10957984D02*
X13604086Y-10957984D01*
X13604086Y-10957984D02*
X13623134Y-10967508D01*
X13623134Y-10967508D02*
X13632658Y-10977031D01*
X13632658Y-10977031D02*
X13642182Y-10996079D01*
X13642182Y-10996079D02*
X13651705Y-11034174D01*
X13651705Y-11034174D02*
X13651705Y-11081793D01*
X13651705Y-11081793D02*
X13642182Y-11119889D01*
X13642182Y-11119889D02*
X13632658Y-11138936D01*
X13632658Y-11138936D02*
X13623134Y-11148460D01*
X13623134Y-11148460D02*
X13604086Y-11157984D01*
X13604086Y-11157984D02*
X13585039Y-11157984D01*
X13585039Y-11157984D02*
X13565991Y-11148460D01*
X13565991Y-11148460D02*
X13556467Y-11138936D01*
X13556467Y-11138936D02*
X13546943Y-11119889D01*
X13546943Y-11119889D02*
X13537420Y-11081793D01*
X13537420Y-11081793D02*
X13537420Y-11034174D01*
X13537420Y-11034174D02*
X13546943Y-10996079D01*
X13546943Y-10996079D02*
X13556467Y-10977031D01*
X13556467Y-10977031D02*
X13565991Y-10967508D01*
X13565991Y-10967508D02*
X13585039Y-10957984D01*
X13737420Y-11157984D02*
X13737420Y-11024650D01*
X13737420Y-11043698D02*
X13746943Y-11034174D01*
X13746943Y-11034174D02*
X13765991Y-11024650D01*
X13765991Y-11024650D02*
X13794563Y-11024650D01*
X13794563Y-11024650D02*
X13813610Y-11034174D01*
X13813610Y-11034174D02*
X13823134Y-11053222D01*
X13823134Y-11053222D02*
X13823134Y-11157984D01*
X13823134Y-11053222D02*
X13832658Y-11034174D01*
X13832658Y-11034174D02*
X13851705Y-11024650D01*
X13851705Y-11024650D02*
X13880277Y-11024650D01*
X13880277Y-11024650D02*
X13899324Y-11034174D01*
X13899324Y-11034174D02*
X13908848Y-11053222D01*
X13908848Y-11053222D02*
X13908848Y-11157984D01*
X14004086Y-11157984D02*
X14004086Y-11024650D01*
X14004086Y-11043698D02*
X14013610Y-11034174D01*
X14013610Y-11034174D02*
X14032658Y-11024650D01*
X14032658Y-11024650D02*
X14061229Y-11024650D01*
X14061229Y-11024650D02*
X14080277Y-11034174D01*
X14080277Y-11034174D02*
X14089801Y-11053222D01*
X14089801Y-11053222D02*
X14089801Y-11157984D01*
X14089801Y-11053222D02*
X14099324Y-11034174D01*
X14099324Y-11034174D02*
X14118372Y-11024650D01*
X14118372Y-11024650D02*
X14146943Y-11024650D01*
X14146943Y-11024650D02*
X14165991Y-11034174D01*
X14165991Y-11034174D02*
X14175515Y-11053222D01*
X14175515Y-11053222D02*
X14175515Y-11157984D01*
X14565991Y-10948460D02*
X14394563Y-11205603D01*
X14823134Y-10957984D02*
X14842182Y-10957984D01*
X14842182Y-10957984D02*
X14861229Y-10967508D01*
X14861229Y-10967508D02*
X14870753Y-10977031D01*
X14870753Y-10977031D02*
X14880277Y-10996079D01*
X14880277Y-10996079D02*
X14889801Y-11034174D01*
X14889801Y-11034174D02*
X14889801Y-11081793D01*
X14889801Y-11081793D02*
X14880277Y-11119889D01*
X14880277Y-11119889D02*
X14870753Y-11138936D01*
X14870753Y-11138936D02*
X14861229Y-11148460D01*
X14861229Y-11148460D02*
X14842182Y-11157984D01*
X14842182Y-11157984D02*
X14823134Y-11157984D01*
X14823134Y-11157984D02*
X14804086Y-11148460D01*
X14804086Y-11148460D02*
X14794563Y-11138936D01*
X14794563Y-11138936D02*
X14785039Y-11119889D01*
X14785039Y-11119889D02*
X14775515Y-11081793D01*
X14775515Y-11081793D02*
X14775515Y-11034174D01*
X14775515Y-11034174D02*
X14785039Y-10996079D01*
X14785039Y-10996079D02*
X14794563Y-10977031D01*
X14794563Y-10977031D02*
X14804086Y-10967508D01*
X14804086Y-10967508D02*
X14823134Y-10957984D01*
X14975515Y-11138936D02*
X14985039Y-11148460D01*
X14985039Y-11148460D02*
X14975515Y-11157984D01*
X14975515Y-11157984D02*
X14965991Y-11148460D01*
X14965991Y-11148460D02*
X14975515Y-11138936D01*
X14975515Y-11138936D02*
X14975515Y-11157984D01*
X15108848Y-10957984D02*
X15127896Y-10957984D01*
X15127896Y-10957984D02*
X15146944Y-10967508D01*
X15146944Y-10967508D02*
X15156467Y-10977031D01*
X15156467Y-10977031D02*
X15165991Y-10996079D01*
X15165991Y-10996079D02*
X15175515Y-11034174D01*
X15175515Y-11034174D02*
X15175515Y-11081793D01*
X15175515Y-11081793D02*
X15165991Y-11119889D01*
X15165991Y-11119889D02*
X15156467Y-11138936D01*
X15156467Y-11138936D02*
X15146944Y-11148460D01*
X15146944Y-11148460D02*
X15127896Y-11157984D01*
X15127896Y-11157984D02*
X15108848Y-11157984D01*
X15108848Y-11157984D02*
X15089801Y-11148460D01*
X15089801Y-11148460D02*
X15080277Y-11138936D01*
X15080277Y-11138936D02*
X15070753Y-11119889D01*
X15070753Y-11119889D02*
X15061229Y-11081793D01*
X15061229Y-11081793D02*
X15061229Y-11034174D01*
X15061229Y-11034174D02*
X15070753Y-10996079D01*
X15070753Y-10996079D02*
X15080277Y-10977031D01*
X15080277Y-10977031D02*
X15089801Y-10967508D01*
X15089801Y-10967508D02*
X15108848Y-10957984D01*
X15242182Y-10957984D02*
X15365991Y-10957984D01*
X15365991Y-10957984D02*
X15299325Y-11034174D01*
X15299325Y-11034174D02*
X15327896Y-11034174D01*
X15327896Y-11034174D02*
X15346944Y-11043698D01*
X15346944Y-11043698D02*
X15356467Y-11053222D01*
X15356467Y-11053222D02*
X15365991Y-11072270D01*
X15365991Y-11072270D02*
X15365991Y-11119889D01*
X15365991Y-11119889D02*
X15356467Y-11138936D01*
X15356467Y-11138936D02*
X15346944Y-11148460D01*
X15346944Y-11148460D02*
X15327896Y-11157984D01*
X15327896Y-11157984D02*
X15270753Y-11157984D01*
X15270753Y-11157984D02*
X15251706Y-11148460D01*
X15251706Y-11148460D02*
X15242182Y-11138936D01*
X15461229Y-11157984D02*
X15499325Y-11157984D01*
X15499325Y-11157984D02*
X15518372Y-11148460D01*
X15518372Y-11148460D02*
X15527896Y-11138936D01*
X15527896Y-11138936D02*
X15546944Y-11110365D01*
X15546944Y-11110365D02*
X15556467Y-11072270D01*
X15556467Y-11072270D02*
X15556467Y-10996079D01*
X15556467Y-10996079D02*
X15546944Y-10977031D01*
X15546944Y-10977031D02*
X15537420Y-10967508D01*
X15537420Y-10967508D02*
X15518372Y-10957984D01*
X15518372Y-10957984D02*
X15480277Y-10957984D01*
X15480277Y-10957984D02*
X15461229Y-10967508D01*
X15461229Y-10967508D02*
X15451706Y-10977031D01*
X15451706Y-10977031D02*
X15442182Y-10996079D01*
X15442182Y-10996079D02*
X15442182Y-11043698D01*
X15442182Y-11043698D02*
X15451706Y-11062746D01*
X15451706Y-11062746D02*
X15461229Y-11072270D01*
X15461229Y-11072270D02*
X15480277Y-11081793D01*
X15480277Y-11081793D02*
X15518372Y-11081793D01*
X15518372Y-11081793D02*
X15537420Y-11072270D01*
X15537420Y-11072270D02*
X15546944Y-11062746D01*
X15546944Y-11062746D02*
X15556467Y-11043698D01*
X15727896Y-11024650D02*
X15727896Y-11157984D01*
X15680277Y-10948460D02*
X15632658Y-11091317D01*
X15632658Y-11091317D02*
X15756467Y-11091317D01*
X15823134Y-10957984D02*
X15823134Y-10996079D01*
X15899325Y-10957984D02*
X15899325Y-10996079D01*
X16194563Y-11234174D02*
X16185039Y-11224650D01*
X16185039Y-11224650D02*
X16165991Y-11196079D01*
X16165991Y-11196079D02*
X16156468Y-11177031D01*
X16156468Y-11177031D02*
X16146944Y-11148460D01*
X16146944Y-11148460D02*
X16137420Y-11100841D01*
X16137420Y-11100841D02*
X16137420Y-11062746D01*
X16137420Y-11062746D02*
X16146944Y-11015127D01*
X16146944Y-11015127D02*
X16156468Y-10986555D01*
X16156468Y-10986555D02*
X16165991Y-10967508D01*
X16165991Y-10967508D02*
X16185039Y-10938936D01*
X16185039Y-10938936D02*
X16194563Y-10929412D01*
X16251706Y-10957984D02*
X16385039Y-10957984D01*
X16385039Y-10957984D02*
X16299325Y-11157984D01*
X16613610Y-11157984D02*
X16613610Y-10957984D01*
X16699325Y-11157984D02*
X16699325Y-11053222D01*
X16699325Y-11053222D02*
X16689801Y-11034174D01*
X16689801Y-11034174D02*
X16670753Y-11024650D01*
X16670753Y-11024650D02*
X16642182Y-11024650D01*
X16642182Y-11024650D02*
X16623134Y-11034174D01*
X16623134Y-11034174D02*
X16613610Y-11043698D01*
X16823134Y-11157984D02*
X16804087Y-11148460D01*
X16804087Y-11148460D02*
X16794563Y-11138936D01*
X16794563Y-11138936D02*
X16785039Y-11119889D01*
X16785039Y-11119889D02*
X16785039Y-11062746D01*
X16785039Y-11062746D02*
X16794563Y-11043698D01*
X16794563Y-11043698D02*
X16804087Y-11034174D01*
X16804087Y-11034174D02*
X16823134Y-11024650D01*
X16823134Y-11024650D02*
X16851706Y-11024650D01*
X16851706Y-11024650D02*
X16870753Y-11034174D01*
X16870753Y-11034174D02*
X16880277Y-11043698D01*
X16880277Y-11043698D02*
X16889801Y-11062746D01*
X16889801Y-11062746D02*
X16889801Y-11119889D01*
X16889801Y-11119889D02*
X16880277Y-11138936D01*
X16880277Y-11138936D02*
X16870753Y-11148460D01*
X16870753Y-11148460D02*
X16851706Y-11157984D01*
X16851706Y-11157984D02*
X16823134Y-11157984D01*
X17004087Y-11157984D02*
X16985039Y-11148460D01*
X16985039Y-11148460D02*
X16975515Y-11129412D01*
X16975515Y-11129412D02*
X16975515Y-10957984D01*
X17156468Y-11148460D02*
X17137420Y-11157984D01*
X17137420Y-11157984D02*
X17099325Y-11157984D01*
X17099325Y-11157984D02*
X17080277Y-11148460D01*
X17080277Y-11148460D02*
X17070753Y-11129412D01*
X17070753Y-11129412D02*
X17070753Y-11053222D01*
X17070753Y-11053222D02*
X17080277Y-11034174D01*
X17080277Y-11034174D02*
X17099325Y-11024650D01*
X17099325Y-11024650D02*
X17137420Y-11024650D01*
X17137420Y-11024650D02*
X17156468Y-11034174D01*
X17156468Y-11034174D02*
X17165992Y-11053222D01*
X17165992Y-11053222D02*
X17165992Y-11072270D01*
X17165992Y-11072270D02*
X17070753Y-11091317D01*
X17242182Y-11148460D02*
X17261230Y-11157984D01*
X17261230Y-11157984D02*
X17299325Y-11157984D01*
X17299325Y-11157984D02*
X17318373Y-11148460D01*
X17318373Y-11148460D02*
X17327896Y-11129412D01*
X17327896Y-11129412D02*
X17327896Y-11119889D01*
X17327896Y-11119889D02*
X17318373Y-11100841D01*
X17318373Y-11100841D02*
X17299325Y-11091317D01*
X17299325Y-11091317D02*
X17270753Y-11091317D01*
X17270753Y-11091317D02*
X17251706Y-11081793D01*
X17251706Y-11081793D02*
X17242182Y-11062746D01*
X17242182Y-11062746D02*
X17242182Y-11053222D01*
X17242182Y-11053222D02*
X17251706Y-11034174D01*
X17251706Y-11034174D02*
X17270753Y-11024650D01*
X17270753Y-11024650D02*
X17299325Y-11024650D01*
X17299325Y-11024650D02*
X17318373Y-11034174D01*
X17394563Y-11234174D02*
X17404087Y-11224650D01*
X17404087Y-11224650D02*
X17423134Y-11196079D01*
X17423134Y-11196079D02*
X17432658Y-11177031D01*
X17432658Y-11177031D02*
X17442182Y-11148460D01*
X17442182Y-11148460D02*
X17451706Y-11100841D01*
X17451706Y-11100841D02*
X17451706Y-11062746D01*
X17451706Y-11062746D02*
X17442182Y-11015127D01*
X17442182Y-11015127D02*
X17432658Y-10986555D01*
X17432658Y-10986555D02*
X17423134Y-10967508D01*
X17423134Y-10967508D02*
X17404087Y-10938936D01*
X17404087Y-10938936D02*
X17394563Y-10929412D01*
D13*
X12619500Y-11330500D02*
G75*
G02*
X12517900Y-11330500I-50800J0D01*
G01*
X12517900Y-11330500D02*
G75*
G02*
X12619500Y-11330500I50800J0D01*
G01*
D11*
X12985039Y-11421984D02*
X12870753Y-11421984D01*
X12927896Y-11421984D02*
X12927896Y-11221984D01*
X12927896Y-11221984D02*
X12908848Y-11250555D01*
X12908848Y-11250555D02*
X12889801Y-11269603D01*
X12889801Y-11269603D02*
X12870753Y-11279127D01*
X13070753Y-11402936D02*
X13080277Y-11412460D01*
X13080277Y-11412460D02*
X13070753Y-11421984D01*
X13070753Y-11421984D02*
X13061229Y-11412460D01*
X13061229Y-11412460D02*
X13070753Y-11402936D01*
X13070753Y-11402936D02*
X13070753Y-11421984D01*
X13204086Y-11221984D02*
X13223134Y-11221984D01*
X13223134Y-11221984D02*
X13242182Y-11231508D01*
X13242182Y-11231508D02*
X13251705Y-11241031D01*
X13251705Y-11241031D02*
X13261229Y-11260079D01*
X13261229Y-11260079D02*
X13270753Y-11298174D01*
X13270753Y-11298174D02*
X13270753Y-11345793D01*
X13270753Y-11345793D02*
X13261229Y-11383888D01*
X13261229Y-11383888D02*
X13251705Y-11402936D01*
X13251705Y-11402936D02*
X13242182Y-11412460D01*
X13242182Y-11412460D02*
X13223134Y-11421984D01*
X13223134Y-11421984D02*
X13204086Y-11421984D01*
X13204086Y-11421984D02*
X13185039Y-11412460D01*
X13185039Y-11412460D02*
X13175515Y-11402936D01*
X13175515Y-11402936D02*
X13165991Y-11383888D01*
X13165991Y-11383888D02*
X13156467Y-11345793D01*
X13156467Y-11345793D02*
X13156467Y-11298174D01*
X13156467Y-11298174D02*
X13165991Y-11260079D01*
X13165991Y-11260079D02*
X13175515Y-11241031D01*
X13175515Y-11241031D02*
X13185039Y-11231508D01*
X13185039Y-11231508D02*
X13204086Y-11221984D01*
X13461229Y-11421984D02*
X13346943Y-11421984D01*
X13404086Y-11421984D02*
X13404086Y-11221984D01*
X13404086Y-11221984D02*
X13385039Y-11250555D01*
X13385039Y-11250555D02*
X13365991Y-11269603D01*
X13365991Y-11269603D02*
X13346943Y-11279127D01*
X13632658Y-11221984D02*
X13594562Y-11221984D01*
X13594562Y-11221984D02*
X13575515Y-11231508D01*
X13575515Y-11231508D02*
X13565991Y-11241031D01*
X13565991Y-11241031D02*
X13546943Y-11269603D01*
X13546943Y-11269603D02*
X13537420Y-11307698D01*
X13537420Y-11307698D02*
X13537420Y-11383888D01*
X13537420Y-11383888D02*
X13546943Y-11402936D01*
X13546943Y-11402936D02*
X13556467Y-11412460D01*
X13556467Y-11412460D02*
X13575515Y-11421984D01*
X13575515Y-11421984D02*
X13613610Y-11421984D01*
X13613610Y-11421984D02*
X13632658Y-11412460D01*
X13632658Y-11412460D02*
X13642182Y-11402936D01*
X13642182Y-11402936D02*
X13651705Y-11383888D01*
X13651705Y-11383888D02*
X13651705Y-11336269D01*
X13651705Y-11336269D02*
X13642182Y-11317222D01*
X13642182Y-11317222D02*
X13632658Y-11307698D01*
X13632658Y-11307698D02*
X13613610Y-11298174D01*
X13613610Y-11298174D02*
X13575515Y-11298174D01*
X13575515Y-11298174D02*
X13556467Y-11307698D01*
X13556467Y-11307698D02*
X13546943Y-11317222D01*
X13546943Y-11317222D02*
X13537420Y-11336269D01*
X13737420Y-11421984D02*
X13737420Y-11288650D01*
X13737420Y-11307698D02*
X13746943Y-11298174D01*
X13746943Y-11298174D02*
X13765991Y-11288650D01*
X13765991Y-11288650D02*
X13794563Y-11288650D01*
X13794563Y-11288650D02*
X13813610Y-11298174D01*
X13813610Y-11298174D02*
X13823134Y-11317222D01*
X13823134Y-11317222D02*
X13823134Y-11421984D01*
X13823134Y-11317222D02*
X13832658Y-11298174D01*
X13832658Y-11298174D02*
X13851705Y-11288650D01*
X13851705Y-11288650D02*
X13880277Y-11288650D01*
X13880277Y-11288650D02*
X13899324Y-11298174D01*
X13899324Y-11298174D02*
X13908848Y-11317222D01*
X13908848Y-11317222D02*
X13908848Y-11421984D01*
X14004086Y-11421984D02*
X14004086Y-11288650D01*
X14004086Y-11307698D02*
X14013610Y-11298174D01*
X14013610Y-11298174D02*
X14032658Y-11288650D01*
X14032658Y-11288650D02*
X14061229Y-11288650D01*
X14061229Y-11288650D02*
X14080277Y-11298174D01*
X14080277Y-11298174D02*
X14089801Y-11317222D01*
X14089801Y-11317222D02*
X14089801Y-11421984D01*
X14089801Y-11317222D02*
X14099324Y-11298174D01*
X14099324Y-11298174D02*
X14118372Y-11288650D01*
X14118372Y-11288650D02*
X14146943Y-11288650D01*
X14146943Y-11288650D02*
X14165991Y-11298174D01*
X14165991Y-11298174D02*
X14175515Y-11317222D01*
X14175515Y-11317222D02*
X14175515Y-11421984D01*
X14565991Y-11212460D02*
X14394563Y-11469603D01*
X14823134Y-11221984D02*
X14842182Y-11221984D01*
X14842182Y-11221984D02*
X14861229Y-11231508D01*
X14861229Y-11231508D02*
X14870753Y-11241031D01*
X14870753Y-11241031D02*
X14880277Y-11260079D01*
X14880277Y-11260079D02*
X14889801Y-11298174D01*
X14889801Y-11298174D02*
X14889801Y-11345793D01*
X14889801Y-11345793D02*
X14880277Y-11383888D01*
X14880277Y-11383888D02*
X14870753Y-11402936D01*
X14870753Y-11402936D02*
X14861229Y-11412460D01*
X14861229Y-11412460D02*
X14842182Y-11421984D01*
X14842182Y-11421984D02*
X14823134Y-11421984D01*
X14823134Y-11421984D02*
X14804086Y-11412460D01*
X14804086Y-11412460D02*
X14794563Y-11402936D01*
X14794563Y-11402936D02*
X14785039Y-11383888D01*
X14785039Y-11383888D02*
X14775515Y-11345793D01*
X14775515Y-11345793D02*
X14775515Y-11298174D01*
X14775515Y-11298174D02*
X14785039Y-11260079D01*
X14785039Y-11260079D02*
X14794563Y-11241031D01*
X14794563Y-11241031D02*
X14804086Y-11231508D01*
X14804086Y-11231508D02*
X14823134Y-11221984D01*
X14975515Y-11402936D02*
X14985039Y-11412460D01*
X14985039Y-11412460D02*
X14975515Y-11421984D01*
X14975515Y-11421984D02*
X14965991Y-11412460D01*
X14965991Y-11412460D02*
X14975515Y-11402936D01*
X14975515Y-11402936D02*
X14975515Y-11421984D01*
X15108848Y-11221984D02*
X15127896Y-11221984D01*
X15127896Y-11221984D02*
X15146944Y-11231508D01*
X15146944Y-11231508D02*
X15156467Y-11241031D01*
X15156467Y-11241031D02*
X15165991Y-11260079D01*
X15165991Y-11260079D02*
X15175515Y-11298174D01*
X15175515Y-11298174D02*
X15175515Y-11345793D01*
X15175515Y-11345793D02*
X15165991Y-11383888D01*
X15165991Y-11383888D02*
X15156467Y-11402936D01*
X15156467Y-11402936D02*
X15146944Y-11412460D01*
X15146944Y-11412460D02*
X15127896Y-11421984D01*
X15127896Y-11421984D02*
X15108848Y-11421984D01*
X15108848Y-11421984D02*
X15089801Y-11412460D01*
X15089801Y-11412460D02*
X15080277Y-11402936D01*
X15080277Y-11402936D02*
X15070753Y-11383888D01*
X15070753Y-11383888D02*
X15061229Y-11345793D01*
X15061229Y-11345793D02*
X15061229Y-11298174D01*
X15061229Y-11298174D02*
X15070753Y-11260079D01*
X15070753Y-11260079D02*
X15080277Y-11241031D01*
X15080277Y-11241031D02*
X15089801Y-11231508D01*
X15089801Y-11231508D02*
X15108848Y-11221984D01*
X15346944Y-11288650D02*
X15346944Y-11421984D01*
X15299325Y-11212460D02*
X15251706Y-11355317D01*
X15251706Y-11355317D02*
X15375515Y-11355317D01*
X15489801Y-11221984D02*
X15508848Y-11221984D01*
X15508848Y-11221984D02*
X15527896Y-11231508D01*
X15527896Y-11231508D02*
X15537420Y-11241031D01*
X15537420Y-11241031D02*
X15546944Y-11260079D01*
X15546944Y-11260079D02*
X15556467Y-11298174D01*
X15556467Y-11298174D02*
X15556467Y-11345793D01*
X15556467Y-11345793D02*
X15546944Y-11383888D01*
X15546944Y-11383888D02*
X15537420Y-11402936D01*
X15537420Y-11402936D02*
X15527896Y-11412460D01*
X15527896Y-11412460D02*
X15508848Y-11421984D01*
X15508848Y-11421984D02*
X15489801Y-11421984D01*
X15489801Y-11421984D02*
X15470753Y-11412460D01*
X15470753Y-11412460D02*
X15461229Y-11402936D01*
X15461229Y-11402936D02*
X15451706Y-11383888D01*
X15451706Y-11383888D02*
X15442182Y-11345793D01*
X15442182Y-11345793D02*
X15442182Y-11298174D01*
X15442182Y-11298174D02*
X15451706Y-11260079D01*
X15451706Y-11260079D02*
X15461229Y-11241031D01*
X15461229Y-11241031D02*
X15470753Y-11231508D01*
X15470753Y-11231508D02*
X15489801Y-11221984D01*
X15680277Y-11221984D02*
X15699325Y-11221984D01*
X15699325Y-11221984D02*
X15718372Y-11231508D01*
X15718372Y-11231508D02*
X15727896Y-11241031D01*
X15727896Y-11241031D02*
X15737420Y-11260079D01*
X15737420Y-11260079D02*
X15746944Y-11298174D01*
X15746944Y-11298174D02*
X15746944Y-11345793D01*
X15746944Y-11345793D02*
X15737420Y-11383888D01*
X15737420Y-11383888D02*
X15727896Y-11402936D01*
X15727896Y-11402936D02*
X15718372Y-11412460D01*
X15718372Y-11412460D02*
X15699325Y-11421984D01*
X15699325Y-11421984D02*
X15680277Y-11421984D01*
X15680277Y-11421984D02*
X15661229Y-11412460D01*
X15661229Y-11412460D02*
X15651706Y-11402936D01*
X15651706Y-11402936D02*
X15642182Y-11383888D01*
X15642182Y-11383888D02*
X15632658Y-11345793D01*
X15632658Y-11345793D02*
X15632658Y-11298174D01*
X15632658Y-11298174D02*
X15642182Y-11260079D01*
X15642182Y-11260079D02*
X15651706Y-11241031D01*
X15651706Y-11241031D02*
X15661229Y-11231508D01*
X15661229Y-11231508D02*
X15680277Y-11221984D01*
X15823134Y-11221984D02*
X15823134Y-11260079D01*
X15899325Y-11221984D02*
X15899325Y-11260079D01*
X16194563Y-11498174D02*
X16185039Y-11488650D01*
X16185039Y-11488650D02*
X16165991Y-11460079D01*
X16165991Y-11460079D02*
X16156468Y-11441031D01*
X16156468Y-11441031D02*
X16146944Y-11412460D01*
X16146944Y-11412460D02*
X16137420Y-11364841D01*
X16137420Y-11364841D02*
X16137420Y-11326746D01*
X16137420Y-11326746D02*
X16146944Y-11279127D01*
X16146944Y-11279127D02*
X16156468Y-11250555D01*
X16156468Y-11250555D02*
X16165991Y-11231508D01*
X16165991Y-11231508D02*
X16185039Y-11202936D01*
X16185039Y-11202936D02*
X16194563Y-11193412D01*
X16375515Y-11421984D02*
X16261229Y-11421984D01*
X16318372Y-11421984D02*
X16318372Y-11221984D01*
X16318372Y-11221984D02*
X16299325Y-11250555D01*
X16299325Y-11250555D02*
X16280277Y-11269603D01*
X16280277Y-11269603D02*
X16261229Y-11279127D01*
X16451706Y-11241031D02*
X16461229Y-11231508D01*
X16461229Y-11231508D02*
X16480277Y-11221984D01*
X16480277Y-11221984D02*
X16527896Y-11221984D01*
X16527896Y-11221984D02*
X16546944Y-11231508D01*
X16546944Y-11231508D02*
X16556468Y-11241031D01*
X16556468Y-11241031D02*
X16565991Y-11260079D01*
X16565991Y-11260079D02*
X16565991Y-11279127D01*
X16565991Y-11279127D02*
X16556468Y-11307698D01*
X16556468Y-11307698D02*
X16442182Y-11421984D01*
X16442182Y-11421984D02*
X16565991Y-11421984D01*
X16804087Y-11421984D02*
X16804087Y-11221984D01*
X16889801Y-11421984D02*
X16889801Y-11317222D01*
X16889801Y-11317222D02*
X16880277Y-11298174D01*
X16880277Y-11298174D02*
X16861230Y-11288650D01*
X16861230Y-11288650D02*
X16832658Y-11288650D01*
X16832658Y-11288650D02*
X16813611Y-11298174D01*
X16813611Y-11298174D02*
X16804087Y-11307698D01*
X17013611Y-11421984D02*
X16994563Y-11412460D01*
X16994563Y-11412460D02*
X16985039Y-11402936D01*
X16985039Y-11402936D02*
X16975515Y-11383888D01*
X16975515Y-11383888D02*
X16975515Y-11326746D01*
X16975515Y-11326746D02*
X16985039Y-11307698D01*
X16985039Y-11307698D02*
X16994563Y-11298174D01*
X16994563Y-11298174D02*
X17013611Y-11288650D01*
X17013611Y-11288650D02*
X17042182Y-11288650D01*
X17042182Y-11288650D02*
X17061230Y-11298174D01*
X17061230Y-11298174D02*
X17070753Y-11307698D01*
X17070753Y-11307698D02*
X17080277Y-11326746D01*
X17080277Y-11326746D02*
X17080277Y-11383888D01*
X17080277Y-11383888D02*
X17070753Y-11402936D01*
X17070753Y-11402936D02*
X17061230Y-11412460D01*
X17061230Y-11412460D02*
X17042182Y-11421984D01*
X17042182Y-11421984D02*
X17013611Y-11421984D01*
X17194563Y-11421984D02*
X17175515Y-11412460D01*
X17175515Y-11412460D02*
X17165992Y-11393412D01*
X17165992Y-11393412D02*
X17165992Y-11221984D01*
X17346944Y-11412460D02*
X17327896Y-11421984D01*
X17327896Y-11421984D02*
X17289801Y-11421984D01*
X17289801Y-11421984D02*
X17270753Y-11412460D01*
X17270753Y-11412460D02*
X17261230Y-11393412D01*
X17261230Y-11393412D02*
X17261230Y-11317222D01*
X17261230Y-11317222D02*
X17270753Y-11298174D01*
X17270753Y-11298174D02*
X17289801Y-11288650D01*
X17289801Y-11288650D02*
X17327896Y-11288650D01*
X17327896Y-11288650D02*
X17346944Y-11298174D01*
X17346944Y-11298174D02*
X17356468Y-11317222D01*
X17356468Y-11317222D02*
X17356468Y-11336269D01*
X17356468Y-11336269D02*
X17261230Y-11355317D01*
X17432658Y-11412460D02*
X17451706Y-11421984D01*
X17451706Y-11421984D02*
X17489801Y-11421984D01*
X17489801Y-11421984D02*
X17508849Y-11412460D01*
X17508849Y-11412460D02*
X17518373Y-11393412D01*
X17518373Y-11393412D02*
X17518373Y-11383888D01*
X17518373Y-11383888D02*
X17508849Y-11364841D01*
X17508849Y-11364841D02*
X17489801Y-11355317D01*
X17489801Y-11355317D02*
X17461230Y-11355317D01*
X17461230Y-11355317D02*
X17442182Y-11345793D01*
X17442182Y-11345793D02*
X17432658Y-11326746D01*
X17432658Y-11326746D02*
X17432658Y-11317222D01*
X17432658Y-11317222D02*
X17442182Y-11298174D01*
X17442182Y-11298174D02*
X17461230Y-11288650D01*
X17461230Y-11288650D02*
X17489801Y-11288650D01*
X17489801Y-11288650D02*
X17508849Y-11298174D01*
X17585039Y-11498174D02*
X17594563Y-11488650D01*
X17594563Y-11488650D02*
X17613611Y-11460079D01*
X17613611Y-11460079D02*
X17623134Y-11441031D01*
X17623134Y-11441031D02*
X17632658Y-11412460D01*
X17632658Y-11412460D02*
X17642182Y-11364841D01*
X17642182Y-11364841D02*
X17642182Y-11326746D01*
X17642182Y-11326746D02*
X17632658Y-11279127D01*
X17632658Y-11279127D02*
X17623134Y-11250555D01*
X17623134Y-11250555D02*
X17613611Y-11231508D01*
X17613611Y-11231508D02*
X17594563Y-11202936D01*
X17594563Y-11202936D02*
X17585039Y-11193412D01*
D14*
X12564890Y-11539890D02*
X12564890Y-11649110D01*
X12510280Y-11594500D02*
X12619500Y-11594500D01*
D11*
X12985039Y-11685984D02*
X12870753Y-11685984D01*
X12927896Y-11685984D02*
X12927896Y-11485984D01*
X12927896Y-11485984D02*
X12908848Y-11514555D01*
X12908848Y-11514555D02*
X12889801Y-11533603D01*
X12889801Y-11533603D02*
X12870753Y-11543127D01*
X13070753Y-11666936D02*
X13080277Y-11676460D01*
X13080277Y-11676460D02*
X13070753Y-11685984D01*
X13070753Y-11685984D02*
X13061229Y-11676460D01*
X13061229Y-11676460D02*
X13070753Y-11666936D01*
X13070753Y-11666936D02*
X13070753Y-11685984D01*
X13204086Y-11485984D02*
X13223134Y-11485984D01*
X13223134Y-11485984D02*
X13242182Y-11495508D01*
X13242182Y-11495508D02*
X13251705Y-11505031D01*
X13251705Y-11505031D02*
X13261229Y-11524079D01*
X13261229Y-11524079D02*
X13270753Y-11562174D01*
X13270753Y-11562174D02*
X13270753Y-11609793D01*
X13270753Y-11609793D02*
X13261229Y-11647888D01*
X13261229Y-11647888D02*
X13251705Y-11666936D01*
X13251705Y-11666936D02*
X13242182Y-11676460D01*
X13242182Y-11676460D02*
X13223134Y-11685984D01*
X13223134Y-11685984D02*
X13204086Y-11685984D01*
X13204086Y-11685984D02*
X13185039Y-11676460D01*
X13185039Y-11676460D02*
X13175515Y-11666936D01*
X13175515Y-11666936D02*
X13165991Y-11647888D01*
X13165991Y-11647888D02*
X13156467Y-11609793D01*
X13156467Y-11609793D02*
X13156467Y-11562174D01*
X13156467Y-11562174D02*
X13165991Y-11524079D01*
X13165991Y-11524079D02*
X13175515Y-11505031D01*
X13175515Y-11505031D02*
X13185039Y-11495508D01*
X13185039Y-11495508D02*
X13204086Y-11485984D01*
X13365991Y-11685984D02*
X13404086Y-11685984D01*
X13404086Y-11685984D02*
X13423134Y-11676460D01*
X13423134Y-11676460D02*
X13432658Y-11666936D01*
X13432658Y-11666936D02*
X13451705Y-11638365D01*
X13451705Y-11638365D02*
X13461229Y-11600269D01*
X13461229Y-11600269D02*
X13461229Y-11524079D01*
X13461229Y-11524079D02*
X13451705Y-11505031D01*
X13451705Y-11505031D02*
X13442182Y-11495508D01*
X13442182Y-11495508D02*
X13423134Y-11485984D01*
X13423134Y-11485984D02*
X13385039Y-11485984D01*
X13385039Y-11485984D02*
X13365991Y-11495508D01*
X13365991Y-11495508D02*
X13356467Y-11505031D01*
X13356467Y-11505031D02*
X13346943Y-11524079D01*
X13346943Y-11524079D02*
X13346943Y-11571698D01*
X13346943Y-11571698D02*
X13356467Y-11590746D01*
X13356467Y-11590746D02*
X13365991Y-11600269D01*
X13365991Y-11600269D02*
X13385039Y-11609793D01*
X13385039Y-11609793D02*
X13423134Y-11609793D01*
X13423134Y-11609793D02*
X13442182Y-11600269D01*
X13442182Y-11600269D02*
X13451705Y-11590746D01*
X13451705Y-11590746D02*
X13461229Y-11571698D01*
X13537420Y-11505031D02*
X13546943Y-11495508D01*
X13546943Y-11495508D02*
X13565991Y-11485984D01*
X13565991Y-11485984D02*
X13613610Y-11485984D01*
X13613610Y-11485984D02*
X13632658Y-11495508D01*
X13632658Y-11495508D02*
X13642182Y-11505031D01*
X13642182Y-11505031D02*
X13651705Y-11524079D01*
X13651705Y-11524079D02*
X13651705Y-11543127D01*
X13651705Y-11543127D02*
X13642182Y-11571698D01*
X13642182Y-11571698D02*
X13527896Y-11685984D01*
X13527896Y-11685984D02*
X13651705Y-11685984D01*
X13737420Y-11685984D02*
X13737420Y-11552650D01*
X13737420Y-11571698D02*
X13746943Y-11562174D01*
X13746943Y-11562174D02*
X13765991Y-11552650D01*
X13765991Y-11552650D02*
X13794563Y-11552650D01*
X13794563Y-11552650D02*
X13813610Y-11562174D01*
X13813610Y-11562174D02*
X13823134Y-11581222D01*
X13823134Y-11581222D02*
X13823134Y-11685984D01*
X13823134Y-11581222D02*
X13832658Y-11562174D01*
X13832658Y-11562174D02*
X13851705Y-11552650D01*
X13851705Y-11552650D02*
X13880277Y-11552650D01*
X13880277Y-11552650D02*
X13899324Y-11562174D01*
X13899324Y-11562174D02*
X13908848Y-11581222D01*
X13908848Y-11581222D02*
X13908848Y-11685984D01*
X14004086Y-11685984D02*
X14004086Y-11552650D01*
X14004086Y-11571698D02*
X14013610Y-11562174D01*
X14013610Y-11562174D02*
X14032658Y-11552650D01*
X14032658Y-11552650D02*
X14061229Y-11552650D01*
X14061229Y-11552650D02*
X14080277Y-11562174D01*
X14080277Y-11562174D02*
X14089801Y-11581222D01*
X14089801Y-11581222D02*
X14089801Y-11685984D01*
X14089801Y-11581222D02*
X14099324Y-11562174D01*
X14099324Y-11562174D02*
X14118372Y-11552650D01*
X14118372Y-11552650D02*
X14146943Y-11552650D01*
X14146943Y-11552650D02*
X14165991Y-11562174D01*
X14165991Y-11562174D02*
X14175515Y-11581222D01*
X14175515Y-11581222D02*
X14175515Y-11685984D01*
X14565991Y-11476460D02*
X14394563Y-11733603D01*
X14823134Y-11485984D02*
X14842182Y-11485984D01*
X14842182Y-11485984D02*
X14861229Y-11495508D01*
X14861229Y-11495508D02*
X14870753Y-11505031D01*
X14870753Y-11505031D02*
X14880277Y-11524079D01*
X14880277Y-11524079D02*
X14889801Y-11562174D01*
X14889801Y-11562174D02*
X14889801Y-11609793D01*
X14889801Y-11609793D02*
X14880277Y-11647888D01*
X14880277Y-11647888D02*
X14870753Y-11666936D01*
X14870753Y-11666936D02*
X14861229Y-11676460D01*
X14861229Y-11676460D02*
X14842182Y-11685984D01*
X14842182Y-11685984D02*
X14823134Y-11685984D01*
X14823134Y-11685984D02*
X14804086Y-11676460D01*
X14804086Y-11676460D02*
X14794563Y-11666936D01*
X14794563Y-11666936D02*
X14785039Y-11647888D01*
X14785039Y-11647888D02*
X14775515Y-11609793D01*
X14775515Y-11609793D02*
X14775515Y-11562174D01*
X14775515Y-11562174D02*
X14785039Y-11524079D01*
X14785039Y-11524079D02*
X14794563Y-11505031D01*
X14794563Y-11505031D02*
X14804086Y-11495508D01*
X14804086Y-11495508D02*
X14823134Y-11485984D01*
X14975515Y-11666936D02*
X14985039Y-11676460D01*
X14985039Y-11676460D02*
X14975515Y-11685984D01*
X14975515Y-11685984D02*
X14965991Y-11676460D01*
X14965991Y-11676460D02*
X14975515Y-11666936D01*
X14975515Y-11666936D02*
X14975515Y-11685984D01*
X15108848Y-11485984D02*
X15127896Y-11485984D01*
X15127896Y-11485984D02*
X15146944Y-11495508D01*
X15146944Y-11495508D02*
X15156467Y-11505031D01*
X15156467Y-11505031D02*
X15165991Y-11524079D01*
X15165991Y-11524079D02*
X15175515Y-11562174D01*
X15175515Y-11562174D02*
X15175515Y-11609793D01*
X15175515Y-11609793D02*
X15165991Y-11647888D01*
X15165991Y-11647888D02*
X15156467Y-11666936D01*
X15156467Y-11666936D02*
X15146944Y-11676460D01*
X15146944Y-11676460D02*
X15127896Y-11685984D01*
X15127896Y-11685984D02*
X15108848Y-11685984D01*
X15108848Y-11685984D02*
X15089801Y-11676460D01*
X15089801Y-11676460D02*
X15080277Y-11666936D01*
X15080277Y-11666936D02*
X15070753Y-11647888D01*
X15070753Y-11647888D02*
X15061229Y-11609793D01*
X15061229Y-11609793D02*
X15061229Y-11562174D01*
X15061229Y-11562174D02*
X15070753Y-11524079D01*
X15070753Y-11524079D02*
X15080277Y-11505031D01*
X15080277Y-11505031D02*
X15089801Y-11495508D01*
X15089801Y-11495508D02*
X15108848Y-11485984D01*
X15346944Y-11552650D02*
X15346944Y-11685984D01*
X15299325Y-11476460D02*
X15251706Y-11619317D01*
X15251706Y-11619317D02*
X15375515Y-11619317D01*
X15432658Y-11485984D02*
X15556467Y-11485984D01*
X15556467Y-11485984D02*
X15489801Y-11562174D01*
X15489801Y-11562174D02*
X15518372Y-11562174D01*
X15518372Y-11562174D02*
X15537420Y-11571698D01*
X15537420Y-11571698D02*
X15546944Y-11581222D01*
X15546944Y-11581222D02*
X15556467Y-11600269D01*
X15556467Y-11600269D02*
X15556467Y-11647888D01*
X15556467Y-11647888D02*
X15546944Y-11666936D01*
X15546944Y-11666936D02*
X15537420Y-11676460D01*
X15537420Y-11676460D02*
X15518372Y-11685984D01*
X15518372Y-11685984D02*
X15461229Y-11685984D01*
X15461229Y-11685984D02*
X15442182Y-11676460D01*
X15442182Y-11676460D02*
X15432658Y-11666936D01*
X15680277Y-11485984D02*
X15699325Y-11485984D01*
X15699325Y-11485984D02*
X15718372Y-11495508D01*
X15718372Y-11495508D02*
X15727896Y-11505031D01*
X15727896Y-11505031D02*
X15737420Y-11524079D01*
X15737420Y-11524079D02*
X15746944Y-11562174D01*
X15746944Y-11562174D02*
X15746944Y-11609793D01*
X15746944Y-11609793D02*
X15737420Y-11647888D01*
X15737420Y-11647888D02*
X15727896Y-11666936D01*
X15727896Y-11666936D02*
X15718372Y-11676460D01*
X15718372Y-11676460D02*
X15699325Y-11685984D01*
X15699325Y-11685984D02*
X15680277Y-11685984D01*
X15680277Y-11685984D02*
X15661229Y-11676460D01*
X15661229Y-11676460D02*
X15651706Y-11666936D01*
X15651706Y-11666936D02*
X15642182Y-11647888D01*
X15642182Y-11647888D02*
X15632658Y-11609793D01*
X15632658Y-11609793D02*
X15632658Y-11562174D01*
X15632658Y-11562174D02*
X15642182Y-11524079D01*
X15642182Y-11524079D02*
X15651706Y-11505031D01*
X15651706Y-11505031D02*
X15661229Y-11495508D01*
X15661229Y-11495508D02*
X15680277Y-11485984D01*
X15823134Y-11485984D02*
X15823134Y-11524079D01*
X15899325Y-11485984D02*
X15899325Y-11524079D01*
X16194563Y-11762174D02*
X16185039Y-11752650D01*
X16185039Y-11752650D02*
X16165991Y-11724079D01*
X16165991Y-11724079D02*
X16156468Y-11705031D01*
X16156468Y-11705031D02*
X16146944Y-11676460D01*
X16146944Y-11676460D02*
X16137420Y-11628841D01*
X16137420Y-11628841D02*
X16137420Y-11590746D01*
X16137420Y-11590746D02*
X16146944Y-11543127D01*
X16146944Y-11543127D02*
X16156468Y-11514555D01*
X16156468Y-11514555D02*
X16165991Y-11495508D01*
X16165991Y-11495508D02*
X16185039Y-11466936D01*
X16185039Y-11466936D02*
X16194563Y-11457412D01*
X16261229Y-11505031D02*
X16270753Y-11495508D01*
X16270753Y-11495508D02*
X16289801Y-11485984D01*
X16289801Y-11485984D02*
X16337420Y-11485984D01*
X16337420Y-11485984D02*
X16356468Y-11495508D01*
X16356468Y-11495508D02*
X16365991Y-11505031D01*
X16365991Y-11505031D02*
X16375515Y-11524079D01*
X16375515Y-11524079D02*
X16375515Y-11543127D01*
X16375515Y-11543127D02*
X16365991Y-11571698D01*
X16365991Y-11571698D02*
X16251706Y-11685984D01*
X16251706Y-11685984D02*
X16375515Y-11685984D01*
X16546944Y-11552650D02*
X16546944Y-11685984D01*
X16499325Y-11476460D02*
X16451706Y-11619317D01*
X16451706Y-11619317D02*
X16575515Y-11619317D01*
X16804087Y-11685984D02*
X16804087Y-11485984D01*
X16889801Y-11685984D02*
X16889801Y-11581222D01*
X16889801Y-11581222D02*
X16880277Y-11562174D01*
X16880277Y-11562174D02*
X16861230Y-11552650D01*
X16861230Y-11552650D02*
X16832658Y-11552650D01*
X16832658Y-11552650D02*
X16813611Y-11562174D01*
X16813611Y-11562174D02*
X16804087Y-11571698D01*
X17013611Y-11685984D02*
X16994563Y-11676460D01*
X16994563Y-11676460D02*
X16985039Y-11666936D01*
X16985039Y-11666936D02*
X16975515Y-11647888D01*
X16975515Y-11647888D02*
X16975515Y-11590746D01*
X16975515Y-11590746D02*
X16985039Y-11571698D01*
X16985039Y-11571698D02*
X16994563Y-11562174D01*
X16994563Y-11562174D02*
X17013611Y-11552650D01*
X17013611Y-11552650D02*
X17042182Y-11552650D01*
X17042182Y-11552650D02*
X17061230Y-11562174D01*
X17061230Y-11562174D02*
X17070753Y-11571698D01*
X17070753Y-11571698D02*
X17080277Y-11590746D01*
X17080277Y-11590746D02*
X17080277Y-11647888D01*
X17080277Y-11647888D02*
X17070753Y-11666936D01*
X17070753Y-11666936D02*
X17061230Y-11676460D01*
X17061230Y-11676460D02*
X17042182Y-11685984D01*
X17042182Y-11685984D02*
X17013611Y-11685984D01*
X17194563Y-11685984D02*
X17175515Y-11676460D01*
X17175515Y-11676460D02*
X17165992Y-11657412D01*
X17165992Y-11657412D02*
X17165992Y-11485984D01*
X17346944Y-11676460D02*
X17327896Y-11685984D01*
X17327896Y-11685984D02*
X17289801Y-11685984D01*
X17289801Y-11685984D02*
X17270753Y-11676460D01*
X17270753Y-11676460D02*
X17261230Y-11657412D01*
X17261230Y-11657412D02*
X17261230Y-11581222D01*
X17261230Y-11581222D02*
X17270753Y-11562174D01*
X17270753Y-11562174D02*
X17289801Y-11552650D01*
X17289801Y-11552650D02*
X17327896Y-11552650D01*
X17327896Y-11552650D02*
X17346944Y-11562174D01*
X17346944Y-11562174D02*
X17356468Y-11581222D01*
X17356468Y-11581222D02*
X17356468Y-11600269D01*
X17356468Y-11600269D02*
X17261230Y-11619317D01*
X17432658Y-11676460D02*
X17451706Y-11685984D01*
X17451706Y-11685984D02*
X17489801Y-11685984D01*
X17489801Y-11685984D02*
X17508849Y-11676460D01*
X17508849Y-11676460D02*
X17518373Y-11657412D01*
X17518373Y-11657412D02*
X17518373Y-11647888D01*
X17518373Y-11647888D02*
X17508849Y-11628841D01*
X17508849Y-11628841D02*
X17489801Y-11619317D01*
X17489801Y-11619317D02*
X17461230Y-11619317D01*
X17461230Y-11619317D02*
X17442182Y-11609793D01*
X17442182Y-11609793D02*
X17432658Y-11590746D01*
X17432658Y-11590746D02*
X17432658Y-11581222D01*
X17432658Y-11581222D02*
X17442182Y-11562174D01*
X17442182Y-11562174D02*
X17461230Y-11552650D01*
X17461230Y-11552650D02*
X17489801Y-11552650D01*
X17489801Y-11552650D02*
X17508849Y-11562174D01*
X17585039Y-11762174D02*
X17594563Y-11752650D01*
X17594563Y-11752650D02*
X17613611Y-11724079D01*
X17613611Y-11724079D02*
X17623134Y-11705031D01*
X17623134Y-11705031D02*
X17632658Y-11676460D01*
X17632658Y-11676460D02*
X17642182Y-11628841D01*
X17642182Y-11628841D02*
X17642182Y-11590746D01*
X17642182Y-11590746D02*
X17632658Y-11543127D01*
X17632658Y-11543127D02*
X17623134Y-11514555D01*
X17623134Y-11514555D02*
X17613611Y-11495508D01*
X17613611Y-11495508D02*
X17594563Y-11466936D01*
X17594563Y-11466936D02*
X17585039Y-11457412D01*
M02*
