M48
; DRILL file {KiCad 8.0.3} date 2024-07-08T22:13:49-0500
; FORMAT={-:-/ absolute / inch / decimal}
; #@! TF.CreationDate,2024-07-08T22:13:49-05:00
; #@! TF.GenerationSoftware,Kicad,Pcbnew,8.0.3
; #@! TF.FileFunction,Plated,1,2,PTH
FMAT,2
INCH
; #@! TA.AperFunction,Plated,PTH,ComponentDrill
T1C0.0394
; #@! TA.AperFunction,Plated,PTH,ComponentDrill
T2C0.0400
; #@! TA.AperFunction,Plated,PTH,ComponentDrill
T3C0.0430
%
G90
G05
T1
X5.8504Y-4.3992
X5.8966Y-4.1908
X5.9504Y-4.3992
X5.9966Y-4.1908
X6.0504Y-4.3992
X6.0966Y-4.1908
X6.1504Y-4.3992
T2
X5.1252Y-4.0252
X5.1252Y-4.4252
X5.2252Y-4.0252
X5.2252Y-4.4252
X5.3252Y-4.0252
X5.3252Y-4.4252
X5.4252Y-4.0252
X5.4252Y-4.4252
X5.5252Y-4.0252
X5.5252Y-4.4252
X5.6252Y-4.0252
X5.6252Y-4.4252
T3
X5.0858Y-3.248
X5.0858Y-3.848
X5.1858Y-3.248
X5.1858Y-3.848
X5.2858Y-3.248
X5.2858Y-3.848
X5.3858Y-3.248
X5.3858Y-3.848
X5.4858Y-3.248
X5.4858Y-3.848
X5.5858Y-3.248
X5.5858Y-3.848
X5.6858Y-3.248
X5.6858Y-3.848
X5.7858Y-3.248
X5.7858Y-3.848
X5.8858Y-3.248
X5.8858Y-3.848
X5.9858Y-3.248
X5.9858Y-3.848
X6.0858Y-3.248
X6.0858Y-3.848
X6.1858Y-3.248
X6.1858Y-3.848
M30
