%TF.GenerationSoftware,KiCad,Pcbnew,8.0.3*%
%TF.CreationDate,2024-07-08T22:13:47-05:00*%
%TF.ProjectId,3.3v Pro Micro,332e3376-2050-4726-9f20-4d6963726f2e,rev?*%
%TF.SameCoordinates,Original*%
%TF.FileFunction,Copper,L1,Top*%
%TF.FilePolarity,Positive*%
%FSLAX46Y46*%
G04 Gerber Fmt 4.6, Leading zero omitted, Abs format (unit mm)*
G04 Created by KiCad (PCBNEW 8.0.3) date 2024-07-08 22:13:47*
%MOMM*%
%LPD*%
G01*
G04 APERTURE LIST*
%TA.AperFunction,ComponentPad*%
%ADD10O,1.500000X2.300000*%
%TD*%
%TA.AperFunction,ComponentPad*%
%ADD11R,1.500000X2.300000*%
%TD*%
%TA.AperFunction,ComponentPad*%
%ADD12O,1.700000X1.700000*%
%TD*%
%TA.AperFunction,ComponentPad*%
%ADD13R,1.700000X1.700000*%
%TD*%
%TA.AperFunction,ComponentPad*%
%ADD14C,1.524000*%
%TD*%
%TA.AperFunction,ComponentPad*%
%ADD15R,1.524000X1.524000*%
%TD*%
%TA.AperFunction,ComponentPad*%
%ADD16C,1.752600*%
%TD*%
%TA.AperFunction,ComponentPad*%
%ADD17R,1.752600X1.752600*%
%TD*%
%TA.AperFunction,Conductor*%
%ADD18C,0.200000*%
%TD*%
G04 APERTURE END LIST*
D10*
%TO.P,U4,3,GND*%
%TO.N,Net-(J1-Pin_4)*%
X154853000Y-106447500D03*
%TO.P,U4,2,OUT*%
%TO.N,Net-(J1-Pin_3)*%
X152313000Y-106447500D03*
D11*
%TO.P,U4,1,IN*%
%TO.N,Net-(U2-VCC)*%
X149773000Y-106447500D03*
%TD*%
D12*
%TO.P,J1,4,Pin_4*%
%TO.N,Net-(J1-Pin_4)*%
X148600000Y-111740000D03*
%TO.P,J1,3,Pin_3*%
%TO.N,Net-(J1-Pin_3)*%
X151140000Y-111740000D03*
%TO.P,J1,2,Pin_2*%
%TO.N,Net-(J1-Pin_2)*%
X153680000Y-111740000D03*
D13*
%TO.P,J1,1,Pin_1*%
%TO.N,Net-(J1-Pin_1)*%
X156220000Y-111740000D03*
%TD*%
D14*
%TO.P,U3,GND_1,GND*%
%TO.N,Net-(J1-Pin_4)*%
X137800000Y-102240000D03*
%TO.P,U3,GND_2,GND*%
X137800000Y-112400000D03*
%TO.P,U3,HV,HV*%
%TO.N,Net-(U2-VCC)*%
X135260000Y-102240000D03*
D15*
%TO.P,U3,HV1,HV1*%
%TO.N,Net-(U2-SDA)*%
X130180000Y-102240000D03*
D14*
%TO.P,U3,HV2,HV2*%
%TO.N,Net-(U2-SCL)*%
X132720000Y-102240000D03*
%TO.P,U3,HV3,HV3*%
%TO.N,unconnected-(U3-PadHV3)*%
X140340000Y-102240000D03*
%TO.P,U3,HV4,HV4*%
%TO.N,unconnected-(U3-PadHV4)*%
X142880000Y-102240000D03*
%TO.P,U3,LV,LV*%
%TO.N,Net-(J1-Pin_3)*%
X135260000Y-112400000D03*
D15*
%TO.P,U3,LV1,LV1*%
%TO.N,Net-(J1-Pin_2)*%
X130180000Y-112400000D03*
D14*
%TO.P,U3,LV2,LV2*%
%TO.N,Net-(J1-Pin_1)*%
X132720000Y-112400000D03*
%TO.P,U3,LV3,LV3*%
%TO.N,unconnected-(U3-PadLV3)*%
X140340000Y-112400000D03*
%TO.P,U3,LV4,LV4*%
%TO.N,unconnected-(U3-PadLV4)*%
X142880000Y-112400000D03*
%TD*%
D16*
%TO.P,U2,24,RAW*%
%TO.N,unconnected-(U2-RAW-Pad24)*%
X129180000Y-82500000D03*
%TO.P,U2,23,GND*%
%TO.N,Net-(J1-Pin_4)*%
X131720000Y-82500000D03*
%TO.P,U2,22,RST*%
%TO.N,unconnected-(U2-RST-Pad22)*%
X134260000Y-82500000D03*
%TO.P,U2,21,VCC*%
%TO.N,Net-(U2-VCC)*%
X136800000Y-82500000D03*
%TO.P,U2,20,F4*%
%TO.N,unconnected-(U2-F4-Pad20)*%
X139340000Y-82500000D03*
%TO.P,U2,19,F5*%
%TO.N,unconnected-(U2-F5-Pad19)*%
X141880000Y-82500000D03*
%TO.P,U2,18,F6*%
%TO.N,unconnected-(U2-F6-Pad18)*%
X144420000Y-82500000D03*
%TO.P,U2,17,F7*%
%TO.N,unconnected-(U2-F7-Pad17)*%
X146960000Y-82500000D03*
%TO.P,U2,16,B1*%
%TO.N,unconnected-(U2-B1-Pad16)*%
X149500000Y-82500000D03*
%TO.P,U2,15,B3*%
%TO.N,unconnected-(U2-B3-Pad15)*%
X152040000Y-82500000D03*
%TO.P,U2,14,B2*%
%TO.N,unconnected-(U2-B2-Pad14)*%
X154580000Y-82500000D03*
%TO.P,U2,13,B6*%
%TO.N,unconnected-(U2-B6-Pad13)*%
X157120000Y-82500000D03*
%TO.P,U2,12,B5*%
%TO.N,unconnected-(U2-B5-Pad12)*%
X157120000Y-97740000D03*
%TO.P,U2,11,B4*%
%TO.N,unconnected-(U2-B4-Pad11)*%
X154580000Y-97740000D03*
%TO.P,U2,10,E6*%
%TO.N,unconnected-(U2-E6-Pad10)*%
X152040000Y-97740000D03*
%TO.P,U2,9,D7*%
%TO.N,unconnected-(U2-D7-Pad9)*%
X149500000Y-97740000D03*
%TO.P,U2,8,C6*%
%TO.N,unconnected-(U2-C6-Pad8)*%
X146960000Y-97740000D03*
%TO.P,U2,7,D4*%
%TO.N,unconnected-(U2-D4-Pad7)*%
X144420000Y-97740000D03*
%TO.P,U2,6,SCL*%
%TO.N,Net-(U2-SCL)*%
X141880000Y-97740000D03*
%TO.P,U2,5,SDA*%
%TO.N,Net-(U2-SDA)*%
X139340000Y-97740000D03*
%TO.P,U2,4,GND*%
%TO.N,unconnected-(U2-GND-Pad4)*%
X136800000Y-97740000D03*
%TO.P,U2,3,GND*%
%TO.N,unconnected-(U2-GND-Pad3)*%
X134260000Y-97740000D03*
%TO.P,U2,2,RX*%
%TO.N,unconnected-(U2-RX-Pad2)*%
X131720000Y-97740000D03*
D17*
%TO.P,U2,1,TX*%
%TO.N,unconnected-(U2-TX-Pad1)*%
X129180000Y-97740000D03*
%TD*%
D18*
%TO.N,Net-(U2-SCL)*%
X140664400Y-96524400D02*
X141880000Y-97740000D01*
X138832700Y-96524400D02*
X140664400Y-96524400D01*
X138162000Y-97195100D02*
X138832700Y-96524400D01*
X138162000Y-98044000D02*
X138162000Y-97195100D01*
X137288000Y-98918000D02*
X138162000Y-98044000D01*
X136042000Y-98918000D02*
X137288000Y-98918000D01*
X132720000Y-102240000D02*
X136042000Y-98918000D01*
%TO.N,Net-(U2-VCC)*%
X139467500Y-106447500D02*
X149773000Y-106447500D01*
X135260000Y-102240000D02*
X139467500Y-106447500D01*
%TO.N,Net-(U2-SDA)*%
X131243700Y-102373100D02*
X131243700Y-102240000D01*
X132174300Y-103303700D02*
X131243700Y-102373100D01*
X133190300Y-103303700D02*
X132174300Y-103303700D01*
X133990000Y-102504000D02*
X133190300Y-103303700D01*
X133990000Y-101974400D02*
X133990000Y-102504000D01*
X135858000Y-100106400D02*
X133990000Y-101974400D01*
X136973600Y-100106400D02*
X135858000Y-100106400D01*
X139340000Y-97740000D02*
X136973600Y-100106400D01*
X130180000Y-102240000D02*
X131243700Y-102240000D01*
%TO.N,Net-(J1-Pin_4)*%
X154853000Y-106447500D02*
X153801300Y-106447500D01*
X153801300Y-106865400D02*
X153801300Y-106447500D01*
X148926700Y-111740000D02*
X153801300Y-106865400D01*
X148600000Y-111740000D02*
X148926700Y-111740000D01*
%TO.N,Net-(J1-Pin_3)*%
X151140000Y-111740000D02*
X149988300Y-111740000D01*
X136328300Y-113468300D02*
X135260000Y-112400000D01*
X148528500Y-113468300D02*
X136328300Y-113468300D01*
X149988300Y-112008500D02*
X148528500Y-113468300D01*
X149988300Y-111740000D02*
X149988300Y-112008500D01*
%TO.N,Net-(J1-Pin_1)*%
X155068300Y-112027900D02*
X155068300Y-111740000D01*
X153202100Y-113894100D02*
X155068300Y-112027900D01*
X134214100Y-113894100D02*
X153202100Y-113894100D01*
X132720000Y-112400000D02*
X134214100Y-113894100D01*
X156220000Y-111740000D02*
X155068300Y-111740000D01*
%TD*%
M02*
