%TF.GenerationSoftware,KiCad,Pcbnew,8.0.6*%
%TF.CreationDate,2025-02-23T20:39:58-06:00*%
%TF.ProjectId,fullycustomcontrolle one handv3c,66756c6c-7963-4757-9374-6f6d636f6e74,rev?*%
%TF.SameCoordinates,Original*%
%TF.FileFunction,Copper,L1,Top*%
%TF.FilePolarity,Positive*%
%FSLAX46Y46*%
G04 Gerber Fmt 4.6, Leading zero omitted, Abs format (unit mm)*
G04 Created by KiCad (PCBNEW 8.0.6) date 2025-02-23 20:39:58*
%MOMM*%
%LPD*%
G01*
G04 APERTURE LIST*
%TA.AperFunction,ComponentPad*%
%ADD10O,1.200000X2.000000*%
%TD*%
%TA.AperFunction,ComponentPad*%
%ADD11O,3.200000X1.900000*%
%TD*%
%TA.AperFunction,ComponentPad*%
%ADD12O,2.000000X1.200000*%
%TD*%
%TA.AperFunction,ComponentPad*%
%ADD13R,1.752600X1.752600*%
%TD*%
%TA.AperFunction,ComponentPad*%
%ADD14C,1.752600*%
%TD*%
%TA.AperFunction,ComponentPad*%
%ADD15R,1.700000X1.700000*%
%TD*%
%TA.AperFunction,ComponentPad*%
%ADD16O,1.700000X1.700000*%
%TD*%
%TA.AperFunction,ComponentPad*%
%ADD17C,1.524000*%
%TD*%
%TA.AperFunction,ComponentPad*%
%ADD18R,1.524000X1.524000*%
%TD*%
%TA.AperFunction,ComponentPad*%
%ADD19R,2.300000X1.500000*%
%TD*%
%TA.AperFunction,ComponentPad*%
%ADD20O,2.300000X1.500000*%
%TD*%
%TA.AperFunction,ViaPad*%
%ADD21C,0.600000*%
%TD*%
%TA.AperFunction,Conductor*%
%ADD22C,0.200000*%
%TD*%
G04 APERTURE END LIST*
D10*
%TO.P,MPU1,1,VCC*%
%TO.N,Net-(MPU1-VCC)*%
X183170000Y-127785000D03*
%TO.P,MPU1,2,GND*%
%TO.N,Net-(J1-Pin_1)*%
X185710000Y-127785000D03*
%TO.P,MPU1,3,SCL*%
%TO.N,Net-(MPU1-SCL)*%
X188250000Y-127785000D03*
%TO.P,MPU1,4,SDA*%
%TO.N,Net-(MPU1-SDA)*%
X190790000Y-127785000D03*
%TO.P,MPU1,5,XDA*%
%TO.N,unconnected-(MPU1-XDA-Pad5)*%
X193330000Y-127785000D03*
%TO.P,MPU1,6,XCL*%
%TO.N,unconnected-(MPU1-XCL-Pad6)*%
X195870000Y-127785000D03*
%TO.P,MPU1,7,AD0*%
%TO.N,unconnected-(MPU1-AD0-Pad7)*%
X198410000Y-127785000D03*
%TO.P,MPU1,8,INT*%
%TO.N,unconnected-(MPU1-INT-Pad8)*%
X200950000Y-127785000D03*
%TD*%
D11*
%TO.P,SW8,1,1*%
%TO.N,Net-(SW5-B)*%
X200225000Y-55245000D03*
X212725000Y-55245000D03*
%TO.P,SW8,2,2*%
%TO.N,Net-(U1-B2)*%
X200225000Y-60245000D03*
X212725000Y-60245000D03*
%TD*%
D12*
%TO.P,SW5,1,A*%
%TO.N,Net-(SW5-A)*%
X209550000Y-118745000D03*
%TO.P,SW5,2,B*%
%TO.N,Net-(SW5-B)*%
X209550000Y-121285000D03*
%TO.P,SW5,3,C*%
%TO.N,Net-(SW5-C)*%
X209550000Y-123825000D03*
%TD*%
D11*
%TO.P,SW6,1,1*%
%TO.N,Net-(U1-E6)*%
X193475000Y-60245000D03*
X180975000Y-60245000D03*
%TO.P,SW6,2,2*%
%TO.N,Net-(SW5-B)*%
X193475000Y-55245000D03*
X180975000Y-55245000D03*
%TD*%
D13*
%TO.P,U1,1,TX*%
%TO.N,Net-(SW5-A)*%
X210820000Y-131445000D03*
D14*
%TO.P,U1,2,RX*%
%TO.N,Net-(SW5-C)*%
X208280000Y-131445000D03*
%TO.P,U1,3,GND*%
%TO.N,Net-(SW5-B)*%
X205740000Y-131445000D03*
%TO.P,U1,4,GND*%
%TO.N,Net-(SW9-Pad1)*%
X203200000Y-131445000D03*
%TO.P,U1,5,SDA*%
%TO.N,Net-(U1-SDA)*%
X200660000Y-131445000D03*
%TO.P,U1,6,SCL*%
%TO.N,Net-(U1-SCL)*%
X198120000Y-131445000D03*
%TO.P,U1,7,D4*%
%TO.N,Net-(U1-D4)*%
X195580000Y-131445000D03*
%TO.P,U1,8,C6*%
%TO.N,Net-(U1-C6)*%
X193040000Y-131445000D03*
%TO.P,U1,9,D7*%
%TO.N,Net-(U1-D7)*%
X190500000Y-131445000D03*
%TO.P,U1,10,E6*%
%TO.N,Net-(U1-E6)*%
X187960000Y-131445000D03*
%TO.P,U1,11,B4*%
%TO.N,Net-(U1-B4)*%
X185420000Y-131445000D03*
%TO.P,U1,12,B5*%
%TO.N,Net-(U1-B5)*%
X182880000Y-131445000D03*
%TO.P,U1,13,B6*%
%TO.N,Net-(U1-B6)*%
X182880000Y-146685000D03*
%TO.P,U1,14,B2*%
%TO.N,Net-(U1-B2)*%
X185420000Y-146685000D03*
%TO.P,U1,15,B3*%
%TO.N,unconnected-(U1-B3-Pad15)*%
X187960000Y-146685000D03*
%TO.P,U1,16,B1*%
%TO.N,Net-(J1-Pin_5)*%
X190500000Y-146685000D03*
%TO.P,U1,17,F7*%
%TO.N,Net-(J1-Pin_4)*%
X193040000Y-146685000D03*
%TO.P,U1,18,F6*%
%TO.N,Net-(J1-Pin_3)*%
X195580000Y-146685000D03*
%TO.P,U1,19,F5*%
%TO.N,unconnected-(U1-F5-Pad19)*%
X198120000Y-146685000D03*
%TO.P,U1,20,F4*%
%TO.N,unconnected-(U1-F4-Pad20)*%
X200660000Y-146685000D03*
%TO.P,U1,21,VCC*%
%TO.N,Net-(J1-Pin_2)*%
X203200000Y-146685000D03*
%TO.P,U1,22,RST*%
%TO.N,unconnected-(U1-RST-Pad22)*%
X205740000Y-146685000D03*
%TO.P,U1,23,GND*%
%TO.N,Net-(J1-Pin_1)*%
X208280000Y-146685000D03*
%TO.P,U1,24,RAW*%
%TO.N,unconnected-(U1-RAW-Pad24)*%
X210820000Y-146685000D03*
%TD*%
D11*
%TO.P,SW9,1,1*%
%TO.N,Net-(SW9-Pad1)*%
X190065000Y-69930000D03*
X202565000Y-69930000D03*
%TO.P,SW9,2,2*%
%TO.N,Net-(U1-B6)*%
X190065000Y-74930000D03*
X202565000Y-74930000D03*
%TD*%
%TO.P,SW7,2,2*%
%TO.N,Net-(SW5-B)*%
X193040000Y-90805000D03*
X180540000Y-90805000D03*
%TO.P,SW7,1,1*%
%TO.N,Net-(U1-B4)*%
X193040000Y-85805000D03*
X180540000Y-85805000D03*
%TD*%
D15*
%TO.P,J1,1,Pin_1*%
%TO.N,Net-(J1-Pin_1)*%
X191135000Y-26670000D03*
D16*
%TO.P,J1,2,Pin_2*%
%TO.N,Net-(J1-Pin_2)*%
X193675000Y-26670000D03*
%TO.P,J1,3,Pin_3*%
%TO.N,Net-(J1-Pin_3)*%
X196215000Y-26670000D03*
%TO.P,J1,4,Pin_4*%
%TO.N,Net-(J1-Pin_4)*%
X198755000Y-26670000D03*
%TO.P,J1,5,Pin_5*%
%TO.N,Net-(J1-Pin_5)*%
X201295000Y-26670000D03*
%TD*%
D11*
%TO.P,SW1,2,2*%
%TO.N,Net-(SW5-B)*%
X213160000Y-90805000D03*
X200660000Y-90805000D03*
%TO.P,SW1,1,1*%
%TO.N,Net-(U1-D7)*%
X213160000Y-85805000D03*
X200660000Y-85805000D03*
%TD*%
D17*
%TO.P,U3,GND_1,GND*%
%TO.N,Net-(J1-Pin_1)*%
X188595000Y-144145000D03*
%TO.P,U3,GND_2,GND*%
X188595000Y-133985000D03*
%TO.P,U3,HV,HV*%
%TO.N,Net-(J1-Pin_2)*%
X191135000Y-144145000D03*
D18*
%TO.P,U3,HV1,HV1*%
%TO.N,Net-(U1-SDA)*%
X196215000Y-144145000D03*
D17*
%TO.P,U3,HV2,HV2*%
%TO.N,Net-(U1-SCL)*%
X193675000Y-144145000D03*
%TO.P,U3,HV3,HV3*%
%TO.N,unconnected-(U3-PadHV3)*%
X186055000Y-144145000D03*
%TO.P,U3,HV4,HV4*%
%TO.N,unconnected-(U3-PadHV4)*%
X183515000Y-144145000D03*
%TO.P,U3,LV,LV*%
%TO.N,Net-(MPU1-VCC)*%
X191135000Y-133985000D03*
D18*
%TO.P,U3,LV1,LV1*%
%TO.N,Net-(MPU1-SDA)*%
X196215000Y-133985000D03*
D17*
%TO.P,U3,LV2,LV2*%
%TO.N,Net-(MPU1-SCL)*%
X193675000Y-133985000D03*
%TO.P,U3,LV3,LV3*%
%TO.N,unconnected-(U3-PadLV3)*%
X186055000Y-133985000D03*
%TO.P,U3,LV4,LV4*%
%TO.N,unconnected-(U3-PadLV4)*%
X183515000Y-133985000D03*
%TD*%
D11*
%TO.P,SW2,2,2*%
%TO.N,Net-(SW5-B)*%
X200760000Y-102275000D03*
X213260000Y-102275000D03*
%TO.P,SW2,1,1*%
%TO.N,Net-(U1-D4)*%
X200760000Y-107275000D03*
X213260000Y-107275000D03*
%TD*%
%TO.P,SW3,1,1*%
%TO.N,Net-(U1-B5)*%
X203200000Y-45640000D03*
X190700000Y-45640000D03*
%TO.P,SW3,2,2*%
%TO.N,Net-(SW5-B)*%
X203200000Y-40640000D03*
X190700000Y-40640000D03*
%TD*%
D19*
%TO.P,U2,1,IN*%
%TO.N,Net-(J1-Pin_2)*%
X210005000Y-137210000D03*
D20*
%TO.P,U2,2,OUT*%
%TO.N,Net-(MPU1-VCC)*%
X210005000Y-139750000D03*
%TO.P,U2,3,GND*%
%TO.N,Net-(J1-Pin_1)*%
X210005000Y-142200000D03*
%TD*%
D11*
%TO.P,SW4,1,1*%
%TO.N,Net-(U1-C6)*%
X180540000Y-102315000D03*
X193040000Y-102315000D03*
%TO.P,SW4,2,2*%
%TO.N,Net-(SW5-B)*%
X180540000Y-107315000D03*
X193040000Y-107315000D03*
%TD*%
D21*
%TO.N,Net-(U1-B6)*%
X182474200Y-77995700D03*
%TO.N,Net-(U1-B4)*%
X178638300Y-125250900D03*
%TO.N,Net-(U1-B2)*%
X186690000Y-64203600D03*
%TO.N,Net-(J1-Pin_3)*%
X197702600Y-29335200D03*
%TO.N,Net-(J1-Pin_5)*%
X199440800Y-148568400D03*
%TO.N,Net-(U1-B5)*%
X184147500Y-50151000D03*
%TO.N,Net-(U1-D4)*%
X196816800Y-110337100D03*
%TO.N,Net-(U1-D7)*%
X189721700Y-89338600D03*
%TD*%
D22*
%TO.N,Net-(SW9-Pad1)*%
X204466700Y-130178300D02*
X204466700Y-69930000D01*
X203200000Y-131445000D02*
X204466700Y-130178300D01*
X202565000Y-69930000D02*
X204466700Y-69930000D01*
%TO.N,Net-(U1-B6)*%
X182474200Y-126764300D02*
X182474200Y-77995700D01*
X181694100Y-127544400D02*
X182474200Y-126764300D01*
X181694100Y-145499100D02*
X181694100Y-127544400D01*
X182880000Y-146685000D02*
X181694100Y-145499100D01*
%TO.N,Net-(SW5-B)*%
X211258300Y-102175000D02*
X211258300Y-90805000D01*
X211358300Y-102275000D02*
X211258300Y-102175000D01*
X213260000Y-102275000D02*
X211358300Y-102275000D01*
X213160000Y-90805000D02*
X211258300Y-90805000D01*
X198758300Y-102175000D02*
X198758300Y-90805000D01*
X198858300Y-102275000D02*
X198758300Y-102175000D01*
X200760000Y-102275000D02*
X198858300Y-102275000D01*
X209550000Y-121285000D02*
X209550000Y-122186700D01*
X191573300Y-54726500D02*
X191573300Y-55245000D01*
X192601700Y-53698100D02*
X191573300Y-54726500D01*
X192601700Y-40640000D02*
X192601700Y-53698100D01*
X190700000Y-40640000D02*
X192601700Y-40640000D01*
X193475000Y-55245000D02*
X191573300Y-55245000D01*
X208203500Y-105429800D02*
X211358300Y-102275000D01*
X208203500Y-122186700D02*
X208203500Y-105429800D01*
X205740000Y-124650200D02*
X208203500Y-122186700D01*
X205740000Y-131445000D02*
X205740000Y-124650200D01*
X208203500Y-122186700D02*
X209550000Y-122186700D01*
X200660000Y-90805000D02*
X198859200Y-90805000D01*
X198859200Y-90805000D02*
X198759800Y-90805000D01*
X198759800Y-90805000D02*
X198758300Y-90805000D01*
X200225000Y-55245000D02*
X198323300Y-55245000D01*
X198323300Y-55923100D02*
X198323300Y-55245000D01*
X202126700Y-59726500D02*
X198323300Y-55923100D01*
X202126700Y-60763500D02*
X202126700Y-59726500D01*
X198676100Y-64214100D02*
X202126700Y-60763500D01*
X198676100Y-90721300D02*
X198676100Y-64214100D01*
X198759800Y-90805000D02*
X198676100Y-90721300D01*
%TO.N,Net-(U1-C6)*%
X193040000Y-102315000D02*
X191138300Y-102315000D01*
X191138300Y-102993200D02*
X191138300Y-102315000D01*
X191138400Y-102993200D02*
X191138300Y-102993200D01*
X194941700Y-106796500D02*
X191138400Y-102993200D01*
X194941700Y-107833500D02*
X194941700Y-106796500D01*
X192388400Y-110386800D02*
X194941700Y-107833500D01*
X192388400Y-130793400D02*
X192388400Y-110386800D01*
X193040000Y-131445000D02*
X192388400Y-130793400D01*
%TO.N,Net-(U1-B4)*%
X180540000Y-85805000D02*
X178638300Y-85805000D01*
X178638300Y-85805000D02*
X178638300Y-125250900D01*
%TO.N,Net-(SW5-A)*%
X209646700Y-119646700D02*
X209550000Y-119646700D01*
X210912400Y-120912400D02*
X209646700Y-119646700D01*
X210912400Y-130174600D02*
X210912400Y-120912400D01*
X210820000Y-130267000D02*
X210912400Y-130174600D01*
X210820000Y-131445000D02*
X210820000Y-130267000D01*
X209550000Y-118745000D02*
X209550000Y-119646700D01*
%TO.N,Net-(U1-SDA)*%
X200660000Y-138636300D02*
X200660000Y-131445000D01*
X196215000Y-143081300D02*
X200660000Y-138636300D01*
X196215000Y-144145000D02*
X196215000Y-143081300D01*
%TO.N,Net-(SW5-C)*%
X208280000Y-125996700D02*
X209550000Y-124726700D01*
X208280000Y-131445000D02*
X208280000Y-125996700D01*
X209550000Y-123825000D02*
X209550000Y-124726700D01*
%TO.N,Net-(U1-B2)*%
X184934700Y-146199700D02*
X185420000Y-146685000D01*
X184934700Y-133571500D02*
X184934700Y-146199700D01*
X184242000Y-132878800D02*
X184934700Y-133571500D01*
X184242000Y-130957100D02*
X184242000Y-132878800D01*
X186690000Y-128509100D02*
X184242000Y-130957100D01*
X186690000Y-64203600D02*
X186690000Y-128509100D01*
%TO.N,Net-(U1-E6)*%
X193475000Y-60245000D02*
X191573300Y-60245000D01*
X189207500Y-130197500D02*
X187960000Y-131445000D01*
X189207500Y-97631900D02*
X189207500Y-130197500D01*
X189095000Y-97519400D02*
X189207500Y-97631900D01*
X189095000Y-86761400D02*
X189095000Y-97519400D01*
X191989300Y-83867100D02*
X189095000Y-86761400D01*
X191989300Y-61179500D02*
X191989300Y-83867100D01*
X191573300Y-60763500D02*
X191989300Y-61179500D01*
X191573300Y-60245000D02*
X191573300Y-60763500D01*
%TO.N,Net-(U1-SCL)*%
X193675000Y-143577000D02*
X193675000Y-144145000D01*
X198120000Y-139132000D02*
X193675000Y-143577000D01*
X198120000Y-131445000D02*
X198120000Y-139132000D01*
%TO.N,Net-(J1-Pin_3)*%
X195148300Y-146253300D02*
X195580000Y-146685000D01*
X195148300Y-143237600D02*
X195148300Y-146253300D01*
X199323500Y-139062400D02*
X195148300Y-143237600D01*
X199323500Y-127023300D02*
X199323500Y-139062400D01*
X197501700Y-125201500D02*
X199323500Y-127023300D01*
X197501700Y-29536100D02*
X197501700Y-125201500D01*
X197702600Y-29335200D02*
X197501700Y-29536100D01*
%TO.N,Net-(J1-Pin_5)*%
X199440800Y-146002700D02*
X199440800Y-148568400D01*
X201900000Y-143543500D02*
X199440800Y-146002700D01*
X201900000Y-125107700D02*
X201900000Y-143543500D01*
X197903400Y-121111100D02*
X201900000Y-125107700D01*
X197903400Y-31213300D02*
X197903400Y-121111100D01*
X201295000Y-27821700D02*
X197903400Y-31213300D01*
X201295000Y-26670000D02*
X201295000Y-27821700D01*
%TO.N,Net-(J1-Pin_4)*%
X198755000Y-26670000D02*
X198755000Y-27821700D01*
X192405000Y-146050000D02*
X193040000Y-146685000D01*
X192405000Y-143440900D02*
X192405000Y-146050000D01*
X194738700Y-141107200D02*
X192405000Y-143440900D01*
X194738700Y-133544300D02*
X194738700Y-141107200D01*
X194382400Y-133188000D02*
X194738700Y-133544300D01*
X194382400Y-110287700D02*
X194382400Y-133188000D01*
X197100000Y-107570100D02*
X194382400Y-110287700D01*
X197100000Y-29087000D02*
X197100000Y-107570100D01*
X198365300Y-27821700D02*
X197100000Y-29087000D01*
X198755000Y-27821700D02*
X198365300Y-27821700D01*
%TO.N,Net-(U1-B5)*%
X184147500Y-130177500D02*
X184147500Y-50151000D01*
X182880000Y-131445000D02*
X184147500Y-130177500D01*
%TO.N,Net-(U1-D4)*%
X196816800Y-130208200D02*
X196816800Y-110337100D01*
X195580000Y-131445000D02*
X196816800Y-130208200D01*
%TO.N,Net-(U1-D7)*%
X189721700Y-130666700D02*
X189721700Y-89338600D01*
X190500000Y-131445000D02*
X189721700Y-130666700D01*
%TO.N,Net-(J1-Pin_2)*%
X193675000Y-26670000D02*
X193675000Y-27821700D01*
X191135000Y-144142900D02*
X191135000Y-144145000D01*
X192201700Y-143076200D02*
X191135000Y-144142900D01*
X192201700Y-132861100D02*
X192201700Y-143076200D01*
X191770000Y-132429400D02*
X192201700Y-132861100D01*
X191770000Y-123056700D02*
X191770000Y-132429400D01*
X190736600Y-122023300D02*
X191770000Y-123056700D01*
X190736600Y-102148600D02*
X190736600Y-122023300D01*
X195414400Y-97470800D02*
X190736600Y-102148600D01*
X195414400Y-29561100D02*
X195414400Y-97470800D01*
X193675000Y-27821700D02*
X195414400Y-29561100D01*
%TO.N,Net-(J1-Pin_1)*%
X208280000Y-144976700D02*
X208280000Y-146685000D01*
X210005000Y-143251700D02*
X208280000Y-144976700D01*
X210005000Y-142200000D02*
X210005000Y-143251700D01*
X188595000Y-133985000D02*
X188595000Y-144145000D01*
X185710000Y-33246700D02*
X185710000Y-127785000D01*
X191135000Y-27821700D02*
X185710000Y-33246700D01*
X191135000Y-26670000D02*
X191135000Y-27821700D01*
%TD*%
M02*
