%TF.GenerationSoftware,KiCad,Pcbnew,8.0.6*%
%TF.CreationDate,2025-02-23T20:39:58-06:00*%
%TF.ProjectId,fullycustomcontrolle one handv3c,66756c6c-7963-4757-9374-6f6d636f6e74,rev?*%
%TF.SameCoordinates,Original*%
%TF.FileFunction,Copper,L2,Bot*%
%TF.FilePolarity,Positive*%
%FSLAX46Y46*%
G04 Gerber Fmt 4.6, Leading zero omitted, Abs format (unit mm)*
G04 Created by KiCad (PCBNEW 8.0.6) date 2025-02-23 20:39:58*
%MOMM*%
%LPD*%
G01*
G04 APERTURE LIST*
%TA.AperFunction,ComponentPad*%
%ADD10O,1.200000X2.000000*%
%TD*%
%TA.AperFunction,ComponentPad*%
%ADD11O,3.200000X1.900000*%
%TD*%
%TA.AperFunction,ComponentPad*%
%ADD12O,2.000000X1.200000*%
%TD*%
%TA.AperFunction,ComponentPad*%
%ADD13R,1.752600X1.752600*%
%TD*%
%TA.AperFunction,ComponentPad*%
%ADD14C,1.752600*%
%TD*%
%TA.AperFunction,ComponentPad*%
%ADD15R,1.700000X1.700000*%
%TD*%
%TA.AperFunction,ComponentPad*%
%ADD16O,1.700000X1.700000*%
%TD*%
%TA.AperFunction,ComponentPad*%
%ADD17C,1.524000*%
%TD*%
%TA.AperFunction,ComponentPad*%
%ADD18R,1.524000X1.524000*%
%TD*%
%TA.AperFunction,ComponentPad*%
%ADD19R,2.300000X1.500000*%
%TD*%
%TA.AperFunction,ComponentPad*%
%ADD20O,2.300000X1.500000*%
%TD*%
%TA.AperFunction,ViaPad*%
%ADD21C,0.600000*%
%TD*%
%TA.AperFunction,Conductor*%
%ADD22C,0.200000*%
%TD*%
G04 APERTURE END LIST*
D10*
%TO.P,MPU1,1,VCC*%
%TO.N,Net-(MPU1-VCC)*%
X183170000Y-127785000D03*
%TO.P,MPU1,2,GND*%
%TO.N,Net-(J1-Pin_1)*%
X185710000Y-127785000D03*
%TO.P,MPU1,3,SCL*%
%TO.N,Net-(MPU1-SCL)*%
X188250000Y-127785000D03*
%TO.P,MPU1,4,SDA*%
%TO.N,Net-(MPU1-SDA)*%
X190790000Y-127785000D03*
%TO.P,MPU1,5,XDA*%
%TO.N,unconnected-(MPU1-XDA-Pad5)*%
X193330000Y-127785000D03*
%TO.P,MPU1,6,XCL*%
%TO.N,unconnected-(MPU1-XCL-Pad6)*%
X195870000Y-127785000D03*
%TO.P,MPU1,7,AD0*%
%TO.N,unconnected-(MPU1-AD0-Pad7)*%
X198410000Y-127785000D03*
%TO.P,MPU1,8,INT*%
%TO.N,unconnected-(MPU1-INT-Pad8)*%
X200950000Y-127785000D03*
%TD*%
D11*
%TO.P,SW8,1,1*%
%TO.N,Net-(SW5-B)*%
X200225000Y-55245000D03*
X212725000Y-55245000D03*
%TO.P,SW8,2,2*%
%TO.N,Net-(U1-B2)*%
X200225000Y-60245000D03*
X212725000Y-60245000D03*
%TD*%
D12*
%TO.P,SW5,1,A*%
%TO.N,Net-(SW5-A)*%
X209550000Y-118745000D03*
%TO.P,SW5,2,B*%
%TO.N,Net-(SW5-B)*%
X209550000Y-121285000D03*
%TO.P,SW5,3,C*%
%TO.N,Net-(SW5-C)*%
X209550000Y-123825000D03*
%TD*%
D11*
%TO.P,SW6,1,1*%
%TO.N,Net-(U1-E6)*%
X193475000Y-60245000D03*
X180975000Y-60245000D03*
%TO.P,SW6,2,2*%
%TO.N,Net-(SW5-B)*%
X193475000Y-55245000D03*
X180975000Y-55245000D03*
%TD*%
D13*
%TO.P,U1,1,TX*%
%TO.N,Net-(SW5-A)*%
X210820000Y-131445000D03*
D14*
%TO.P,U1,2,RX*%
%TO.N,Net-(SW5-C)*%
X208280000Y-131445000D03*
%TO.P,U1,3,GND*%
%TO.N,Net-(SW5-B)*%
X205740000Y-131445000D03*
%TO.P,U1,4,GND*%
%TO.N,Net-(SW9-Pad1)*%
X203200000Y-131445000D03*
%TO.P,U1,5,SDA*%
%TO.N,Net-(U1-SDA)*%
X200660000Y-131445000D03*
%TO.P,U1,6,SCL*%
%TO.N,Net-(U1-SCL)*%
X198120000Y-131445000D03*
%TO.P,U1,7,D4*%
%TO.N,Net-(U1-D4)*%
X195580000Y-131445000D03*
%TO.P,U1,8,C6*%
%TO.N,Net-(U1-C6)*%
X193040000Y-131445000D03*
%TO.P,U1,9,D7*%
%TO.N,Net-(U1-D7)*%
X190500000Y-131445000D03*
%TO.P,U1,10,E6*%
%TO.N,Net-(U1-E6)*%
X187960000Y-131445000D03*
%TO.P,U1,11,B4*%
%TO.N,Net-(U1-B4)*%
X185420000Y-131445000D03*
%TO.P,U1,12,B5*%
%TO.N,Net-(U1-B5)*%
X182880000Y-131445000D03*
%TO.P,U1,13,B6*%
%TO.N,Net-(U1-B6)*%
X182880000Y-146685000D03*
%TO.P,U1,14,B2*%
%TO.N,Net-(U1-B2)*%
X185420000Y-146685000D03*
%TO.P,U1,15,B3*%
%TO.N,unconnected-(U1-B3-Pad15)*%
X187960000Y-146685000D03*
%TO.P,U1,16,B1*%
%TO.N,Net-(J1-Pin_5)*%
X190500000Y-146685000D03*
%TO.P,U1,17,F7*%
%TO.N,Net-(J1-Pin_4)*%
X193040000Y-146685000D03*
%TO.P,U1,18,F6*%
%TO.N,Net-(J1-Pin_3)*%
X195580000Y-146685000D03*
%TO.P,U1,19,F5*%
%TO.N,unconnected-(U1-F5-Pad19)*%
X198120000Y-146685000D03*
%TO.P,U1,20,F4*%
%TO.N,unconnected-(U1-F4-Pad20)*%
X200660000Y-146685000D03*
%TO.P,U1,21,VCC*%
%TO.N,Net-(J1-Pin_2)*%
X203200000Y-146685000D03*
%TO.P,U1,22,RST*%
%TO.N,unconnected-(U1-RST-Pad22)*%
X205740000Y-146685000D03*
%TO.P,U1,23,GND*%
%TO.N,Net-(J1-Pin_1)*%
X208280000Y-146685000D03*
%TO.P,U1,24,RAW*%
%TO.N,unconnected-(U1-RAW-Pad24)*%
X210820000Y-146685000D03*
%TD*%
D11*
%TO.P,SW9,1,1*%
%TO.N,Net-(SW9-Pad1)*%
X190065000Y-69930000D03*
X202565000Y-69930000D03*
%TO.P,SW9,2,2*%
%TO.N,Net-(U1-B6)*%
X190065000Y-74930000D03*
X202565000Y-74930000D03*
%TD*%
%TO.P,SW7,2,2*%
%TO.N,Net-(SW5-B)*%
X193040000Y-90805000D03*
X180540000Y-90805000D03*
%TO.P,SW7,1,1*%
%TO.N,Net-(U1-B4)*%
X193040000Y-85805000D03*
X180540000Y-85805000D03*
%TD*%
D15*
%TO.P,J1,1,Pin_1*%
%TO.N,Net-(J1-Pin_1)*%
X191135000Y-26670000D03*
D16*
%TO.P,J1,2,Pin_2*%
%TO.N,Net-(J1-Pin_2)*%
X193675000Y-26670000D03*
%TO.P,J1,3,Pin_3*%
%TO.N,Net-(J1-Pin_3)*%
X196215000Y-26670000D03*
%TO.P,J1,4,Pin_4*%
%TO.N,Net-(J1-Pin_4)*%
X198755000Y-26670000D03*
%TO.P,J1,5,Pin_5*%
%TO.N,Net-(J1-Pin_5)*%
X201295000Y-26670000D03*
%TD*%
D11*
%TO.P,SW1,2,2*%
%TO.N,Net-(SW5-B)*%
X213160000Y-90805000D03*
X200660000Y-90805000D03*
%TO.P,SW1,1,1*%
%TO.N,Net-(U1-D7)*%
X213160000Y-85805000D03*
X200660000Y-85805000D03*
%TD*%
D17*
%TO.P,U3,GND_1,GND*%
%TO.N,Net-(J1-Pin_1)*%
X188595000Y-144145000D03*
%TO.P,U3,GND_2,GND*%
X188595000Y-133985000D03*
%TO.P,U3,HV,HV*%
%TO.N,Net-(J1-Pin_2)*%
X191135000Y-144145000D03*
D18*
%TO.P,U3,HV1,HV1*%
%TO.N,Net-(U1-SDA)*%
X196215000Y-144145000D03*
D17*
%TO.P,U3,HV2,HV2*%
%TO.N,Net-(U1-SCL)*%
X193675000Y-144145000D03*
%TO.P,U3,HV3,HV3*%
%TO.N,unconnected-(U3-PadHV3)*%
X186055000Y-144145000D03*
%TO.P,U3,HV4,HV4*%
%TO.N,unconnected-(U3-PadHV4)*%
X183515000Y-144145000D03*
%TO.P,U3,LV,LV*%
%TO.N,Net-(MPU1-VCC)*%
X191135000Y-133985000D03*
D18*
%TO.P,U3,LV1,LV1*%
%TO.N,Net-(MPU1-SDA)*%
X196215000Y-133985000D03*
D17*
%TO.P,U3,LV2,LV2*%
%TO.N,Net-(MPU1-SCL)*%
X193675000Y-133985000D03*
%TO.P,U3,LV3,LV3*%
%TO.N,unconnected-(U3-PadLV3)*%
X186055000Y-133985000D03*
%TO.P,U3,LV4,LV4*%
%TO.N,unconnected-(U3-PadLV4)*%
X183515000Y-133985000D03*
%TD*%
D11*
%TO.P,SW2,2,2*%
%TO.N,Net-(SW5-B)*%
X200760000Y-102275000D03*
X213260000Y-102275000D03*
%TO.P,SW2,1,1*%
%TO.N,Net-(U1-D4)*%
X200760000Y-107275000D03*
X213260000Y-107275000D03*
%TD*%
%TO.P,SW3,1,1*%
%TO.N,Net-(U1-B5)*%
X203200000Y-45640000D03*
X190700000Y-45640000D03*
%TO.P,SW3,2,2*%
%TO.N,Net-(SW5-B)*%
X203200000Y-40640000D03*
X190700000Y-40640000D03*
%TD*%
D19*
%TO.P,U2,1,IN*%
%TO.N,Net-(J1-Pin_2)*%
X210005000Y-137210000D03*
D20*
%TO.P,U2,2,OUT*%
%TO.N,Net-(MPU1-VCC)*%
X210005000Y-139750000D03*
%TO.P,U2,3,GND*%
%TO.N,Net-(J1-Pin_1)*%
X210005000Y-142200000D03*
%TD*%
D11*
%TO.P,SW4,1,1*%
%TO.N,Net-(U1-C6)*%
X180540000Y-102315000D03*
X193040000Y-102315000D03*
%TO.P,SW4,2,2*%
%TO.N,Net-(SW5-B)*%
X180540000Y-107315000D03*
X193040000Y-107315000D03*
%TD*%
D21*
%TO.N,Net-(U1-B6)*%
X182474200Y-77995700D03*
%TO.N,Net-(U1-B4)*%
X178638300Y-125250900D03*
%TO.N,Net-(U1-B2)*%
X186690000Y-64203600D03*
%TO.N,Net-(J1-Pin_3)*%
X197702600Y-29335200D03*
%TO.N,Net-(J1-Pin_5)*%
X199440800Y-148568400D03*
%TO.N,Net-(U1-B5)*%
X184147500Y-50151000D03*
%TO.N,Net-(U1-D4)*%
X196816800Y-110337100D03*
%TO.N,Net-(U1-D7)*%
X189721700Y-89338600D03*
%TD*%
D22*
%TO.N,Net-(SW9-Pad1)*%
X202565000Y-69930000D02*
X190065000Y-69930000D01*
%TO.N,Net-(U1-B6)*%
X185097600Y-77995700D02*
X182474200Y-77995700D01*
X188163300Y-74930000D02*
X185097600Y-77995700D01*
X190065000Y-74930000D02*
X188163300Y-74930000D01*
X202565000Y-74930000D02*
X190065000Y-74930000D01*
%TO.N,Net-(SW5-B)*%
X200660000Y-90805000D02*
X193040000Y-90805000D01*
X213260000Y-102275000D02*
X200760000Y-102275000D01*
X180540000Y-90805000D02*
X193040000Y-90805000D01*
X198858300Y-103398400D02*
X194941700Y-107315000D01*
X198858300Y-102275000D02*
X198858300Y-103398400D01*
X200760000Y-102275000D02*
X198858300Y-102275000D01*
X190700000Y-40640000D02*
X203200000Y-40640000D01*
X180975000Y-55245000D02*
X193475000Y-55245000D01*
X193475000Y-55245000D02*
X200225000Y-55245000D01*
X193990900Y-107315000D02*
X194941700Y-107315000D01*
X193990900Y-107315000D02*
X193040000Y-107315000D01*
X193040000Y-107315000D02*
X180540000Y-107315000D01*
X212725000Y-55245000D02*
X200225000Y-55245000D01*
%TO.N,Net-(U1-C6)*%
X193040000Y-102315000D02*
X180540000Y-102315000D01*
%TO.N,Net-(U1-B4)*%
X180540000Y-85805000D02*
X193040000Y-85805000D01*
X184832400Y-131445000D02*
X178638300Y-125250900D01*
X185420000Y-131445000D02*
X184832400Y-131445000D01*
%TO.N,Net-(U1-B2)*%
X212725000Y-60245000D02*
X200225000Y-60245000D01*
X194364700Y-64203600D02*
X186690000Y-64203600D01*
X198323300Y-60245000D02*
X194364700Y-64203600D01*
X200225000Y-60245000D02*
X198323300Y-60245000D01*
%TO.N,Net-(U1-E6)*%
X180975000Y-60245000D02*
X193475000Y-60245000D01*
%TO.N,Net-(J1-Pin_3)*%
X196215000Y-26670000D02*
X196215000Y-27821700D01*
X197702600Y-29309300D02*
X197702600Y-29335200D01*
X196215000Y-27821700D02*
X197702600Y-29309300D01*
%TO.N,Net-(J1-Pin_5)*%
X192383400Y-148568400D02*
X199440800Y-148568400D01*
X190500000Y-146685000D02*
X192383400Y-148568400D01*
%TO.N,Net-(U1-B5)*%
X190700000Y-45640000D02*
X203200000Y-45640000D01*
X184287300Y-50151000D02*
X184147500Y-50151000D01*
X188798300Y-45640000D02*
X184287300Y-50151000D01*
X190700000Y-45640000D02*
X188798300Y-45640000D01*
%TO.N,Net-(U1-D4)*%
X213260000Y-107275000D02*
X200760000Y-107275000D01*
X198858300Y-108295600D02*
X196816800Y-110337100D01*
X198858300Y-107275000D02*
X198858300Y-108295600D01*
X200760000Y-107275000D02*
X198858300Y-107275000D01*
%TO.N,Net-(U1-D7)*%
X213160000Y-85805000D02*
X200660000Y-85805000D01*
X200660000Y-85805000D02*
X198758300Y-85805000D01*
X195224700Y-89338600D02*
X189721700Y-89338600D01*
X198758300Y-85805000D02*
X195224700Y-89338600D01*
%TO.N,Net-(J1-Pin_2)*%
X208910000Y-140975000D02*
X203200000Y-146685000D01*
X210735500Y-140975000D02*
X208910000Y-140975000D01*
X211471600Y-140238900D02*
X210735500Y-140975000D01*
X211471600Y-139202500D02*
X211471600Y-140238900D01*
X210530800Y-138261700D02*
X211471600Y-139202500D01*
X210005000Y-138261700D02*
X210530800Y-138261700D01*
X210005000Y-137210000D02*
X210005000Y-138261700D01*
X201752500Y-145237500D02*
X203200000Y-146685000D01*
X192227500Y-145237500D02*
X201752500Y-145237500D01*
X191135000Y-144145000D02*
X192227500Y-145237500D01*
%TO.N,Net-(MPU1-SCL)*%
X189845600Y-129086700D02*
X188250000Y-129086700D01*
X191770000Y-131011100D02*
X189845600Y-129086700D01*
X191770000Y-132080000D02*
X191770000Y-131011100D01*
X193675000Y-133985000D02*
X191770000Y-132080000D01*
X188250000Y-127785000D02*
X188250000Y-129086700D01*
%TO.N,Net-(J1-Pin_1)*%
X207066700Y-147898300D02*
X208280000Y-146685000D01*
X192495100Y-147898300D02*
X207066700Y-147898300D01*
X191770000Y-147173200D02*
X192495100Y-147898300D01*
X191770000Y-146288300D02*
X191770000Y-147173200D01*
X189626700Y-144145000D02*
X191770000Y-146288300D01*
X188595000Y-144145000D02*
X189626700Y-144145000D01*
X186690000Y-130066700D02*
X185710000Y-129086700D01*
X186690000Y-132080000D02*
X186690000Y-130066700D01*
X188595000Y-133985000D02*
X186690000Y-132080000D01*
X185710000Y-127785000D02*
X185710000Y-129086700D01*
%TO.N,Net-(MPU1-VCC)*%
X196900000Y-139750000D02*
X191135000Y-133985000D01*
X210005000Y-139750000D02*
X196900000Y-139750000D01*
X186086400Y-126483300D02*
X183170000Y-126483300D01*
X186689800Y-127086700D02*
X186086400Y-126483300D01*
X186689800Y-128484700D02*
X186689800Y-127086700D01*
X189138000Y-130932900D02*
X186689800Y-128484700D01*
X189138000Y-131988000D02*
X189138000Y-130932900D01*
X191135000Y-133985000D02*
X189138000Y-131988000D01*
X183170000Y-127785000D02*
X183170000Y-126483300D01*
%TO.N,Net-(MPU1-SDA)*%
X192368600Y-129086700D02*
X190790000Y-129086700D01*
X194218000Y-130936100D02*
X192368600Y-129086700D01*
X194218000Y-131856500D02*
X194218000Y-130936100D01*
X195282800Y-132921300D02*
X194218000Y-131856500D01*
X196215000Y-132921300D02*
X195282800Y-132921300D01*
X196215000Y-133985000D02*
X196215000Y-132921300D01*
X190790000Y-127785000D02*
X190790000Y-129086700D01*
%TD*%
M02*
