%TF.GenerationSoftware,KiCad,Pcbnew,8.0.6*%
%TF.CreationDate,2025-02-23T20:39:58-06:00*%
%TF.ProjectId,fullycustomcontrolle one handv3c,66756c6c-7963-4757-9374-6f6d636f6e74,rev?*%
%TF.SameCoordinates,Original*%
%TF.FileFunction,Legend,Top*%
%TF.FilePolarity,Positive*%
%FSLAX46Y46*%
G04 Gerber Fmt 4.6, Leading zero omitted, Abs format (unit mm)*
G04 Created by KiCad (PCBNEW 8.0.6) date 2025-02-23 20:39:58*
%MOMM*%
%LPD*%
G01*
G04 APERTURE LIST*
%ADD10C,0.200000*%
%ADD11C,0.100000*%
%ADD12C,0.150000*%
%ADD13C,0.125000*%
%ADD14C,0.120000*%
%ADD15C,0.381000*%
%ADD16C,0.127000*%
%ADD17C,0.000000*%
%ADD18R,1.752600X1.752600*%
%ADD19C,1.752600*%
G04 APERTURE END LIST*
D10*
X187370062Y-31241904D02*
X187322443Y-31337142D01*
X187322443Y-31337142D02*
X187322443Y-31479999D01*
X187322443Y-31479999D02*
X187370062Y-31622856D01*
X187370062Y-31622856D02*
X187465300Y-31718094D01*
X187465300Y-31718094D02*
X187560538Y-31765713D01*
X187560538Y-31765713D02*
X187751014Y-31813332D01*
X187751014Y-31813332D02*
X187893871Y-31813332D01*
X187893871Y-31813332D02*
X188084347Y-31765713D01*
X188084347Y-31765713D02*
X188179585Y-31718094D01*
X188179585Y-31718094D02*
X188274824Y-31622856D01*
X188274824Y-31622856D02*
X188322443Y-31479999D01*
X188322443Y-31479999D02*
X188322443Y-31384761D01*
X188322443Y-31384761D02*
X188274824Y-31241904D01*
X188274824Y-31241904D02*
X188227204Y-31194285D01*
X188227204Y-31194285D02*
X187893871Y-31194285D01*
X187893871Y-31194285D02*
X187893871Y-31384761D01*
X188322443Y-30765713D02*
X187322443Y-30765713D01*
X187322443Y-30765713D02*
X188322443Y-30194285D01*
X188322443Y-30194285D02*
X187322443Y-30194285D01*
X188322443Y-29718094D02*
X187322443Y-29718094D01*
X187322443Y-29718094D02*
X187322443Y-29479999D01*
X187322443Y-29479999D02*
X187370062Y-29337142D01*
X187370062Y-29337142D02*
X187465300Y-29241904D01*
X187465300Y-29241904D02*
X187560538Y-29194285D01*
X187560538Y-29194285D02*
X187751014Y-29146666D01*
X187751014Y-29146666D02*
X187893871Y-29146666D01*
X187893871Y-29146666D02*
X188084347Y-29194285D01*
X188084347Y-29194285D02*
X188179585Y-29241904D01*
X188179585Y-29241904D02*
X188274824Y-29337142D01*
X188274824Y-29337142D02*
X188322443Y-29479999D01*
X188322443Y-29479999D02*
X188322443Y-29718094D01*
X190542331Y-31575237D02*
X191542331Y-31241904D01*
X191542331Y-31241904D02*
X190542331Y-30908571D01*
X191542331Y-30575237D02*
X190542331Y-30575237D01*
X191542331Y-30099047D02*
X190542331Y-30099047D01*
X190542331Y-30099047D02*
X191542331Y-29527619D01*
X191542331Y-29527619D02*
X190542331Y-29527619D01*
X194762219Y-30646666D02*
X194286028Y-30979999D01*
X194762219Y-31218094D02*
X193762219Y-31218094D01*
X193762219Y-31218094D02*
X193762219Y-30837142D01*
X193762219Y-30837142D02*
X193809838Y-30741904D01*
X193809838Y-30741904D02*
X193857457Y-30694285D01*
X193857457Y-30694285D02*
X193952695Y-30646666D01*
X193952695Y-30646666D02*
X194095552Y-30646666D01*
X194095552Y-30646666D02*
X194190790Y-30694285D01*
X194190790Y-30694285D02*
X194238409Y-30741904D01*
X194238409Y-30741904D02*
X194286028Y-30837142D01*
X194286028Y-30837142D02*
X194286028Y-31218094D01*
X193762219Y-30313332D02*
X194762219Y-29646666D01*
X193762219Y-29646666D02*
X194762219Y-30313332D01*
X197982107Y-30599047D02*
X197505916Y-30932380D01*
X197982107Y-31170475D02*
X196982107Y-31170475D01*
X196982107Y-31170475D02*
X196982107Y-30789523D01*
X196982107Y-30789523D02*
X197029726Y-30694285D01*
X197029726Y-30694285D02*
X197077345Y-30646666D01*
X197077345Y-30646666D02*
X197172583Y-30599047D01*
X197172583Y-30599047D02*
X197315440Y-30599047D01*
X197315440Y-30599047D02*
X197410678Y-30646666D01*
X197410678Y-30646666D02*
X197458297Y-30694285D01*
X197458297Y-30694285D02*
X197505916Y-30789523D01*
X197505916Y-30789523D02*
X197505916Y-31170475D01*
X197505916Y-29979999D02*
X197982107Y-29979999D01*
X196982107Y-30313332D02*
X197505916Y-29979999D01*
X197505916Y-29979999D02*
X196982107Y-29646666D01*
X201154376Y-31337142D02*
X201201995Y-31194285D01*
X201201995Y-31194285D02*
X201201995Y-30956190D01*
X201201995Y-30956190D02*
X201154376Y-30860952D01*
X201154376Y-30860952D02*
X201106756Y-30813333D01*
X201106756Y-30813333D02*
X201011518Y-30765714D01*
X201011518Y-30765714D02*
X200916280Y-30765714D01*
X200916280Y-30765714D02*
X200821042Y-30813333D01*
X200821042Y-30813333D02*
X200773423Y-30860952D01*
X200773423Y-30860952D02*
X200725804Y-30956190D01*
X200725804Y-30956190D02*
X200678185Y-31146666D01*
X200678185Y-31146666D02*
X200630566Y-31241904D01*
X200630566Y-31241904D02*
X200582947Y-31289523D01*
X200582947Y-31289523D02*
X200487709Y-31337142D01*
X200487709Y-31337142D02*
X200392471Y-31337142D01*
X200392471Y-31337142D02*
X200297233Y-31289523D01*
X200297233Y-31289523D02*
X200249614Y-31241904D01*
X200249614Y-31241904D02*
X200201995Y-31146666D01*
X200201995Y-31146666D02*
X200201995Y-30908571D01*
X200201995Y-30908571D02*
X200249614Y-30765714D01*
X200201995Y-30432380D02*
X201201995Y-30194285D01*
X201201995Y-30194285D02*
X200487709Y-30003809D01*
X200487709Y-30003809D02*
X201201995Y-29813333D01*
X201201995Y-29813333D02*
X200201995Y-29575238D01*
D11*
X211597419Y-139396115D02*
X212406942Y-139396115D01*
X212406942Y-139396115D02*
X212502180Y-139348496D01*
X212502180Y-139348496D02*
X212549800Y-139300877D01*
X212549800Y-139300877D02*
X212597419Y-139205639D01*
X212597419Y-139205639D02*
X212597419Y-139015163D01*
X212597419Y-139015163D02*
X212549800Y-138919925D01*
X212549800Y-138919925D02*
X212502180Y-138872306D01*
X212502180Y-138872306D02*
X212406942Y-138824687D01*
X212406942Y-138824687D02*
X211597419Y-138824687D01*
X212549800Y-138396115D02*
X212597419Y-138253258D01*
X212597419Y-138253258D02*
X212597419Y-138015163D01*
X212597419Y-138015163D02*
X212549800Y-137919925D01*
X212549800Y-137919925D02*
X212502180Y-137872306D01*
X212502180Y-137872306D02*
X212406942Y-137824687D01*
X212406942Y-137824687D02*
X212311704Y-137824687D01*
X212311704Y-137824687D02*
X212216466Y-137872306D01*
X212216466Y-137872306D02*
X212168847Y-137919925D01*
X212168847Y-137919925D02*
X212121228Y-138015163D01*
X212121228Y-138015163D02*
X212073609Y-138205639D01*
X212073609Y-138205639D02*
X212025990Y-138300877D01*
X212025990Y-138300877D02*
X211978371Y-138348496D01*
X211978371Y-138348496D02*
X211883133Y-138396115D01*
X211883133Y-138396115D02*
X211787895Y-138396115D01*
X211787895Y-138396115D02*
X211692657Y-138348496D01*
X211692657Y-138348496D02*
X211645038Y-138300877D01*
X211645038Y-138300877D02*
X211597419Y-138205639D01*
X211597419Y-138205639D02*
X211597419Y-137967544D01*
X211597419Y-137967544D02*
X211645038Y-137824687D01*
X212073609Y-137062782D02*
X212121228Y-136919925D01*
X212121228Y-136919925D02*
X212168847Y-136872306D01*
X212168847Y-136872306D02*
X212264085Y-136824687D01*
X212264085Y-136824687D02*
X212406942Y-136824687D01*
X212406942Y-136824687D02*
X212502180Y-136872306D01*
X212502180Y-136872306D02*
X212549800Y-136919925D01*
X212549800Y-136919925D02*
X212597419Y-137015163D01*
X212597419Y-137015163D02*
X212597419Y-137396115D01*
X212597419Y-137396115D02*
X211597419Y-137396115D01*
X211597419Y-137396115D02*
X211597419Y-137062782D01*
X211597419Y-137062782D02*
X211645038Y-136967544D01*
X211645038Y-136967544D02*
X211692657Y-136919925D01*
X211692657Y-136919925D02*
X211787895Y-136872306D01*
X211787895Y-136872306D02*
X211883133Y-136872306D01*
X211883133Y-136872306D02*
X211978371Y-136919925D01*
X211978371Y-136919925D02*
X212025990Y-136967544D01*
X212025990Y-136967544D02*
X212073609Y-137062782D01*
X212073609Y-137062782D02*
X212073609Y-137396115D01*
X195432419Y-126576353D02*
X196432419Y-125909687D01*
X195432419Y-125909687D02*
X196432419Y-126576353D01*
X196337180Y-124957306D02*
X196384800Y-125004925D01*
X196384800Y-125004925D02*
X196432419Y-125147782D01*
X196432419Y-125147782D02*
X196432419Y-125243020D01*
X196432419Y-125243020D02*
X196384800Y-125385877D01*
X196384800Y-125385877D02*
X196289561Y-125481115D01*
X196289561Y-125481115D02*
X196194323Y-125528734D01*
X196194323Y-125528734D02*
X196003847Y-125576353D01*
X196003847Y-125576353D02*
X195860990Y-125576353D01*
X195860990Y-125576353D02*
X195670514Y-125528734D01*
X195670514Y-125528734D02*
X195575276Y-125481115D01*
X195575276Y-125481115D02*
X195480038Y-125385877D01*
X195480038Y-125385877D02*
X195432419Y-125243020D01*
X195432419Y-125243020D02*
X195432419Y-125147782D01*
X195432419Y-125147782D02*
X195480038Y-125004925D01*
X195480038Y-125004925D02*
X195527657Y-124957306D01*
X196432419Y-124052544D02*
X196432419Y-124528734D01*
X196432419Y-124528734D02*
X195432419Y-124528734D01*
X185230038Y-125957306D02*
X185182419Y-126052544D01*
X185182419Y-126052544D02*
X185182419Y-126195401D01*
X185182419Y-126195401D02*
X185230038Y-126338258D01*
X185230038Y-126338258D02*
X185325276Y-126433496D01*
X185325276Y-126433496D02*
X185420514Y-126481115D01*
X185420514Y-126481115D02*
X185610990Y-126528734D01*
X185610990Y-126528734D02*
X185753847Y-126528734D01*
X185753847Y-126528734D02*
X185944323Y-126481115D01*
X185944323Y-126481115D02*
X186039561Y-126433496D01*
X186039561Y-126433496D02*
X186134800Y-126338258D01*
X186134800Y-126338258D02*
X186182419Y-126195401D01*
X186182419Y-126195401D02*
X186182419Y-126100163D01*
X186182419Y-126100163D02*
X186134800Y-125957306D01*
X186134800Y-125957306D02*
X186087180Y-125909687D01*
X186087180Y-125909687D02*
X185753847Y-125909687D01*
X185753847Y-125909687D02*
X185753847Y-126100163D01*
X186182419Y-125481115D02*
X185182419Y-125481115D01*
X185182419Y-125481115D02*
X186182419Y-124909687D01*
X186182419Y-124909687D02*
X185182419Y-124909687D01*
X186182419Y-124433496D02*
X185182419Y-124433496D01*
X185182419Y-124433496D02*
X185182419Y-124195401D01*
X185182419Y-124195401D02*
X185230038Y-124052544D01*
X185230038Y-124052544D02*
X185325276Y-123957306D01*
X185325276Y-123957306D02*
X185420514Y-123909687D01*
X185420514Y-123909687D02*
X185610990Y-123862068D01*
X185610990Y-123862068D02*
X185753847Y-123862068D01*
X185753847Y-123862068D02*
X185944323Y-123909687D01*
X185944323Y-123909687D02*
X186039561Y-123957306D01*
X186039561Y-123957306D02*
X186134800Y-124052544D01*
X186134800Y-124052544D02*
X186182419Y-124195401D01*
X186182419Y-124195401D02*
X186182419Y-124433496D01*
X192932419Y-126576353D02*
X193932419Y-125909687D01*
X192932419Y-125909687D02*
X193932419Y-126576353D01*
X193932419Y-125528734D02*
X192932419Y-125528734D01*
X192932419Y-125528734D02*
X192932419Y-125290639D01*
X192932419Y-125290639D02*
X192980038Y-125147782D01*
X192980038Y-125147782D02*
X193075276Y-125052544D01*
X193075276Y-125052544D02*
X193170514Y-125004925D01*
X193170514Y-125004925D02*
X193360990Y-124957306D01*
X193360990Y-124957306D02*
X193503847Y-124957306D01*
X193503847Y-124957306D02*
X193694323Y-125004925D01*
X193694323Y-125004925D02*
X193789561Y-125052544D01*
X193789561Y-125052544D02*
X193884800Y-125147782D01*
X193884800Y-125147782D02*
X193932419Y-125290639D01*
X193932419Y-125290639D02*
X193932419Y-125528734D01*
X193646704Y-124576353D02*
X193646704Y-124100163D01*
X193932419Y-124671591D02*
X192932419Y-124338258D01*
X192932419Y-124338258D02*
X193932419Y-124004925D01*
X198646704Y-126528734D02*
X198646704Y-126052544D01*
X198932419Y-126623972D02*
X197932419Y-126290639D01*
X197932419Y-126290639D02*
X198932419Y-125957306D01*
X198932419Y-125623972D02*
X197932419Y-125623972D01*
X197932419Y-125623972D02*
X197932419Y-125385877D01*
X197932419Y-125385877D02*
X197980038Y-125243020D01*
X197980038Y-125243020D02*
X198075276Y-125147782D01*
X198075276Y-125147782D02*
X198170514Y-125100163D01*
X198170514Y-125100163D02*
X198360990Y-125052544D01*
X198360990Y-125052544D02*
X198503847Y-125052544D01*
X198503847Y-125052544D02*
X198694323Y-125100163D01*
X198694323Y-125100163D02*
X198789561Y-125147782D01*
X198789561Y-125147782D02*
X198884800Y-125243020D01*
X198884800Y-125243020D02*
X198932419Y-125385877D01*
X198932419Y-125385877D02*
X198932419Y-125623972D01*
X197932419Y-124433496D02*
X197932419Y-124338258D01*
X197932419Y-124338258D02*
X197980038Y-124243020D01*
X197980038Y-124243020D02*
X198027657Y-124195401D01*
X198027657Y-124195401D02*
X198122895Y-124147782D01*
X198122895Y-124147782D02*
X198313371Y-124100163D01*
X198313371Y-124100163D02*
X198551466Y-124100163D01*
X198551466Y-124100163D02*
X198741942Y-124147782D01*
X198741942Y-124147782D02*
X198837180Y-124195401D01*
X198837180Y-124195401D02*
X198884800Y-124243020D01*
X198884800Y-124243020D02*
X198932419Y-124338258D01*
X198932419Y-124338258D02*
X198932419Y-124433496D01*
X198932419Y-124433496D02*
X198884800Y-124528734D01*
X198884800Y-124528734D02*
X198837180Y-124576353D01*
X198837180Y-124576353D02*
X198741942Y-124623972D01*
X198741942Y-124623972D02*
X198551466Y-124671591D01*
X198551466Y-124671591D02*
X198313371Y-124671591D01*
X198313371Y-124671591D02*
X198122895Y-124623972D01*
X198122895Y-124623972D02*
X198027657Y-124576353D01*
X198027657Y-124576353D02*
X197980038Y-124528734D01*
X197980038Y-124528734D02*
X197932419Y-124433496D01*
X182682419Y-126623972D02*
X183682419Y-126290639D01*
X183682419Y-126290639D02*
X182682419Y-125957306D01*
X183587180Y-125052544D02*
X183634800Y-125100163D01*
X183634800Y-125100163D02*
X183682419Y-125243020D01*
X183682419Y-125243020D02*
X183682419Y-125338258D01*
X183682419Y-125338258D02*
X183634800Y-125481115D01*
X183634800Y-125481115D02*
X183539561Y-125576353D01*
X183539561Y-125576353D02*
X183444323Y-125623972D01*
X183444323Y-125623972D02*
X183253847Y-125671591D01*
X183253847Y-125671591D02*
X183110990Y-125671591D01*
X183110990Y-125671591D02*
X182920514Y-125623972D01*
X182920514Y-125623972D02*
X182825276Y-125576353D01*
X182825276Y-125576353D02*
X182730038Y-125481115D01*
X182730038Y-125481115D02*
X182682419Y-125338258D01*
X182682419Y-125338258D02*
X182682419Y-125243020D01*
X182682419Y-125243020D02*
X182730038Y-125100163D01*
X182730038Y-125100163D02*
X182777657Y-125052544D01*
X183587180Y-124052544D02*
X183634800Y-124100163D01*
X183634800Y-124100163D02*
X183682419Y-124243020D01*
X183682419Y-124243020D02*
X183682419Y-124338258D01*
X183682419Y-124338258D02*
X183634800Y-124481115D01*
X183634800Y-124481115D02*
X183539561Y-124576353D01*
X183539561Y-124576353D02*
X183444323Y-124623972D01*
X183444323Y-124623972D02*
X183253847Y-124671591D01*
X183253847Y-124671591D02*
X183110990Y-124671591D01*
X183110990Y-124671591D02*
X182920514Y-124623972D01*
X182920514Y-124623972D02*
X182825276Y-124576353D01*
X182825276Y-124576353D02*
X182730038Y-124481115D01*
X182730038Y-124481115D02*
X182682419Y-124338258D01*
X182682419Y-124338258D02*
X182682419Y-124243020D01*
X182682419Y-124243020D02*
X182730038Y-124100163D01*
X182730038Y-124100163D02*
X182777657Y-124052544D01*
X188634800Y-126528734D02*
X188682419Y-126385877D01*
X188682419Y-126385877D02*
X188682419Y-126147782D01*
X188682419Y-126147782D02*
X188634800Y-126052544D01*
X188634800Y-126052544D02*
X188587180Y-126004925D01*
X188587180Y-126004925D02*
X188491942Y-125957306D01*
X188491942Y-125957306D02*
X188396704Y-125957306D01*
X188396704Y-125957306D02*
X188301466Y-126004925D01*
X188301466Y-126004925D02*
X188253847Y-126052544D01*
X188253847Y-126052544D02*
X188206228Y-126147782D01*
X188206228Y-126147782D02*
X188158609Y-126338258D01*
X188158609Y-126338258D02*
X188110990Y-126433496D01*
X188110990Y-126433496D02*
X188063371Y-126481115D01*
X188063371Y-126481115D02*
X187968133Y-126528734D01*
X187968133Y-126528734D02*
X187872895Y-126528734D01*
X187872895Y-126528734D02*
X187777657Y-126481115D01*
X187777657Y-126481115D02*
X187730038Y-126433496D01*
X187730038Y-126433496D02*
X187682419Y-126338258D01*
X187682419Y-126338258D02*
X187682419Y-126100163D01*
X187682419Y-126100163D02*
X187730038Y-125957306D01*
X188587180Y-124957306D02*
X188634800Y-125004925D01*
X188634800Y-125004925D02*
X188682419Y-125147782D01*
X188682419Y-125147782D02*
X188682419Y-125243020D01*
X188682419Y-125243020D02*
X188634800Y-125385877D01*
X188634800Y-125385877D02*
X188539561Y-125481115D01*
X188539561Y-125481115D02*
X188444323Y-125528734D01*
X188444323Y-125528734D02*
X188253847Y-125576353D01*
X188253847Y-125576353D02*
X188110990Y-125576353D01*
X188110990Y-125576353D02*
X187920514Y-125528734D01*
X187920514Y-125528734D02*
X187825276Y-125481115D01*
X187825276Y-125481115D02*
X187730038Y-125385877D01*
X187730038Y-125385877D02*
X187682419Y-125243020D01*
X187682419Y-125243020D02*
X187682419Y-125147782D01*
X187682419Y-125147782D02*
X187730038Y-125004925D01*
X187730038Y-125004925D02*
X187777657Y-124957306D01*
X188682419Y-124052544D02*
X188682419Y-124528734D01*
X188682419Y-124528734D02*
X187682419Y-124528734D01*
X201432419Y-126481115D02*
X200432419Y-126481115D01*
X201432419Y-126004925D02*
X200432419Y-126004925D01*
X200432419Y-126004925D02*
X201432419Y-125433497D01*
X201432419Y-125433497D02*
X200432419Y-125433497D01*
X200432419Y-125100163D02*
X200432419Y-124528735D01*
X201432419Y-124814449D02*
X200432419Y-124814449D01*
X191134800Y-126528734D02*
X191182419Y-126385877D01*
X191182419Y-126385877D02*
X191182419Y-126147782D01*
X191182419Y-126147782D02*
X191134800Y-126052544D01*
X191134800Y-126052544D02*
X191087180Y-126004925D01*
X191087180Y-126004925D02*
X190991942Y-125957306D01*
X190991942Y-125957306D02*
X190896704Y-125957306D01*
X190896704Y-125957306D02*
X190801466Y-126004925D01*
X190801466Y-126004925D02*
X190753847Y-126052544D01*
X190753847Y-126052544D02*
X190706228Y-126147782D01*
X190706228Y-126147782D02*
X190658609Y-126338258D01*
X190658609Y-126338258D02*
X190610990Y-126433496D01*
X190610990Y-126433496D02*
X190563371Y-126481115D01*
X190563371Y-126481115D02*
X190468133Y-126528734D01*
X190468133Y-126528734D02*
X190372895Y-126528734D01*
X190372895Y-126528734D02*
X190277657Y-126481115D01*
X190277657Y-126481115D02*
X190230038Y-126433496D01*
X190230038Y-126433496D02*
X190182419Y-126338258D01*
X190182419Y-126338258D02*
X190182419Y-126100163D01*
X190182419Y-126100163D02*
X190230038Y-125957306D01*
X191182419Y-125528734D02*
X190182419Y-125528734D01*
X190182419Y-125528734D02*
X190182419Y-125290639D01*
X190182419Y-125290639D02*
X190230038Y-125147782D01*
X190230038Y-125147782D02*
X190325276Y-125052544D01*
X190325276Y-125052544D02*
X190420514Y-125004925D01*
X190420514Y-125004925D02*
X190610990Y-124957306D01*
X190610990Y-124957306D02*
X190753847Y-124957306D01*
X190753847Y-124957306D02*
X190944323Y-125004925D01*
X190944323Y-125004925D02*
X191039561Y-125052544D01*
X191039561Y-125052544D02*
X191134800Y-125147782D01*
X191134800Y-125147782D02*
X191182419Y-125290639D01*
X191182419Y-125290639D02*
X191182419Y-125528734D01*
X190896704Y-124576353D02*
X190896704Y-124100163D01*
X191182419Y-124671591D02*
X190182419Y-124338258D01*
X190182419Y-124338258D02*
X191182419Y-124004925D01*
D12*
X204721667Y-50242200D02*
X204864524Y-50289819D01*
X204864524Y-50289819D02*
X205102619Y-50289819D01*
X205102619Y-50289819D02*
X205197857Y-50242200D01*
X205197857Y-50242200D02*
X205245476Y-50194580D01*
X205245476Y-50194580D02*
X205293095Y-50099342D01*
X205293095Y-50099342D02*
X205293095Y-50004104D01*
X205293095Y-50004104D02*
X205245476Y-49908866D01*
X205245476Y-49908866D02*
X205197857Y-49861247D01*
X205197857Y-49861247D02*
X205102619Y-49813628D01*
X205102619Y-49813628D02*
X204912143Y-49766009D01*
X204912143Y-49766009D02*
X204816905Y-49718390D01*
X204816905Y-49718390D02*
X204769286Y-49670771D01*
X204769286Y-49670771D02*
X204721667Y-49575533D01*
X204721667Y-49575533D02*
X204721667Y-49480295D01*
X204721667Y-49480295D02*
X204769286Y-49385057D01*
X204769286Y-49385057D02*
X204816905Y-49337438D01*
X204816905Y-49337438D02*
X204912143Y-49289819D01*
X204912143Y-49289819D02*
X205150238Y-49289819D01*
X205150238Y-49289819D02*
X205293095Y-49337438D01*
X205626429Y-49289819D02*
X205864524Y-50289819D01*
X205864524Y-50289819D02*
X206055000Y-49575533D01*
X206055000Y-49575533D02*
X206245476Y-50289819D01*
X206245476Y-50289819D02*
X206483572Y-49289819D01*
X207007381Y-49718390D02*
X206912143Y-49670771D01*
X206912143Y-49670771D02*
X206864524Y-49623152D01*
X206864524Y-49623152D02*
X206816905Y-49527914D01*
X206816905Y-49527914D02*
X206816905Y-49480295D01*
X206816905Y-49480295D02*
X206864524Y-49385057D01*
X206864524Y-49385057D02*
X206912143Y-49337438D01*
X206912143Y-49337438D02*
X207007381Y-49289819D01*
X207007381Y-49289819D02*
X207197857Y-49289819D01*
X207197857Y-49289819D02*
X207293095Y-49337438D01*
X207293095Y-49337438D02*
X207340714Y-49385057D01*
X207340714Y-49385057D02*
X207388333Y-49480295D01*
X207388333Y-49480295D02*
X207388333Y-49527914D01*
X207388333Y-49527914D02*
X207340714Y-49623152D01*
X207340714Y-49623152D02*
X207293095Y-49670771D01*
X207293095Y-49670771D02*
X207197857Y-49718390D01*
X207197857Y-49718390D02*
X207007381Y-49718390D01*
X207007381Y-49718390D02*
X206912143Y-49766009D01*
X206912143Y-49766009D02*
X206864524Y-49813628D01*
X206864524Y-49813628D02*
X206816905Y-49908866D01*
X206816905Y-49908866D02*
X206816905Y-50099342D01*
X206816905Y-50099342D02*
X206864524Y-50194580D01*
X206864524Y-50194580D02*
X206912143Y-50242200D01*
X206912143Y-50242200D02*
X207007381Y-50289819D01*
X207007381Y-50289819D02*
X207197857Y-50289819D01*
X207197857Y-50289819D02*
X207293095Y-50242200D01*
X207293095Y-50242200D02*
X207340714Y-50194580D01*
X207340714Y-50194580D02*
X207388333Y-50099342D01*
X207388333Y-50099342D02*
X207388333Y-49908866D01*
X207388333Y-49908866D02*
X207340714Y-49813628D01*
X207340714Y-49813628D02*
X207293095Y-49766009D01*
X207293095Y-49766009D02*
X207197857Y-49718390D01*
X194561667Y-64927200D02*
X194704524Y-64974819D01*
X194704524Y-64974819D02*
X194942619Y-64974819D01*
X194942619Y-64974819D02*
X195037857Y-64927200D01*
X195037857Y-64927200D02*
X195085476Y-64879580D01*
X195085476Y-64879580D02*
X195133095Y-64784342D01*
X195133095Y-64784342D02*
X195133095Y-64689104D01*
X195133095Y-64689104D02*
X195085476Y-64593866D01*
X195085476Y-64593866D02*
X195037857Y-64546247D01*
X195037857Y-64546247D02*
X194942619Y-64498628D01*
X194942619Y-64498628D02*
X194752143Y-64451009D01*
X194752143Y-64451009D02*
X194656905Y-64403390D01*
X194656905Y-64403390D02*
X194609286Y-64355771D01*
X194609286Y-64355771D02*
X194561667Y-64260533D01*
X194561667Y-64260533D02*
X194561667Y-64165295D01*
X194561667Y-64165295D02*
X194609286Y-64070057D01*
X194609286Y-64070057D02*
X194656905Y-64022438D01*
X194656905Y-64022438D02*
X194752143Y-63974819D01*
X194752143Y-63974819D02*
X194990238Y-63974819D01*
X194990238Y-63974819D02*
X195133095Y-64022438D01*
X195466429Y-63974819D02*
X195704524Y-64974819D01*
X195704524Y-64974819D02*
X195895000Y-64260533D01*
X195895000Y-64260533D02*
X196085476Y-64974819D01*
X196085476Y-64974819D02*
X196323572Y-63974819D01*
X196752143Y-64974819D02*
X196942619Y-64974819D01*
X196942619Y-64974819D02*
X197037857Y-64927200D01*
X197037857Y-64927200D02*
X197085476Y-64879580D01*
X197085476Y-64879580D02*
X197180714Y-64736723D01*
X197180714Y-64736723D02*
X197228333Y-64546247D01*
X197228333Y-64546247D02*
X197228333Y-64165295D01*
X197228333Y-64165295D02*
X197180714Y-64070057D01*
X197180714Y-64070057D02*
X197133095Y-64022438D01*
X197133095Y-64022438D02*
X197037857Y-63974819D01*
X197037857Y-63974819D02*
X196847381Y-63974819D01*
X196847381Y-63974819D02*
X196752143Y-64022438D01*
X196752143Y-64022438D02*
X196704524Y-64070057D01*
X196704524Y-64070057D02*
X196656905Y-64165295D01*
X196656905Y-64165295D02*
X196656905Y-64403390D01*
X196656905Y-64403390D02*
X196704524Y-64498628D01*
X196704524Y-64498628D02*
X196752143Y-64546247D01*
X196752143Y-64546247D02*
X196847381Y-64593866D01*
X196847381Y-64593866D02*
X197037857Y-64593866D01*
X197037857Y-64593866D02*
X197133095Y-64546247D01*
X197133095Y-64546247D02*
X197180714Y-64498628D01*
X197180714Y-64498628D02*
X197228333Y-64403390D01*
X187819819Y-27003333D02*
X188534104Y-27003333D01*
X188534104Y-27003333D02*
X188676961Y-27050952D01*
X188676961Y-27050952D02*
X188772200Y-27146190D01*
X188772200Y-27146190D02*
X188819819Y-27289047D01*
X188819819Y-27289047D02*
X188819819Y-27384285D01*
X188819819Y-26003333D02*
X188819819Y-26574761D01*
X188819819Y-26289047D02*
X187819819Y-26289047D01*
X187819819Y-26289047D02*
X187962676Y-26384285D01*
X187962676Y-26384285D02*
X188057914Y-26479523D01*
X188057914Y-26479523D02*
X188105533Y-26574761D01*
D13*
X206899904Y-142859522D02*
X206868952Y-142921427D01*
X206868952Y-142921427D02*
X206868952Y-143014284D01*
X206868952Y-143014284D02*
X206899904Y-143107141D01*
X206899904Y-143107141D02*
X206961809Y-143169046D01*
X206961809Y-143169046D02*
X207023714Y-143199999D01*
X207023714Y-143199999D02*
X207147523Y-143230951D01*
X207147523Y-143230951D02*
X207240380Y-143230951D01*
X207240380Y-143230951D02*
X207364190Y-143199999D01*
X207364190Y-143199999D02*
X207426095Y-143169046D01*
X207426095Y-143169046D02*
X207488000Y-143107141D01*
X207488000Y-143107141D02*
X207518952Y-143014284D01*
X207518952Y-143014284D02*
X207518952Y-142952380D01*
X207518952Y-142952380D02*
X207488000Y-142859522D01*
X207488000Y-142859522D02*
X207457047Y-142828570D01*
X207457047Y-142828570D02*
X207240380Y-142828570D01*
X207240380Y-142828570D02*
X207240380Y-142952380D01*
X207518952Y-142549999D02*
X206868952Y-142549999D01*
X206868952Y-142549999D02*
X207518952Y-142178570D01*
X207518952Y-142178570D02*
X206868952Y-142178570D01*
X207518952Y-141869047D02*
X206868952Y-141869047D01*
X206868952Y-141869047D02*
X206868952Y-141714285D01*
X206868952Y-141714285D02*
X206899904Y-141621428D01*
X206899904Y-141621428D02*
X206961809Y-141559523D01*
X206961809Y-141559523D02*
X207023714Y-141528570D01*
X207023714Y-141528570D02*
X207147523Y-141497618D01*
X207147523Y-141497618D02*
X207240380Y-141497618D01*
X207240380Y-141497618D02*
X207364190Y-141528570D01*
X207364190Y-141528570D02*
X207426095Y-141559523D01*
X207426095Y-141559523D02*
X207488000Y-141621428D01*
X207488000Y-141621428D02*
X207518952Y-141714285D01*
X207518952Y-141714285D02*
X207518952Y-141869047D01*
X206868952Y-140104761D02*
X206868952Y-139980952D01*
X206868952Y-139980952D02*
X206899904Y-139919047D01*
X206899904Y-139919047D02*
X206961809Y-139857142D01*
X206961809Y-139857142D02*
X207085619Y-139826190D01*
X207085619Y-139826190D02*
X207302285Y-139826190D01*
X207302285Y-139826190D02*
X207426095Y-139857142D01*
X207426095Y-139857142D02*
X207488000Y-139919047D01*
X207488000Y-139919047D02*
X207518952Y-139980952D01*
X207518952Y-139980952D02*
X207518952Y-140104761D01*
X207518952Y-140104761D02*
X207488000Y-140166666D01*
X207488000Y-140166666D02*
X207426095Y-140228571D01*
X207426095Y-140228571D02*
X207302285Y-140259523D01*
X207302285Y-140259523D02*
X207085619Y-140259523D01*
X207085619Y-140259523D02*
X206961809Y-140228571D01*
X206961809Y-140228571D02*
X206899904Y-140166666D01*
X206899904Y-140166666D02*
X206868952Y-140104761D01*
X206868952Y-139547619D02*
X207395142Y-139547619D01*
X207395142Y-139547619D02*
X207457047Y-139516666D01*
X207457047Y-139516666D02*
X207488000Y-139485714D01*
X207488000Y-139485714D02*
X207518952Y-139423809D01*
X207518952Y-139423809D02*
X207518952Y-139300000D01*
X207518952Y-139300000D02*
X207488000Y-139238095D01*
X207488000Y-139238095D02*
X207457047Y-139207142D01*
X207457047Y-139207142D02*
X207395142Y-139176190D01*
X207395142Y-139176190D02*
X206868952Y-139176190D01*
X206868952Y-138959524D02*
X206868952Y-138588095D01*
X207518952Y-138773809D02*
X206868952Y-138773809D01*
X207518952Y-137380953D02*
X206868952Y-137380953D01*
X207518952Y-137071429D02*
X206868952Y-137071429D01*
X206868952Y-137071429D02*
X207518952Y-136700000D01*
X207518952Y-136700000D02*
X206868952Y-136700000D01*
%TO.C,MPU1*%
D11*
X181810000Y-129285000D02*
X202310000Y-129285000D01*
X202310000Y-113285000D01*
X181810000Y-113285000D01*
X181810000Y-129285000D01*
D14*
%TO.C,SW8*%
X200365000Y-51635000D02*
X200365000Y-54145000D01*
X200365000Y-51635000D02*
X212585000Y-51635000D01*
X200365000Y-56445000D02*
X200365000Y-59045000D01*
X200365000Y-61345000D02*
X200365000Y-63855000D01*
X212585000Y-51635000D02*
X212585000Y-54145000D01*
X212585000Y-56445000D02*
X212585000Y-59045000D01*
X212585000Y-61345000D02*
X212585000Y-63855000D01*
X212585000Y-63855000D02*
X200365000Y-63855000D01*
X210025000Y-57745000D02*
G75*
G02*
X202925000Y-57745000I-3550000J0D01*
G01*
X202925000Y-57745000D02*
G75*
G02*
X210025000Y-57745000I3550000J0D01*
G01*
%TO.C,SW5*%
D11*
X211450000Y-116885000D02*
X207450000Y-116885000D01*
X207450000Y-125885000D01*
X211450000Y-125885000D01*
X211450000Y-116885000D01*
D14*
%TO.C,SW6*%
X181115000Y-51635000D02*
X193335000Y-51635000D01*
X181115000Y-54145000D02*
X181115000Y-51635000D01*
X181115000Y-59045000D02*
X181115000Y-56445000D01*
X181115000Y-63855000D02*
X181115000Y-61345000D01*
X193335000Y-54145000D02*
X193335000Y-51635000D01*
X193335000Y-59045000D02*
X193335000Y-56445000D01*
X193335000Y-63855000D02*
X181115000Y-63855000D01*
X193335000Y-63855000D02*
X193335000Y-61345000D01*
X190775000Y-57745000D02*
G75*
G02*
X183675000Y-57745000I-3550000J0D01*
G01*
X183675000Y-57745000D02*
G75*
G02*
X190775000Y-57745000I3550000J0D01*
G01*
D15*
%TO.C,U1*%
X181610000Y-130175000D02*
X181610000Y-147955000D01*
X181610000Y-147955000D02*
X212090000Y-147955000D01*
X209550000Y-132715000D02*
X209550000Y-130175000D01*
X212090000Y-130175000D02*
X181610000Y-130175000D01*
X212090000Y-132715000D02*
X209550000Y-132715000D01*
X212090000Y-147955000D02*
X212090000Y-130175000D01*
D14*
%TO.C,SW9*%
X190205000Y-66320000D02*
X190205000Y-68830000D01*
X190205000Y-66320000D02*
X202425000Y-66320000D01*
X190205000Y-71130000D02*
X190205000Y-73730000D01*
X190205000Y-76030000D02*
X190205000Y-78540000D01*
X202425000Y-66320000D02*
X202425000Y-68830000D01*
X202425000Y-71130000D02*
X202425000Y-73730000D01*
X202425000Y-76030000D02*
X202425000Y-78540000D01*
X202425000Y-78540000D02*
X190205000Y-78540000D01*
X199865000Y-72430000D02*
G75*
G02*
X192765000Y-72430000I-3550000J0D01*
G01*
X192765000Y-72430000D02*
G75*
G02*
X199865000Y-72430000I3550000J0D01*
G01*
%TO.C,SW7*%
X190340000Y-88305000D02*
G75*
G02*
X183240000Y-88305000I-3550000J0D01*
G01*
X183240000Y-88305000D02*
G75*
G02*
X190340000Y-88305000I3550000J0D01*
G01*
X192900000Y-94415000D02*
X180680000Y-94415000D01*
X192900000Y-91905000D02*
X192900000Y-94415000D01*
X192900000Y-87005000D02*
X192900000Y-89605000D01*
X192900000Y-82195000D02*
X192900000Y-84705000D01*
X180680000Y-91905000D02*
X180680000Y-94415000D01*
X180680000Y-87005000D02*
X180680000Y-89605000D01*
X180680000Y-82195000D02*
X192900000Y-82195000D01*
X180680000Y-82195000D02*
X180680000Y-84705000D01*
%TO.C,J1*%
X189805000Y-25340000D02*
X191135000Y-25340000D01*
X189805000Y-26670000D02*
X189805000Y-25340000D01*
X192405000Y-25340000D02*
X202625000Y-25340000D01*
X192405000Y-28000000D02*
X192405000Y-25340000D01*
X192405000Y-28000000D02*
X202625000Y-28000000D01*
X202625000Y-28000000D02*
X202625000Y-25340000D01*
%TO.C,SW1*%
X210460000Y-88305000D02*
G75*
G02*
X203360000Y-88305000I-3550000J0D01*
G01*
X203360000Y-88305000D02*
G75*
G02*
X210460000Y-88305000I3550000J0D01*
G01*
X213020000Y-94415000D02*
X200800000Y-94415000D01*
X213020000Y-91905000D02*
X213020000Y-94415000D01*
X213020000Y-87005000D02*
X213020000Y-89605000D01*
X213020000Y-82195000D02*
X213020000Y-84705000D01*
X200800000Y-91905000D02*
X200800000Y-94415000D01*
X200800000Y-87005000D02*
X200800000Y-89605000D01*
X200800000Y-82195000D02*
X213020000Y-82195000D01*
X200800000Y-82195000D02*
X200800000Y-84705000D01*
D16*
%TO.C,U3*%
X181840000Y-132400000D02*
X197890000Y-132400000D01*
X181840000Y-145730000D02*
X181840000Y-132400000D01*
X197890000Y-132400000D02*
X197890000Y-145730000D01*
X197890000Y-145730000D02*
X181840000Y-145730000D01*
D14*
%TO.C,SW2*%
X210560000Y-104775000D02*
G75*
G02*
X203460000Y-104775000I-3550000J0D01*
G01*
X203460000Y-104775000D02*
G75*
G02*
X210560000Y-104775000I3550000J0D01*
G01*
X213120000Y-110885000D02*
X213120000Y-108375000D01*
X213120000Y-110885000D02*
X200900000Y-110885000D01*
X213120000Y-106075000D02*
X213120000Y-103475000D01*
X213120000Y-101175000D02*
X213120000Y-98665000D01*
X200900000Y-110885000D02*
X200900000Y-108375000D01*
X200900000Y-106075000D02*
X200900000Y-103475000D01*
X200900000Y-101175000D02*
X200900000Y-98665000D01*
X200900000Y-98665000D02*
X213120000Y-98665000D01*
%TO.C,SW3*%
X190840000Y-37030000D02*
X203060000Y-37030000D01*
X190840000Y-39540000D02*
X190840000Y-37030000D01*
X190840000Y-44440000D02*
X190840000Y-41840000D01*
X190840000Y-49250000D02*
X190840000Y-46740000D01*
X203060000Y-39540000D02*
X203060000Y-37030000D01*
X203060000Y-44440000D02*
X203060000Y-41840000D01*
X203060000Y-49250000D02*
X190840000Y-49250000D01*
X203060000Y-49250000D02*
X203060000Y-46740000D01*
X200500000Y-43140000D02*
G75*
G02*
X193400000Y-43140000I-3550000J0D01*
G01*
X193400000Y-43140000D02*
G75*
G02*
X200500000Y-43140000I3550000J0D01*
G01*
%TO.C,U2*%
D11*
X198505000Y-135200000D02*
X211505000Y-135200000D01*
X211505000Y-144200000D01*
X198505000Y-144200000D01*
X198505000Y-135200000D01*
D14*
%TO.C,SW4*%
X180680000Y-98705000D02*
X180680000Y-101215000D01*
X180680000Y-98705000D02*
X192900000Y-98705000D01*
X180680000Y-103515000D02*
X180680000Y-106115000D01*
X180680000Y-108415000D02*
X180680000Y-110925000D01*
X192900000Y-98705000D02*
X192900000Y-101215000D01*
X192900000Y-103515000D02*
X192900000Y-106115000D01*
X192900000Y-108415000D02*
X192900000Y-110925000D01*
X192900000Y-110925000D02*
X180680000Y-110925000D01*
X190340000Y-104815000D02*
G75*
G02*
X183240000Y-104815000I-3550000J0D01*
G01*
X183240000Y-104815000D02*
G75*
G02*
X190340000Y-104815000I3550000J0D01*
G01*
D17*
%TO.C,G\u002A\u002A\u002A*%
G36*
X214552188Y-30480000D02*
G01*
X214552188Y-35482188D01*
X209550000Y-35482188D01*
X204547812Y-35482188D01*
X204547812Y-30837242D01*
X205534319Y-30837242D01*
X205537204Y-30872897D01*
X205545290Y-30930253D01*
X205557681Y-31004918D01*
X205573484Y-31092501D01*
X205591806Y-31188610D01*
X205611751Y-31288854D01*
X205632427Y-31388841D01*
X205652940Y-31484180D01*
X205672395Y-31570480D01*
X205689898Y-31643348D01*
X205704556Y-31698394D01*
X205715475Y-31731227D01*
X205716935Y-31734361D01*
X205732601Y-31760001D01*
X205753372Y-31782095D01*
X205782601Y-31802090D01*
X205823640Y-31821428D01*
X205879839Y-31841555D01*
X205954550Y-31863915D01*
X206051126Y-31889952D01*
X206117943Y-31907171D01*
X206209810Y-31930330D01*
X206282221Y-31947445D01*
X206342583Y-31959586D01*
X206398302Y-31967824D01*
X206456787Y-31973229D01*
X206525443Y-31976871D01*
X206611679Y-31979822D01*
X206623024Y-31980164D01*
X206871048Y-31987604D01*
X206985258Y-32272450D01*
X207019530Y-32357446D01*
X207051253Y-32435223D01*
X207078670Y-32501543D01*
X207100024Y-32552168D01*
X207113557Y-32582860D01*
X207116337Y-32588516D01*
X207134096Y-32612437D01*
X207161403Y-32632835D01*
X207201470Y-32650712D01*
X207257511Y-32667073D01*
X207332740Y-32682920D01*
X207430371Y-32699258D01*
X207507440Y-32710626D01*
X207591302Y-32722936D01*
X207665719Y-32734583D01*
X207726313Y-32744823D01*
X207768703Y-32752911D01*
X207788510Y-32758103D01*
X207789203Y-32758530D01*
X207782505Y-32770636D01*
X207759833Y-32802900D01*
X207722448Y-32853678D01*
X207671607Y-32921326D01*
X207608569Y-33004198D01*
X207534593Y-33100651D01*
X207450937Y-33209041D01*
X207358860Y-33327722D01*
X207259621Y-33455050D01*
X207154478Y-33589381D01*
X207105990Y-33651145D01*
X206997737Y-33789092D01*
X206894123Y-33921468D01*
X206796487Y-34046545D01*
X206706167Y-34162594D01*
X206624498Y-34267886D01*
X206552819Y-34360691D01*
X206492468Y-34439280D01*
X206444780Y-34501925D01*
X206411094Y-34546896D01*
X206392747Y-34572464D01*
X206390009Y-34576859D01*
X206373583Y-34630903D01*
X206369335Y-34697345D01*
X206377036Y-34763721D01*
X206394370Y-34813810D01*
X206435105Y-34862620D01*
X206492922Y-34895672D01*
X206560987Y-34911361D01*
X206632465Y-34908083D01*
X206698611Y-34885256D01*
X206717199Y-34873158D01*
X206756492Y-34845786D01*
X206814822Y-34804347D01*
X206890520Y-34750052D01*
X206981919Y-34684108D01*
X207087349Y-34607725D01*
X207205143Y-34522111D01*
X207333633Y-34428475D01*
X207471150Y-34328027D01*
X207616025Y-34221974D01*
X207766591Y-34111526D01*
X207778391Y-34102861D01*
X208806619Y-33347704D01*
X209039608Y-33640302D01*
X209116429Y-33735444D01*
X209184289Y-33816808D01*
X209241445Y-33882409D01*
X209286154Y-33930265D01*
X209316672Y-33958392D01*
X209323263Y-33962965D01*
X209347701Y-33975704D01*
X209374178Y-33984280D01*
X209408700Y-33989490D01*
X209457275Y-33992130D01*
X209525909Y-33992997D01*
X209550000Y-33993031D01*
X209625456Y-33992523D01*
X209679140Y-33990470D01*
X209717058Y-33986074D01*
X209745217Y-33978539D01*
X209769624Y-33967069D01*
X209776737Y-33962965D01*
X209802251Y-33941700D01*
X209842525Y-33900058D01*
X209895814Y-33840025D01*
X209960376Y-33763583D01*
X210034467Y-33672715D01*
X210060391Y-33640302D01*
X210293380Y-33347704D01*
X211321608Y-34102861D01*
X211472544Y-34213597D01*
X211617917Y-34320032D01*
X211756061Y-34420956D01*
X211885306Y-34515160D01*
X212003984Y-34601435D01*
X212110428Y-34678573D01*
X212202968Y-34745365D01*
X212279937Y-34800602D01*
X212339665Y-34843075D01*
X212380486Y-34871575D01*
X212400730Y-34884894D01*
X212401388Y-34885256D01*
X212469180Y-34908403D01*
X212540100Y-34911319D01*
X212607463Y-34895663D01*
X212664588Y-34863095D01*
X212704789Y-34815273D01*
X212707882Y-34809172D01*
X212725747Y-34749853D01*
X212731035Y-34681289D01*
X212723633Y-34615854D01*
X212709990Y-34576859D01*
X212698124Y-34559500D01*
X212670387Y-34522049D01*
X212628115Y-34466235D01*
X212572647Y-34393789D01*
X212505319Y-34306438D01*
X212427469Y-34205912D01*
X212340433Y-34093940D01*
X212245550Y-33972251D01*
X212144157Y-33842575D01*
X212037591Y-33706639D01*
X211994009Y-33651145D01*
X211886638Y-33514220D01*
X211784609Y-33383564D01*
X211689181Y-33260821D01*
X211601612Y-33147637D01*
X211523161Y-33045655D01*
X211455087Y-32956519D01*
X211398649Y-32881875D01*
X211355104Y-32823367D01*
X211325712Y-32782639D01*
X211311731Y-32761336D01*
X211310797Y-32758530D01*
X211327312Y-32753774D01*
X211366985Y-32746024D01*
X211425437Y-32736025D01*
X211498288Y-32724520D01*
X211581159Y-32712254D01*
X211592560Y-32710626D01*
X211706491Y-32693430D01*
X211795929Y-32677378D01*
X211864088Y-32661466D01*
X211914182Y-32644689D01*
X211949424Y-32626045D01*
X211973030Y-32604530D01*
X211983663Y-32588516D01*
X211993666Y-32566753D01*
X212012176Y-32523405D01*
X212037435Y-32462707D01*
X212067687Y-32388898D01*
X212101173Y-32306216D01*
X212114741Y-32272450D01*
X212228952Y-31987604D01*
X212476976Y-31980164D01*
X212565700Y-31977225D01*
X212635997Y-31973716D01*
X212695271Y-31968567D01*
X212750932Y-31960709D01*
X212810385Y-31949069D01*
X212881039Y-31932579D01*
X212970299Y-31910167D01*
X212982057Y-31907171D01*
X213092738Y-31878362D01*
X213179627Y-31854062D01*
X213246074Y-31832826D01*
X213295431Y-31813210D01*
X213331049Y-31793769D01*
X213356280Y-31773060D01*
X213374475Y-31749638D01*
X213383065Y-31734361D01*
X213393191Y-31705971D01*
X213407225Y-31654599D01*
X213424271Y-31584636D01*
X213443434Y-31500473D01*
X213463819Y-31406501D01*
X213484532Y-31307110D01*
X213504678Y-31206691D01*
X213523362Y-31109635D01*
X213539690Y-31020332D01*
X213552766Y-30943174D01*
X213561696Y-30882549D01*
X213565585Y-30842851D01*
X213565681Y-30838267D01*
X213554550Y-30757029D01*
X213522157Y-30693279D01*
X213469857Y-30648355D01*
X213399004Y-30623596D01*
X213343758Y-30618949D01*
X213318877Y-30620241D01*
X213292100Y-30625089D01*
X213259841Y-30634954D01*
X213218509Y-30651297D01*
X213164515Y-30675578D01*
X213094271Y-30709258D01*
X213004188Y-30753797D01*
X212968162Y-30771794D01*
X212662714Y-30924639D01*
X212263487Y-30924639D01*
X211864260Y-30924639D01*
X211457458Y-30692547D01*
X211050656Y-30460456D01*
X211050656Y-30258055D01*
X211050656Y-30055654D01*
X211182239Y-29924619D01*
X211313821Y-29793583D01*
X211524781Y-29834210D01*
X211598744Y-29849225D01*
X211663416Y-29863804D01*
X211713676Y-29876680D01*
X211744401Y-29886587D01*
X211750994Y-29890180D01*
X211763480Y-29906463D01*
X211788331Y-29941764D01*
X211822657Y-29991876D01*
X211863565Y-30052588D01*
X211895181Y-30100064D01*
X211950873Y-30182309D01*
X211996168Y-30243602D01*
X212034746Y-30286948D01*
X212070286Y-30315357D01*
X212106470Y-30331836D01*
X212146978Y-30339392D01*
X212190043Y-30341050D01*
X212233319Y-30339523D01*
X212269984Y-30333116D01*
X212303163Y-30319090D01*
X212335977Y-30294703D01*
X212371549Y-30257216D01*
X212413000Y-30203889D01*
X212463452Y-30131983D01*
X212514118Y-30056652D01*
X212563657Y-29981842D01*
X212609165Y-29912243D01*
X212647890Y-29852133D01*
X212677082Y-29805787D01*
X212693989Y-29777482D01*
X212695466Y-29774728D01*
X212711046Y-29724754D01*
X212717563Y-29660508D01*
X212714998Y-29593862D01*
X212703333Y-29536691D01*
X212695858Y-29518633D01*
X212677627Y-29489696D01*
X212644778Y-29443903D01*
X212599902Y-29384433D01*
X212545588Y-29314463D01*
X212484428Y-29237170D01*
X212419012Y-29155734D01*
X212351930Y-29073331D01*
X212285774Y-28993139D01*
X212223133Y-28918335D01*
X212166598Y-28852099D01*
X212118761Y-28797608D01*
X212082211Y-28758038D01*
X212059539Y-28736569D01*
X212056721Y-28734620D01*
X212025605Y-28721097D01*
X211975316Y-28706712D01*
X211903556Y-28690944D01*
X211808028Y-28673268D01*
X211727028Y-28659684D01*
X211641848Y-28645491D01*
X211566072Y-28632214D01*
X211503968Y-28620652D01*
X211459805Y-28611608D01*
X211437849Y-28605882D01*
X211436391Y-28605120D01*
X211439118Y-28590879D01*
X211450072Y-28552243D01*
X211468627Y-28491159D01*
X211494157Y-28409574D01*
X211526037Y-28309435D01*
X211563639Y-28192688D01*
X211606339Y-28061281D01*
X211653510Y-27917161D01*
X211704527Y-27762274D01*
X211758763Y-27598568D01*
X211794186Y-27492134D01*
X211869456Y-27265743D01*
X211935727Y-27065079D01*
X211993162Y-26889630D01*
X212041922Y-26738886D01*
X212082169Y-26612337D01*
X212114063Y-26509472D01*
X212137767Y-26429781D01*
X212153442Y-26372752D01*
X212161249Y-26337876D01*
X212162254Y-26328423D01*
X212155427Y-26276426D01*
X212138528Y-26223081D01*
X212133667Y-26212683D01*
X212092848Y-26161214D01*
X212033338Y-26122331D01*
X211961996Y-26097698D01*
X211885684Y-26088978D01*
X211811263Y-26097834D01*
X211754166Y-26120682D01*
X211745747Y-26126693D01*
X211735426Y-26136582D01*
X211722502Y-26151472D01*
X211706270Y-26172486D01*
X211686030Y-26200745D01*
X211661079Y-26237372D01*
X211630714Y-26283489D01*
X211594233Y-26340219D01*
X211550934Y-26408685D01*
X211500114Y-26490008D01*
X211441072Y-26585312D01*
X211373104Y-26695718D01*
X211295509Y-26822348D01*
X211207584Y-26966326D01*
X211108626Y-27128774D01*
X210997934Y-27310814D01*
X210874805Y-27513568D01*
X210738536Y-27738160D01*
X210628673Y-27919327D01*
X210505557Y-28122309D01*
X210386346Y-28318704D01*
X210271837Y-28507206D01*
X210162827Y-28686510D01*
X210060112Y-28855312D01*
X209964488Y-29012306D01*
X209876752Y-29156188D01*
X209797699Y-29285652D01*
X209728127Y-29399395D01*
X209668831Y-29496110D01*
X209620609Y-29574493D01*
X209584255Y-29633238D01*
X209560567Y-29671042D01*
X209550341Y-29686599D01*
X209550000Y-29686937D01*
X209542127Y-29675268D01*
X209520658Y-29641132D01*
X209486389Y-29585833D01*
X209440115Y-29510677D01*
X209382635Y-29416968D01*
X209314743Y-29306011D01*
X209237237Y-29179112D01*
X209150912Y-29037574D01*
X209056565Y-28882704D01*
X208954992Y-28715806D01*
X208846990Y-28538185D01*
X208733354Y-28351145D01*
X208614882Y-28155993D01*
X208492369Y-27954032D01*
X208471326Y-27919327D01*
X208324869Y-27677831D01*
X208192071Y-27459003D01*
X208072230Y-27261722D01*
X207964645Y-27084864D01*
X207868612Y-26927308D01*
X207783430Y-26787931D01*
X207708395Y-26665610D01*
X207642807Y-26559224D01*
X207585961Y-26467649D01*
X207537157Y-26389763D01*
X207495691Y-26324445D01*
X207460862Y-26270571D01*
X207431967Y-26227019D01*
X207408303Y-26192668D01*
X207389169Y-26166393D01*
X207373861Y-26147073D01*
X207361678Y-26133586D01*
X207351918Y-26124809D01*
X207345834Y-26120682D01*
X207278497Y-26095433D01*
X207203386Y-26089186D01*
X207127364Y-26100277D01*
X207057290Y-26127045D01*
X207000026Y-26167824D01*
X206966333Y-26212683D01*
X206947844Y-26263182D01*
X206938162Y-26317455D01*
X206937746Y-26328423D01*
X206941584Y-26352146D01*
X206953208Y-26397760D01*
X206972777Y-26465775D01*
X207000455Y-26556702D01*
X207036401Y-26671052D01*
X207080779Y-26809334D01*
X207133749Y-26972060D01*
X207195472Y-27159740D01*
X207266111Y-27372885D01*
X207305813Y-27492134D01*
X207361752Y-27660383D01*
X207414863Y-27821035D01*
X207464522Y-27972144D01*
X207510103Y-28111761D01*
X207550980Y-28237941D01*
X207586526Y-28348736D01*
X207616116Y-28442200D01*
X207639124Y-28516385D01*
X207654924Y-28569344D01*
X207662891Y-28599131D01*
X207663609Y-28605120D01*
X207647352Y-28609971D01*
X207607908Y-28618325D01*
X207549544Y-28629379D01*
X207476529Y-28642334D01*
X207393129Y-28656387D01*
X207372971Y-28659684D01*
X207259699Y-28678979D01*
X207171780Y-28696008D01*
X207106917Y-28711292D01*
X207062813Y-28725354D01*
X207043279Y-28734620D01*
X207023937Y-28751772D01*
X206990159Y-28787709D01*
X206944536Y-28839253D01*
X206889657Y-28903226D01*
X206828113Y-28976451D01*
X206762495Y-29055751D01*
X206695394Y-29137946D01*
X206629400Y-29219860D01*
X206567103Y-29298314D01*
X206511095Y-29370131D01*
X206463965Y-29432133D01*
X206428305Y-29481142D01*
X206406705Y-29513981D01*
X206404141Y-29518633D01*
X206388714Y-29568430D01*
X206382394Y-29632602D01*
X206385163Y-29699278D01*
X206397003Y-29756585D01*
X206404533Y-29774728D01*
X206419035Y-29799475D01*
X206446296Y-29843004D01*
X206483568Y-29901038D01*
X206528098Y-29969300D01*
X206577137Y-30043514D01*
X206585882Y-30056652D01*
X206646121Y-30145967D01*
X206694781Y-30214439D01*
X206734983Y-30264809D01*
X206769849Y-30299817D01*
X206802502Y-30322201D01*
X206836064Y-30334704D01*
X206873657Y-30340063D01*
X206909956Y-30341050D01*
X206957477Y-30338941D01*
X206997372Y-30330609D01*
X207033321Y-30313046D01*
X207069004Y-30283245D01*
X207108101Y-30238199D01*
X207154291Y-30174898D01*
X207204818Y-30100064D01*
X207248656Y-30034360D01*
X207287974Y-29976254D01*
X207319882Y-29929955D01*
X207341486Y-29899671D01*
X207349005Y-29890180D01*
X207367389Y-29882346D01*
X207408003Y-29870875D01*
X207465727Y-29857034D01*
X207535437Y-29842091D01*
X207575218Y-29834210D01*
X207786178Y-29793583D01*
X207917761Y-29924619D01*
X208049343Y-30055654D01*
X208049343Y-30258055D01*
X208049343Y-30460456D01*
X207642541Y-30692547D01*
X207235739Y-30924639D01*
X206836512Y-30924639D01*
X206437285Y-30924639D01*
X206131838Y-30771794D01*
X206033933Y-30723111D01*
X205957105Y-30685809D01*
X205897783Y-30658433D01*
X205852398Y-30639525D01*
X205817378Y-30627628D01*
X205789155Y-30621286D01*
X205764157Y-30619042D01*
X205757266Y-30618949D01*
X205674831Y-30629871D01*
X205610064Y-30661728D01*
X205564357Y-30713155D01*
X205539105Y-30782789D01*
X205534319Y-30837242D01*
X204547812Y-30837242D01*
X204547812Y-30480000D01*
X204547812Y-25477812D01*
X209550000Y-25477812D01*
X214552188Y-25477812D01*
X214552188Y-30480000D01*
G37*
G36*
X211444801Y-27329472D02*
G01*
X211433370Y-27367172D01*
X211414634Y-27426501D01*
X211389359Y-27505100D01*
X211358310Y-27600609D01*
X211322255Y-27710669D01*
X211281959Y-27832921D01*
X211238188Y-27965006D01*
X211203247Y-28069983D01*
X211157146Y-28208654D01*
X211113799Y-28339853D01*
X211073996Y-28461140D01*
X211038523Y-28570073D01*
X211008169Y-28664212D01*
X210983723Y-28741116D01*
X210965973Y-28798343D01*
X210955707Y-28833454D01*
X210953391Y-28843723D01*
X210955094Y-28862061D01*
X210961988Y-28877701D01*
X210976753Y-28891463D01*
X211002070Y-28904166D01*
X211040619Y-28916630D01*
X211095080Y-28929672D01*
X211168133Y-28944113D01*
X211262457Y-28960771D01*
X211380734Y-28980466D01*
X211423751Y-28987490D01*
X211843078Y-29055766D01*
X212075614Y-29346318D01*
X212137466Y-29423789D01*
X212193445Y-29494267D01*
X212241241Y-29554812D01*
X212278544Y-29602488D01*
X212303045Y-29634356D01*
X212312425Y-29647462D01*
X212307229Y-29662663D01*
X212290521Y-29693548D01*
X212266726Y-29733145D01*
X212240266Y-29774488D01*
X212215563Y-29810607D01*
X212197041Y-29834532D01*
X212190043Y-29840297D01*
X212180227Y-29829381D01*
X212158450Y-29799551D01*
X212127835Y-29755235D01*
X212091502Y-29700860D01*
X212087731Y-29695125D01*
X212049457Y-29638953D01*
X212014627Y-29591666D01*
X211986949Y-29558049D01*
X211970134Y-29542888D01*
X211969554Y-29542670D01*
X211940689Y-29535243D01*
X211890158Y-29524023D01*
X211822548Y-29509888D01*
X211742449Y-29493718D01*
X211654449Y-29476391D01*
X211563136Y-29458786D01*
X211473099Y-29441781D01*
X211388926Y-29426256D01*
X211315207Y-29413090D01*
X211256529Y-29403161D01*
X211217481Y-29397348D01*
X211204740Y-29396192D01*
X211187764Y-29397594D01*
X211170111Y-29403355D01*
X211148958Y-29415806D01*
X211121485Y-29437279D01*
X211084870Y-29470106D01*
X211036292Y-29516619D01*
X210972929Y-29579149D01*
X210922581Y-29629386D01*
X210689387Y-29862580D01*
X210689387Y-30265899D01*
X210689716Y-30392092D01*
X210690766Y-30492787D01*
X210692629Y-30570268D01*
X210695399Y-30626820D01*
X210699170Y-30664727D01*
X210704034Y-30686275D01*
X210706756Y-30691441D01*
X210722263Y-30702925D01*
X210759342Y-30726500D01*
X210815362Y-30760605D01*
X210887691Y-30803678D01*
X210973696Y-30854158D01*
X211070745Y-30910483D01*
X211176206Y-30971091D01*
X211226479Y-30999786D01*
X211728834Y-31285908D01*
X212258394Y-31285908D01*
X212787954Y-31285908D01*
X212955952Y-31201693D01*
X213017869Y-31171347D01*
X213070503Y-31146859D01*
X213109130Y-31130328D01*
X213129025Y-31123855D01*
X213130562Y-31124092D01*
X213131260Y-31140460D01*
X213126355Y-31177527D01*
X213117196Y-31229083D01*
X213105130Y-31288921D01*
X213091507Y-31350833D01*
X213077676Y-31408610D01*
X213064984Y-31456044D01*
X213054782Y-31486928D01*
X213049913Y-31495333D01*
X213031927Y-31501602D01*
X212991644Y-31513064D01*
X212933793Y-31528456D01*
X212863107Y-31546511D01*
X212800215Y-31562091D01*
X212565830Y-31619387D01*
X212283327Y-31619387D01*
X212176548Y-31619960D01*
X212095148Y-31621770D01*
X212036739Y-31624953D01*
X211998934Y-31629645D01*
X211979342Y-31635982D01*
X211978235Y-31636756D01*
X211967123Y-31653986D01*
X211947577Y-31693467D01*
X211921218Y-31751543D01*
X211889666Y-31824556D01*
X211854542Y-31908851D01*
X211822519Y-31988071D01*
X211689393Y-32322017D01*
X211199825Y-32391025D01*
X211063984Y-32410300D01*
X210953141Y-32426543D01*
X210864758Y-32440470D01*
X210796296Y-32452794D01*
X210745218Y-32464231D01*
X210708986Y-32475495D01*
X210685061Y-32487301D01*
X210670905Y-32500364D01*
X210663979Y-32515398D01*
X210661747Y-32533117D01*
X210661597Y-32542572D01*
X210661746Y-32550374D01*
X210662998Y-32558510D01*
X210666559Y-32568596D01*
X210673636Y-32582246D01*
X210685437Y-32601076D01*
X210703169Y-32626702D01*
X210728038Y-32660738D01*
X210761251Y-32704801D01*
X210804016Y-32760505D01*
X210857538Y-32829466D01*
X210923026Y-32913300D01*
X211001686Y-33013621D01*
X211094726Y-33132045D01*
X211203351Y-33270188D01*
X211241268Y-33318400D01*
X211325923Y-33426156D01*
X211405136Y-33527208D01*
X211477284Y-33619472D01*
X211540748Y-33700865D01*
X211593908Y-33769305D01*
X211635142Y-33822710D01*
X211662832Y-33858995D01*
X211675357Y-33876080D01*
X211675930Y-33877119D01*
X211665057Y-33870215D01*
X211633718Y-33848235D01*
X211583833Y-33812569D01*
X211517319Y-33764609D01*
X211436097Y-33705745D01*
X211342085Y-33637368D01*
X211237202Y-33560870D01*
X211123368Y-33477641D01*
X211002501Y-33389072D01*
X210993534Y-33382494D01*
X210871120Y-33292824D01*
X210754704Y-33207825D01*
X210646327Y-33128971D01*
X210548029Y-33057731D01*
X210461851Y-32995577D01*
X210389832Y-32943980D01*
X210334013Y-32904413D01*
X210296434Y-32878345D01*
X210279134Y-32867248D01*
X210278968Y-32867170D01*
X210255544Y-32859001D01*
X210232904Y-32858440D01*
X210208438Y-32867665D01*
X210179535Y-32888851D01*
X210143585Y-32924175D01*
X210097975Y-32975813D01*
X210040096Y-33045942D01*
X209990592Y-33107563D01*
X209800109Y-33346119D01*
X209800109Y-32442060D01*
X209800124Y-32256732D01*
X209800063Y-32097254D01*
X209799770Y-31961688D01*
X209799384Y-31897140D01*
X210191336Y-31897140D01*
X210270148Y-31920057D01*
X210427723Y-31965769D01*
X210577106Y-32008899D01*
X210716129Y-32048831D01*
X210842623Y-32084954D01*
X210954419Y-32116653D01*
X211049347Y-32143314D01*
X211125240Y-32164324D01*
X211179928Y-32179069D01*
X211211241Y-32186936D01*
X211217564Y-32188104D01*
X211233166Y-32178932D01*
X211265036Y-32152719D01*
X211310036Y-32112315D01*
X211365027Y-32060569D01*
X211426871Y-32000331D01*
X211452734Y-31974586D01*
X211523835Y-31902924D01*
X211577021Y-31848029D01*
X211614389Y-31807391D01*
X211638035Y-31778494D01*
X211650059Y-31758827D01*
X211652556Y-31745877D01*
X211649373Y-31738980D01*
X211638822Y-31715131D01*
X211640816Y-31703365D01*
X211646054Y-31689888D01*
X211644885Y-31688862D01*
X211630749Y-31685934D01*
X211592194Y-31677551D01*
X211531922Y-31664308D01*
X211452638Y-31646804D01*
X211357043Y-31625637D01*
X211247842Y-31601403D01*
X211127737Y-31574702D01*
X211015317Y-31549670D01*
X210887257Y-31521306D01*
X210767190Y-31495042D01*
X210657904Y-31471463D01*
X210562184Y-31451157D01*
X210482817Y-31434707D01*
X210422588Y-31422701D01*
X210384285Y-31415725D01*
X210371003Y-31414194D01*
X210359375Y-31428627D01*
X210341067Y-31467247D01*
X210317107Y-31527539D01*
X210288525Y-31606991D01*
X210271348Y-31657525D01*
X210191336Y-31897140D01*
X209799384Y-31897140D01*
X209799090Y-31848096D01*
X209797865Y-31754538D01*
X209795939Y-31679076D01*
X209793157Y-31619771D01*
X209789361Y-31574684D01*
X209784395Y-31541876D01*
X209778103Y-31519409D01*
X209770329Y-31505343D01*
X209760916Y-31497740D01*
X209749709Y-31494661D01*
X209736549Y-31494168D01*
X209723687Y-31494332D01*
X209698813Y-31497701D01*
X209677419Y-31510683D01*
X209655804Y-31537588D01*
X209630267Y-31582728D01*
X209606369Y-31631034D01*
X209583013Y-31677544D01*
X209563598Y-31712434D01*
X209551528Y-31729690D01*
X209550000Y-31730547D01*
X209540432Y-31718934D01*
X209522620Y-31688104D01*
X209499971Y-31644071D01*
X209493630Y-31631034D01*
X209462738Y-31569423D01*
X209438536Y-31529274D01*
X209417324Y-31506277D01*
X209395403Y-31496119D01*
X209376313Y-31494332D01*
X209361368Y-31494153D01*
X209348508Y-31494908D01*
X209337577Y-31498535D01*
X209328417Y-31506975D01*
X209320873Y-31522165D01*
X209314788Y-31546044D01*
X209310005Y-31580551D01*
X209306370Y-31627625D01*
X209303724Y-31689205D01*
X209301912Y-31767230D01*
X209300778Y-31863638D01*
X209300165Y-31980368D01*
X209299917Y-32119359D01*
X209299877Y-32282550D01*
X209299890Y-32442060D01*
X209299890Y-33346119D01*
X209109407Y-33107563D01*
X209041327Y-33023115D01*
X208987354Y-32958689D01*
X208944878Y-32912110D01*
X208911287Y-32881200D01*
X208883970Y-32863784D01*
X208860317Y-32857684D01*
X208837717Y-32860725D01*
X208821031Y-32867170D01*
X208804303Y-32877845D01*
X208767241Y-32903531D01*
X208711884Y-32942756D01*
X208640273Y-32994049D01*
X208554448Y-33055939D01*
X208456449Y-33126955D01*
X208348316Y-33205624D01*
X208232089Y-33290477D01*
X208109808Y-33380041D01*
X208106465Y-33382494D01*
X207985164Y-33471395D01*
X207870757Y-33555057D01*
X207765162Y-33632089D01*
X207670299Y-33701100D01*
X207588087Y-33760699D01*
X207520445Y-33809495D01*
X207469291Y-33846097D01*
X207436546Y-33869114D01*
X207424128Y-33877155D01*
X207424070Y-33877119D01*
X207432402Y-33865347D01*
X207456320Y-33833835D01*
X207494202Y-33784665D01*
X207544428Y-33719919D01*
X207605379Y-33641681D01*
X207675433Y-33552033D01*
X207752971Y-33453057D01*
X207836373Y-33346838D01*
X207858732Y-33318400D01*
X207972555Y-33173663D01*
X208070408Y-33049157D01*
X208153500Y-32943267D01*
X208223036Y-32854377D01*
X208280225Y-32780872D01*
X208326272Y-32721137D01*
X208362385Y-32673555D01*
X208389770Y-32636513D01*
X208409636Y-32608394D01*
X208423188Y-32587582D01*
X208431633Y-32572464D01*
X208436179Y-32561422D01*
X208438033Y-32552843D01*
X208438401Y-32545109D01*
X208438402Y-32542572D01*
X208437498Y-32523344D01*
X208433094Y-32507137D01*
X208422651Y-32493238D01*
X208403631Y-32480930D01*
X208373496Y-32469501D01*
X208329708Y-32458234D01*
X208269729Y-32446415D01*
X208191021Y-32433330D01*
X208091045Y-32418264D01*
X207967263Y-32400503D01*
X207900174Y-32391025D01*
X207410606Y-32322017D01*
X207277480Y-31988071D01*
X207240574Y-31896965D01*
X207205837Y-31813978D01*
X207177387Y-31748507D01*
X207447286Y-31748507D01*
X207451879Y-31762840D01*
X207466500Y-31784493D01*
X207493249Y-31815979D01*
X207534222Y-31859810D01*
X207591516Y-31918499D01*
X207647265Y-31974586D01*
X207710576Y-32037369D01*
X207767773Y-32092899D01*
X207815821Y-32138326D01*
X207851684Y-32170802D01*
X207872329Y-32187474D01*
X207875675Y-32189081D01*
X207892108Y-32185395D01*
X207931900Y-32174955D01*
X207991704Y-32158684D01*
X208068172Y-32137505D01*
X208157954Y-32112342D01*
X208257703Y-32084120D01*
X208306587Y-32070200D01*
X208414570Y-32039364D01*
X208518331Y-32009683D01*
X208613645Y-31982371D01*
X208696284Y-31958639D01*
X208762024Y-31939700D01*
X208806639Y-31926767D01*
X208815898Y-31924055D01*
X208908547Y-31896790D01*
X208828593Y-31657350D01*
X208797936Y-31568545D01*
X208771337Y-31497525D01*
X208749827Y-31446804D01*
X208734435Y-31418898D01*
X208728997Y-31414194D01*
X208711784Y-31416375D01*
X208670249Y-31424090D01*
X208607179Y-31436752D01*
X208525359Y-31453776D01*
X208427576Y-31474575D01*
X208316616Y-31498563D01*
X208195265Y-31525156D01*
X208084682Y-31549670D01*
X207957226Y-31578047D01*
X207838297Y-31604481D01*
X207730600Y-31628375D01*
X207636837Y-31649131D01*
X207559712Y-31666150D01*
X207501927Y-31678836D01*
X207466185Y-31686591D01*
X207455115Y-31688862D01*
X207456227Y-31698021D01*
X207459183Y-31703365D01*
X207458890Y-31724655D01*
X207450626Y-31738980D01*
X207447286Y-31748507D01*
X207177387Y-31748507D01*
X207174891Y-31742764D01*
X207149355Y-31686982D01*
X207130851Y-31650286D01*
X207121764Y-31636756D01*
X207103963Y-31630237D01*
X207068200Y-31625377D01*
X207012087Y-31622040D01*
X206933237Y-31620091D01*
X206829259Y-31619393D01*
X206816672Y-31619387D01*
X206534170Y-31619387D01*
X206299784Y-31562091D01*
X206222213Y-31542813D01*
X206153675Y-31525181D01*
X206098904Y-31510462D01*
X206062628Y-31499920D01*
X206050086Y-31495333D01*
X206042376Y-31479422D01*
X206031249Y-31442695D01*
X206018056Y-31391358D01*
X206004145Y-31331621D01*
X205990864Y-31269690D01*
X205979563Y-31211775D01*
X205971589Y-31164084D01*
X205968292Y-31132824D01*
X205969438Y-31124092D01*
X205983564Y-31127541D01*
X206017676Y-31141605D01*
X206067050Y-31164185D01*
X206126963Y-31193180D01*
X206144048Y-31201693D01*
X206312045Y-31285908D01*
X206841605Y-31285908D01*
X207371165Y-31285908D01*
X207873520Y-30999786D01*
X207981949Y-30937741D01*
X208083168Y-30879265D01*
X208174547Y-30825920D01*
X208253451Y-30779269D01*
X208317250Y-30740872D01*
X208363311Y-30712292D01*
X208389002Y-30695089D01*
X208393244Y-30691441D01*
X208398660Y-30676868D01*
X208402938Y-30647020D01*
X208406172Y-30599614D01*
X208408455Y-30532365D01*
X208409880Y-30442988D01*
X208410540Y-30329198D01*
X208410612Y-30265899D01*
X208410612Y-29862580D01*
X208177419Y-29629386D01*
X208102955Y-29555217D01*
X208045106Y-29498578D01*
X208001051Y-29457137D01*
X207967969Y-29428563D01*
X207943037Y-29410525D01*
X207923434Y-29400689D01*
X207906340Y-29396725D01*
X207895259Y-29396192D01*
X207871566Y-29398831D01*
X207825235Y-29406162D01*
X207760856Y-29417306D01*
X207683016Y-29431384D01*
X207596305Y-29447518D01*
X207505310Y-29464829D01*
X207414621Y-29482437D01*
X207328825Y-29499465D01*
X207252511Y-29515033D01*
X207190269Y-29528263D01*
X207146685Y-29538275D01*
X207130446Y-29542670D01*
X207114396Y-29556578D01*
X207087263Y-29589227D01*
X207052756Y-29635832D01*
X207014583Y-29691608D01*
X207012268Y-29695125D01*
X206975541Y-29750251D01*
X206944224Y-29795756D01*
X206921438Y-29827210D01*
X206910304Y-29840186D01*
X206909956Y-29840297D01*
X206898560Y-29829354D01*
X206877824Y-29801238D01*
X206852169Y-29762918D01*
X206826018Y-29721363D01*
X206803794Y-29683541D01*
X206789921Y-29656422D01*
X206787574Y-29647462D01*
X206797070Y-29634204D01*
X206821662Y-29602221D01*
X206859043Y-29554451D01*
X206906900Y-29493830D01*
X206962925Y-29423297D01*
X207024385Y-29346318D01*
X207256921Y-29055766D01*
X207676249Y-28987490D01*
X207802695Y-28966659D01*
X207904337Y-28949125D01*
X207983856Y-28934069D01*
X208043932Y-28920671D01*
X208087245Y-28908112D01*
X208116475Y-28895574D01*
X208134302Y-28882237D01*
X208143406Y-28867282D01*
X208146467Y-28849890D01*
X208146608Y-28843723D01*
X208142315Y-28826335D01*
X208129961Y-28785045D01*
X208110336Y-28722294D01*
X208084226Y-28640521D01*
X208052420Y-28542169D01*
X208015707Y-28429679D01*
X207974874Y-28305490D01*
X207930710Y-28172044D01*
X207896752Y-28069983D01*
X207850862Y-27932028D01*
X207807868Y-27802123D01*
X207768535Y-27682625D01*
X207733630Y-27575895D01*
X207703918Y-27484291D01*
X207680166Y-27410172D01*
X207663140Y-27355898D01*
X207653607Y-27323829D01*
X207651839Y-27315760D01*
X207659522Y-27326776D01*
X207680723Y-27360137D01*
X207714568Y-27414415D01*
X207760183Y-27488182D01*
X207816694Y-27580010D01*
X207883227Y-27688472D01*
X207958908Y-27812138D01*
X208042863Y-27949582D01*
X208134219Y-28099374D01*
X208232100Y-28260089D01*
X208335634Y-28430296D01*
X208443946Y-28608569D01*
X208544242Y-28773827D01*
X208656734Y-28959089D01*
X208765695Y-29138173D01*
X208870210Y-29309595D01*
X208969364Y-29471869D01*
X209062241Y-29623508D01*
X209147927Y-29763028D01*
X209225506Y-29888943D01*
X209294064Y-29999766D01*
X209352684Y-30094013D01*
X209400453Y-30170197D01*
X209436454Y-30226833D01*
X209459773Y-30262434D01*
X209468940Y-30275049D01*
X209515966Y-30307164D01*
X209565577Y-30312224D01*
X209614011Y-30290229D01*
X209631060Y-30275049D01*
X209642876Y-30258499D01*
X209668153Y-30219651D01*
X209705976Y-30159993D01*
X209755428Y-30081008D01*
X209815595Y-29984184D01*
X209885563Y-29871005D01*
X209964415Y-29742958D01*
X210051236Y-29601527D01*
X210145112Y-29448200D01*
X210245127Y-29284461D01*
X210350366Y-29111797D01*
X210459915Y-28931693D01*
X210555757Y-28773827D01*
X210667605Y-28589546D01*
X210775457Y-28412051D01*
X210878440Y-28242772D01*
X210975678Y-28083135D01*
X211066299Y-27934570D01*
X211149428Y-27798504D01*
X211224191Y-27676364D01*
X211289715Y-27569579D01*
X211345125Y-27479578D01*
X211389547Y-27407787D01*
X211422107Y-27355634D01*
X211441932Y-27324549D01*
X211448160Y-27315760D01*
X211444801Y-27329472D01*
G37*
%TD*%
D18*
%TO.C,U1*%
X210820000Y-131445000D03*
D19*
X208280000Y-131445000D03*
X205740000Y-131445000D03*
X203200000Y-131445000D03*
X200660000Y-131445000D03*
X198120000Y-131445000D03*
X195580000Y-131445000D03*
X193040000Y-131445000D03*
X190500000Y-131445000D03*
X187960000Y-131445000D03*
X185420000Y-131445000D03*
X182880000Y-131445000D03*
X182880000Y-146685000D03*
X185420000Y-146685000D03*
X187960000Y-146685000D03*
X190500000Y-146685000D03*
X193040000Y-146685000D03*
X195580000Y-146685000D03*
X198120000Y-146685000D03*
X200660000Y-146685000D03*
X203200000Y-146685000D03*
X205740000Y-146685000D03*
X208280000Y-146685000D03*
X210820000Y-146685000D03*
%TD*%
M02*
