%TF.GenerationSoftware,KiCad,Pcbnew,8.0.6*%
%TF.CreationDate,2025-02-23T20:39:57-06:00*%
%TF.ProjectId,fullycustomcontrolle one handv3c,66756c6c-7963-4757-9374-6f6d636f6e74,rev?*%
%TF.SameCoordinates,Original*%
%TF.FileFunction,Drillmap*%
%TF.FilePolarity,Positive*%
%FSLAX45Y45*%
G04 Gerber Fmt 4.5, Leading zero omitted, Abs format (unit mm)*
G04 Created by KiCad (PCBNEW 8.0.6) date 2025-02-23 20:39:57*
%MOMM*%
%LPD*%
G01*
G04 APERTURE LIST*
%ADD10C,0.050000*%
%ADD11C,0.200000*%
%ADD12C,0.100000*%
%ADD13C,0.101600*%
%ADD14C,0.109220*%
%ADD15C,0.130000*%
G04 APERTURE END LIST*
D10*
X17780000Y-2313500D02*
X21590000Y-2313500D01*
X21590000Y-14986000D01*
X17780000Y-14986000D01*
X17780000Y-2313500D01*
D11*
D12*
X17848830Y-12510090D02*
X17878830Y-12540090D01*
X17878830Y-12510090D02*
X17848830Y-12540090D01*
X18232420Y-7784570D02*
X18262420Y-7814570D01*
X18262420Y-7784570D02*
X18232420Y-7814570D01*
X18399750Y-5000100D02*
X18429750Y-5030100D01*
X18429750Y-5000100D02*
X18399750Y-5030100D01*
X18654000Y-6405360D02*
X18684000Y-6435360D01*
X18684000Y-6405360D02*
X18654000Y-6435360D01*
X18957170Y-8918860D02*
X18987170Y-8948860D01*
X18987170Y-8918860D02*
X18957170Y-8948860D01*
X19666680Y-11018710D02*
X19696680Y-11048710D01*
X19696680Y-11018710D02*
X19666680Y-11048710D01*
X19755260Y-2918520D02*
X19785260Y-2948520D01*
X19785260Y-2918520D02*
X19755260Y-2948520D01*
X19929080Y-14841840D02*
X19959080Y-14871840D01*
X19959080Y-14841840D02*
X19929080Y-14871840D01*
X18357000Y-12778500D02*
G75*
G02*
X18277000Y-12778500I-40000J0D01*
G01*
X18277000Y-12778500D02*
G75*
G02*
X18357000Y-12778500I40000J0D01*
G01*
X18611000Y-12778500D02*
G75*
G02*
X18531000Y-12778500I-40000J0D01*
G01*
X18531000Y-12778500D02*
G75*
G02*
X18611000Y-12778500I40000J0D01*
G01*
X18865000Y-12778500D02*
G75*
G02*
X18785000Y-12778500I-40000J0D01*
G01*
X18785000Y-12778500D02*
G75*
G02*
X18865000Y-12778500I40000J0D01*
G01*
X19119000Y-12778500D02*
G75*
G02*
X19039000Y-12778500I-40000J0D01*
G01*
X19039000Y-12778500D02*
G75*
G02*
X19119000Y-12778500I40000J0D01*
G01*
X19373000Y-12778500D02*
G75*
G02*
X19293000Y-12778500I-40000J0D01*
G01*
X19293000Y-12778500D02*
G75*
G02*
X19373000Y-12778500I40000J0D01*
G01*
X19627000Y-12778500D02*
G75*
G02*
X19547000Y-12778500I-40000J0D01*
G01*
X19547000Y-12778500D02*
G75*
G02*
X19627000Y-12778500I40000J0D01*
G01*
X19881000Y-12778500D02*
G75*
G02*
X19801000Y-12778500I-40000J0D01*
G01*
X19801000Y-12778500D02*
G75*
G02*
X19881000Y-12778500I40000J0D01*
G01*
X20135000Y-12778500D02*
G75*
G02*
X20055000Y-12778500I-40000J0D01*
G01*
X20055000Y-12778500D02*
G75*
G02*
X20135000Y-12778500I40000J0D01*
G01*
X20995000Y-11874500D02*
G75*
G02*
X20915000Y-11874500I-40000J0D01*
G01*
X20915000Y-11874500D02*
G75*
G02*
X20995000Y-11874500I40000J0D01*
G01*
X20995000Y-12128500D02*
G75*
G02*
X20915000Y-12128500I-40000J0D01*
G01*
X20915000Y-12128500D02*
G75*
G02*
X20995000Y-12128500I40000J0D01*
G01*
X20995000Y-12382500D02*
G75*
G02*
X20915000Y-12382500I-40000J0D01*
G01*
X20915000Y-12382500D02*
G75*
G02*
X20995000Y-12382500I40000J0D01*
G01*
X19113500Y-2617000D02*
X19113500Y-2717000D01*
X19063500Y-2667000D02*
X19163500Y-2667000D01*
X19367500Y-2617000D02*
X19367500Y-2717000D01*
X19317500Y-2667000D02*
X19417500Y-2667000D01*
X19621500Y-2617000D02*
X19621500Y-2717000D01*
X19571500Y-2667000D02*
X19671500Y-2667000D01*
X19875500Y-2617000D02*
X19875500Y-2717000D01*
X19825500Y-2667000D02*
X19925500Y-2667000D01*
X20129500Y-2617000D02*
X20129500Y-2717000D01*
X20079500Y-2667000D02*
X20179500Y-2667000D01*
X21000500Y-13671000D02*
X21000500Y-13771000D01*
X20950500Y-13721000D02*
X21050500Y-13721000D01*
X21000500Y-13925000D02*
X21000500Y-14025000D01*
X20950500Y-13975000D02*
X21050500Y-13975000D01*
X21000500Y-14170000D02*
X21000500Y-14270000D01*
X20950500Y-14220000D02*
X21050500Y-14220000D01*
D13*
X18387421Y-13434421D02*
X18387421Y-13362579D01*
X18315579Y-13362579D01*
X18315579Y-13434421D01*
X18387421Y-13434421D01*
X18387421Y-14450421D02*
X18387421Y-14378579D01*
X18315579Y-14378579D01*
X18315579Y-14450421D01*
X18387421Y-14450421D01*
X18641421Y-13434421D02*
X18641421Y-13362579D01*
X18569579Y-13362579D01*
X18569579Y-13434421D01*
X18641421Y-13434421D01*
X18641421Y-14450421D02*
X18641421Y-14378579D01*
X18569579Y-14378579D01*
X18569579Y-14450421D01*
X18641421Y-14450421D01*
X18895421Y-13434421D02*
X18895421Y-13362579D01*
X18823579Y-13362579D01*
X18823579Y-13434421D01*
X18895421Y-13434421D01*
X18895421Y-14450421D02*
X18895421Y-14378579D01*
X18823579Y-14378579D01*
X18823579Y-14450421D01*
X18895421Y-14450421D01*
X19149421Y-13434421D02*
X19149421Y-13362579D01*
X19077579Y-13362579D01*
X19077579Y-13434421D01*
X19149421Y-13434421D01*
X19149421Y-14450421D02*
X19149421Y-14378579D01*
X19077579Y-14378579D01*
X19077579Y-14450421D01*
X19149421Y-14450421D01*
X19403421Y-13434421D02*
X19403421Y-13362579D01*
X19331579Y-13362579D01*
X19331579Y-13434421D01*
X19403421Y-13434421D01*
X19403421Y-14450421D02*
X19403421Y-14378579D01*
X19331579Y-14378579D01*
X19331579Y-14450421D01*
X19403421Y-14450421D01*
X19657421Y-13434421D02*
X19657421Y-13362579D01*
X19585579Y-13362579D01*
X19585579Y-13434421D01*
X19657421Y-13434421D01*
X19657421Y-14450421D02*
X19657421Y-14378579D01*
X19585579Y-14378579D01*
X19585579Y-14450421D01*
X19657421Y-14450421D01*
D14*
X18288000Y-13199110D02*
X18342610Y-13144500D01*
X18288000Y-13089890D01*
X18233390Y-13144500D01*
X18288000Y-13199110D01*
X18288000Y-14723110D02*
X18342610Y-14668500D01*
X18288000Y-14613890D01*
X18233390Y-14668500D01*
X18288000Y-14723110D01*
X18542000Y-13199110D02*
X18596610Y-13144500D01*
X18542000Y-13089890D01*
X18487390Y-13144500D01*
X18542000Y-13199110D01*
X18542000Y-14723110D02*
X18596610Y-14668500D01*
X18542000Y-14613890D01*
X18487390Y-14668500D01*
X18542000Y-14723110D01*
X18796000Y-13199110D02*
X18850610Y-13144500D01*
X18796000Y-13089890D01*
X18741390Y-13144500D01*
X18796000Y-13199110D01*
X18796000Y-14723110D02*
X18850610Y-14668500D01*
X18796000Y-14613890D01*
X18741390Y-14668500D01*
X18796000Y-14723110D01*
X19050000Y-13199110D02*
X19104610Y-13144500D01*
X19050000Y-13089890D01*
X18995390Y-13144500D01*
X19050000Y-13199110D01*
X19050000Y-14723110D02*
X19104610Y-14668500D01*
X19050000Y-14613890D01*
X18995390Y-14668500D01*
X19050000Y-14723110D01*
X19304000Y-13199110D02*
X19358610Y-13144500D01*
X19304000Y-13089890D01*
X19249390Y-13144500D01*
X19304000Y-13199110D01*
X19304000Y-14723110D02*
X19358610Y-14668500D01*
X19304000Y-14613890D01*
X19249390Y-14668500D01*
X19304000Y-14723110D01*
X19558000Y-13199110D02*
X19612610Y-13144500D01*
X19558000Y-13089890D01*
X19503390Y-13144500D01*
X19558000Y-13199110D01*
X19558000Y-14723110D02*
X19612610Y-14668500D01*
X19558000Y-14613890D01*
X19503390Y-14668500D01*
X19558000Y-14723110D01*
X19812000Y-13199110D02*
X19866610Y-13144500D01*
X19812000Y-13089890D01*
X19757390Y-13144500D01*
X19812000Y-13199110D01*
X19812000Y-14723110D02*
X19866610Y-14668500D01*
X19812000Y-14613890D01*
X19757390Y-14668500D01*
X19812000Y-14723110D01*
X20066000Y-13199110D02*
X20120610Y-13144500D01*
X20066000Y-13089890D01*
X20011390Y-13144500D01*
X20066000Y-13199110D01*
X20066000Y-14723110D02*
X20120610Y-14668500D01*
X20066000Y-14613890D01*
X20011390Y-14668500D01*
X20066000Y-14723110D01*
X20320000Y-13199110D02*
X20374610Y-13144500D01*
X20320000Y-13089890D01*
X20265390Y-13144500D01*
X20320000Y-13199110D01*
X20320000Y-14723110D02*
X20374610Y-14668500D01*
X20320000Y-14613890D01*
X20265390Y-14668500D01*
X20320000Y-14723110D01*
X20574000Y-13199110D02*
X20628610Y-13144500D01*
X20574000Y-13089890D01*
X20519390Y-13144500D01*
X20574000Y-13199110D01*
X20574000Y-14723110D02*
X20628610Y-14668500D01*
X20574000Y-14613890D01*
X20519390Y-14668500D01*
X20574000Y-14723110D01*
X20828000Y-13199110D02*
X20882610Y-13144500D01*
X20828000Y-13089890D01*
X20773390Y-13144500D01*
X20828000Y-13199110D01*
X20828000Y-14723110D02*
X20882610Y-14668500D01*
X20828000Y-14613890D01*
X20773390Y-14668500D01*
X20828000Y-14723110D01*
X21082000Y-13199110D02*
X21136610Y-13144500D01*
X21082000Y-13089890D01*
X21027390Y-13144500D01*
X21082000Y-13199110D01*
X21082000Y-14723110D02*
X21136610Y-14668500D01*
X21082000Y-14613890D01*
X21027390Y-14668500D01*
X21082000Y-14723110D01*
D15*
X17989000Y-8515500D02*
X18119000Y-8645500D01*
X18119000Y-8515500D02*
X17989000Y-8645500D01*
X18119000Y-8580500D02*
G75*
G02*
X17989000Y-8580500I-65000J0D01*
G01*
X17989000Y-8580500D02*
G75*
G02*
X18119000Y-8580500I65000J0D01*
G01*
X17989000Y-9015500D02*
X18119000Y-9145500D01*
X18119000Y-9015500D02*
X17989000Y-9145500D01*
X18119000Y-9080500D02*
G75*
G02*
X17989000Y-9080500I-65000J0D01*
G01*
X17989000Y-9080500D02*
G75*
G02*
X18119000Y-9080500I65000J0D01*
G01*
X17989000Y-10166500D02*
X18119000Y-10296500D01*
X18119000Y-10166500D02*
X17989000Y-10296500D01*
X18119000Y-10231500D02*
G75*
G02*
X17989000Y-10231500I-65000J0D01*
G01*
X17989000Y-10231500D02*
G75*
G02*
X18119000Y-10231500I65000J0D01*
G01*
X17989000Y-10666500D02*
X18119000Y-10796500D01*
X18119000Y-10666500D02*
X17989000Y-10796500D01*
X18119000Y-10731500D02*
G75*
G02*
X17989000Y-10731500I-65000J0D01*
G01*
X17989000Y-10731500D02*
G75*
G02*
X18119000Y-10731500I65000J0D01*
G01*
X18032500Y-5459500D02*
X18162500Y-5589500D01*
X18162500Y-5459500D02*
X18032500Y-5589500D01*
X18162500Y-5524500D02*
G75*
G02*
X18032500Y-5524500I-65000J0D01*
G01*
X18032500Y-5524500D02*
G75*
G02*
X18162500Y-5524500I65000J0D01*
G01*
X18032500Y-5959500D02*
X18162500Y-6089500D01*
X18162500Y-5959500D02*
X18032500Y-6089500D01*
X18162500Y-6024500D02*
G75*
G02*
X18032500Y-6024500I-65000J0D01*
G01*
X18032500Y-6024500D02*
G75*
G02*
X18162500Y-6024500I65000J0D01*
G01*
X18941500Y-6928000D02*
X19071500Y-7058000D01*
X19071500Y-6928000D02*
X18941500Y-7058000D01*
X19071500Y-6993000D02*
G75*
G02*
X18941500Y-6993000I-65000J0D01*
G01*
X18941500Y-6993000D02*
G75*
G02*
X19071500Y-6993000I65000J0D01*
G01*
X18941500Y-7428000D02*
X19071500Y-7558000D01*
X19071500Y-7428000D02*
X18941500Y-7558000D01*
X19071500Y-7493000D02*
G75*
G02*
X18941500Y-7493000I-65000J0D01*
G01*
X18941500Y-7493000D02*
G75*
G02*
X19071500Y-7493000I65000J0D01*
G01*
X19005000Y-3999000D02*
X19135000Y-4129000D01*
X19135000Y-3999000D02*
X19005000Y-4129000D01*
X19135000Y-4064000D02*
G75*
G02*
X19005000Y-4064000I-65000J0D01*
G01*
X19005000Y-4064000D02*
G75*
G02*
X19135000Y-4064000I65000J0D01*
G01*
X19005000Y-4499000D02*
X19135000Y-4629000D01*
X19135000Y-4499000D02*
X19005000Y-4629000D01*
X19135000Y-4564000D02*
G75*
G02*
X19005000Y-4564000I-65000J0D01*
G01*
X19005000Y-4564000D02*
G75*
G02*
X19135000Y-4564000I65000J0D01*
G01*
X19239000Y-8515500D02*
X19369000Y-8645500D01*
X19369000Y-8515500D02*
X19239000Y-8645500D01*
X19369000Y-8580500D02*
G75*
G02*
X19239000Y-8580500I-65000J0D01*
G01*
X19239000Y-8580500D02*
G75*
G02*
X19369000Y-8580500I65000J0D01*
G01*
X19239000Y-9015500D02*
X19369000Y-9145500D01*
X19369000Y-9015500D02*
X19239000Y-9145500D01*
X19369000Y-9080500D02*
G75*
G02*
X19239000Y-9080500I-65000J0D01*
G01*
X19239000Y-9080500D02*
G75*
G02*
X19369000Y-9080500I65000J0D01*
G01*
X19239000Y-10166500D02*
X19369000Y-10296500D01*
X19369000Y-10166500D02*
X19239000Y-10296500D01*
X19369000Y-10231500D02*
G75*
G02*
X19239000Y-10231500I-65000J0D01*
G01*
X19239000Y-10231500D02*
G75*
G02*
X19369000Y-10231500I65000J0D01*
G01*
X19239000Y-10666500D02*
X19369000Y-10796500D01*
X19369000Y-10666500D02*
X19239000Y-10796500D01*
X19369000Y-10731500D02*
G75*
G02*
X19239000Y-10731500I-65000J0D01*
G01*
X19239000Y-10731500D02*
G75*
G02*
X19369000Y-10731500I65000J0D01*
G01*
X19282500Y-5459500D02*
X19412500Y-5589500D01*
X19412500Y-5459500D02*
X19282500Y-5589500D01*
X19412500Y-5524500D02*
G75*
G02*
X19282500Y-5524500I-65000J0D01*
G01*
X19282500Y-5524500D02*
G75*
G02*
X19412500Y-5524500I65000J0D01*
G01*
X19282500Y-5959500D02*
X19412500Y-6089500D01*
X19412500Y-5959500D02*
X19282500Y-6089500D01*
X19412500Y-6024500D02*
G75*
G02*
X19282500Y-6024500I-65000J0D01*
G01*
X19282500Y-6024500D02*
G75*
G02*
X19412500Y-6024500I65000J0D01*
G01*
X19957500Y-5459500D02*
X20087500Y-5589500D01*
X20087500Y-5459500D02*
X19957500Y-5589500D01*
X20087500Y-5524500D02*
G75*
G02*
X19957500Y-5524500I-65000J0D01*
G01*
X19957500Y-5524500D02*
G75*
G02*
X20087500Y-5524500I65000J0D01*
G01*
X19957500Y-5959500D02*
X20087500Y-6089500D01*
X20087500Y-5959500D02*
X19957500Y-6089500D01*
X20087500Y-6024500D02*
G75*
G02*
X19957500Y-6024500I-65000J0D01*
G01*
X19957500Y-6024500D02*
G75*
G02*
X20087500Y-6024500I65000J0D01*
G01*
X20001000Y-8515500D02*
X20131000Y-8645500D01*
X20131000Y-8515500D02*
X20001000Y-8645500D01*
X20131000Y-8580500D02*
G75*
G02*
X20001000Y-8580500I-65000J0D01*
G01*
X20001000Y-8580500D02*
G75*
G02*
X20131000Y-8580500I65000J0D01*
G01*
X20001000Y-9015500D02*
X20131000Y-9145500D01*
X20131000Y-9015500D02*
X20001000Y-9145500D01*
X20131000Y-9080500D02*
G75*
G02*
X20001000Y-9080500I-65000J0D01*
G01*
X20001000Y-9080500D02*
G75*
G02*
X20131000Y-9080500I65000J0D01*
G01*
X20011000Y-10162500D02*
X20141000Y-10292500D01*
X20141000Y-10162500D02*
X20011000Y-10292500D01*
X20141000Y-10227500D02*
G75*
G02*
X20011000Y-10227500I-65000J0D01*
G01*
X20011000Y-10227500D02*
G75*
G02*
X20141000Y-10227500I65000J0D01*
G01*
X20011000Y-10662500D02*
X20141000Y-10792500D01*
X20141000Y-10662500D02*
X20011000Y-10792500D01*
X20141000Y-10727500D02*
G75*
G02*
X20011000Y-10727500I-65000J0D01*
G01*
X20011000Y-10727500D02*
G75*
G02*
X20141000Y-10727500I65000J0D01*
G01*
X20191500Y-6928000D02*
X20321500Y-7058000D01*
X20321500Y-6928000D02*
X20191500Y-7058000D01*
X20321500Y-6993000D02*
G75*
G02*
X20191500Y-6993000I-65000J0D01*
G01*
X20191500Y-6993000D02*
G75*
G02*
X20321500Y-6993000I65000J0D01*
G01*
X20191500Y-7428000D02*
X20321500Y-7558000D01*
X20321500Y-7428000D02*
X20191500Y-7558000D01*
X20321500Y-7493000D02*
G75*
G02*
X20191500Y-7493000I-65000J0D01*
G01*
X20191500Y-7493000D02*
G75*
G02*
X20321500Y-7493000I65000J0D01*
G01*
X20255000Y-3999000D02*
X20385000Y-4129000D01*
X20385000Y-3999000D02*
X20255000Y-4129000D01*
X20385000Y-4064000D02*
G75*
G02*
X20255000Y-4064000I-65000J0D01*
G01*
X20255000Y-4064000D02*
G75*
G02*
X20385000Y-4064000I65000J0D01*
G01*
X20255000Y-4499000D02*
X20385000Y-4629000D01*
X20385000Y-4499000D02*
X20255000Y-4629000D01*
X20385000Y-4564000D02*
G75*
G02*
X20255000Y-4564000I-65000J0D01*
G01*
X20255000Y-4564000D02*
G75*
G02*
X20385000Y-4564000I65000J0D01*
G01*
X21207500Y-5459500D02*
X21337500Y-5589500D01*
X21337500Y-5459500D02*
X21207500Y-5589500D01*
X21337500Y-5524500D02*
G75*
G02*
X21207500Y-5524500I-65000J0D01*
G01*
X21207500Y-5524500D02*
G75*
G02*
X21337500Y-5524500I65000J0D01*
G01*
X21207500Y-5959500D02*
X21337500Y-6089500D01*
X21337500Y-5959500D02*
X21207500Y-6089500D01*
X21337500Y-6024500D02*
G75*
G02*
X21207500Y-6024500I-65000J0D01*
G01*
X21207500Y-6024500D02*
G75*
G02*
X21337500Y-6024500I65000J0D01*
G01*
X21251000Y-8515500D02*
X21381000Y-8645500D01*
X21381000Y-8515500D02*
X21251000Y-8645500D01*
X21381000Y-8580500D02*
G75*
G02*
X21251000Y-8580500I-65000J0D01*
G01*
X21251000Y-8580500D02*
G75*
G02*
X21381000Y-8580500I65000J0D01*
G01*
X21251000Y-9015500D02*
X21381000Y-9145500D01*
X21381000Y-9015500D02*
X21251000Y-9145500D01*
X21381000Y-9080500D02*
G75*
G02*
X21251000Y-9080500I-65000J0D01*
G01*
X21251000Y-9080500D02*
G75*
G02*
X21381000Y-9080500I65000J0D01*
G01*
X21261000Y-10162500D02*
X21391000Y-10292500D01*
X21391000Y-10162500D02*
X21261000Y-10292500D01*
X21391000Y-10227500D02*
G75*
G02*
X21261000Y-10227500I-65000J0D01*
G01*
X21261000Y-10227500D02*
G75*
G02*
X21391000Y-10227500I65000J0D01*
G01*
X21261000Y-10662500D02*
X21391000Y-10792500D01*
X21391000Y-10662500D02*
X21261000Y-10792500D01*
X21391000Y-10727500D02*
G75*
G02*
X21261000Y-10727500I-65000J0D01*
G01*
X21261000Y-10727500D02*
G75*
G02*
X21391000Y-10727500I65000J0D01*
G01*
D11*
X18038277Y-15299984D02*
X18038277Y-15099984D01*
X18038277Y-15099984D02*
X18085896Y-15099984D01*
X18085896Y-15099984D02*
X18114467Y-15109508D01*
X18114467Y-15109508D02*
X18133515Y-15128555D01*
X18133515Y-15128555D02*
X18143039Y-15147603D01*
X18143039Y-15147603D02*
X18152563Y-15185698D01*
X18152563Y-15185698D02*
X18152563Y-15214269D01*
X18152563Y-15214269D02*
X18143039Y-15252365D01*
X18143039Y-15252365D02*
X18133515Y-15271412D01*
X18133515Y-15271412D02*
X18114467Y-15290460D01*
X18114467Y-15290460D02*
X18085896Y-15299984D01*
X18085896Y-15299984D02*
X18038277Y-15299984D01*
X18238277Y-15299984D02*
X18238277Y-15166650D01*
X18238277Y-15204746D02*
X18247801Y-15185698D01*
X18247801Y-15185698D02*
X18257324Y-15176174D01*
X18257324Y-15176174D02*
X18276372Y-15166650D01*
X18276372Y-15166650D02*
X18295420Y-15166650D01*
X18362086Y-15299984D02*
X18362086Y-15166650D01*
X18362086Y-15099984D02*
X18352563Y-15109508D01*
X18352563Y-15109508D02*
X18362086Y-15119031D01*
X18362086Y-15119031D02*
X18371610Y-15109508D01*
X18371610Y-15109508D02*
X18362086Y-15099984D01*
X18362086Y-15099984D02*
X18362086Y-15119031D01*
X18485896Y-15299984D02*
X18466848Y-15290460D01*
X18466848Y-15290460D02*
X18457324Y-15271412D01*
X18457324Y-15271412D02*
X18457324Y-15099984D01*
X18590658Y-15299984D02*
X18571610Y-15290460D01*
X18571610Y-15290460D02*
X18562086Y-15271412D01*
X18562086Y-15271412D02*
X18562086Y-15099984D01*
X18819229Y-15299984D02*
X18819229Y-15099984D01*
X18819229Y-15099984D02*
X18885896Y-15242841D01*
X18885896Y-15242841D02*
X18952563Y-15099984D01*
X18952563Y-15099984D02*
X18952563Y-15299984D01*
X19133515Y-15299984D02*
X19133515Y-15195222D01*
X19133515Y-15195222D02*
X19123991Y-15176174D01*
X19123991Y-15176174D02*
X19104944Y-15166650D01*
X19104944Y-15166650D02*
X19066848Y-15166650D01*
X19066848Y-15166650D02*
X19047801Y-15176174D01*
X19133515Y-15290460D02*
X19114467Y-15299984D01*
X19114467Y-15299984D02*
X19066848Y-15299984D01*
X19066848Y-15299984D02*
X19047801Y-15290460D01*
X19047801Y-15290460D02*
X19038277Y-15271412D01*
X19038277Y-15271412D02*
X19038277Y-15252365D01*
X19038277Y-15252365D02*
X19047801Y-15233317D01*
X19047801Y-15233317D02*
X19066848Y-15223793D01*
X19066848Y-15223793D02*
X19114467Y-15223793D01*
X19114467Y-15223793D02*
X19133515Y-15214269D01*
X19228753Y-15166650D02*
X19228753Y-15366650D01*
X19228753Y-15176174D02*
X19247801Y-15166650D01*
X19247801Y-15166650D02*
X19285896Y-15166650D01*
X19285896Y-15166650D02*
X19304944Y-15176174D01*
X19304944Y-15176174D02*
X19314467Y-15185698D01*
X19314467Y-15185698D02*
X19323991Y-15204746D01*
X19323991Y-15204746D02*
X19323991Y-15261888D01*
X19323991Y-15261888D02*
X19314467Y-15280936D01*
X19314467Y-15280936D02*
X19304944Y-15290460D01*
X19304944Y-15290460D02*
X19285896Y-15299984D01*
X19285896Y-15299984D02*
X19247801Y-15299984D01*
X19247801Y-15299984D02*
X19228753Y-15290460D01*
X19409705Y-15280936D02*
X19419229Y-15290460D01*
X19419229Y-15290460D02*
X19409705Y-15299984D01*
X19409705Y-15299984D02*
X19400182Y-15290460D01*
X19400182Y-15290460D02*
X19409705Y-15280936D01*
X19409705Y-15280936D02*
X19409705Y-15299984D01*
X19409705Y-15176174D02*
X19419229Y-15185698D01*
X19419229Y-15185698D02*
X19409705Y-15195222D01*
X19409705Y-15195222D02*
X19400182Y-15185698D01*
X19400182Y-15185698D02*
X19409705Y-15176174D01*
X19409705Y-15176174D02*
X19409705Y-15195222D01*
D12*
X17747500Y-15613500D02*
X17777500Y-15643500D01*
X17777500Y-15613500D02*
X17747500Y-15643500D01*
D11*
X18076372Y-15519984D02*
X18095420Y-15519984D01*
X18095420Y-15519984D02*
X18114467Y-15529508D01*
X18114467Y-15529508D02*
X18123991Y-15539031D01*
X18123991Y-15539031D02*
X18133515Y-15558079D01*
X18133515Y-15558079D02*
X18143039Y-15596174D01*
X18143039Y-15596174D02*
X18143039Y-15643793D01*
X18143039Y-15643793D02*
X18133515Y-15681888D01*
X18133515Y-15681888D02*
X18123991Y-15700936D01*
X18123991Y-15700936D02*
X18114467Y-15710460D01*
X18114467Y-15710460D02*
X18095420Y-15719984D01*
X18095420Y-15719984D02*
X18076372Y-15719984D01*
X18076372Y-15719984D02*
X18057324Y-15710460D01*
X18057324Y-15710460D02*
X18047801Y-15700936D01*
X18047801Y-15700936D02*
X18038277Y-15681888D01*
X18038277Y-15681888D02*
X18028753Y-15643793D01*
X18028753Y-15643793D02*
X18028753Y-15596174D01*
X18028753Y-15596174D02*
X18038277Y-15558079D01*
X18038277Y-15558079D02*
X18047801Y-15539031D01*
X18047801Y-15539031D02*
X18057324Y-15529508D01*
X18057324Y-15529508D02*
X18076372Y-15519984D01*
X18228753Y-15700936D02*
X18238277Y-15710460D01*
X18238277Y-15710460D02*
X18228753Y-15719984D01*
X18228753Y-15719984D02*
X18219229Y-15710460D01*
X18219229Y-15710460D02*
X18228753Y-15700936D01*
X18228753Y-15700936D02*
X18228753Y-15719984D01*
X18304944Y-15519984D02*
X18428753Y-15519984D01*
X18428753Y-15519984D02*
X18362086Y-15596174D01*
X18362086Y-15596174D02*
X18390658Y-15596174D01*
X18390658Y-15596174D02*
X18409705Y-15605698D01*
X18409705Y-15605698D02*
X18419229Y-15615222D01*
X18419229Y-15615222D02*
X18428753Y-15634269D01*
X18428753Y-15634269D02*
X18428753Y-15681888D01*
X18428753Y-15681888D02*
X18419229Y-15700936D01*
X18419229Y-15700936D02*
X18409705Y-15710460D01*
X18409705Y-15710460D02*
X18390658Y-15719984D01*
X18390658Y-15719984D02*
X18333515Y-15719984D01*
X18333515Y-15719984D02*
X18314467Y-15710460D01*
X18314467Y-15710460D02*
X18304944Y-15700936D01*
X18552563Y-15519984D02*
X18571610Y-15519984D01*
X18571610Y-15519984D02*
X18590658Y-15529508D01*
X18590658Y-15529508D02*
X18600182Y-15539031D01*
X18600182Y-15539031D02*
X18609705Y-15558079D01*
X18609705Y-15558079D02*
X18619229Y-15596174D01*
X18619229Y-15596174D02*
X18619229Y-15643793D01*
X18619229Y-15643793D02*
X18609705Y-15681888D01*
X18609705Y-15681888D02*
X18600182Y-15700936D01*
X18600182Y-15700936D02*
X18590658Y-15710460D01*
X18590658Y-15710460D02*
X18571610Y-15719984D01*
X18571610Y-15719984D02*
X18552563Y-15719984D01*
X18552563Y-15719984D02*
X18533515Y-15710460D01*
X18533515Y-15710460D02*
X18523991Y-15700936D01*
X18523991Y-15700936D02*
X18514467Y-15681888D01*
X18514467Y-15681888D02*
X18504944Y-15643793D01*
X18504944Y-15643793D02*
X18504944Y-15596174D01*
X18504944Y-15596174D02*
X18514467Y-15558079D01*
X18514467Y-15558079D02*
X18523991Y-15539031D01*
X18523991Y-15539031D02*
X18533515Y-15529508D01*
X18533515Y-15529508D02*
X18552563Y-15519984D01*
X18743039Y-15519984D02*
X18762086Y-15519984D01*
X18762086Y-15519984D02*
X18781134Y-15529508D01*
X18781134Y-15529508D02*
X18790658Y-15539031D01*
X18790658Y-15539031D02*
X18800182Y-15558079D01*
X18800182Y-15558079D02*
X18809705Y-15596174D01*
X18809705Y-15596174D02*
X18809705Y-15643793D01*
X18809705Y-15643793D02*
X18800182Y-15681888D01*
X18800182Y-15681888D02*
X18790658Y-15700936D01*
X18790658Y-15700936D02*
X18781134Y-15710460D01*
X18781134Y-15710460D02*
X18762086Y-15719984D01*
X18762086Y-15719984D02*
X18743039Y-15719984D01*
X18743039Y-15719984D02*
X18723991Y-15710460D01*
X18723991Y-15710460D02*
X18714467Y-15700936D01*
X18714467Y-15700936D02*
X18704944Y-15681888D01*
X18704944Y-15681888D02*
X18695420Y-15643793D01*
X18695420Y-15643793D02*
X18695420Y-15596174D01*
X18695420Y-15596174D02*
X18704944Y-15558079D01*
X18704944Y-15558079D02*
X18714467Y-15539031D01*
X18714467Y-15539031D02*
X18723991Y-15529508D01*
X18723991Y-15529508D02*
X18743039Y-15519984D01*
X18895420Y-15719984D02*
X18895420Y-15586650D01*
X18895420Y-15605698D02*
X18904944Y-15596174D01*
X18904944Y-15596174D02*
X18923991Y-15586650D01*
X18923991Y-15586650D02*
X18952563Y-15586650D01*
X18952563Y-15586650D02*
X18971610Y-15596174D01*
X18971610Y-15596174D02*
X18981134Y-15615222D01*
X18981134Y-15615222D02*
X18981134Y-15719984D01*
X18981134Y-15615222D02*
X18990658Y-15596174D01*
X18990658Y-15596174D02*
X19009705Y-15586650D01*
X19009705Y-15586650D02*
X19038277Y-15586650D01*
X19038277Y-15586650D02*
X19057325Y-15596174D01*
X19057325Y-15596174D02*
X19066848Y-15615222D01*
X19066848Y-15615222D02*
X19066848Y-15719984D01*
X19162086Y-15719984D02*
X19162086Y-15586650D01*
X19162086Y-15605698D02*
X19171610Y-15596174D01*
X19171610Y-15596174D02*
X19190658Y-15586650D01*
X19190658Y-15586650D02*
X19219229Y-15586650D01*
X19219229Y-15586650D02*
X19238277Y-15596174D01*
X19238277Y-15596174D02*
X19247801Y-15615222D01*
X19247801Y-15615222D02*
X19247801Y-15719984D01*
X19247801Y-15615222D02*
X19257325Y-15596174D01*
X19257325Y-15596174D02*
X19276372Y-15586650D01*
X19276372Y-15586650D02*
X19304944Y-15586650D01*
X19304944Y-15586650D02*
X19323991Y-15596174D01*
X19323991Y-15596174D02*
X19333515Y-15615222D01*
X19333515Y-15615222D02*
X19333515Y-15719984D01*
X19723991Y-15510460D02*
X19552563Y-15767603D01*
X19981134Y-15519984D02*
X20000182Y-15519984D01*
X20000182Y-15519984D02*
X20019229Y-15529508D01*
X20019229Y-15529508D02*
X20028753Y-15539031D01*
X20028753Y-15539031D02*
X20038277Y-15558079D01*
X20038277Y-15558079D02*
X20047801Y-15596174D01*
X20047801Y-15596174D02*
X20047801Y-15643793D01*
X20047801Y-15643793D02*
X20038277Y-15681888D01*
X20038277Y-15681888D02*
X20028753Y-15700936D01*
X20028753Y-15700936D02*
X20019229Y-15710460D01*
X20019229Y-15710460D02*
X20000182Y-15719984D01*
X20000182Y-15719984D02*
X19981134Y-15719984D01*
X19981134Y-15719984D02*
X19962087Y-15710460D01*
X19962087Y-15710460D02*
X19952563Y-15700936D01*
X19952563Y-15700936D02*
X19943039Y-15681888D01*
X19943039Y-15681888D02*
X19933515Y-15643793D01*
X19933515Y-15643793D02*
X19933515Y-15596174D01*
X19933515Y-15596174D02*
X19943039Y-15558079D01*
X19943039Y-15558079D02*
X19952563Y-15539031D01*
X19952563Y-15539031D02*
X19962087Y-15529508D01*
X19962087Y-15529508D02*
X19981134Y-15519984D01*
X20133515Y-15700936D02*
X20143039Y-15710460D01*
X20143039Y-15710460D02*
X20133515Y-15719984D01*
X20133515Y-15719984D02*
X20123991Y-15710460D01*
X20123991Y-15710460D02*
X20133515Y-15700936D01*
X20133515Y-15700936D02*
X20133515Y-15719984D01*
X20266848Y-15519984D02*
X20285896Y-15519984D01*
X20285896Y-15519984D02*
X20304944Y-15529508D01*
X20304944Y-15529508D02*
X20314468Y-15539031D01*
X20314468Y-15539031D02*
X20323991Y-15558079D01*
X20323991Y-15558079D02*
X20333515Y-15596174D01*
X20333515Y-15596174D02*
X20333515Y-15643793D01*
X20333515Y-15643793D02*
X20323991Y-15681888D01*
X20323991Y-15681888D02*
X20314468Y-15700936D01*
X20314468Y-15700936D02*
X20304944Y-15710460D01*
X20304944Y-15710460D02*
X20285896Y-15719984D01*
X20285896Y-15719984D02*
X20266848Y-15719984D01*
X20266848Y-15719984D02*
X20247801Y-15710460D01*
X20247801Y-15710460D02*
X20238277Y-15700936D01*
X20238277Y-15700936D02*
X20228753Y-15681888D01*
X20228753Y-15681888D02*
X20219229Y-15643793D01*
X20219229Y-15643793D02*
X20219229Y-15596174D01*
X20219229Y-15596174D02*
X20228753Y-15558079D01*
X20228753Y-15558079D02*
X20238277Y-15539031D01*
X20238277Y-15539031D02*
X20247801Y-15529508D01*
X20247801Y-15529508D02*
X20266848Y-15519984D01*
X20523991Y-15719984D02*
X20409706Y-15719984D01*
X20466848Y-15719984D02*
X20466848Y-15519984D01*
X20466848Y-15519984D02*
X20447801Y-15548555D01*
X20447801Y-15548555D02*
X20428753Y-15567603D01*
X20428753Y-15567603D02*
X20409706Y-15577127D01*
X20714468Y-15719984D02*
X20600182Y-15719984D01*
X20657325Y-15719984D02*
X20657325Y-15519984D01*
X20657325Y-15519984D02*
X20638277Y-15548555D01*
X20638277Y-15548555D02*
X20619229Y-15567603D01*
X20619229Y-15567603D02*
X20600182Y-15577127D01*
X20828753Y-15605698D02*
X20809706Y-15596174D01*
X20809706Y-15596174D02*
X20800182Y-15586650D01*
X20800182Y-15586650D02*
X20790658Y-15567603D01*
X20790658Y-15567603D02*
X20790658Y-15558079D01*
X20790658Y-15558079D02*
X20800182Y-15539031D01*
X20800182Y-15539031D02*
X20809706Y-15529508D01*
X20809706Y-15529508D02*
X20828753Y-15519984D01*
X20828753Y-15519984D02*
X20866849Y-15519984D01*
X20866849Y-15519984D02*
X20885896Y-15529508D01*
X20885896Y-15529508D02*
X20895420Y-15539031D01*
X20895420Y-15539031D02*
X20904944Y-15558079D01*
X20904944Y-15558079D02*
X20904944Y-15567603D01*
X20904944Y-15567603D02*
X20895420Y-15586650D01*
X20895420Y-15586650D02*
X20885896Y-15596174D01*
X20885896Y-15596174D02*
X20866849Y-15605698D01*
X20866849Y-15605698D02*
X20828753Y-15605698D01*
X20828753Y-15605698D02*
X20809706Y-15615222D01*
X20809706Y-15615222D02*
X20800182Y-15624746D01*
X20800182Y-15624746D02*
X20790658Y-15643793D01*
X20790658Y-15643793D02*
X20790658Y-15681888D01*
X20790658Y-15681888D02*
X20800182Y-15700936D01*
X20800182Y-15700936D02*
X20809706Y-15710460D01*
X20809706Y-15710460D02*
X20828753Y-15719984D01*
X20828753Y-15719984D02*
X20866849Y-15719984D01*
X20866849Y-15719984D02*
X20885896Y-15710460D01*
X20885896Y-15710460D02*
X20895420Y-15700936D01*
X20895420Y-15700936D02*
X20904944Y-15681888D01*
X20904944Y-15681888D02*
X20904944Y-15643793D01*
X20904944Y-15643793D02*
X20895420Y-15624746D01*
X20895420Y-15624746D02*
X20885896Y-15615222D01*
X20885896Y-15615222D02*
X20866849Y-15605698D01*
X20981134Y-15519984D02*
X20981134Y-15558079D01*
X21057325Y-15519984D02*
X21057325Y-15558079D01*
X21352563Y-15796174D02*
X21343039Y-15786650D01*
X21343039Y-15786650D02*
X21323991Y-15758079D01*
X21323991Y-15758079D02*
X21314468Y-15739031D01*
X21314468Y-15739031D02*
X21304944Y-15710460D01*
X21304944Y-15710460D02*
X21295420Y-15662841D01*
X21295420Y-15662841D02*
X21295420Y-15624746D01*
X21295420Y-15624746D02*
X21304944Y-15577127D01*
X21304944Y-15577127D02*
X21314468Y-15548555D01*
X21314468Y-15548555D02*
X21323991Y-15529508D01*
X21323991Y-15529508D02*
X21343039Y-15500936D01*
X21343039Y-15500936D02*
X21352563Y-15491412D01*
X21457325Y-15605698D02*
X21438277Y-15596174D01*
X21438277Y-15596174D02*
X21428753Y-15586650D01*
X21428753Y-15586650D02*
X21419230Y-15567603D01*
X21419230Y-15567603D02*
X21419230Y-15558079D01*
X21419230Y-15558079D02*
X21428753Y-15539031D01*
X21428753Y-15539031D02*
X21438277Y-15529508D01*
X21438277Y-15529508D02*
X21457325Y-15519984D01*
X21457325Y-15519984D02*
X21495420Y-15519984D01*
X21495420Y-15519984D02*
X21514468Y-15529508D01*
X21514468Y-15529508D02*
X21523991Y-15539031D01*
X21523991Y-15539031D02*
X21533515Y-15558079D01*
X21533515Y-15558079D02*
X21533515Y-15567603D01*
X21533515Y-15567603D02*
X21523991Y-15586650D01*
X21523991Y-15586650D02*
X21514468Y-15596174D01*
X21514468Y-15596174D02*
X21495420Y-15605698D01*
X21495420Y-15605698D02*
X21457325Y-15605698D01*
X21457325Y-15605698D02*
X21438277Y-15615222D01*
X21438277Y-15615222D02*
X21428753Y-15624746D01*
X21428753Y-15624746D02*
X21419230Y-15643793D01*
X21419230Y-15643793D02*
X21419230Y-15681888D01*
X21419230Y-15681888D02*
X21428753Y-15700936D01*
X21428753Y-15700936D02*
X21438277Y-15710460D01*
X21438277Y-15710460D02*
X21457325Y-15719984D01*
X21457325Y-15719984D02*
X21495420Y-15719984D01*
X21495420Y-15719984D02*
X21514468Y-15710460D01*
X21514468Y-15710460D02*
X21523991Y-15700936D01*
X21523991Y-15700936D02*
X21533515Y-15681888D01*
X21533515Y-15681888D02*
X21533515Y-15643793D01*
X21533515Y-15643793D02*
X21523991Y-15624746D01*
X21523991Y-15624746D02*
X21514468Y-15615222D01*
X21514468Y-15615222D02*
X21495420Y-15605698D01*
X21771611Y-15719984D02*
X21771611Y-15519984D01*
X21857325Y-15719984D02*
X21857325Y-15615222D01*
X21857325Y-15615222D02*
X21847801Y-15596174D01*
X21847801Y-15596174D02*
X21828753Y-15586650D01*
X21828753Y-15586650D02*
X21800182Y-15586650D01*
X21800182Y-15586650D02*
X21781134Y-15596174D01*
X21781134Y-15596174D02*
X21771611Y-15605698D01*
X21981134Y-15719984D02*
X21962087Y-15710460D01*
X21962087Y-15710460D02*
X21952563Y-15700936D01*
X21952563Y-15700936D02*
X21943039Y-15681888D01*
X21943039Y-15681888D02*
X21943039Y-15624746D01*
X21943039Y-15624746D02*
X21952563Y-15605698D01*
X21952563Y-15605698D02*
X21962087Y-15596174D01*
X21962087Y-15596174D02*
X21981134Y-15586650D01*
X21981134Y-15586650D02*
X22009706Y-15586650D01*
X22009706Y-15586650D02*
X22028753Y-15596174D01*
X22028753Y-15596174D02*
X22038277Y-15605698D01*
X22038277Y-15605698D02*
X22047801Y-15624746D01*
X22047801Y-15624746D02*
X22047801Y-15681888D01*
X22047801Y-15681888D02*
X22038277Y-15700936D01*
X22038277Y-15700936D02*
X22028753Y-15710460D01*
X22028753Y-15710460D02*
X22009706Y-15719984D01*
X22009706Y-15719984D02*
X21981134Y-15719984D01*
X22162087Y-15719984D02*
X22143039Y-15710460D01*
X22143039Y-15710460D02*
X22133515Y-15691412D01*
X22133515Y-15691412D02*
X22133515Y-15519984D01*
X22314468Y-15710460D02*
X22295420Y-15719984D01*
X22295420Y-15719984D02*
X22257325Y-15719984D01*
X22257325Y-15719984D02*
X22238277Y-15710460D01*
X22238277Y-15710460D02*
X22228753Y-15691412D01*
X22228753Y-15691412D02*
X22228753Y-15615222D01*
X22228753Y-15615222D02*
X22238277Y-15596174D01*
X22238277Y-15596174D02*
X22257325Y-15586650D01*
X22257325Y-15586650D02*
X22295420Y-15586650D01*
X22295420Y-15586650D02*
X22314468Y-15596174D01*
X22314468Y-15596174D02*
X22323992Y-15615222D01*
X22323992Y-15615222D02*
X22323992Y-15634269D01*
X22323992Y-15634269D02*
X22228753Y-15653317D01*
X22400182Y-15710460D02*
X22419230Y-15719984D01*
X22419230Y-15719984D02*
X22457325Y-15719984D01*
X22457325Y-15719984D02*
X22476372Y-15710460D01*
X22476372Y-15710460D02*
X22485896Y-15691412D01*
X22485896Y-15691412D02*
X22485896Y-15681888D01*
X22485896Y-15681888D02*
X22476372Y-15662841D01*
X22476372Y-15662841D02*
X22457325Y-15653317D01*
X22457325Y-15653317D02*
X22428753Y-15653317D01*
X22428753Y-15653317D02*
X22409706Y-15643793D01*
X22409706Y-15643793D02*
X22400182Y-15624746D01*
X22400182Y-15624746D02*
X22400182Y-15615222D01*
X22400182Y-15615222D02*
X22409706Y-15596174D01*
X22409706Y-15596174D02*
X22428753Y-15586650D01*
X22428753Y-15586650D02*
X22457325Y-15586650D01*
X22457325Y-15586650D02*
X22476372Y-15596174D01*
X22552563Y-15796174D02*
X22562087Y-15786650D01*
X22562087Y-15786650D02*
X22581134Y-15758079D01*
X22581134Y-15758079D02*
X22590658Y-15739031D01*
X22590658Y-15739031D02*
X22600182Y-15710460D01*
X22600182Y-15710460D02*
X22609706Y-15662841D01*
X22609706Y-15662841D02*
X22609706Y-15624746D01*
X22609706Y-15624746D02*
X22600182Y-15577127D01*
X22600182Y-15577127D02*
X22590658Y-15548555D01*
X22590658Y-15548555D02*
X22581134Y-15529508D01*
X22581134Y-15529508D02*
X22562087Y-15500936D01*
X22562087Y-15500936D02*
X22552563Y-15491412D01*
D12*
X17777500Y-15892500D02*
G75*
G02*
X17697500Y-15892500I-40000J0D01*
G01*
X17697500Y-15892500D02*
G75*
G02*
X17777500Y-15892500I40000J0D01*
G01*
D11*
X18076372Y-15783984D02*
X18095420Y-15783984D01*
X18095420Y-15783984D02*
X18114467Y-15793508D01*
X18114467Y-15793508D02*
X18123991Y-15803031D01*
X18123991Y-15803031D02*
X18133515Y-15822079D01*
X18133515Y-15822079D02*
X18143039Y-15860174D01*
X18143039Y-15860174D02*
X18143039Y-15907793D01*
X18143039Y-15907793D02*
X18133515Y-15945888D01*
X18133515Y-15945888D02*
X18123991Y-15964936D01*
X18123991Y-15964936D02*
X18114467Y-15974460D01*
X18114467Y-15974460D02*
X18095420Y-15983984D01*
X18095420Y-15983984D02*
X18076372Y-15983984D01*
X18076372Y-15983984D02*
X18057324Y-15974460D01*
X18057324Y-15974460D02*
X18047801Y-15964936D01*
X18047801Y-15964936D02*
X18038277Y-15945888D01*
X18038277Y-15945888D02*
X18028753Y-15907793D01*
X18028753Y-15907793D02*
X18028753Y-15860174D01*
X18028753Y-15860174D02*
X18038277Y-15822079D01*
X18038277Y-15822079D02*
X18047801Y-15803031D01*
X18047801Y-15803031D02*
X18057324Y-15793508D01*
X18057324Y-15793508D02*
X18076372Y-15783984D01*
X18228753Y-15964936D02*
X18238277Y-15974460D01*
X18238277Y-15974460D02*
X18228753Y-15983984D01*
X18228753Y-15983984D02*
X18219229Y-15974460D01*
X18219229Y-15974460D02*
X18228753Y-15964936D01*
X18228753Y-15964936D02*
X18228753Y-15983984D01*
X18352563Y-15869698D02*
X18333515Y-15860174D01*
X18333515Y-15860174D02*
X18323991Y-15850650D01*
X18323991Y-15850650D02*
X18314467Y-15831603D01*
X18314467Y-15831603D02*
X18314467Y-15822079D01*
X18314467Y-15822079D02*
X18323991Y-15803031D01*
X18323991Y-15803031D02*
X18333515Y-15793508D01*
X18333515Y-15793508D02*
X18352563Y-15783984D01*
X18352563Y-15783984D02*
X18390658Y-15783984D01*
X18390658Y-15783984D02*
X18409705Y-15793508D01*
X18409705Y-15793508D02*
X18419229Y-15803031D01*
X18419229Y-15803031D02*
X18428753Y-15822079D01*
X18428753Y-15822079D02*
X18428753Y-15831603D01*
X18428753Y-15831603D02*
X18419229Y-15850650D01*
X18419229Y-15850650D02*
X18409705Y-15860174D01*
X18409705Y-15860174D02*
X18390658Y-15869698D01*
X18390658Y-15869698D02*
X18352563Y-15869698D01*
X18352563Y-15869698D02*
X18333515Y-15879222D01*
X18333515Y-15879222D02*
X18323991Y-15888746D01*
X18323991Y-15888746D02*
X18314467Y-15907793D01*
X18314467Y-15907793D02*
X18314467Y-15945888D01*
X18314467Y-15945888D02*
X18323991Y-15964936D01*
X18323991Y-15964936D02*
X18333515Y-15974460D01*
X18333515Y-15974460D02*
X18352563Y-15983984D01*
X18352563Y-15983984D02*
X18390658Y-15983984D01*
X18390658Y-15983984D02*
X18409705Y-15974460D01*
X18409705Y-15974460D02*
X18419229Y-15964936D01*
X18419229Y-15964936D02*
X18428753Y-15945888D01*
X18428753Y-15945888D02*
X18428753Y-15907793D01*
X18428753Y-15907793D02*
X18419229Y-15888746D01*
X18419229Y-15888746D02*
X18409705Y-15879222D01*
X18409705Y-15879222D02*
X18390658Y-15869698D01*
X18552563Y-15783984D02*
X18571610Y-15783984D01*
X18571610Y-15783984D02*
X18590658Y-15793508D01*
X18590658Y-15793508D02*
X18600182Y-15803031D01*
X18600182Y-15803031D02*
X18609705Y-15822079D01*
X18609705Y-15822079D02*
X18619229Y-15860174D01*
X18619229Y-15860174D02*
X18619229Y-15907793D01*
X18619229Y-15907793D02*
X18609705Y-15945888D01*
X18609705Y-15945888D02*
X18600182Y-15964936D01*
X18600182Y-15964936D02*
X18590658Y-15974460D01*
X18590658Y-15974460D02*
X18571610Y-15983984D01*
X18571610Y-15983984D02*
X18552563Y-15983984D01*
X18552563Y-15983984D02*
X18533515Y-15974460D01*
X18533515Y-15974460D02*
X18523991Y-15964936D01*
X18523991Y-15964936D02*
X18514467Y-15945888D01*
X18514467Y-15945888D02*
X18504944Y-15907793D01*
X18504944Y-15907793D02*
X18504944Y-15860174D01*
X18504944Y-15860174D02*
X18514467Y-15822079D01*
X18514467Y-15822079D02*
X18523991Y-15803031D01*
X18523991Y-15803031D02*
X18533515Y-15793508D01*
X18533515Y-15793508D02*
X18552563Y-15783984D01*
X18743039Y-15783984D02*
X18762086Y-15783984D01*
X18762086Y-15783984D02*
X18781134Y-15793508D01*
X18781134Y-15793508D02*
X18790658Y-15803031D01*
X18790658Y-15803031D02*
X18800182Y-15822079D01*
X18800182Y-15822079D02*
X18809705Y-15860174D01*
X18809705Y-15860174D02*
X18809705Y-15907793D01*
X18809705Y-15907793D02*
X18800182Y-15945888D01*
X18800182Y-15945888D02*
X18790658Y-15964936D01*
X18790658Y-15964936D02*
X18781134Y-15974460D01*
X18781134Y-15974460D02*
X18762086Y-15983984D01*
X18762086Y-15983984D02*
X18743039Y-15983984D01*
X18743039Y-15983984D02*
X18723991Y-15974460D01*
X18723991Y-15974460D02*
X18714467Y-15964936D01*
X18714467Y-15964936D02*
X18704944Y-15945888D01*
X18704944Y-15945888D02*
X18695420Y-15907793D01*
X18695420Y-15907793D02*
X18695420Y-15860174D01*
X18695420Y-15860174D02*
X18704944Y-15822079D01*
X18704944Y-15822079D02*
X18714467Y-15803031D01*
X18714467Y-15803031D02*
X18723991Y-15793508D01*
X18723991Y-15793508D02*
X18743039Y-15783984D01*
X18895420Y-15983984D02*
X18895420Y-15850650D01*
X18895420Y-15869698D02*
X18904944Y-15860174D01*
X18904944Y-15860174D02*
X18923991Y-15850650D01*
X18923991Y-15850650D02*
X18952563Y-15850650D01*
X18952563Y-15850650D02*
X18971610Y-15860174D01*
X18971610Y-15860174D02*
X18981134Y-15879222D01*
X18981134Y-15879222D02*
X18981134Y-15983984D01*
X18981134Y-15879222D02*
X18990658Y-15860174D01*
X18990658Y-15860174D02*
X19009705Y-15850650D01*
X19009705Y-15850650D02*
X19038277Y-15850650D01*
X19038277Y-15850650D02*
X19057325Y-15860174D01*
X19057325Y-15860174D02*
X19066848Y-15879222D01*
X19066848Y-15879222D02*
X19066848Y-15983984D01*
X19162086Y-15983984D02*
X19162086Y-15850650D01*
X19162086Y-15869698D02*
X19171610Y-15860174D01*
X19171610Y-15860174D02*
X19190658Y-15850650D01*
X19190658Y-15850650D02*
X19219229Y-15850650D01*
X19219229Y-15850650D02*
X19238277Y-15860174D01*
X19238277Y-15860174D02*
X19247801Y-15879222D01*
X19247801Y-15879222D02*
X19247801Y-15983984D01*
X19247801Y-15879222D02*
X19257325Y-15860174D01*
X19257325Y-15860174D02*
X19276372Y-15850650D01*
X19276372Y-15850650D02*
X19304944Y-15850650D01*
X19304944Y-15850650D02*
X19323991Y-15860174D01*
X19323991Y-15860174D02*
X19333515Y-15879222D01*
X19333515Y-15879222D02*
X19333515Y-15983984D01*
X19723991Y-15774460D02*
X19552563Y-16031603D01*
X19981134Y-15783984D02*
X20000182Y-15783984D01*
X20000182Y-15783984D02*
X20019229Y-15793508D01*
X20019229Y-15793508D02*
X20028753Y-15803031D01*
X20028753Y-15803031D02*
X20038277Y-15822079D01*
X20038277Y-15822079D02*
X20047801Y-15860174D01*
X20047801Y-15860174D02*
X20047801Y-15907793D01*
X20047801Y-15907793D02*
X20038277Y-15945888D01*
X20038277Y-15945888D02*
X20028753Y-15964936D01*
X20028753Y-15964936D02*
X20019229Y-15974460D01*
X20019229Y-15974460D02*
X20000182Y-15983984D01*
X20000182Y-15983984D02*
X19981134Y-15983984D01*
X19981134Y-15983984D02*
X19962087Y-15974460D01*
X19962087Y-15974460D02*
X19952563Y-15964936D01*
X19952563Y-15964936D02*
X19943039Y-15945888D01*
X19943039Y-15945888D02*
X19933515Y-15907793D01*
X19933515Y-15907793D02*
X19933515Y-15860174D01*
X19933515Y-15860174D02*
X19943039Y-15822079D01*
X19943039Y-15822079D02*
X19952563Y-15803031D01*
X19952563Y-15803031D02*
X19962087Y-15793508D01*
X19962087Y-15793508D02*
X19981134Y-15783984D01*
X20133515Y-15964936D02*
X20143039Y-15974460D01*
X20143039Y-15974460D02*
X20133515Y-15983984D01*
X20133515Y-15983984D02*
X20123991Y-15974460D01*
X20123991Y-15974460D02*
X20133515Y-15964936D01*
X20133515Y-15964936D02*
X20133515Y-15983984D01*
X20266848Y-15783984D02*
X20285896Y-15783984D01*
X20285896Y-15783984D02*
X20304944Y-15793508D01*
X20304944Y-15793508D02*
X20314468Y-15803031D01*
X20314468Y-15803031D02*
X20323991Y-15822079D01*
X20323991Y-15822079D02*
X20333515Y-15860174D01*
X20333515Y-15860174D02*
X20333515Y-15907793D01*
X20333515Y-15907793D02*
X20323991Y-15945888D01*
X20323991Y-15945888D02*
X20314468Y-15964936D01*
X20314468Y-15964936D02*
X20304944Y-15974460D01*
X20304944Y-15974460D02*
X20285896Y-15983984D01*
X20285896Y-15983984D02*
X20266848Y-15983984D01*
X20266848Y-15983984D02*
X20247801Y-15974460D01*
X20247801Y-15974460D02*
X20238277Y-15964936D01*
X20238277Y-15964936D02*
X20228753Y-15945888D01*
X20228753Y-15945888D02*
X20219229Y-15907793D01*
X20219229Y-15907793D02*
X20219229Y-15860174D01*
X20219229Y-15860174D02*
X20228753Y-15822079D01*
X20228753Y-15822079D02*
X20238277Y-15803031D01*
X20238277Y-15803031D02*
X20247801Y-15793508D01*
X20247801Y-15793508D02*
X20266848Y-15783984D01*
X20400182Y-15783984D02*
X20523991Y-15783984D01*
X20523991Y-15783984D02*
X20457325Y-15860174D01*
X20457325Y-15860174D02*
X20485896Y-15860174D01*
X20485896Y-15860174D02*
X20504944Y-15869698D01*
X20504944Y-15869698D02*
X20514468Y-15879222D01*
X20514468Y-15879222D02*
X20523991Y-15898269D01*
X20523991Y-15898269D02*
X20523991Y-15945888D01*
X20523991Y-15945888D02*
X20514468Y-15964936D01*
X20514468Y-15964936D02*
X20504944Y-15974460D01*
X20504944Y-15974460D02*
X20485896Y-15983984D01*
X20485896Y-15983984D02*
X20428753Y-15983984D01*
X20428753Y-15983984D02*
X20409706Y-15974460D01*
X20409706Y-15974460D02*
X20400182Y-15964936D01*
X20714468Y-15983984D02*
X20600182Y-15983984D01*
X20657325Y-15983984D02*
X20657325Y-15783984D01*
X20657325Y-15783984D02*
X20638277Y-15812555D01*
X20638277Y-15812555D02*
X20619229Y-15831603D01*
X20619229Y-15831603D02*
X20600182Y-15841127D01*
X20895420Y-15783984D02*
X20800182Y-15783984D01*
X20800182Y-15783984D02*
X20790658Y-15879222D01*
X20790658Y-15879222D02*
X20800182Y-15869698D01*
X20800182Y-15869698D02*
X20819229Y-15860174D01*
X20819229Y-15860174D02*
X20866849Y-15860174D01*
X20866849Y-15860174D02*
X20885896Y-15869698D01*
X20885896Y-15869698D02*
X20895420Y-15879222D01*
X20895420Y-15879222D02*
X20904944Y-15898269D01*
X20904944Y-15898269D02*
X20904944Y-15945888D01*
X20904944Y-15945888D02*
X20895420Y-15964936D01*
X20895420Y-15964936D02*
X20885896Y-15974460D01*
X20885896Y-15974460D02*
X20866849Y-15983984D01*
X20866849Y-15983984D02*
X20819229Y-15983984D01*
X20819229Y-15983984D02*
X20800182Y-15974460D01*
X20800182Y-15974460D02*
X20790658Y-15964936D01*
X20981134Y-15783984D02*
X20981134Y-15822079D01*
X21057325Y-15783984D02*
X21057325Y-15822079D01*
X21352563Y-16060174D02*
X21343039Y-16050650D01*
X21343039Y-16050650D02*
X21323991Y-16022079D01*
X21323991Y-16022079D02*
X21314468Y-16003031D01*
X21314468Y-16003031D02*
X21304944Y-15974460D01*
X21304944Y-15974460D02*
X21295420Y-15926841D01*
X21295420Y-15926841D02*
X21295420Y-15888746D01*
X21295420Y-15888746D02*
X21304944Y-15841127D01*
X21304944Y-15841127D02*
X21314468Y-15812555D01*
X21314468Y-15812555D02*
X21323991Y-15793508D01*
X21323991Y-15793508D02*
X21343039Y-15764936D01*
X21343039Y-15764936D02*
X21352563Y-15755412D01*
X21533515Y-15983984D02*
X21419230Y-15983984D01*
X21476372Y-15983984D02*
X21476372Y-15783984D01*
X21476372Y-15783984D02*
X21457325Y-15812555D01*
X21457325Y-15812555D02*
X21438277Y-15831603D01*
X21438277Y-15831603D02*
X21419230Y-15841127D01*
X21723991Y-15983984D02*
X21609706Y-15983984D01*
X21666849Y-15983984D02*
X21666849Y-15783984D01*
X21666849Y-15783984D02*
X21647801Y-15812555D01*
X21647801Y-15812555D02*
X21628753Y-15831603D01*
X21628753Y-15831603D02*
X21609706Y-15841127D01*
X21962087Y-15983984D02*
X21962087Y-15783984D01*
X22047801Y-15983984D02*
X22047801Y-15879222D01*
X22047801Y-15879222D02*
X22038277Y-15860174D01*
X22038277Y-15860174D02*
X22019230Y-15850650D01*
X22019230Y-15850650D02*
X21990658Y-15850650D01*
X21990658Y-15850650D02*
X21971611Y-15860174D01*
X21971611Y-15860174D02*
X21962087Y-15869698D01*
X22171611Y-15983984D02*
X22152563Y-15974460D01*
X22152563Y-15974460D02*
X22143039Y-15964936D01*
X22143039Y-15964936D02*
X22133515Y-15945888D01*
X22133515Y-15945888D02*
X22133515Y-15888746D01*
X22133515Y-15888746D02*
X22143039Y-15869698D01*
X22143039Y-15869698D02*
X22152563Y-15860174D01*
X22152563Y-15860174D02*
X22171611Y-15850650D01*
X22171611Y-15850650D02*
X22200182Y-15850650D01*
X22200182Y-15850650D02*
X22219230Y-15860174D01*
X22219230Y-15860174D02*
X22228753Y-15869698D01*
X22228753Y-15869698D02*
X22238277Y-15888746D01*
X22238277Y-15888746D02*
X22238277Y-15945888D01*
X22238277Y-15945888D02*
X22228753Y-15964936D01*
X22228753Y-15964936D02*
X22219230Y-15974460D01*
X22219230Y-15974460D02*
X22200182Y-15983984D01*
X22200182Y-15983984D02*
X22171611Y-15983984D01*
X22352563Y-15983984D02*
X22333515Y-15974460D01*
X22333515Y-15974460D02*
X22323992Y-15955412D01*
X22323992Y-15955412D02*
X22323992Y-15783984D01*
X22504944Y-15974460D02*
X22485896Y-15983984D01*
X22485896Y-15983984D02*
X22447801Y-15983984D01*
X22447801Y-15983984D02*
X22428753Y-15974460D01*
X22428753Y-15974460D02*
X22419230Y-15955412D01*
X22419230Y-15955412D02*
X22419230Y-15879222D01*
X22419230Y-15879222D02*
X22428753Y-15860174D01*
X22428753Y-15860174D02*
X22447801Y-15850650D01*
X22447801Y-15850650D02*
X22485896Y-15850650D01*
X22485896Y-15850650D02*
X22504944Y-15860174D01*
X22504944Y-15860174D02*
X22514468Y-15879222D01*
X22514468Y-15879222D02*
X22514468Y-15898269D01*
X22514468Y-15898269D02*
X22419230Y-15917317D01*
X22590658Y-15974460D02*
X22609706Y-15983984D01*
X22609706Y-15983984D02*
X22647801Y-15983984D01*
X22647801Y-15983984D02*
X22666849Y-15974460D01*
X22666849Y-15974460D02*
X22676372Y-15955412D01*
X22676372Y-15955412D02*
X22676372Y-15945888D01*
X22676372Y-15945888D02*
X22666849Y-15926841D01*
X22666849Y-15926841D02*
X22647801Y-15917317D01*
X22647801Y-15917317D02*
X22619230Y-15917317D01*
X22619230Y-15917317D02*
X22600182Y-15907793D01*
X22600182Y-15907793D02*
X22590658Y-15888746D01*
X22590658Y-15888746D02*
X22590658Y-15879222D01*
X22590658Y-15879222D02*
X22600182Y-15860174D01*
X22600182Y-15860174D02*
X22619230Y-15850650D01*
X22619230Y-15850650D02*
X22647801Y-15850650D01*
X22647801Y-15850650D02*
X22666849Y-15860174D01*
X22743039Y-16060174D02*
X22752563Y-16050650D01*
X22752563Y-16050650D02*
X22771611Y-16022079D01*
X22771611Y-16022079D02*
X22781134Y-16003031D01*
X22781134Y-16003031D02*
X22790658Y-15974460D01*
X22790658Y-15974460D02*
X22800182Y-15926841D01*
X22800182Y-15926841D02*
X22800182Y-15888746D01*
X22800182Y-15888746D02*
X22790658Y-15841127D01*
X22790658Y-15841127D02*
X22781134Y-15812555D01*
X22781134Y-15812555D02*
X22771611Y-15793508D01*
X22771611Y-15793508D02*
X22752563Y-15764936D01*
X22752563Y-15764936D02*
X22743039Y-15755412D01*
D12*
X17727500Y-16106500D02*
X17727500Y-16206500D01*
X17677500Y-16156500D02*
X17777500Y-16156500D01*
D11*
X18143039Y-16247984D02*
X18028753Y-16247984D01*
X18085896Y-16247984D02*
X18085896Y-16047984D01*
X18085896Y-16047984D02*
X18066848Y-16076555D01*
X18066848Y-16076555D02*
X18047801Y-16095603D01*
X18047801Y-16095603D02*
X18028753Y-16105127D01*
X18228753Y-16228936D02*
X18238277Y-16238460D01*
X18238277Y-16238460D02*
X18228753Y-16247984D01*
X18228753Y-16247984D02*
X18219229Y-16238460D01*
X18219229Y-16238460D02*
X18228753Y-16228936D01*
X18228753Y-16228936D02*
X18228753Y-16247984D01*
X18362086Y-16047984D02*
X18381134Y-16047984D01*
X18381134Y-16047984D02*
X18400182Y-16057508D01*
X18400182Y-16057508D02*
X18409705Y-16067031D01*
X18409705Y-16067031D02*
X18419229Y-16086079D01*
X18419229Y-16086079D02*
X18428753Y-16124174D01*
X18428753Y-16124174D02*
X18428753Y-16171793D01*
X18428753Y-16171793D02*
X18419229Y-16209888D01*
X18419229Y-16209888D02*
X18409705Y-16228936D01*
X18409705Y-16228936D02*
X18400182Y-16238460D01*
X18400182Y-16238460D02*
X18381134Y-16247984D01*
X18381134Y-16247984D02*
X18362086Y-16247984D01*
X18362086Y-16247984D02*
X18343039Y-16238460D01*
X18343039Y-16238460D02*
X18333515Y-16228936D01*
X18333515Y-16228936D02*
X18323991Y-16209888D01*
X18323991Y-16209888D02*
X18314467Y-16171793D01*
X18314467Y-16171793D02*
X18314467Y-16124174D01*
X18314467Y-16124174D02*
X18323991Y-16086079D01*
X18323991Y-16086079D02*
X18333515Y-16067031D01*
X18333515Y-16067031D02*
X18343039Y-16057508D01*
X18343039Y-16057508D02*
X18362086Y-16047984D01*
X18552563Y-16047984D02*
X18571610Y-16047984D01*
X18571610Y-16047984D02*
X18590658Y-16057508D01*
X18590658Y-16057508D02*
X18600182Y-16067031D01*
X18600182Y-16067031D02*
X18609705Y-16086079D01*
X18609705Y-16086079D02*
X18619229Y-16124174D01*
X18619229Y-16124174D02*
X18619229Y-16171793D01*
X18619229Y-16171793D02*
X18609705Y-16209888D01*
X18609705Y-16209888D02*
X18600182Y-16228936D01*
X18600182Y-16228936D02*
X18590658Y-16238460D01*
X18590658Y-16238460D02*
X18571610Y-16247984D01*
X18571610Y-16247984D02*
X18552563Y-16247984D01*
X18552563Y-16247984D02*
X18533515Y-16238460D01*
X18533515Y-16238460D02*
X18523991Y-16228936D01*
X18523991Y-16228936D02*
X18514467Y-16209888D01*
X18514467Y-16209888D02*
X18504944Y-16171793D01*
X18504944Y-16171793D02*
X18504944Y-16124174D01*
X18504944Y-16124174D02*
X18514467Y-16086079D01*
X18514467Y-16086079D02*
X18523991Y-16067031D01*
X18523991Y-16067031D02*
X18533515Y-16057508D01*
X18533515Y-16057508D02*
X18552563Y-16047984D01*
X18743039Y-16047984D02*
X18762086Y-16047984D01*
X18762086Y-16047984D02*
X18781134Y-16057508D01*
X18781134Y-16057508D02*
X18790658Y-16067031D01*
X18790658Y-16067031D02*
X18800182Y-16086079D01*
X18800182Y-16086079D02*
X18809705Y-16124174D01*
X18809705Y-16124174D02*
X18809705Y-16171793D01*
X18809705Y-16171793D02*
X18800182Y-16209888D01*
X18800182Y-16209888D02*
X18790658Y-16228936D01*
X18790658Y-16228936D02*
X18781134Y-16238460D01*
X18781134Y-16238460D02*
X18762086Y-16247984D01*
X18762086Y-16247984D02*
X18743039Y-16247984D01*
X18743039Y-16247984D02*
X18723991Y-16238460D01*
X18723991Y-16238460D02*
X18714467Y-16228936D01*
X18714467Y-16228936D02*
X18704944Y-16209888D01*
X18704944Y-16209888D02*
X18695420Y-16171793D01*
X18695420Y-16171793D02*
X18695420Y-16124174D01*
X18695420Y-16124174D02*
X18704944Y-16086079D01*
X18704944Y-16086079D02*
X18714467Y-16067031D01*
X18714467Y-16067031D02*
X18723991Y-16057508D01*
X18723991Y-16057508D02*
X18743039Y-16047984D01*
X18895420Y-16247984D02*
X18895420Y-16114650D01*
X18895420Y-16133698D02*
X18904944Y-16124174D01*
X18904944Y-16124174D02*
X18923991Y-16114650D01*
X18923991Y-16114650D02*
X18952563Y-16114650D01*
X18952563Y-16114650D02*
X18971610Y-16124174D01*
X18971610Y-16124174D02*
X18981134Y-16143222D01*
X18981134Y-16143222D02*
X18981134Y-16247984D01*
X18981134Y-16143222D02*
X18990658Y-16124174D01*
X18990658Y-16124174D02*
X19009705Y-16114650D01*
X19009705Y-16114650D02*
X19038277Y-16114650D01*
X19038277Y-16114650D02*
X19057325Y-16124174D01*
X19057325Y-16124174D02*
X19066848Y-16143222D01*
X19066848Y-16143222D02*
X19066848Y-16247984D01*
X19162086Y-16247984D02*
X19162086Y-16114650D01*
X19162086Y-16133698D02*
X19171610Y-16124174D01*
X19171610Y-16124174D02*
X19190658Y-16114650D01*
X19190658Y-16114650D02*
X19219229Y-16114650D01*
X19219229Y-16114650D02*
X19238277Y-16124174D01*
X19238277Y-16124174D02*
X19247801Y-16143222D01*
X19247801Y-16143222D02*
X19247801Y-16247984D01*
X19247801Y-16143222D02*
X19257325Y-16124174D01*
X19257325Y-16124174D02*
X19276372Y-16114650D01*
X19276372Y-16114650D02*
X19304944Y-16114650D01*
X19304944Y-16114650D02*
X19323991Y-16124174D01*
X19323991Y-16124174D02*
X19333515Y-16143222D01*
X19333515Y-16143222D02*
X19333515Y-16247984D01*
X19723991Y-16038460D02*
X19552563Y-16295603D01*
X19981134Y-16047984D02*
X20000182Y-16047984D01*
X20000182Y-16047984D02*
X20019229Y-16057508D01*
X20019229Y-16057508D02*
X20028753Y-16067031D01*
X20028753Y-16067031D02*
X20038277Y-16086079D01*
X20038277Y-16086079D02*
X20047801Y-16124174D01*
X20047801Y-16124174D02*
X20047801Y-16171793D01*
X20047801Y-16171793D02*
X20038277Y-16209888D01*
X20038277Y-16209888D02*
X20028753Y-16228936D01*
X20028753Y-16228936D02*
X20019229Y-16238460D01*
X20019229Y-16238460D02*
X20000182Y-16247984D01*
X20000182Y-16247984D02*
X19981134Y-16247984D01*
X19981134Y-16247984D02*
X19962087Y-16238460D01*
X19962087Y-16238460D02*
X19952563Y-16228936D01*
X19952563Y-16228936D02*
X19943039Y-16209888D01*
X19943039Y-16209888D02*
X19933515Y-16171793D01*
X19933515Y-16171793D02*
X19933515Y-16124174D01*
X19933515Y-16124174D02*
X19943039Y-16086079D01*
X19943039Y-16086079D02*
X19952563Y-16067031D01*
X19952563Y-16067031D02*
X19962087Y-16057508D01*
X19962087Y-16057508D02*
X19981134Y-16047984D01*
X20133515Y-16228936D02*
X20143039Y-16238460D01*
X20143039Y-16238460D02*
X20133515Y-16247984D01*
X20133515Y-16247984D02*
X20123991Y-16238460D01*
X20123991Y-16238460D02*
X20133515Y-16228936D01*
X20133515Y-16228936D02*
X20133515Y-16247984D01*
X20266848Y-16047984D02*
X20285896Y-16047984D01*
X20285896Y-16047984D02*
X20304944Y-16057508D01*
X20304944Y-16057508D02*
X20314468Y-16067031D01*
X20314468Y-16067031D02*
X20323991Y-16086079D01*
X20323991Y-16086079D02*
X20333515Y-16124174D01*
X20333515Y-16124174D02*
X20333515Y-16171793D01*
X20333515Y-16171793D02*
X20323991Y-16209888D01*
X20323991Y-16209888D02*
X20314468Y-16228936D01*
X20314468Y-16228936D02*
X20304944Y-16238460D01*
X20304944Y-16238460D02*
X20285896Y-16247984D01*
X20285896Y-16247984D02*
X20266848Y-16247984D01*
X20266848Y-16247984D02*
X20247801Y-16238460D01*
X20247801Y-16238460D02*
X20238277Y-16228936D01*
X20238277Y-16228936D02*
X20228753Y-16209888D01*
X20228753Y-16209888D02*
X20219229Y-16171793D01*
X20219229Y-16171793D02*
X20219229Y-16124174D01*
X20219229Y-16124174D02*
X20228753Y-16086079D01*
X20228753Y-16086079D02*
X20238277Y-16067031D01*
X20238277Y-16067031D02*
X20247801Y-16057508D01*
X20247801Y-16057508D02*
X20266848Y-16047984D01*
X20400182Y-16047984D02*
X20523991Y-16047984D01*
X20523991Y-16047984D02*
X20457325Y-16124174D01*
X20457325Y-16124174D02*
X20485896Y-16124174D01*
X20485896Y-16124174D02*
X20504944Y-16133698D01*
X20504944Y-16133698D02*
X20514468Y-16143222D01*
X20514468Y-16143222D02*
X20523991Y-16162269D01*
X20523991Y-16162269D02*
X20523991Y-16209888D01*
X20523991Y-16209888D02*
X20514468Y-16228936D01*
X20514468Y-16228936D02*
X20504944Y-16238460D01*
X20504944Y-16238460D02*
X20485896Y-16247984D01*
X20485896Y-16247984D02*
X20428753Y-16247984D01*
X20428753Y-16247984D02*
X20409706Y-16238460D01*
X20409706Y-16238460D02*
X20400182Y-16228936D01*
X20619229Y-16247984D02*
X20657325Y-16247984D01*
X20657325Y-16247984D02*
X20676372Y-16238460D01*
X20676372Y-16238460D02*
X20685896Y-16228936D01*
X20685896Y-16228936D02*
X20704944Y-16200365D01*
X20704944Y-16200365D02*
X20714468Y-16162269D01*
X20714468Y-16162269D02*
X20714468Y-16086079D01*
X20714468Y-16086079D02*
X20704944Y-16067031D01*
X20704944Y-16067031D02*
X20695420Y-16057508D01*
X20695420Y-16057508D02*
X20676372Y-16047984D01*
X20676372Y-16047984D02*
X20638277Y-16047984D01*
X20638277Y-16047984D02*
X20619229Y-16057508D01*
X20619229Y-16057508D02*
X20609706Y-16067031D01*
X20609706Y-16067031D02*
X20600182Y-16086079D01*
X20600182Y-16086079D02*
X20600182Y-16133698D01*
X20600182Y-16133698D02*
X20609706Y-16152746D01*
X20609706Y-16152746D02*
X20619229Y-16162269D01*
X20619229Y-16162269D02*
X20638277Y-16171793D01*
X20638277Y-16171793D02*
X20676372Y-16171793D01*
X20676372Y-16171793D02*
X20695420Y-16162269D01*
X20695420Y-16162269D02*
X20704944Y-16152746D01*
X20704944Y-16152746D02*
X20714468Y-16133698D01*
X20885896Y-16114650D02*
X20885896Y-16247984D01*
X20838277Y-16038460D02*
X20790658Y-16181317D01*
X20790658Y-16181317D02*
X20914468Y-16181317D01*
X20981134Y-16047984D02*
X20981134Y-16086079D01*
X21057325Y-16047984D02*
X21057325Y-16086079D01*
X21352563Y-16324174D02*
X21343039Y-16314650D01*
X21343039Y-16314650D02*
X21323991Y-16286079D01*
X21323991Y-16286079D02*
X21314468Y-16267031D01*
X21314468Y-16267031D02*
X21304944Y-16238460D01*
X21304944Y-16238460D02*
X21295420Y-16190841D01*
X21295420Y-16190841D02*
X21295420Y-16152746D01*
X21295420Y-16152746D02*
X21304944Y-16105127D01*
X21304944Y-16105127D02*
X21314468Y-16076555D01*
X21314468Y-16076555D02*
X21323991Y-16057508D01*
X21323991Y-16057508D02*
X21343039Y-16028936D01*
X21343039Y-16028936D02*
X21352563Y-16019412D01*
X21457325Y-16133698D02*
X21438277Y-16124174D01*
X21438277Y-16124174D02*
X21428753Y-16114650D01*
X21428753Y-16114650D02*
X21419230Y-16095603D01*
X21419230Y-16095603D02*
X21419230Y-16086079D01*
X21419230Y-16086079D02*
X21428753Y-16067031D01*
X21428753Y-16067031D02*
X21438277Y-16057508D01*
X21438277Y-16057508D02*
X21457325Y-16047984D01*
X21457325Y-16047984D02*
X21495420Y-16047984D01*
X21495420Y-16047984D02*
X21514468Y-16057508D01*
X21514468Y-16057508D02*
X21523991Y-16067031D01*
X21523991Y-16067031D02*
X21533515Y-16086079D01*
X21533515Y-16086079D02*
X21533515Y-16095603D01*
X21533515Y-16095603D02*
X21523991Y-16114650D01*
X21523991Y-16114650D02*
X21514468Y-16124174D01*
X21514468Y-16124174D02*
X21495420Y-16133698D01*
X21495420Y-16133698D02*
X21457325Y-16133698D01*
X21457325Y-16133698D02*
X21438277Y-16143222D01*
X21438277Y-16143222D02*
X21428753Y-16152746D01*
X21428753Y-16152746D02*
X21419230Y-16171793D01*
X21419230Y-16171793D02*
X21419230Y-16209888D01*
X21419230Y-16209888D02*
X21428753Y-16228936D01*
X21428753Y-16228936D02*
X21438277Y-16238460D01*
X21438277Y-16238460D02*
X21457325Y-16247984D01*
X21457325Y-16247984D02*
X21495420Y-16247984D01*
X21495420Y-16247984D02*
X21514468Y-16238460D01*
X21514468Y-16238460D02*
X21523991Y-16228936D01*
X21523991Y-16228936D02*
X21533515Y-16209888D01*
X21533515Y-16209888D02*
X21533515Y-16171793D01*
X21533515Y-16171793D02*
X21523991Y-16152746D01*
X21523991Y-16152746D02*
X21514468Y-16143222D01*
X21514468Y-16143222D02*
X21495420Y-16133698D01*
X21771611Y-16247984D02*
X21771611Y-16047984D01*
X21857325Y-16247984D02*
X21857325Y-16143222D01*
X21857325Y-16143222D02*
X21847801Y-16124174D01*
X21847801Y-16124174D02*
X21828753Y-16114650D01*
X21828753Y-16114650D02*
X21800182Y-16114650D01*
X21800182Y-16114650D02*
X21781134Y-16124174D01*
X21781134Y-16124174D02*
X21771611Y-16133698D01*
X21981134Y-16247984D02*
X21962087Y-16238460D01*
X21962087Y-16238460D02*
X21952563Y-16228936D01*
X21952563Y-16228936D02*
X21943039Y-16209888D01*
X21943039Y-16209888D02*
X21943039Y-16152746D01*
X21943039Y-16152746D02*
X21952563Y-16133698D01*
X21952563Y-16133698D02*
X21962087Y-16124174D01*
X21962087Y-16124174D02*
X21981134Y-16114650D01*
X21981134Y-16114650D02*
X22009706Y-16114650D01*
X22009706Y-16114650D02*
X22028753Y-16124174D01*
X22028753Y-16124174D02*
X22038277Y-16133698D01*
X22038277Y-16133698D02*
X22047801Y-16152746D01*
X22047801Y-16152746D02*
X22047801Y-16209888D01*
X22047801Y-16209888D02*
X22038277Y-16228936D01*
X22038277Y-16228936D02*
X22028753Y-16238460D01*
X22028753Y-16238460D02*
X22009706Y-16247984D01*
X22009706Y-16247984D02*
X21981134Y-16247984D01*
X22162087Y-16247984D02*
X22143039Y-16238460D01*
X22143039Y-16238460D02*
X22133515Y-16219412D01*
X22133515Y-16219412D02*
X22133515Y-16047984D01*
X22314468Y-16238460D02*
X22295420Y-16247984D01*
X22295420Y-16247984D02*
X22257325Y-16247984D01*
X22257325Y-16247984D02*
X22238277Y-16238460D01*
X22238277Y-16238460D02*
X22228753Y-16219412D01*
X22228753Y-16219412D02*
X22228753Y-16143222D01*
X22228753Y-16143222D02*
X22238277Y-16124174D01*
X22238277Y-16124174D02*
X22257325Y-16114650D01*
X22257325Y-16114650D02*
X22295420Y-16114650D01*
X22295420Y-16114650D02*
X22314468Y-16124174D01*
X22314468Y-16124174D02*
X22323992Y-16143222D01*
X22323992Y-16143222D02*
X22323992Y-16162269D01*
X22323992Y-16162269D02*
X22228753Y-16181317D01*
X22400182Y-16238460D02*
X22419230Y-16247984D01*
X22419230Y-16247984D02*
X22457325Y-16247984D01*
X22457325Y-16247984D02*
X22476372Y-16238460D01*
X22476372Y-16238460D02*
X22485896Y-16219412D01*
X22485896Y-16219412D02*
X22485896Y-16209888D01*
X22485896Y-16209888D02*
X22476372Y-16190841D01*
X22476372Y-16190841D02*
X22457325Y-16181317D01*
X22457325Y-16181317D02*
X22428753Y-16181317D01*
X22428753Y-16181317D02*
X22409706Y-16171793D01*
X22409706Y-16171793D02*
X22400182Y-16152746D01*
X22400182Y-16152746D02*
X22400182Y-16143222D01*
X22400182Y-16143222D02*
X22409706Y-16124174D01*
X22409706Y-16124174D02*
X22428753Y-16114650D01*
X22428753Y-16114650D02*
X22457325Y-16114650D01*
X22457325Y-16114650D02*
X22476372Y-16124174D01*
X22552563Y-16324174D02*
X22562087Y-16314650D01*
X22562087Y-16314650D02*
X22581134Y-16286079D01*
X22581134Y-16286079D02*
X22590658Y-16267031D01*
X22590658Y-16267031D02*
X22600182Y-16238460D01*
X22600182Y-16238460D02*
X22609706Y-16190841D01*
X22609706Y-16190841D02*
X22609706Y-16152746D01*
X22609706Y-16152746D02*
X22600182Y-16105127D01*
X22600182Y-16105127D02*
X22590658Y-16076555D01*
X22590658Y-16076555D02*
X22581134Y-16057508D01*
X22581134Y-16057508D02*
X22562087Y-16028936D01*
X22562087Y-16028936D02*
X22552563Y-16019412D01*
D13*
X17762621Y-16456421D02*
X17762621Y-16384579D01*
X17690779Y-16384579D01*
X17690779Y-16456421D01*
X17762621Y-16456421D01*
D11*
X18143039Y-16511984D02*
X18028753Y-16511984D01*
X18085896Y-16511984D02*
X18085896Y-16311984D01*
X18085896Y-16311984D02*
X18066848Y-16340555D01*
X18066848Y-16340555D02*
X18047801Y-16359603D01*
X18047801Y-16359603D02*
X18028753Y-16369127D01*
X18228753Y-16492936D02*
X18238277Y-16502460D01*
X18238277Y-16502460D02*
X18228753Y-16511984D01*
X18228753Y-16511984D02*
X18219229Y-16502460D01*
X18219229Y-16502460D02*
X18228753Y-16492936D01*
X18228753Y-16492936D02*
X18228753Y-16511984D01*
X18362086Y-16311984D02*
X18381134Y-16311984D01*
X18381134Y-16311984D02*
X18400182Y-16321508D01*
X18400182Y-16321508D02*
X18409705Y-16331031D01*
X18409705Y-16331031D02*
X18419229Y-16350079D01*
X18419229Y-16350079D02*
X18428753Y-16388174D01*
X18428753Y-16388174D02*
X18428753Y-16435793D01*
X18428753Y-16435793D02*
X18419229Y-16473888D01*
X18419229Y-16473888D02*
X18409705Y-16492936D01*
X18409705Y-16492936D02*
X18400182Y-16502460D01*
X18400182Y-16502460D02*
X18381134Y-16511984D01*
X18381134Y-16511984D02*
X18362086Y-16511984D01*
X18362086Y-16511984D02*
X18343039Y-16502460D01*
X18343039Y-16502460D02*
X18333515Y-16492936D01*
X18333515Y-16492936D02*
X18323991Y-16473888D01*
X18323991Y-16473888D02*
X18314467Y-16435793D01*
X18314467Y-16435793D02*
X18314467Y-16388174D01*
X18314467Y-16388174D02*
X18323991Y-16350079D01*
X18323991Y-16350079D02*
X18333515Y-16331031D01*
X18333515Y-16331031D02*
X18343039Y-16321508D01*
X18343039Y-16321508D02*
X18362086Y-16311984D01*
X18619229Y-16511984D02*
X18504944Y-16511984D01*
X18562086Y-16511984D02*
X18562086Y-16311984D01*
X18562086Y-16311984D02*
X18543039Y-16340555D01*
X18543039Y-16340555D02*
X18523991Y-16359603D01*
X18523991Y-16359603D02*
X18504944Y-16369127D01*
X18790658Y-16311984D02*
X18752563Y-16311984D01*
X18752563Y-16311984D02*
X18733515Y-16321508D01*
X18733515Y-16321508D02*
X18723991Y-16331031D01*
X18723991Y-16331031D02*
X18704944Y-16359603D01*
X18704944Y-16359603D02*
X18695420Y-16397698D01*
X18695420Y-16397698D02*
X18695420Y-16473888D01*
X18695420Y-16473888D02*
X18704944Y-16492936D01*
X18704944Y-16492936D02*
X18714467Y-16502460D01*
X18714467Y-16502460D02*
X18733515Y-16511984D01*
X18733515Y-16511984D02*
X18771610Y-16511984D01*
X18771610Y-16511984D02*
X18790658Y-16502460D01*
X18790658Y-16502460D02*
X18800182Y-16492936D01*
X18800182Y-16492936D02*
X18809705Y-16473888D01*
X18809705Y-16473888D02*
X18809705Y-16426269D01*
X18809705Y-16426269D02*
X18800182Y-16407222D01*
X18800182Y-16407222D02*
X18790658Y-16397698D01*
X18790658Y-16397698D02*
X18771610Y-16388174D01*
X18771610Y-16388174D02*
X18733515Y-16388174D01*
X18733515Y-16388174D02*
X18714467Y-16397698D01*
X18714467Y-16397698D02*
X18704944Y-16407222D01*
X18704944Y-16407222D02*
X18695420Y-16426269D01*
X18895420Y-16511984D02*
X18895420Y-16378650D01*
X18895420Y-16397698D02*
X18904944Y-16388174D01*
X18904944Y-16388174D02*
X18923991Y-16378650D01*
X18923991Y-16378650D02*
X18952563Y-16378650D01*
X18952563Y-16378650D02*
X18971610Y-16388174D01*
X18971610Y-16388174D02*
X18981134Y-16407222D01*
X18981134Y-16407222D02*
X18981134Y-16511984D01*
X18981134Y-16407222D02*
X18990658Y-16388174D01*
X18990658Y-16388174D02*
X19009705Y-16378650D01*
X19009705Y-16378650D02*
X19038277Y-16378650D01*
X19038277Y-16378650D02*
X19057325Y-16388174D01*
X19057325Y-16388174D02*
X19066848Y-16407222D01*
X19066848Y-16407222D02*
X19066848Y-16511984D01*
X19162086Y-16511984D02*
X19162086Y-16378650D01*
X19162086Y-16397698D02*
X19171610Y-16388174D01*
X19171610Y-16388174D02*
X19190658Y-16378650D01*
X19190658Y-16378650D02*
X19219229Y-16378650D01*
X19219229Y-16378650D02*
X19238277Y-16388174D01*
X19238277Y-16388174D02*
X19247801Y-16407222D01*
X19247801Y-16407222D02*
X19247801Y-16511984D01*
X19247801Y-16407222D02*
X19257325Y-16388174D01*
X19257325Y-16388174D02*
X19276372Y-16378650D01*
X19276372Y-16378650D02*
X19304944Y-16378650D01*
X19304944Y-16378650D02*
X19323991Y-16388174D01*
X19323991Y-16388174D02*
X19333515Y-16407222D01*
X19333515Y-16407222D02*
X19333515Y-16511984D01*
X19723991Y-16302460D02*
X19552563Y-16559603D01*
X19981134Y-16311984D02*
X20000182Y-16311984D01*
X20000182Y-16311984D02*
X20019229Y-16321508D01*
X20019229Y-16321508D02*
X20028753Y-16331031D01*
X20028753Y-16331031D02*
X20038277Y-16350079D01*
X20038277Y-16350079D02*
X20047801Y-16388174D01*
X20047801Y-16388174D02*
X20047801Y-16435793D01*
X20047801Y-16435793D02*
X20038277Y-16473888D01*
X20038277Y-16473888D02*
X20028753Y-16492936D01*
X20028753Y-16492936D02*
X20019229Y-16502460D01*
X20019229Y-16502460D02*
X20000182Y-16511984D01*
X20000182Y-16511984D02*
X19981134Y-16511984D01*
X19981134Y-16511984D02*
X19962087Y-16502460D01*
X19962087Y-16502460D02*
X19952563Y-16492936D01*
X19952563Y-16492936D02*
X19943039Y-16473888D01*
X19943039Y-16473888D02*
X19933515Y-16435793D01*
X19933515Y-16435793D02*
X19933515Y-16388174D01*
X19933515Y-16388174D02*
X19943039Y-16350079D01*
X19943039Y-16350079D02*
X19952563Y-16331031D01*
X19952563Y-16331031D02*
X19962087Y-16321508D01*
X19962087Y-16321508D02*
X19981134Y-16311984D01*
X20133515Y-16492936D02*
X20143039Y-16502460D01*
X20143039Y-16502460D02*
X20133515Y-16511984D01*
X20133515Y-16511984D02*
X20123991Y-16502460D01*
X20123991Y-16502460D02*
X20133515Y-16492936D01*
X20133515Y-16492936D02*
X20133515Y-16511984D01*
X20266848Y-16311984D02*
X20285896Y-16311984D01*
X20285896Y-16311984D02*
X20304944Y-16321508D01*
X20304944Y-16321508D02*
X20314468Y-16331031D01*
X20314468Y-16331031D02*
X20323991Y-16350079D01*
X20323991Y-16350079D02*
X20333515Y-16388174D01*
X20333515Y-16388174D02*
X20333515Y-16435793D01*
X20333515Y-16435793D02*
X20323991Y-16473888D01*
X20323991Y-16473888D02*
X20314468Y-16492936D01*
X20314468Y-16492936D02*
X20304944Y-16502460D01*
X20304944Y-16502460D02*
X20285896Y-16511984D01*
X20285896Y-16511984D02*
X20266848Y-16511984D01*
X20266848Y-16511984D02*
X20247801Y-16502460D01*
X20247801Y-16502460D02*
X20238277Y-16492936D01*
X20238277Y-16492936D02*
X20228753Y-16473888D01*
X20228753Y-16473888D02*
X20219229Y-16435793D01*
X20219229Y-16435793D02*
X20219229Y-16388174D01*
X20219229Y-16388174D02*
X20228753Y-16350079D01*
X20228753Y-16350079D02*
X20238277Y-16331031D01*
X20238277Y-16331031D02*
X20247801Y-16321508D01*
X20247801Y-16321508D02*
X20266848Y-16311984D01*
X20504944Y-16378650D02*
X20504944Y-16511984D01*
X20457325Y-16302460D02*
X20409706Y-16445317D01*
X20409706Y-16445317D02*
X20533515Y-16445317D01*
X20647801Y-16311984D02*
X20666849Y-16311984D01*
X20666849Y-16311984D02*
X20685896Y-16321508D01*
X20685896Y-16321508D02*
X20695420Y-16331031D01*
X20695420Y-16331031D02*
X20704944Y-16350079D01*
X20704944Y-16350079D02*
X20714468Y-16388174D01*
X20714468Y-16388174D02*
X20714468Y-16435793D01*
X20714468Y-16435793D02*
X20704944Y-16473888D01*
X20704944Y-16473888D02*
X20695420Y-16492936D01*
X20695420Y-16492936D02*
X20685896Y-16502460D01*
X20685896Y-16502460D02*
X20666849Y-16511984D01*
X20666849Y-16511984D02*
X20647801Y-16511984D01*
X20647801Y-16511984D02*
X20628753Y-16502460D01*
X20628753Y-16502460D02*
X20619229Y-16492936D01*
X20619229Y-16492936D02*
X20609706Y-16473888D01*
X20609706Y-16473888D02*
X20600182Y-16435793D01*
X20600182Y-16435793D02*
X20600182Y-16388174D01*
X20600182Y-16388174D02*
X20609706Y-16350079D01*
X20609706Y-16350079D02*
X20619229Y-16331031D01*
X20619229Y-16331031D02*
X20628753Y-16321508D01*
X20628753Y-16321508D02*
X20647801Y-16311984D01*
X20838277Y-16311984D02*
X20857325Y-16311984D01*
X20857325Y-16311984D02*
X20876372Y-16321508D01*
X20876372Y-16321508D02*
X20885896Y-16331031D01*
X20885896Y-16331031D02*
X20895420Y-16350079D01*
X20895420Y-16350079D02*
X20904944Y-16388174D01*
X20904944Y-16388174D02*
X20904944Y-16435793D01*
X20904944Y-16435793D02*
X20895420Y-16473888D01*
X20895420Y-16473888D02*
X20885896Y-16492936D01*
X20885896Y-16492936D02*
X20876372Y-16502460D01*
X20876372Y-16502460D02*
X20857325Y-16511984D01*
X20857325Y-16511984D02*
X20838277Y-16511984D01*
X20838277Y-16511984D02*
X20819229Y-16502460D01*
X20819229Y-16502460D02*
X20809706Y-16492936D01*
X20809706Y-16492936D02*
X20800182Y-16473888D01*
X20800182Y-16473888D02*
X20790658Y-16435793D01*
X20790658Y-16435793D02*
X20790658Y-16388174D01*
X20790658Y-16388174D02*
X20800182Y-16350079D01*
X20800182Y-16350079D02*
X20809706Y-16331031D01*
X20809706Y-16331031D02*
X20819229Y-16321508D01*
X20819229Y-16321508D02*
X20838277Y-16311984D01*
X20981134Y-16311984D02*
X20981134Y-16350079D01*
X21057325Y-16311984D02*
X21057325Y-16350079D01*
X21352563Y-16588174D02*
X21343039Y-16578650D01*
X21343039Y-16578650D02*
X21323991Y-16550079D01*
X21323991Y-16550079D02*
X21314468Y-16531031D01*
X21314468Y-16531031D02*
X21304944Y-16502460D01*
X21304944Y-16502460D02*
X21295420Y-16454841D01*
X21295420Y-16454841D02*
X21295420Y-16416746D01*
X21295420Y-16416746D02*
X21304944Y-16369127D01*
X21304944Y-16369127D02*
X21314468Y-16340555D01*
X21314468Y-16340555D02*
X21323991Y-16321508D01*
X21323991Y-16321508D02*
X21343039Y-16292936D01*
X21343039Y-16292936D02*
X21352563Y-16283412D01*
X21533515Y-16511984D02*
X21419230Y-16511984D01*
X21476372Y-16511984D02*
X21476372Y-16311984D01*
X21476372Y-16311984D02*
X21457325Y-16340555D01*
X21457325Y-16340555D02*
X21438277Y-16359603D01*
X21438277Y-16359603D02*
X21419230Y-16369127D01*
X21609706Y-16331031D02*
X21619230Y-16321508D01*
X21619230Y-16321508D02*
X21638277Y-16311984D01*
X21638277Y-16311984D02*
X21685896Y-16311984D01*
X21685896Y-16311984D02*
X21704944Y-16321508D01*
X21704944Y-16321508D02*
X21714468Y-16331031D01*
X21714468Y-16331031D02*
X21723991Y-16350079D01*
X21723991Y-16350079D02*
X21723991Y-16369127D01*
X21723991Y-16369127D02*
X21714468Y-16397698D01*
X21714468Y-16397698D02*
X21600182Y-16511984D01*
X21600182Y-16511984D02*
X21723991Y-16511984D01*
X21962087Y-16511984D02*
X21962087Y-16311984D01*
X22047801Y-16511984D02*
X22047801Y-16407222D01*
X22047801Y-16407222D02*
X22038277Y-16388174D01*
X22038277Y-16388174D02*
X22019230Y-16378650D01*
X22019230Y-16378650D02*
X21990658Y-16378650D01*
X21990658Y-16378650D02*
X21971611Y-16388174D01*
X21971611Y-16388174D02*
X21962087Y-16397698D01*
X22171611Y-16511984D02*
X22152563Y-16502460D01*
X22152563Y-16502460D02*
X22143039Y-16492936D01*
X22143039Y-16492936D02*
X22133515Y-16473888D01*
X22133515Y-16473888D02*
X22133515Y-16416746D01*
X22133515Y-16416746D02*
X22143039Y-16397698D01*
X22143039Y-16397698D02*
X22152563Y-16388174D01*
X22152563Y-16388174D02*
X22171611Y-16378650D01*
X22171611Y-16378650D02*
X22200182Y-16378650D01*
X22200182Y-16378650D02*
X22219230Y-16388174D01*
X22219230Y-16388174D02*
X22228753Y-16397698D01*
X22228753Y-16397698D02*
X22238277Y-16416746D01*
X22238277Y-16416746D02*
X22238277Y-16473888D01*
X22238277Y-16473888D02*
X22228753Y-16492936D01*
X22228753Y-16492936D02*
X22219230Y-16502460D01*
X22219230Y-16502460D02*
X22200182Y-16511984D01*
X22200182Y-16511984D02*
X22171611Y-16511984D01*
X22352563Y-16511984D02*
X22333515Y-16502460D01*
X22333515Y-16502460D02*
X22323992Y-16483412D01*
X22323992Y-16483412D02*
X22323992Y-16311984D01*
X22504944Y-16502460D02*
X22485896Y-16511984D01*
X22485896Y-16511984D02*
X22447801Y-16511984D01*
X22447801Y-16511984D02*
X22428753Y-16502460D01*
X22428753Y-16502460D02*
X22419230Y-16483412D01*
X22419230Y-16483412D02*
X22419230Y-16407222D01*
X22419230Y-16407222D02*
X22428753Y-16388174D01*
X22428753Y-16388174D02*
X22447801Y-16378650D01*
X22447801Y-16378650D02*
X22485896Y-16378650D01*
X22485896Y-16378650D02*
X22504944Y-16388174D01*
X22504944Y-16388174D02*
X22514468Y-16407222D01*
X22514468Y-16407222D02*
X22514468Y-16426269D01*
X22514468Y-16426269D02*
X22419230Y-16445317D01*
X22590658Y-16502460D02*
X22609706Y-16511984D01*
X22609706Y-16511984D02*
X22647801Y-16511984D01*
X22647801Y-16511984D02*
X22666849Y-16502460D01*
X22666849Y-16502460D02*
X22676372Y-16483412D01*
X22676372Y-16483412D02*
X22676372Y-16473888D01*
X22676372Y-16473888D02*
X22666849Y-16454841D01*
X22666849Y-16454841D02*
X22647801Y-16445317D01*
X22647801Y-16445317D02*
X22619230Y-16445317D01*
X22619230Y-16445317D02*
X22600182Y-16435793D01*
X22600182Y-16435793D02*
X22590658Y-16416746D01*
X22590658Y-16416746D02*
X22590658Y-16407222D01*
X22590658Y-16407222D02*
X22600182Y-16388174D01*
X22600182Y-16388174D02*
X22619230Y-16378650D01*
X22619230Y-16378650D02*
X22647801Y-16378650D01*
X22647801Y-16378650D02*
X22666849Y-16388174D01*
X22743039Y-16588174D02*
X22752563Y-16578650D01*
X22752563Y-16578650D02*
X22771611Y-16550079D01*
X22771611Y-16550079D02*
X22781134Y-16531031D01*
X22781134Y-16531031D02*
X22790658Y-16502460D01*
X22790658Y-16502460D02*
X22800182Y-16454841D01*
X22800182Y-16454841D02*
X22800182Y-16416746D01*
X22800182Y-16416746D02*
X22790658Y-16369127D01*
X22790658Y-16369127D02*
X22781134Y-16340555D01*
X22781134Y-16340555D02*
X22771611Y-16321508D01*
X22771611Y-16321508D02*
X22752563Y-16292936D01*
X22752563Y-16292936D02*
X22743039Y-16283412D01*
D14*
X17722890Y-16739110D02*
X17777500Y-16684500D01*
X17722890Y-16629890D01*
X17668280Y-16684500D01*
X17722890Y-16739110D01*
D11*
X18143039Y-16775984D02*
X18028753Y-16775984D01*
X18085896Y-16775984D02*
X18085896Y-16575984D01*
X18085896Y-16575984D02*
X18066848Y-16604555D01*
X18066848Y-16604555D02*
X18047801Y-16623603D01*
X18047801Y-16623603D02*
X18028753Y-16633127D01*
X18228753Y-16756936D02*
X18238277Y-16766460D01*
X18238277Y-16766460D02*
X18228753Y-16775984D01*
X18228753Y-16775984D02*
X18219229Y-16766460D01*
X18219229Y-16766460D02*
X18228753Y-16756936D01*
X18228753Y-16756936D02*
X18228753Y-16775984D01*
X18362086Y-16575984D02*
X18381134Y-16575984D01*
X18381134Y-16575984D02*
X18400182Y-16585508D01*
X18400182Y-16585508D02*
X18409705Y-16595031D01*
X18409705Y-16595031D02*
X18419229Y-16614079D01*
X18419229Y-16614079D02*
X18428753Y-16652174D01*
X18428753Y-16652174D02*
X18428753Y-16699793D01*
X18428753Y-16699793D02*
X18419229Y-16737888D01*
X18419229Y-16737888D02*
X18409705Y-16756936D01*
X18409705Y-16756936D02*
X18400182Y-16766460D01*
X18400182Y-16766460D02*
X18381134Y-16775984D01*
X18381134Y-16775984D02*
X18362086Y-16775984D01*
X18362086Y-16775984D02*
X18343039Y-16766460D01*
X18343039Y-16766460D02*
X18333515Y-16756936D01*
X18333515Y-16756936D02*
X18323991Y-16737888D01*
X18323991Y-16737888D02*
X18314467Y-16699793D01*
X18314467Y-16699793D02*
X18314467Y-16652174D01*
X18314467Y-16652174D02*
X18323991Y-16614079D01*
X18323991Y-16614079D02*
X18333515Y-16595031D01*
X18333515Y-16595031D02*
X18343039Y-16585508D01*
X18343039Y-16585508D02*
X18362086Y-16575984D01*
X18523991Y-16775984D02*
X18562086Y-16775984D01*
X18562086Y-16775984D02*
X18581134Y-16766460D01*
X18581134Y-16766460D02*
X18590658Y-16756936D01*
X18590658Y-16756936D02*
X18609705Y-16728365D01*
X18609705Y-16728365D02*
X18619229Y-16690269D01*
X18619229Y-16690269D02*
X18619229Y-16614079D01*
X18619229Y-16614079D02*
X18609705Y-16595031D01*
X18609705Y-16595031D02*
X18600182Y-16585508D01*
X18600182Y-16585508D02*
X18581134Y-16575984D01*
X18581134Y-16575984D02*
X18543039Y-16575984D01*
X18543039Y-16575984D02*
X18523991Y-16585508D01*
X18523991Y-16585508D02*
X18514467Y-16595031D01*
X18514467Y-16595031D02*
X18504944Y-16614079D01*
X18504944Y-16614079D02*
X18504944Y-16661698D01*
X18504944Y-16661698D02*
X18514467Y-16680746D01*
X18514467Y-16680746D02*
X18523991Y-16690269D01*
X18523991Y-16690269D02*
X18543039Y-16699793D01*
X18543039Y-16699793D02*
X18581134Y-16699793D01*
X18581134Y-16699793D02*
X18600182Y-16690269D01*
X18600182Y-16690269D02*
X18609705Y-16680746D01*
X18609705Y-16680746D02*
X18619229Y-16661698D01*
X18695420Y-16595031D02*
X18704944Y-16585508D01*
X18704944Y-16585508D02*
X18723991Y-16575984D01*
X18723991Y-16575984D02*
X18771610Y-16575984D01*
X18771610Y-16575984D02*
X18790658Y-16585508D01*
X18790658Y-16585508D02*
X18800182Y-16595031D01*
X18800182Y-16595031D02*
X18809705Y-16614079D01*
X18809705Y-16614079D02*
X18809705Y-16633127D01*
X18809705Y-16633127D02*
X18800182Y-16661698D01*
X18800182Y-16661698D02*
X18685896Y-16775984D01*
X18685896Y-16775984D02*
X18809705Y-16775984D01*
X18895420Y-16775984D02*
X18895420Y-16642650D01*
X18895420Y-16661698D02*
X18904944Y-16652174D01*
X18904944Y-16652174D02*
X18923991Y-16642650D01*
X18923991Y-16642650D02*
X18952563Y-16642650D01*
X18952563Y-16642650D02*
X18971610Y-16652174D01*
X18971610Y-16652174D02*
X18981134Y-16671222D01*
X18981134Y-16671222D02*
X18981134Y-16775984D01*
X18981134Y-16671222D02*
X18990658Y-16652174D01*
X18990658Y-16652174D02*
X19009705Y-16642650D01*
X19009705Y-16642650D02*
X19038277Y-16642650D01*
X19038277Y-16642650D02*
X19057325Y-16652174D01*
X19057325Y-16652174D02*
X19066848Y-16671222D01*
X19066848Y-16671222D02*
X19066848Y-16775984D01*
X19162086Y-16775984D02*
X19162086Y-16642650D01*
X19162086Y-16661698D02*
X19171610Y-16652174D01*
X19171610Y-16652174D02*
X19190658Y-16642650D01*
X19190658Y-16642650D02*
X19219229Y-16642650D01*
X19219229Y-16642650D02*
X19238277Y-16652174D01*
X19238277Y-16652174D02*
X19247801Y-16671222D01*
X19247801Y-16671222D02*
X19247801Y-16775984D01*
X19247801Y-16671222D02*
X19257325Y-16652174D01*
X19257325Y-16652174D02*
X19276372Y-16642650D01*
X19276372Y-16642650D02*
X19304944Y-16642650D01*
X19304944Y-16642650D02*
X19323991Y-16652174D01*
X19323991Y-16652174D02*
X19333515Y-16671222D01*
X19333515Y-16671222D02*
X19333515Y-16775984D01*
X19723991Y-16566460D02*
X19552563Y-16823603D01*
X19981134Y-16575984D02*
X20000182Y-16575984D01*
X20000182Y-16575984D02*
X20019229Y-16585508D01*
X20019229Y-16585508D02*
X20028753Y-16595031D01*
X20028753Y-16595031D02*
X20038277Y-16614079D01*
X20038277Y-16614079D02*
X20047801Y-16652174D01*
X20047801Y-16652174D02*
X20047801Y-16699793D01*
X20047801Y-16699793D02*
X20038277Y-16737888D01*
X20038277Y-16737888D02*
X20028753Y-16756936D01*
X20028753Y-16756936D02*
X20019229Y-16766460D01*
X20019229Y-16766460D02*
X20000182Y-16775984D01*
X20000182Y-16775984D02*
X19981134Y-16775984D01*
X19981134Y-16775984D02*
X19962087Y-16766460D01*
X19962087Y-16766460D02*
X19952563Y-16756936D01*
X19952563Y-16756936D02*
X19943039Y-16737888D01*
X19943039Y-16737888D02*
X19933515Y-16699793D01*
X19933515Y-16699793D02*
X19933515Y-16652174D01*
X19933515Y-16652174D02*
X19943039Y-16614079D01*
X19943039Y-16614079D02*
X19952563Y-16595031D01*
X19952563Y-16595031D02*
X19962087Y-16585508D01*
X19962087Y-16585508D02*
X19981134Y-16575984D01*
X20133515Y-16756936D02*
X20143039Y-16766460D01*
X20143039Y-16766460D02*
X20133515Y-16775984D01*
X20133515Y-16775984D02*
X20123991Y-16766460D01*
X20123991Y-16766460D02*
X20133515Y-16756936D01*
X20133515Y-16756936D02*
X20133515Y-16775984D01*
X20266848Y-16575984D02*
X20285896Y-16575984D01*
X20285896Y-16575984D02*
X20304944Y-16585508D01*
X20304944Y-16585508D02*
X20314468Y-16595031D01*
X20314468Y-16595031D02*
X20323991Y-16614079D01*
X20323991Y-16614079D02*
X20333515Y-16652174D01*
X20333515Y-16652174D02*
X20333515Y-16699793D01*
X20333515Y-16699793D02*
X20323991Y-16737888D01*
X20323991Y-16737888D02*
X20314468Y-16756936D01*
X20314468Y-16756936D02*
X20304944Y-16766460D01*
X20304944Y-16766460D02*
X20285896Y-16775984D01*
X20285896Y-16775984D02*
X20266848Y-16775984D01*
X20266848Y-16775984D02*
X20247801Y-16766460D01*
X20247801Y-16766460D02*
X20238277Y-16756936D01*
X20238277Y-16756936D02*
X20228753Y-16737888D01*
X20228753Y-16737888D02*
X20219229Y-16699793D01*
X20219229Y-16699793D02*
X20219229Y-16652174D01*
X20219229Y-16652174D02*
X20228753Y-16614079D01*
X20228753Y-16614079D02*
X20238277Y-16595031D01*
X20238277Y-16595031D02*
X20247801Y-16585508D01*
X20247801Y-16585508D02*
X20266848Y-16575984D01*
X20504944Y-16642650D02*
X20504944Y-16775984D01*
X20457325Y-16566460D02*
X20409706Y-16709317D01*
X20409706Y-16709317D02*
X20533515Y-16709317D01*
X20590658Y-16575984D02*
X20714468Y-16575984D01*
X20714468Y-16575984D02*
X20647801Y-16652174D01*
X20647801Y-16652174D02*
X20676372Y-16652174D01*
X20676372Y-16652174D02*
X20695420Y-16661698D01*
X20695420Y-16661698D02*
X20704944Y-16671222D01*
X20704944Y-16671222D02*
X20714468Y-16690269D01*
X20714468Y-16690269D02*
X20714468Y-16737888D01*
X20714468Y-16737888D02*
X20704944Y-16756936D01*
X20704944Y-16756936D02*
X20695420Y-16766460D01*
X20695420Y-16766460D02*
X20676372Y-16775984D01*
X20676372Y-16775984D02*
X20619229Y-16775984D01*
X20619229Y-16775984D02*
X20600182Y-16766460D01*
X20600182Y-16766460D02*
X20590658Y-16756936D01*
X20838277Y-16575984D02*
X20857325Y-16575984D01*
X20857325Y-16575984D02*
X20876372Y-16585508D01*
X20876372Y-16585508D02*
X20885896Y-16595031D01*
X20885896Y-16595031D02*
X20895420Y-16614079D01*
X20895420Y-16614079D02*
X20904944Y-16652174D01*
X20904944Y-16652174D02*
X20904944Y-16699793D01*
X20904944Y-16699793D02*
X20895420Y-16737888D01*
X20895420Y-16737888D02*
X20885896Y-16756936D01*
X20885896Y-16756936D02*
X20876372Y-16766460D01*
X20876372Y-16766460D02*
X20857325Y-16775984D01*
X20857325Y-16775984D02*
X20838277Y-16775984D01*
X20838277Y-16775984D02*
X20819229Y-16766460D01*
X20819229Y-16766460D02*
X20809706Y-16756936D01*
X20809706Y-16756936D02*
X20800182Y-16737888D01*
X20800182Y-16737888D02*
X20790658Y-16699793D01*
X20790658Y-16699793D02*
X20790658Y-16652174D01*
X20790658Y-16652174D02*
X20800182Y-16614079D01*
X20800182Y-16614079D02*
X20809706Y-16595031D01*
X20809706Y-16595031D02*
X20819229Y-16585508D01*
X20819229Y-16585508D02*
X20838277Y-16575984D01*
X20981134Y-16575984D02*
X20981134Y-16614079D01*
X21057325Y-16575984D02*
X21057325Y-16614079D01*
X21352563Y-16852174D02*
X21343039Y-16842650D01*
X21343039Y-16842650D02*
X21323991Y-16814079D01*
X21323991Y-16814079D02*
X21314468Y-16795031D01*
X21314468Y-16795031D02*
X21304944Y-16766460D01*
X21304944Y-16766460D02*
X21295420Y-16718841D01*
X21295420Y-16718841D02*
X21295420Y-16680746D01*
X21295420Y-16680746D02*
X21304944Y-16633127D01*
X21304944Y-16633127D02*
X21314468Y-16604555D01*
X21314468Y-16604555D02*
X21323991Y-16585508D01*
X21323991Y-16585508D02*
X21343039Y-16556936D01*
X21343039Y-16556936D02*
X21352563Y-16547412D01*
X21419230Y-16595031D02*
X21428753Y-16585508D01*
X21428753Y-16585508D02*
X21447801Y-16575984D01*
X21447801Y-16575984D02*
X21495420Y-16575984D01*
X21495420Y-16575984D02*
X21514468Y-16585508D01*
X21514468Y-16585508D02*
X21523991Y-16595031D01*
X21523991Y-16595031D02*
X21533515Y-16614079D01*
X21533515Y-16614079D02*
X21533515Y-16633127D01*
X21533515Y-16633127D02*
X21523991Y-16661698D01*
X21523991Y-16661698D02*
X21409706Y-16775984D01*
X21409706Y-16775984D02*
X21533515Y-16775984D01*
X21704944Y-16642650D02*
X21704944Y-16775984D01*
X21657325Y-16566460D02*
X21609706Y-16709317D01*
X21609706Y-16709317D02*
X21733515Y-16709317D01*
X21962087Y-16775984D02*
X21962087Y-16575984D01*
X22047801Y-16775984D02*
X22047801Y-16671222D01*
X22047801Y-16671222D02*
X22038277Y-16652174D01*
X22038277Y-16652174D02*
X22019230Y-16642650D01*
X22019230Y-16642650D02*
X21990658Y-16642650D01*
X21990658Y-16642650D02*
X21971611Y-16652174D01*
X21971611Y-16652174D02*
X21962087Y-16661698D01*
X22171611Y-16775984D02*
X22152563Y-16766460D01*
X22152563Y-16766460D02*
X22143039Y-16756936D01*
X22143039Y-16756936D02*
X22133515Y-16737888D01*
X22133515Y-16737888D02*
X22133515Y-16680746D01*
X22133515Y-16680746D02*
X22143039Y-16661698D01*
X22143039Y-16661698D02*
X22152563Y-16652174D01*
X22152563Y-16652174D02*
X22171611Y-16642650D01*
X22171611Y-16642650D02*
X22200182Y-16642650D01*
X22200182Y-16642650D02*
X22219230Y-16652174D01*
X22219230Y-16652174D02*
X22228753Y-16661698D01*
X22228753Y-16661698D02*
X22238277Y-16680746D01*
X22238277Y-16680746D02*
X22238277Y-16737888D01*
X22238277Y-16737888D02*
X22228753Y-16756936D01*
X22228753Y-16756936D02*
X22219230Y-16766460D01*
X22219230Y-16766460D02*
X22200182Y-16775984D01*
X22200182Y-16775984D02*
X22171611Y-16775984D01*
X22352563Y-16775984D02*
X22333515Y-16766460D01*
X22333515Y-16766460D02*
X22323992Y-16747412D01*
X22323992Y-16747412D02*
X22323992Y-16575984D01*
X22504944Y-16766460D02*
X22485896Y-16775984D01*
X22485896Y-16775984D02*
X22447801Y-16775984D01*
X22447801Y-16775984D02*
X22428753Y-16766460D01*
X22428753Y-16766460D02*
X22419230Y-16747412D01*
X22419230Y-16747412D02*
X22419230Y-16671222D01*
X22419230Y-16671222D02*
X22428753Y-16652174D01*
X22428753Y-16652174D02*
X22447801Y-16642650D01*
X22447801Y-16642650D02*
X22485896Y-16642650D01*
X22485896Y-16642650D02*
X22504944Y-16652174D01*
X22504944Y-16652174D02*
X22514468Y-16671222D01*
X22514468Y-16671222D02*
X22514468Y-16690269D01*
X22514468Y-16690269D02*
X22419230Y-16709317D01*
X22590658Y-16766460D02*
X22609706Y-16775984D01*
X22609706Y-16775984D02*
X22647801Y-16775984D01*
X22647801Y-16775984D02*
X22666849Y-16766460D01*
X22666849Y-16766460D02*
X22676372Y-16747412D01*
X22676372Y-16747412D02*
X22676372Y-16737888D01*
X22676372Y-16737888D02*
X22666849Y-16718841D01*
X22666849Y-16718841D02*
X22647801Y-16709317D01*
X22647801Y-16709317D02*
X22619230Y-16709317D01*
X22619230Y-16709317D02*
X22600182Y-16699793D01*
X22600182Y-16699793D02*
X22590658Y-16680746D01*
X22590658Y-16680746D02*
X22590658Y-16671222D01*
X22590658Y-16671222D02*
X22600182Y-16652174D01*
X22600182Y-16652174D02*
X22619230Y-16642650D01*
X22619230Y-16642650D02*
X22647801Y-16642650D01*
X22647801Y-16642650D02*
X22666849Y-16652174D01*
X22743039Y-16852174D02*
X22752563Y-16842650D01*
X22752563Y-16842650D02*
X22771611Y-16814079D01*
X22771611Y-16814079D02*
X22781134Y-16795031D01*
X22781134Y-16795031D02*
X22790658Y-16766460D01*
X22790658Y-16766460D02*
X22800182Y-16718841D01*
X22800182Y-16718841D02*
X22800182Y-16680746D01*
X22800182Y-16680746D02*
X22790658Y-16633127D01*
X22790658Y-16633127D02*
X22781134Y-16604555D01*
X22781134Y-16604555D02*
X22771611Y-16585508D01*
X22771611Y-16585508D02*
X22752563Y-16556936D01*
X22752563Y-16556936D02*
X22743039Y-16547412D01*
D15*
X17647500Y-16883500D02*
X17777500Y-17013500D01*
X17777500Y-16883500D02*
X17647500Y-17013500D01*
X17777500Y-16948500D02*
G75*
G02*
X17647500Y-16948500I-65000J0D01*
G01*
X17647500Y-16948500D02*
G75*
G02*
X17777500Y-16948500I65000J0D01*
G01*
D11*
X18143039Y-17039984D02*
X18028753Y-17039984D01*
X18085896Y-17039984D02*
X18085896Y-16839984D01*
X18085896Y-16839984D02*
X18066848Y-16868555D01*
X18066848Y-16868555D02*
X18047801Y-16887603D01*
X18047801Y-16887603D02*
X18028753Y-16897127D01*
X18228753Y-17020936D02*
X18238277Y-17030460D01*
X18238277Y-17030460D02*
X18228753Y-17039984D01*
X18228753Y-17039984D02*
X18219229Y-17030460D01*
X18219229Y-17030460D02*
X18228753Y-17020936D01*
X18228753Y-17020936D02*
X18228753Y-17039984D01*
X18304944Y-16839984D02*
X18428753Y-16839984D01*
X18428753Y-16839984D02*
X18362086Y-16916174D01*
X18362086Y-16916174D02*
X18390658Y-16916174D01*
X18390658Y-16916174D02*
X18409705Y-16925698D01*
X18409705Y-16925698D02*
X18419229Y-16935222D01*
X18419229Y-16935222D02*
X18428753Y-16954270D01*
X18428753Y-16954270D02*
X18428753Y-17001889D01*
X18428753Y-17001889D02*
X18419229Y-17020936D01*
X18419229Y-17020936D02*
X18409705Y-17030460D01*
X18409705Y-17030460D02*
X18390658Y-17039984D01*
X18390658Y-17039984D02*
X18333515Y-17039984D01*
X18333515Y-17039984D02*
X18314467Y-17030460D01*
X18314467Y-17030460D02*
X18304944Y-17020936D01*
X18552563Y-16839984D02*
X18571610Y-16839984D01*
X18571610Y-16839984D02*
X18590658Y-16849508D01*
X18590658Y-16849508D02*
X18600182Y-16859031D01*
X18600182Y-16859031D02*
X18609705Y-16878079D01*
X18609705Y-16878079D02*
X18619229Y-16916174D01*
X18619229Y-16916174D02*
X18619229Y-16963793D01*
X18619229Y-16963793D02*
X18609705Y-17001889D01*
X18609705Y-17001889D02*
X18600182Y-17020936D01*
X18600182Y-17020936D02*
X18590658Y-17030460D01*
X18590658Y-17030460D02*
X18571610Y-17039984D01*
X18571610Y-17039984D02*
X18552563Y-17039984D01*
X18552563Y-17039984D02*
X18533515Y-17030460D01*
X18533515Y-17030460D02*
X18523991Y-17020936D01*
X18523991Y-17020936D02*
X18514467Y-17001889D01*
X18514467Y-17001889D02*
X18504944Y-16963793D01*
X18504944Y-16963793D02*
X18504944Y-16916174D01*
X18504944Y-16916174D02*
X18514467Y-16878079D01*
X18514467Y-16878079D02*
X18523991Y-16859031D01*
X18523991Y-16859031D02*
X18533515Y-16849508D01*
X18533515Y-16849508D02*
X18552563Y-16839984D01*
X18743039Y-16839984D02*
X18762086Y-16839984D01*
X18762086Y-16839984D02*
X18781134Y-16849508D01*
X18781134Y-16849508D02*
X18790658Y-16859031D01*
X18790658Y-16859031D02*
X18800182Y-16878079D01*
X18800182Y-16878079D02*
X18809705Y-16916174D01*
X18809705Y-16916174D02*
X18809705Y-16963793D01*
X18809705Y-16963793D02*
X18800182Y-17001889D01*
X18800182Y-17001889D02*
X18790658Y-17020936D01*
X18790658Y-17020936D02*
X18781134Y-17030460D01*
X18781134Y-17030460D02*
X18762086Y-17039984D01*
X18762086Y-17039984D02*
X18743039Y-17039984D01*
X18743039Y-17039984D02*
X18723991Y-17030460D01*
X18723991Y-17030460D02*
X18714467Y-17020936D01*
X18714467Y-17020936D02*
X18704944Y-17001889D01*
X18704944Y-17001889D02*
X18695420Y-16963793D01*
X18695420Y-16963793D02*
X18695420Y-16916174D01*
X18695420Y-16916174D02*
X18704944Y-16878079D01*
X18704944Y-16878079D02*
X18714467Y-16859031D01*
X18714467Y-16859031D02*
X18723991Y-16849508D01*
X18723991Y-16849508D02*
X18743039Y-16839984D01*
X18895420Y-17039984D02*
X18895420Y-16906650D01*
X18895420Y-16925698D02*
X18904944Y-16916174D01*
X18904944Y-16916174D02*
X18923991Y-16906650D01*
X18923991Y-16906650D02*
X18952563Y-16906650D01*
X18952563Y-16906650D02*
X18971610Y-16916174D01*
X18971610Y-16916174D02*
X18981134Y-16935222D01*
X18981134Y-16935222D02*
X18981134Y-17039984D01*
X18981134Y-16935222D02*
X18990658Y-16916174D01*
X18990658Y-16916174D02*
X19009705Y-16906650D01*
X19009705Y-16906650D02*
X19038277Y-16906650D01*
X19038277Y-16906650D02*
X19057325Y-16916174D01*
X19057325Y-16916174D02*
X19066848Y-16935222D01*
X19066848Y-16935222D02*
X19066848Y-17039984D01*
X19162086Y-17039984D02*
X19162086Y-16906650D01*
X19162086Y-16925698D02*
X19171610Y-16916174D01*
X19171610Y-16916174D02*
X19190658Y-16906650D01*
X19190658Y-16906650D02*
X19219229Y-16906650D01*
X19219229Y-16906650D02*
X19238277Y-16916174D01*
X19238277Y-16916174D02*
X19247801Y-16935222D01*
X19247801Y-16935222D02*
X19247801Y-17039984D01*
X19247801Y-16935222D02*
X19257325Y-16916174D01*
X19257325Y-16916174D02*
X19276372Y-16906650D01*
X19276372Y-16906650D02*
X19304944Y-16906650D01*
X19304944Y-16906650D02*
X19323991Y-16916174D01*
X19323991Y-16916174D02*
X19333515Y-16935222D01*
X19333515Y-16935222D02*
X19333515Y-17039984D01*
X19723991Y-16830460D02*
X19552563Y-17087603D01*
X19981134Y-16839984D02*
X20000182Y-16839984D01*
X20000182Y-16839984D02*
X20019229Y-16849508D01*
X20019229Y-16849508D02*
X20028753Y-16859031D01*
X20028753Y-16859031D02*
X20038277Y-16878079D01*
X20038277Y-16878079D02*
X20047801Y-16916174D01*
X20047801Y-16916174D02*
X20047801Y-16963793D01*
X20047801Y-16963793D02*
X20038277Y-17001889D01*
X20038277Y-17001889D02*
X20028753Y-17020936D01*
X20028753Y-17020936D02*
X20019229Y-17030460D01*
X20019229Y-17030460D02*
X20000182Y-17039984D01*
X20000182Y-17039984D02*
X19981134Y-17039984D01*
X19981134Y-17039984D02*
X19962087Y-17030460D01*
X19962087Y-17030460D02*
X19952563Y-17020936D01*
X19952563Y-17020936D02*
X19943039Y-17001889D01*
X19943039Y-17001889D02*
X19933515Y-16963793D01*
X19933515Y-16963793D02*
X19933515Y-16916174D01*
X19933515Y-16916174D02*
X19943039Y-16878079D01*
X19943039Y-16878079D02*
X19952563Y-16859031D01*
X19952563Y-16859031D02*
X19962087Y-16849508D01*
X19962087Y-16849508D02*
X19981134Y-16839984D01*
X20133515Y-17020936D02*
X20143039Y-17030460D01*
X20143039Y-17030460D02*
X20133515Y-17039984D01*
X20133515Y-17039984D02*
X20123991Y-17030460D01*
X20123991Y-17030460D02*
X20133515Y-17020936D01*
X20133515Y-17020936D02*
X20133515Y-17039984D01*
X20266848Y-16839984D02*
X20285896Y-16839984D01*
X20285896Y-16839984D02*
X20304944Y-16849508D01*
X20304944Y-16849508D02*
X20314468Y-16859031D01*
X20314468Y-16859031D02*
X20323991Y-16878079D01*
X20323991Y-16878079D02*
X20333515Y-16916174D01*
X20333515Y-16916174D02*
X20333515Y-16963793D01*
X20333515Y-16963793D02*
X20323991Y-17001889D01*
X20323991Y-17001889D02*
X20314468Y-17020936D01*
X20314468Y-17020936D02*
X20304944Y-17030460D01*
X20304944Y-17030460D02*
X20285896Y-17039984D01*
X20285896Y-17039984D02*
X20266848Y-17039984D01*
X20266848Y-17039984D02*
X20247801Y-17030460D01*
X20247801Y-17030460D02*
X20238277Y-17020936D01*
X20238277Y-17020936D02*
X20228753Y-17001889D01*
X20228753Y-17001889D02*
X20219229Y-16963793D01*
X20219229Y-16963793D02*
X20219229Y-16916174D01*
X20219229Y-16916174D02*
X20228753Y-16878079D01*
X20228753Y-16878079D02*
X20238277Y-16859031D01*
X20238277Y-16859031D02*
X20247801Y-16849508D01*
X20247801Y-16849508D02*
X20266848Y-16839984D01*
X20514468Y-16839984D02*
X20419229Y-16839984D01*
X20419229Y-16839984D02*
X20409706Y-16935222D01*
X20409706Y-16935222D02*
X20419229Y-16925698D01*
X20419229Y-16925698D02*
X20438277Y-16916174D01*
X20438277Y-16916174D02*
X20485896Y-16916174D01*
X20485896Y-16916174D02*
X20504944Y-16925698D01*
X20504944Y-16925698D02*
X20514468Y-16935222D01*
X20514468Y-16935222D02*
X20523991Y-16954270D01*
X20523991Y-16954270D02*
X20523991Y-17001889D01*
X20523991Y-17001889D02*
X20514468Y-17020936D01*
X20514468Y-17020936D02*
X20504944Y-17030460D01*
X20504944Y-17030460D02*
X20485896Y-17039984D01*
X20485896Y-17039984D02*
X20438277Y-17039984D01*
X20438277Y-17039984D02*
X20419229Y-17030460D01*
X20419229Y-17030460D02*
X20409706Y-17020936D01*
X20714468Y-17039984D02*
X20600182Y-17039984D01*
X20657325Y-17039984D02*
X20657325Y-16839984D01*
X20657325Y-16839984D02*
X20638277Y-16868555D01*
X20638277Y-16868555D02*
X20619229Y-16887603D01*
X20619229Y-16887603D02*
X20600182Y-16897127D01*
X20790658Y-16859031D02*
X20800182Y-16849508D01*
X20800182Y-16849508D02*
X20819229Y-16839984D01*
X20819229Y-16839984D02*
X20866849Y-16839984D01*
X20866849Y-16839984D02*
X20885896Y-16849508D01*
X20885896Y-16849508D02*
X20895420Y-16859031D01*
X20895420Y-16859031D02*
X20904944Y-16878079D01*
X20904944Y-16878079D02*
X20904944Y-16897127D01*
X20904944Y-16897127D02*
X20895420Y-16925698D01*
X20895420Y-16925698D02*
X20781134Y-17039984D01*
X20781134Y-17039984D02*
X20904944Y-17039984D01*
X20981134Y-16839984D02*
X20981134Y-16878079D01*
X21057325Y-16839984D02*
X21057325Y-16878079D01*
X21352563Y-17116174D02*
X21343039Y-17106650D01*
X21343039Y-17106650D02*
X21323991Y-17078079D01*
X21323991Y-17078079D02*
X21314468Y-17059031D01*
X21314468Y-17059031D02*
X21304944Y-17030460D01*
X21304944Y-17030460D02*
X21295420Y-16982841D01*
X21295420Y-16982841D02*
X21295420Y-16944746D01*
X21295420Y-16944746D02*
X21304944Y-16897127D01*
X21304944Y-16897127D02*
X21314468Y-16868555D01*
X21314468Y-16868555D02*
X21323991Y-16849508D01*
X21323991Y-16849508D02*
X21343039Y-16820936D01*
X21343039Y-16820936D02*
X21352563Y-16811412D01*
X21409706Y-16839984D02*
X21533515Y-16839984D01*
X21533515Y-16839984D02*
X21466849Y-16916174D01*
X21466849Y-16916174D02*
X21495420Y-16916174D01*
X21495420Y-16916174D02*
X21514468Y-16925698D01*
X21514468Y-16925698D02*
X21523991Y-16935222D01*
X21523991Y-16935222D02*
X21533515Y-16954270D01*
X21533515Y-16954270D02*
X21533515Y-17001889D01*
X21533515Y-17001889D02*
X21523991Y-17020936D01*
X21523991Y-17020936D02*
X21514468Y-17030460D01*
X21514468Y-17030460D02*
X21495420Y-17039984D01*
X21495420Y-17039984D02*
X21438277Y-17039984D01*
X21438277Y-17039984D02*
X21419230Y-17030460D01*
X21419230Y-17030460D02*
X21409706Y-17020936D01*
X21609706Y-16859031D02*
X21619230Y-16849508D01*
X21619230Y-16849508D02*
X21638277Y-16839984D01*
X21638277Y-16839984D02*
X21685896Y-16839984D01*
X21685896Y-16839984D02*
X21704944Y-16849508D01*
X21704944Y-16849508D02*
X21714468Y-16859031D01*
X21714468Y-16859031D02*
X21723991Y-16878079D01*
X21723991Y-16878079D02*
X21723991Y-16897127D01*
X21723991Y-16897127D02*
X21714468Y-16925698D01*
X21714468Y-16925698D02*
X21600182Y-17039984D01*
X21600182Y-17039984D02*
X21723991Y-17039984D01*
X21962087Y-17039984D02*
X21962087Y-16839984D01*
X22047801Y-17039984D02*
X22047801Y-16935222D01*
X22047801Y-16935222D02*
X22038277Y-16916174D01*
X22038277Y-16916174D02*
X22019230Y-16906650D01*
X22019230Y-16906650D02*
X21990658Y-16906650D01*
X21990658Y-16906650D02*
X21971611Y-16916174D01*
X21971611Y-16916174D02*
X21962087Y-16925698D01*
X22171611Y-17039984D02*
X22152563Y-17030460D01*
X22152563Y-17030460D02*
X22143039Y-17020936D01*
X22143039Y-17020936D02*
X22133515Y-17001889D01*
X22133515Y-17001889D02*
X22133515Y-16944746D01*
X22133515Y-16944746D02*
X22143039Y-16925698D01*
X22143039Y-16925698D02*
X22152563Y-16916174D01*
X22152563Y-16916174D02*
X22171611Y-16906650D01*
X22171611Y-16906650D02*
X22200182Y-16906650D01*
X22200182Y-16906650D02*
X22219230Y-16916174D01*
X22219230Y-16916174D02*
X22228753Y-16925698D01*
X22228753Y-16925698D02*
X22238277Y-16944746D01*
X22238277Y-16944746D02*
X22238277Y-17001889D01*
X22238277Y-17001889D02*
X22228753Y-17020936D01*
X22228753Y-17020936D02*
X22219230Y-17030460D01*
X22219230Y-17030460D02*
X22200182Y-17039984D01*
X22200182Y-17039984D02*
X22171611Y-17039984D01*
X22352563Y-17039984D02*
X22333515Y-17030460D01*
X22333515Y-17030460D02*
X22323992Y-17011412D01*
X22323992Y-17011412D02*
X22323992Y-16839984D01*
X22504944Y-17030460D02*
X22485896Y-17039984D01*
X22485896Y-17039984D02*
X22447801Y-17039984D01*
X22447801Y-17039984D02*
X22428753Y-17030460D01*
X22428753Y-17030460D02*
X22419230Y-17011412D01*
X22419230Y-17011412D02*
X22419230Y-16935222D01*
X22419230Y-16935222D02*
X22428753Y-16916174D01*
X22428753Y-16916174D02*
X22447801Y-16906650D01*
X22447801Y-16906650D02*
X22485896Y-16906650D01*
X22485896Y-16906650D02*
X22504944Y-16916174D01*
X22504944Y-16916174D02*
X22514468Y-16935222D01*
X22514468Y-16935222D02*
X22514468Y-16954270D01*
X22514468Y-16954270D02*
X22419230Y-16973317D01*
X22590658Y-17030460D02*
X22609706Y-17039984D01*
X22609706Y-17039984D02*
X22647801Y-17039984D01*
X22647801Y-17039984D02*
X22666849Y-17030460D01*
X22666849Y-17030460D02*
X22676372Y-17011412D01*
X22676372Y-17011412D02*
X22676372Y-17001889D01*
X22676372Y-17001889D02*
X22666849Y-16982841D01*
X22666849Y-16982841D02*
X22647801Y-16973317D01*
X22647801Y-16973317D02*
X22619230Y-16973317D01*
X22619230Y-16973317D02*
X22600182Y-16963793D01*
X22600182Y-16963793D02*
X22590658Y-16944746D01*
X22590658Y-16944746D02*
X22590658Y-16935222D01*
X22590658Y-16935222D02*
X22600182Y-16916174D01*
X22600182Y-16916174D02*
X22619230Y-16906650D01*
X22619230Y-16906650D02*
X22647801Y-16906650D01*
X22647801Y-16906650D02*
X22666849Y-16916174D01*
X22743039Y-17116174D02*
X22752563Y-17106650D01*
X22752563Y-17106650D02*
X22771611Y-17078079D01*
X22771611Y-17078079D02*
X22781134Y-17059031D01*
X22781134Y-17059031D02*
X22790658Y-17030460D01*
X22790658Y-17030460D02*
X22800182Y-16982841D01*
X22800182Y-16982841D02*
X22800182Y-16944746D01*
X22800182Y-16944746D02*
X22790658Y-16897127D01*
X22790658Y-16897127D02*
X22781134Y-16868555D01*
X22781134Y-16868555D02*
X22771611Y-16849508D01*
X22771611Y-16849508D02*
X22752563Y-16820936D01*
X22752563Y-16820936D02*
X22743039Y-16811412D01*
M02*
