%TF.GenerationSoftware,KiCad,Pcbnew,8.0.6*%
%TF.CreationDate,2025-02-23T20:39:58-06:00*%
%TF.ProjectId,fullycustomcontrolle one handv3c,66756c6c-7963-4757-9374-6f6d636f6e74,rev?*%
%TF.SameCoordinates,Original*%
%TF.FileFunction,Soldermask,Top*%
%TF.FilePolarity,Negative*%
%FSLAX46Y46*%
G04 Gerber Fmt 4.6, Leading zero omitted, Abs format (unit mm)*
G04 Created by KiCad (PCBNEW 8.0.6) date 2025-02-23 20:39:58*
%MOMM*%
%LPD*%
G01*
G04 APERTURE LIST*
G04 Aperture macros list*
%AMRoundRect*
0 Rectangle with rounded corners*
0 $1 Rounding radius*
0 $2 $3 $4 $5 $6 $7 $8 $9 X,Y pos of 4 corners*
0 Add a 4 corners polygon primitive as box body*
4,1,4,$2,$3,$4,$5,$6,$7,$8,$9,$2,$3,0*
0 Add four circle primitives for the rounded corners*
1,1,$1+$1,$2,$3*
1,1,$1+$1,$4,$5*
1,1,$1+$1,$6,$7*
1,1,$1+$1,$8,$9*
0 Add four rect primitives between the rounded corners*
20,1,$1+$1,$2,$3,$4,$5,0*
20,1,$1+$1,$4,$5,$6,$7,0*
20,1,$1+$1,$6,$7,$8,$9,0*
20,1,$1+$1,$8,$9,$2,$3,0*%
G04 Aperture macros list end*
%ADD10O,1.200000X2.000000*%
%ADD11O,3.200000X1.900000*%
%ADD12O,2.000000X1.200000*%
%ADD13R,1.752600X1.752600*%
%ADD14C,1.752600*%
%ADD15R,1.700000X1.700000*%
%ADD16O,1.700000X1.700000*%
%ADD17C,1.728000*%
%ADD18RoundRect,0.102000X-0.762000X0.762000X-0.762000X-0.762000X0.762000X-0.762000X0.762000X0.762000X0*%
%ADD19R,2.300000X1.500000*%
%ADD20O,2.300000X1.500000*%
G04 APERTURE END LIST*
D10*
%TO.C,MPU1*%
X183170000Y-127785000D03*
X185710000Y-127785000D03*
X188250000Y-127785000D03*
X190790000Y-127785000D03*
X193330000Y-127785000D03*
X195870000Y-127785000D03*
X198410000Y-127785000D03*
X200950000Y-127785000D03*
%TD*%
D11*
%TO.C,SW8*%
X200225000Y-55245000D03*
X212725000Y-55245000D03*
X200225000Y-60245000D03*
X212725000Y-60245000D03*
%TD*%
D12*
%TO.C,SW5*%
X209550000Y-118745000D03*
X209550000Y-121285000D03*
X209550000Y-123825000D03*
%TD*%
D11*
%TO.C,SW6*%
X193475000Y-60245000D03*
X180975000Y-60245000D03*
X193475000Y-55245000D03*
X180975000Y-55245000D03*
%TD*%
D13*
%TO.C,U1*%
X210820000Y-131445000D03*
D14*
X208280000Y-131445000D03*
X205740000Y-131445000D03*
X203200000Y-131445000D03*
X200660000Y-131445000D03*
X198120000Y-131445000D03*
X195580000Y-131445000D03*
X193040000Y-131445000D03*
X190500000Y-131445000D03*
X187960000Y-131445000D03*
X185420000Y-131445000D03*
X182880000Y-131445000D03*
X182880000Y-146685000D03*
X185420000Y-146685000D03*
X187960000Y-146685000D03*
X190500000Y-146685000D03*
X193040000Y-146685000D03*
X195580000Y-146685000D03*
X198120000Y-146685000D03*
X200660000Y-146685000D03*
X203200000Y-146685000D03*
X205740000Y-146685000D03*
X208280000Y-146685000D03*
X210820000Y-146685000D03*
%TD*%
D11*
%TO.C,SW9*%
X190065000Y-69930000D03*
X202565000Y-69930000D03*
X190065000Y-74930000D03*
X202565000Y-74930000D03*
%TD*%
%TO.C,SW7*%
X193040000Y-90805000D03*
X180540000Y-90805000D03*
X193040000Y-85805000D03*
X180540000Y-85805000D03*
%TD*%
D15*
%TO.C,J1*%
X191135000Y-26670000D03*
D16*
X193675000Y-26670000D03*
X196215000Y-26670000D03*
X198755000Y-26670000D03*
X201295000Y-26670000D03*
%TD*%
D11*
%TO.C,SW1*%
X213160000Y-90805000D03*
X200660000Y-90805000D03*
X213160000Y-85805000D03*
X200660000Y-85805000D03*
%TD*%
D17*
%TO.C,U3*%
X188595000Y-144145000D03*
X188595000Y-133985000D03*
X191135000Y-144145000D03*
D18*
X196215000Y-144145000D03*
D17*
X193675000Y-144145000D03*
X186055000Y-144145000D03*
X183515000Y-144145000D03*
X191135000Y-133985000D03*
D18*
X196215000Y-133985000D03*
D17*
X193675000Y-133985000D03*
X186055000Y-133985000D03*
X183515000Y-133985000D03*
%TD*%
D11*
%TO.C,SW2*%
X200760000Y-102275000D03*
X213260000Y-102275000D03*
X200760000Y-107275000D03*
X213260000Y-107275000D03*
%TD*%
%TO.C,SW3*%
X203200000Y-45640000D03*
X190700000Y-45640000D03*
X203200000Y-40640000D03*
X190700000Y-40640000D03*
%TD*%
D19*
%TO.C,U2*%
X210005000Y-137210000D03*
D20*
X210005000Y-139750000D03*
X210005000Y-142200000D03*
%TD*%
D11*
%TO.C,SW4*%
X180540000Y-102315000D03*
X193040000Y-102315000D03*
X180540000Y-107315000D03*
X193040000Y-107315000D03*
%TD*%
M02*
