M48
; DRILL file {KiCad 8.0.6} date 2025-02-23T20:39:56-0600
; FORMAT={-:-/ absolute / inch / decimal}
; #@! TF.CreationDate,2025-02-23T20:39:56-06:00
; #@! TF.GenerationSoftware,Kicad,Pcbnew,8.0.6
; #@! TF.FileFunction,Plated,1,2,PTH
FMAT,2
INCH
; #@! TA.AperFunction,Plated,PTH,ViaDrill
T1C0.0118
; #@! TA.AperFunction,Plated,PTH,ComponentDrill
T2C0.0315
; #@! TA.AperFunction,Plated,PTH,ComponentDrill
T3C0.0394
; #@! TA.AperFunction,Plated,PTH,ComponentDrill
T4C0.0400
; #@! TA.AperFunction,Plated,PTH,ComponentDrill
T5C0.0430
; #@! TA.AperFunction,Plated,PTH,ComponentDrill
T6C0.0512
%
G90
G05
T1
X7.033Y-4.9311
X7.184Y-3.0707
X7.2499Y-1.9744
X7.35Y-2.5277
X7.4694Y-3.5173
X7.7487Y-4.344
X7.7836Y-1.1549
X7.852Y-5.8491
T2
X7.2114Y-5.0309
X7.3114Y-5.0309
X7.4114Y-5.0309
X7.5114Y-5.0309
X7.6114Y-5.0309
X7.7114Y-5.0309
X7.8114Y-5.0309
X7.9114Y-5.0309
X8.25Y-4.675
X8.25Y-4.775
X8.25Y-4.875
T3
X7.525Y-1.05
X7.625Y-1.05
X7.725Y-1.05
X7.825Y-1.05
X7.925Y-1.05
X8.2679Y-5.402
X8.2679Y-5.502
X8.2679Y-5.5984
T4
X7.225Y-5.275
X7.225Y-5.675
X7.325Y-5.275
X7.325Y-5.675
X7.425Y-5.275
X7.425Y-5.675
X7.525Y-5.275
X7.525Y-5.675
X7.625Y-5.275
X7.625Y-5.675
X7.725Y-5.275
X7.725Y-5.675
T5
X7.2Y-5.175
X7.2Y-5.775
X7.3Y-5.175
X7.3Y-5.775
X7.4Y-5.175
X7.4Y-5.775
X7.5Y-5.175
X7.5Y-5.775
X7.6Y-5.175
X7.6Y-5.775
X7.7Y-5.175
X7.7Y-5.775
X7.8Y-5.175
X7.8Y-5.775
X7.9Y-5.175
X7.9Y-5.775
X8.0Y-5.175
X8.0Y-5.775
X8.1Y-5.175
X8.1Y-5.775
X8.2Y-5.175
X8.2Y-5.775
X8.3Y-5.175
X8.3Y-5.775
T6
X7.1079Y-3.3781
X7.1079Y-3.575
X7.1079Y-4.0281
X7.1079Y-4.225
X7.125Y-2.175
X7.125Y-2.3719
X7.4829Y-2.7531
X7.4829Y-2.95
X7.5079Y-1.6
X7.5079Y-1.7969
X7.6Y-3.3781
X7.6Y-3.575
X7.6Y-4.0281
X7.6Y-4.225
X7.6171Y-2.175
X7.6171Y-2.3719
X7.8829Y-2.175
X7.8829Y-2.3719
X7.9Y-3.3781
X7.9Y-3.575
X7.9039Y-4.0266
X7.9039Y-4.2234
X7.975Y-2.7531
X7.975Y-2.95
X8.0Y-1.6
X8.0Y-1.7969
X8.375Y-2.175
X8.375Y-2.3719
X8.3921Y-3.3781
X8.3921Y-3.575
X8.3961Y-4.0266
X8.3961Y-4.2234
M30
