%TF.GenerationSoftware,KiCad,Pcbnew,8.0.3*%
%TF.CreationDate,2024-07-16T22:19:42-05:00*%
%TF.ProjectId,3.3v Pro Micro Wii Connector,332e3376-2050-4726-9f20-4d6963726f20,rev?*%
%TF.SameCoordinates,Original*%
%TF.FileFunction,Drillmap*%
%TF.FilePolarity,Positive*%
%FSLAX45Y45*%
G04 Gerber Fmt 4.5, Leading zero omitted, Abs format (unit mm)*
G04 Created by KiCad (PCBNEW 8.0.3) date 2024-07-16 22:19:42*
%MOMM*%
%LPD*%
G01*
G04 APERTURE LIST*
%ADD10C,0.050000*%
%ADD11C,0.200000*%
G04 APERTURE END LIST*
D10*
X18862790Y-12672790D02*
X16310000Y-12674000D01*
X18862790Y-7848000D02*
X16310000Y-7848000D01*
X15802000Y-8356000D02*
G75*
G02*
X16310000Y-7848000I508000J0D01*
G01*
X19370790Y-12164790D02*
G75*
G02*
X18862790Y-12672790I-508000J0D01*
G01*
X16310000Y-12674000D02*
G75*
G02*
X15802000Y-12166000I0J508000D01*
G01*
X15802000Y-8356000D02*
X15802000Y-12166000D01*
X18862790Y-7848000D02*
G75*
G02*
X19370790Y-8356000I0J-508000D01*
G01*
X19370790Y-8356000D02*
X19370790Y-12164790D01*
D11*
X16060277Y-12987984D02*
X16060277Y-12787984D01*
X16060277Y-12787984D02*
X16107896Y-12787984D01*
X16107896Y-12787984D02*
X16136467Y-12797508D01*
X16136467Y-12797508D02*
X16155515Y-12816555D01*
X16155515Y-12816555D02*
X16165039Y-12835603D01*
X16165039Y-12835603D02*
X16174562Y-12873698D01*
X16174562Y-12873698D02*
X16174562Y-12902269D01*
X16174562Y-12902269D02*
X16165039Y-12940365D01*
X16165039Y-12940365D02*
X16155515Y-12959412D01*
X16155515Y-12959412D02*
X16136467Y-12978460D01*
X16136467Y-12978460D02*
X16107896Y-12987984D01*
X16107896Y-12987984D02*
X16060277Y-12987984D01*
X16260277Y-12987984D02*
X16260277Y-12854650D01*
X16260277Y-12892746D02*
X16269801Y-12873698D01*
X16269801Y-12873698D02*
X16279324Y-12864174D01*
X16279324Y-12864174D02*
X16298372Y-12854650D01*
X16298372Y-12854650D02*
X16317420Y-12854650D01*
X16384086Y-12987984D02*
X16384086Y-12854650D01*
X16384086Y-12787984D02*
X16374562Y-12797508D01*
X16374562Y-12797508D02*
X16384086Y-12807031D01*
X16384086Y-12807031D02*
X16393610Y-12797508D01*
X16393610Y-12797508D02*
X16384086Y-12787984D01*
X16384086Y-12787984D02*
X16384086Y-12807031D01*
X16507896Y-12987984D02*
X16488848Y-12978460D01*
X16488848Y-12978460D02*
X16479324Y-12959412D01*
X16479324Y-12959412D02*
X16479324Y-12787984D01*
X16612658Y-12987984D02*
X16593610Y-12978460D01*
X16593610Y-12978460D02*
X16584086Y-12959412D01*
X16584086Y-12959412D02*
X16584086Y-12787984D01*
X16841229Y-12987984D02*
X16841229Y-12787984D01*
X16841229Y-12787984D02*
X16907896Y-12930841D01*
X16907896Y-12930841D02*
X16974563Y-12787984D01*
X16974563Y-12787984D02*
X16974563Y-12987984D01*
X17155515Y-12987984D02*
X17155515Y-12883222D01*
X17155515Y-12883222D02*
X17145991Y-12864174D01*
X17145991Y-12864174D02*
X17126944Y-12854650D01*
X17126944Y-12854650D02*
X17088848Y-12854650D01*
X17088848Y-12854650D02*
X17069801Y-12864174D01*
X17155515Y-12978460D02*
X17136467Y-12987984D01*
X17136467Y-12987984D02*
X17088848Y-12987984D01*
X17088848Y-12987984D02*
X17069801Y-12978460D01*
X17069801Y-12978460D02*
X17060277Y-12959412D01*
X17060277Y-12959412D02*
X17060277Y-12940365D01*
X17060277Y-12940365D02*
X17069801Y-12921317D01*
X17069801Y-12921317D02*
X17088848Y-12911793D01*
X17088848Y-12911793D02*
X17136467Y-12911793D01*
X17136467Y-12911793D02*
X17155515Y-12902269D01*
X17250753Y-12854650D02*
X17250753Y-13054650D01*
X17250753Y-12864174D02*
X17269801Y-12854650D01*
X17269801Y-12854650D02*
X17307896Y-12854650D01*
X17307896Y-12854650D02*
X17326944Y-12864174D01*
X17326944Y-12864174D02*
X17336467Y-12873698D01*
X17336467Y-12873698D02*
X17345991Y-12892746D01*
X17345991Y-12892746D02*
X17345991Y-12949888D01*
X17345991Y-12949888D02*
X17336467Y-12968936D01*
X17336467Y-12968936D02*
X17326944Y-12978460D01*
X17326944Y-12978460D02*
X17307896Y-12987984D01*
X17307896Y-12987984D02*
X17269801Y-12987984D01*
X17269801Y-12987984D02*
X17250753Y-12978460D01*
X17431705Y-12968936D02*
X17441229Y-12978460D01*
X17441229Y-12978460D02*
X17431705Y-12987984D01*
X17431705Y-12987984D02*
X17422182Y-12978460D01*
X17422182Y-12978460D02*
X17431705Y-12968936D01*
X17431705Y-12968936D02*
X17431705Y-12987984D01*
X17431705Y-12864174D02*
X17441229Y-12873698D01*
X17441229Y-12873698D02*
X17431705Y-12883222D01*
X17431705Y-12883222D02*
X17422182Y-12873698D01*
X17422182Y-12873698D02*
X17431705Y-12864174D01*
X17431705Y-12864174D02*
X17431705Y-12883222D01*
M02*
