M48
; DRILL file {KiCad 8.0.3} date 2024-07-16T22:13:32-0500
; FORMAT={-:-/ absolute / inch / decimal}
; #@! TF.CreationDate,2024-07-16T22:13:32-05:00
; #@! TF.GenerationSoftware,Kicad,Pcbnew,8.0.3
; #@! TF.FileFunction,Plated,1,2,PTH
FMAT,2
INCH
; #@! TA.AperFunction,Plated,PTH,ComponentDrill
T1C0.0295
; #@! TA.AperFunction,Plated,PTH,ComponentDrill
T2C0.0394
; #@! TA.AperFunction,Plated,PTH,ComponentDrill
T3C0.0400
; #@! TA.AperFunction,Plated,PTH,ComponentDrill
T4C0.0430
; #@! TA.AperFunction,Plated,PTH,ComponentDrill
T5C0.0787
%
G90
G05
T1
X7.1313Y-4.4325
X7.1313Y-4.5075
X7.2063Y-4.4325
X7.2063Y-4.5075
X7.2813Y-4.4325
X7.2813Y-4.5075
T2
X7.487Y-3.976
X7.487Y-4.0724
X7.487Y-4.1724
T3
X7.0941Y-3.2339
X7.0941Y-3.3339
X7.0941Y-3.4339
X7.0941Y-3.5339
X7.0941Y-3.6339
X7.0941Y-3.7339
X7.4941Y-3.2339
X7.4941Y-3.3339
X7.4941Y-3.4339
X7.4941Y-3.5339
X7.4941Y-3.6339
X7.4941Y-3.7339
T4
X6.3492Y-3.2165
X6.3492Y-3.3165
X6.3492Y-3.4165
X6.3492Y-3.5165
X6.3492Y-3.6165
X6.3492Y-3.7165
X6.3492Y-3.8165
X6.3492Y-3.9165
X6.3492Y-4.0165
X6.3492Y-4.1165
X6.3492Y-4.2165
X6.3492Y-4.3165
X6.9492Y-3.2165
X6.9492Y-3.3165
X6.9492Y-3.4165
X6.9492Y-3.5165
X6.9492Y-3.6165
X6.9492Y-3.7165
X6.9492Y-3.8165
X6.9492Y-3.9165
X6.9492Y-4.0165
X6.9492Y-4.1165
X6.9492Y-4.2165
X6.9492Y-4.3165
T5
X6.9613Y-4.5325
X6.9613Y-4.7825
X7.4713Y-4.5325
X7.4713Y-4.7825
M30
