%TF.GenerationSoftware,KiCad,Pcbnew,8.0.6*%
%TF.CreationDate,2025-03-08T22:03:20-06:00*%
%TF.ProjectId,fullycustomcontrolle one handv4,66756c6c-7963-4757-9374-6f6d636f6e74,rev?*%
%TF.SameCoordinates,Original*%
%TF.FileFunction,Legend,Top*%
%TF.FilePolarity,Positive*%
%FSLAX46Y46*%
G04 Gerber Fmt 4.6, Leading zero omitted, Abs format (unit mm)*
G04 Created by KiCad (PCBNEW 8.0.6) date 2025-03-08 22:03:20*
%MOMM*%
%LPD*%
G01*
G04 APERTURE LIST*
%ADD10C,0.200000*%
%ADD11C,0.100000*%
%ADD12C,0.150000*%
%ADD13C,0.203200*%
%ADD14C,0.125000*%
%ADD15C,0.120000*%
%ADD16C,0.000000*%
%ADD17C,0.381000*%
%ADD18C,0.127000*%
%ADD19R,1.752600X1.752600*%
%ADD20C,1.752600*%
G04 APERTURE END LIST*
D10*
X187370062Y-31241904D02*
X187322443Y-31337142D01*
X187322443Y-31337142D02*
X187322443Y-31479999D01*
X187322443Y-31479999D02*
X187370062Y-31622856D01*
X187370062Y-31622856D02*
X187465300Y-31718094D01*
X187465300Y-31718094D02*
X187560538Y-31765713D01*
X187560538Y-31765713D02*
X187751014Y-31813332D01*
X187751014Y-31813332D02*
X187893871Y-31813332D01*
X187893871Y-31813332D02*
X188084347Y-31765713D01*
X188084347Y-31765713D02*
X188179585Y-31718094D01*
X188179585Y-31718094D02*
X188274824Y-31622856D01*
X188274824Y-31622856D02*
X188322443Y-31479999D01*
X188322443Y-31479999D02*
X188322443Y-31384761D01*
X188322443Y-31384761D02*
X188274824Y-31241904D01*
X188274824Y-31241904D02*
X188227204Y-31194285D01*
X188227204Y-31194285D02*
X187893871Y-31194285D01*
X187893871Y-31194285D02*
X187893871Y-31384761D01*
X188322443Y-30765713D02*
X187322443Y-30765713D01*
X187322443Y-30765713D02*
X188322443Y-30194285D01*
X188322443Y-30194285D02*
X187322443Y-30194285D01*
X188322443Y-29718094D02*
X187322443Y-29718094D01*
X187322443Y-29718094D02*
X187322443Y-29479999D01*
X187322443Y-29479999D02*
X187370062Y-29337142D01*
X187370062Y-29337142D02*
X187465300Y-29241904D01*
X187465300Y-29241904D02*
X187560538Y-29194285D01*
X187560538Y-29194285D02*
X187751014Y-29146666D01*
X187751014Y-29146666D02*
X187893871Y-29146666D01*
X187893871Y-29146666D02*
X188084347Y-29194285D01*
X188084347Y-29194285D02*
X188179585Y-29241904D01*
X188179585Y-29241904D02*
X188274824Y-29337142D01*
X188274824Y-29337142D02*
X188322443Y-29479999D01*
X188322443Y-29479999D02*
X188322443Y-29718094D01*
X190542331Y-31575237D02*
X191542331Y-31241904D01*
X191542331Y-31241904D02*
X190542331Y-30908571D01*
X191542331Y-30575237D02*
X190542331Y-30575237D01*
X191542331Y-30099047D02*
X190542331Y-30099047D01*
X190542331Y-30099047D02*
X191542331Y-29527619D01*
X191542331Y-29527619D02*
X190542331Y-29527619D01*
X194762219Y-30646666D02*
X194286028Y-30979999D01*
X194762219Y-31218094D02*
X193762219Y-31218094D01*
X193762219Y-31218094D02*
X193762219Y-30837142D01*
X193762219Y-30837142D02*
X193809838Y-30741904D01*
X193809838Y-30741904D02*
X193857457Y-30694285D01*
X193857457Y-30694285D02*
X193952695Y-30646666D01*
X193952695Y-30646666D02*
X194095552Y-30646666D01*
X194095552Y-30646666D02*
X194190790Y-30694285D01*
X194190790Y-30694285D02*
X194238409Y-30741904D01*
X194238409Y-30741904D02*
X194286028Y-30837142D01*
X194286028Y-30837142D02*
X194286028Y-31218094D01*
X193762219Y-30313332D02*
X194762219Y-29646666D01*
X193762219Y-29646666D02*
X194762219Y-30313332D01*
X197982107Y-30599047D02*
X197505916Y-30932380D01*
X197982107Y-31170475D02*
X196982107Y-31170475D01*
X196982107Y-31170475D02*
X196982107Y-30789523D01*
X196982107Y-30789523D02*
X197029726Y-30694285D01*
X197029726Y-30694285D02*
X197077345Y-30646666D01*
X197077345Y-30646666D02*
X197172583Y-30599047D01*
X197172583Y-30599047D02*
X197315440Y-30599047D01*
X197315440Y-30599047D02*
X197410678Y-30646666D01*
X197410678Y-30646666D02*
X197458297Y-30694285D01*
X197458297Y-30694285D02*
X197505916Y-30789523D01*
X197505916Y-30789523D02*
X197505916Y-31170475D01*
X197505916Y-29979999D02*
X197982107Y-29979999D01*
X196982107Y-30313332D02*
X197505916Y-29979999D01*
X197505916Y-29979999D02*
X196982107Y-29646666D01*
X201154376Y-31337142D02*
X201201995Y-31194285D01*
X201201995Y-31194285D02*
X201201995Y-30956190D01*
X201201995Y-30956190D02*
X201154376Y-30860952D01*
X201154376Y-30860952D02*
X201106756Y-30813333D01*
X201106756Y-30813333D02*
X201011518Y-30765714D01*
X201011518Y-30765714D02*
X200916280Y-30765714D01*
X200916280Y-30765714D02*
X200821042Y-30813333D01*
X200821042Y-30813333D02*
X200773423Y-30860952D01*
X200773423Y-30860952D02*
X200725804Y-30956190D01*
X200725804Y-30956190D02*
X200678185Y-31146666D01*
X200678185Y-31146666D02*
X200630566Y-31241904D01*
X200630566Y-31241904D02*
X200582947Y-31289523D01*
X200582947Y-31289523D02*
X200487709Y-31337142D01*
X200487709Y-31337142D02*
X200392471Y-31337142D01*
X200392471Y-31337142D02*
X200297233Y-31289523D01*
X200297233Y-31289523D02*
X200249614Y-31241904D01*
X200249614Y-31241904D02*
X200201995Y-31146666D01*
X200201995Y-31146666D02*
X200201995Y-30908571D01*
X200201995Y-30908571D02*
X200249614Y-30765714D01*
X200201995Y-30432380D02*
X201201995Y-30194285D01*
X201201995Y-30194285D02*
X200487709Y-30003809D01*
X200487709Y-30003809D02*
X201201995Y-29813333D01*
X201201995Y-29813333D02*
X200201995Y-29575238D01*
D11*
X211597419Y-139396115D02*
X212406942Y-139396115D01*
X212406942Y-139396115D02*
X212502180Y-139348496D01*
X212502180Y-139348496D02*
X212549800Y-139300877D01*
X212549800Y-139300877D02*
X212597419Y-139205639D01*
X212597419Y-139205639D02*
X212597419Y-139015163D01*
X212597419Y-139015163D02*
X212549800Y-138919925D01*
X212549800Y-138919925D02*
X212502180Y-138872306D01*
X212502180Y-138872306D02*
X212406942Y-138824687D01*
X212406942Y-138824687D02*
X211597419Y-138824687D01*
X212549800Y-138396115D02*
X212597419Y-138253258D01*
X212597419Y-138253258D02*
X212597419Y-138015163D01*
X212597419Y-138015163D02*
X212549800Y-137919925D01*
X212549800Y-137919925D02*
X212502180Y-137872306D01*
X212502180Y-137872306D02*
X212406942Y-137824687D01*
X212406942Y-137824687D02*
X212311704Y-137824687D01*
X212311704Y-137824687D02*
X212216466Y-137872306D01*
X212216466Y-137872306D02*
X212168847Y-137919925D01*
X212168847Y-137919925D02*
X212121228Y-138015163D01*
X212121228Y-138015163D02*
X212073609Y-138205639D01*
X212073609Y-138205639D02*
X212025990Y-138300877D01*
X212025990Y-138300877D02*
X211978371Y-138348496D01*
X211978371Y-138348496D02*
X211883133Y-138396115D01*
X211883133Y-138396115D02*
X211787895Y-138396115D01*
X211787895Y-138396115D02*
X211692657Y-138348496D01*
X211692657Y-138348496D02*
X211645038Y-138300877D01*
X211645038Y-138300877D02*
X211597419Y-138205639D01*
X211597419Y-138205639D02*
X211597419Y-137967544D01*
X211597419Y-137967544D02*
X211645038Y-137824687D01*
X212073609Y-137062782D02*
X212121228Y-136919925D01*
X212121228Y-136919925D02*
X212168847Y-136872306D01*
X212168847Y-136872306D02*
X212264085Y-136824687D01*
X212264085Y-136824687D02*
X212406942Y-136824687D01*
X212406942Y-136824687D02*
X212502180Y-136872306D01*
X212502180Y-136872306D02*
X212549800Y-136919925D01*
X212549800Y-136919925D02*
X212597419Y-137015163D01*
X212597419Y-137015163D02*
X212597419Y-137396115D01*
X212597419Y-137396115D02*
X211597419Y-137396115D01*
X211597419Y-137396115D02*
X211597419Y-137062782D01*
X211597419Y-137062782D02*
X211645038Y-136967544D01*
X211645038Y-136967544D02*
X211692657Y-136919925D01*
X211692657Y-136919925D02*
X211787895Y-136872306D01*
X211787895Y-136872306D02*
X211883133Y-136872306D01*
X211883133Y-136872306D02*
X211978371Y-136919925D01*
X211978371Y-136919925D02*
X212025990Y-136967544D01*
X212025990Y-136967544D02*
X212073609Y-137062782D01*
X212073609Y-137062782D02*
X212073609Y-137396115D01*
D12*
X200974819Y-105973332D02*
X199974819Y-105973332D01*
X199974819Y-105973332D02*
X200689104Y-105639999D01*
X200689104Y-105639999D02*
X199974819Y-105306666D01*
X199974819Y-105306666D02*
X200974819Y-105306666D01*
X200974819Y-104830475D02*
X199974819Y-104830475D01*
X199974819Y-104830475D02*
X199974819Y-104449523D01*
X199974819Y-104449523D02*
X200022438Y-104354285D01*
X200022438Y-104354285D02*
X200070057Y-104306666D01*
X200070057Y-104306666D02*
X200165295Y-104259047D01*
X200165295Y-104259047D02*
X200308152Y-104259047D01*
X200308152Y-104259047D02*
X200403390Y-104306666D01*
X200403390Y-104306666D02*
X200451009Y-104354285D01*
X200451009Y-104354285D02*
X200498628Y-104449523D01*
X200498628Y-104449523D02*
X200498628Y-104830475D01*
X199974819Y-103830475D02*
X200784342Y-103830475D01*
X200784342Y-103830475D02*
X200879580Y-103782856D01*
X200879580Y-103782856D02*
X200927200Y-103735237D01*
X200927200Y-103735237D02*
X200974819Y-103639999D01*
X200974819Y-103639999D02*
X200974819Y-103449523D01*
X200974819Y-103449523D02*
X200927200Y-103354285D01*
X200927200Y-103354285D02*
X200879580Y-103306666D01*
X200879580Y-103306666D02*
X200784342Y-103259047D01*
X200784342Y-103259047D02*
X199974819Y-103259047D01*
X200974819Y-102259047D02*
X200974819Y-102830475D01*
X200974819Y-102544761D02*
X199974819Y-102544761D01*
X199974819Y-102544761D02*
X200117676Y-102639999D01*
X200117676Y-102639999D02*
X200212914Y-102735237D01*
X200212914Y-102735237D02*
X200260533Y-102830475D01*
D11*
X190392419Y-109431353D02*
X191392419Y-108764687D01*
X190392419Y-108764687D02*
X191392419Y-109431353D01*
X191392419Y-108383734D02*
X190392419Y-108383734D01*
X190392419Y-108383734D02*
X190392419Y-108145639D01*
X190392419Y-108145639D02*
X190440038Y-108002782D01*
X190440038Y-108002782D02*
X190535276Y-107907544D01*
X190535276Y-107907544D02*
X190630514Y-107859925D01*
X190630514Y-107859925D02*
X190820990Y-107812306D01*
X190820990Y-107812306D02*
X190963847Y-107812306D01*
X190963847Y-107812306D02*
X191154323Y-107859925D01*
X191154323Y-107859925D02*
X191249561Y-107907544D01*
X191249561Y-107907544D02*
X191344800Y-108002782D01*
X191344800Y-108002782D02*
X191392419Y-108145639D01*
X191392419Y-108145639D02*
X191392419Y-108383734D01*
X191106704Y-107431353D02*
X191106704Y-106955163D01*
X191392419Y-107526591D02*
X190392419Y-107193258D01*
X190392419Y-107193258D02*
X191392419Y-106859925D01*
X192892419Y-109431353D02*
X193892419Y-108764687D01*
X192892419Y-108764687D02*
X193892419Y-109431353D01*
X193797180Y-107812306D02*
X193844800Y-107859925D01*
X193844800Y-107859925D02*
X193892419Y-108002782D01*
X193892419Y-108002782D02*
X193892419Y-108098020D01*
X193892419Y-108098020D02*
X193844800Y-108240877D01*
X193844800Y-108240877D02*
X193749561Y-108336115D01*
X193749561Y-108336115D02*
X193654323Y-108383734D01*
X193654323Y-108383734D02*
X193463847Y-108431353D01*
X193463847Y-108431353D02*
X193320990Y-108431353D01*
X193320990Y-108431353D02*
X193130514Y-108383734D01*
X193130514Y-108383734D02*
X193035276Y-108336115D01*
X193035276Y-108336115D02*
X192940038Y-108240877D01*
X192940038Y-108240877D02*
X192892419Y-108098020D01*
X192892419Y-108098020D02*
X192892419Y-108002782D01*
X192892419Y-108002782D02*
X192940038Y-107859925D01*
X192940038Y-107859925D02*
X192987657Y-107812306D01*
X193892419Y-106907544D02*
X193892419Y-107383734D01*
X193892419Y-107383734D02*
X192892419Y-107383734D01*
X186094800Y-109383734D02*
X186142419Y-109240877D01*
X186142419Y-109240877D02*
X186142419Y-109002782D01*
X186142419Y-109002782D02*
X186094800Y-108907544D01*
X186094800Y-108907544D02*
X186047180Y-108859925D01*
X186047180Y-108859925D02*
X185951942Y-108812306D01*
X185951942Y-108812306D02*
X185856704Y-108812306D01*
X185856704Y-108812306D02*
X185761466Y-108859925D01*
X185761466Y-108859925D02*
X185713847Y-108907544D01*
X185713847Y-108907544D02*
X185666228Y-109002782D01*
X185666228Y-109002782D02*
X185618609Y-109193258D01*
X185618609Y-109193258D02*
X185570990Y-109288496D01*
X185570990Y-109288496D02*
X185523371Y-109336115D01*
X185523371Y-109336115D02*
X185428133Y-109383734D01*
X185428133Y-109383734D02*
X185332895Y-109383734D01*
X185332895Y-109383734D02*
X185237657Y-109336115D01*
X185237657Y-109336115D02*
X185190038Y-109288496D01*
X185190038Y-109288496D02*
X185142419Y-109193258D01*
X185142419Y-109193258D02*
X185142419Y-108955163D01*
X185142419Y-108955163D02*
X185190038Y-108812306D01*
X186047180Y-107812306D02*
X186094800Y-107859925D01*
X186094800Y-107859925D02*
X186142419Y-108002782D01*
X186142419Y-108002782D02*
X186142419Y-108098020D01*
X186142419Y-108098020D02*
X186094800Y-108240877D01*
X186094800Y-108240877D02*
X185999561Y-108336115D01*
X185999561Y-108336115D02*
X185904323Y-108383734D01*
X185904323Y-108383734D02*
X185713847Y-108431353D01*
X185713847Y-108431353D02*
X185570990Y-108431353D01*
X185570990Y-108431353D02*
X185380514Y-108383734D01*
X185380514Y-108383734D02*
X185285276Y-108336115D01*
X185285276Y-108336115D02*
X185190038Y-108240877D01*
X185190038Y-108240877D02*
X185142419Y-108098020D01*
X185142419Y-108098020D02*
X185142419Y-108002782D01*
X185142419Y-108002782D02*
X185190038Y-107859925D01*
X185190038Y-107859925D02*
X185237657Y-107812306D01*
X186142419Y-106907544D02*
X186142419Y-107383734D01*
X186142419Y-107383734D02*
X185142419Y-107383734D01*
X198892419Y-109336115D02*
X197892419Y-109336115D01*
X198892419Y-108859925D02*
X197892419Y-108859925D01*
X197892419Y-108859925D02*
X198892419Y-108288497D01*
X198892419Y-108288497D02*
X197892419Y-108288497D01*
X197892419Y-107955163D02*
X197892419Y-107383735D01*
X198892419Y-107669449D02*
X197892419Y-107669449D01*
X196106704Y-109383734D02*
X196106704Y-108907544D01*
X196392419Y-109478972D02*
X195392419Y-109145639D01*
X195392419Y-109145639D02*
X196392419Y-108812306D01*
X196392419Y-108478972D02*
X195392419Y-108478972D01*
X195392419Y-108478972D02*
X195392419Y-108240877D01*
X195392419Y-108240877D02*
X195440038Y-108098020D01*
X195440038Y-108098020D02*
X195535276Y-108002782D01*
X195535276Y-108002782D02*
X195630514Y-107955163D01*
X195630514Y-107955163D02*
X195820990Y-107907544D01*
X195820990Y-107907544D02*
X195963847Y-107907544D01*
X195963847Y-107907544D02*
X196154323Y-107955163D01*
X196154323Y-107955163D02*
X196249561Y-108002782D01*
X196249561Y-108002782D02*
X196344800Y-108098020D01*
X196344800Y-108098020D02*
X196392419Y-108240877D01*
X196392419Y-108240877D02*
X196392419Y-108478972D01*
X195392419Y-107288496D02*
X195392419Y-107193258D01*
X195392419Y-107193258D02*
X195440038Y-107098020D01*
X195440038Y-107098020D02*
X195487657Y-107050401D01*
X195487657Y-107050401D02*
X195582895Y-107002782D01*
X195582895Y-107002782D02*
X195773371Y-106955163D01*
X195773371Y-106955163D02*
X196011466Y-106955163D01*
X196011466Y-106955163D02*
X196201942Y-107002782D01*
X196201942Y-107002782D02*
X196297180Y-107050401D01*
X196297180Y-107050401D02*
X196344800Y-107098020D01*
X196344800Y-107098020D02*
X196392419Y-107193258D01*
X196392419Y-107193258D02*
X196392419Y-107288496D01*
X196392419Y-107288496D02*
X196344800Y-107383734D01*
X196344800Y-107383734D02*
X196297180Y-107431353D01*
X196297180Y-107431353D02*
X196201942Y-107478972D01*
X196201942Y-107478972D02*
X196011466Y-107526591D01*
X196011466Y-107526591D02*
X195773371Y-107526591D01*
X195773371Y-107526591D02*
X195582895Y-107478972D01*
X195582895Y-107478972D02*
X195487657Y-107431353D01*
X195487657Y-107431353D02*
X195440038Y-107383734D01*
X195440038Y-107383734D02*
X195392419Y-107288496D01*
X182690038Y-108812306D02*
X182642419Y-108907544D01*
X182642419Y-108907544D02*
X182642419Y-109050401D01*
X182642419Y-109050401D02*
X182690038Y-109193258D01*
X182690038Y-109193258D02*
X182785276Y-109288496D01*
X182785276Y-109288496D02*
X182880514Y-109336115D01*
X182880514Y-109336115D02*
X183070990Y-109383734D01*
X183070990Y-109383734D02*
X183213847Y-109383734D01*
X183213847Y-109383734D02*
X183404323Y-109336115D01*
X183404323Y-109336115D02*
X183499561Y-109288496D01*
X183499561Y-109288496D02*
X183594800Y-109193258D01*
X183594800Y-109193258D02*
X183642419Y-109050401D01*
X183642419Y-109050401D02*
X183642419Y-108955163D01*
X183642419Y-108955163D02*
X183594800Y-108812306D01*
X183594800Y-108812306D02*
X183547180Y-108764687D01*
X183547180Y-108764687D02*
X183213847Y-108764687D01*
X183213847Y-108764687D02*
X183213847Y-108955163D01*
X183642419Y-108336115D02*
X182642419Y-108336115D01*
X182642419Y-108336115D02*
X183642419Y-107764687D01*
X183642419Y-107764687D02*
X182642419Y-107764687D01*
X183642419Y-107288496D02*
X182642419Y-107288496D01*
X182642419Y-107288496D02*
X182642419Y-107050401D01*
X182642419Y-107050401D02*
X182690038Y-106907544D01*
X182690038Y-106907544D02*
X182785276Y-106812306D01*
X182785276Y-106812306D02*
X182880514Y-106764687D01*
X182880514Y-106764687D02*
X183070990Y-106717068D01*
X183070990Y-106717068D02*
X183213847Y-106717068D01*
X183213847Y-106717068D02*
X183404323Y-106764687D01*
X183404323Y-106764687D02*
X183499561Y-106812306D01*
X183499561Y-106812306D02*
X183594800Y-106907544D01*
X183594800Y-106907544D02*
X183642419Y-107050401D01*
X183642419Y-107050401D02*
X183642419Y-107288496D01*
X188594800Y-109383734D02*
X188642419Y-109240877D01*
X188642419Y-109240877D02*
X188642419Y-109002782D01*
X188642419Y-109002782D02*
X188594800Y-108907544D01*
X188594800Y-108907544D02*
X188547180Y-108859925D01*
X188547180Y-108859925D02*
X188451942Y-108812306D01*
X188451942Y-108812306D02*
X188356704Y-108812306D01*
X188356704Y-108812306D02*
X188261466Y-108859925D01*
X188261466Y-108859925D02*
X188213847Y-108907544D01*
X188213847Y-108907544D02*
X188166228Y-109002782D01*
X188166228Y-109002782D02*
X188118609Y-109193258D01*
X188118609Y-109193258D02*
X188070990Y-109288496D01*
X188070990Y-109288496D02*
X188023371Y-109336115D01*
X188023371Y-109336115D02*
X187928133Y-109383734D01*
X187928133Y-109383734D02*
X187832895Y-109383734D01*
X187832895Y-109383734D02*
X187737657Y-109336115D01*
X187737657Y-109336115D02*
X187690038Y-109288496D01*
X187690038Y-109288496D02*
X187642419Y-109193258D01*
X187642419Y-109193258D02*
X187642419Y-108955163D01*
X187642419Y-108955163D02*
X187690038Y-108812306D01*
X188642419Y-108383734D02*
X187642419Y-108383734D01*
X187642419Y-108383734D02*
X187642419Y-108145639D01*
X187642419Y-108145639D02*
X187690038Y-108002782D01*
X187690038Y-108002782D02*
X187785276Y-107907544D01*
X187785276Y-107907544D02*
X187880514Y-107859925D01*
X187880514Y-107859925D02*
X188070990Y-107812306D01*
X188070990Y-107812306D02*
X188213847Y-107812306D01*
X188213847Y-107812306D02*
X188404323Y-107859925D01*
X188404323Y-107859925D02*
X188499561Y-107907544D01*
X188499561Y-107907544D02*
X188594800Y-108002782D01*
X188594800Y-108002782D02*
X188642419Y-108145639D01*
X188642419Y-108145639D02*
X188642419Y-108383734D01*
X188356704Y-107431353D02*
X188356704Y-106955163D01*
X188642419Y-107526591D02*
X187642419Y-107193258D01*
X187642419Y-107193258D02*
X188642419Y-106859925D01*
X180142419Y-109478972D02*
X181142419Y-109145639D01*
X181142419Y-109145639D02*
X180142419Y-108812306D01*
X181047180Y-107907544D02*
X181094800Y-107955163D01*
X181094800Y-107955163D02*
X181142419Y-108098020D01*
X181142419Y-108098020D02*
X181142419Y-108193258D01*
X181142419Y-108193258D02*
X181094800Y-108336115D01*
X181094800Y-108336115D02*
X180999561Y-108431353D01*
X180999561Y-108431353D02*
X180904323Y-108478972D01*
X180904323Y-108478972D02*
X180713847Y-108526591D01*
X180713847Y-108526591D02*
X180570990Y-108526591D01*
X180570990Y-108526591D02*
X180380514Y-108478972D01*
X180380514Y-108478972D02*
X180285276Y-108431353D01*
X180285276Y-108431353D02*
X180190038Y-108336115D01*
X180190038Y-108336115D02*
X180142419Y-108193258D01*
X180142419Y-108193258D02*
X180142419Y-108098020D01*
X180142419Y-108098020D02*
X180190038Y-107955163D01*
X180190038Y-107955163D02*
X180237657Y-107907544D01*
X181047180Y-106907544D02*
X181094800Y-106955163D01*
X181094800Y-106955163D02*
X181142419Y-107098020D01*
X181142419Y-107098020D02*
X181142419Y-107193258D01*
X181142419Y-107193258D02*
X181094800Y-107336115D01*
X181094800Y-107336115D02*
X180999561Y-107431353D01*
X180999561Y-107431353D02*
X180904323Y-107478972D01*
X180904323Y-107478972D02*
X180713847Y-107526591D01*
X180713847Y-107526591D02*
X180570990Y-107526591D01*
X180570990Y-107526591D02*
X180380514Y-107478972D01*
X180380514Y-107478972D02*
X180285276Y-107431353D01*
X180285276Y-107431353D02*
X180190038Y-107336115D01*
X180190038Y-107336115D02*
X180142419Y-107193258D01*
X180142419Y-107193258D02*
X180142419Y-107098020D01*
X180142419Y-107098020D02*
X180190038Y-106955163D01*
X180190038Y-106955163D02*
X180237657Y-106907544D01*
D12*
X204721667Y-50242200D02*
X204864524Y-50289819D01*
X204864524Y-50289819D02*
X205102619Y-50289819D01*
X205102619Y-50289819D02*
X205197857Y-50242200D01*
X205197857Y-50242200D02*
X205245476Y-50194580D01*
X205245476Y-50194580D02*
X205293095Y-50099342D01*
X205293095Y-50099342D02*
X205293095Y-50004104D01*
X205293095Y-50004104D02*
X205245476Y-49908866D01*
X205245476Y-49908866D02*
X205197857Y-49861247D01*
X205197857Y-49861247D02*
X205102619Y-49813628D01*
X205102619Y-49813628D02*
X204912143Y-49766009D01*
X204912143Y-49766009D02*
X204816905Y-49718390D01*
X204816905Y-49718390D02*
X204769286Y-49670771D01*
X204769286Y-49670771D02*
X204721667Y-49575533D01*
X204721667Y-49575533D02*
X204721667Y-49480295D01*
X204721667Y-49480295D02*
X204769286Y-49385057D01*
X204769286Y-49385057D02*
X204816905Y-49337438D01*
X204816905Y-49337438D02*
X204912143Y-49289819D01*
X204912143Y-49289819D02*
X205150238Y-49289819D01*
X205150238Y-49289819D02*
X205293095Y-49337438D01*
X205626429Y-49289819D02*
X205864524Y-50289819D01*
X205864524Y-50289819D02*
X206055000Y-49575533D01*
X206055000Y-49575533D02*
X206245476Y-50289819D01*
X206245476Y-50289819D02*
X206483572Y-49289819D01*
X207007381Y-49718390D02*
X206912143Y-49670771D01*
X206912143Y-49670771D02*
X206864524Y-49623152D01*
X206864524Y-49623152D02*
X206816905Y-49527914D01*
X206816905Y-49527914D02*
X206816905Y-49480295D01*
X206816905Y-49480295D02*
X206864524Y-49385057D01*
X206864524Y-49385057D02*
X206912143Y-49337438D01*
X206912143Y-49337438D02*
X207007381Y-49289819D01*
X207007381Y-49289819D02*
X207197857Y-49289819D01*
X207197857Y-49289819D02*
X207293095Y-49337438D01*
X207293095Y-49337438D02*
X207340714Y-49385057D01*
X207340714Y-49385057D02*
X207388333Y-49480295D01*
X207388333Y-49480295D02*
X207388333Y-49527914D01*
X207388333Y-49527914D02*
X207340714Y-49623152D01*
X207340714Y-49623152D02*
X207293095Y-49670771D01*
X207293095Y-49670771D02*
X207197857Y-49718390D01*
X207197857Y-49718390D02*
X207007381Y-49718390D01*
X207007381Y-49718390D02*
X206912143Y-49766009D01*
X206912143Y-49766009D02*
X206864524Y-49813628D01*
X206864524Y-49813628D02*
X206816905Y-49908866D01*
X206816905Y-49908866D02*
X206816905Y-50099342D01*
X206816905Y-50099342D02*
X206864524Y-50194580D01*
X206864524Y-50194580D02*
X206912143Y-50242200D01*
X206912143Y-50242200D02*
X207007381Y-50289819D01*
X207007381Y-50289819D02*
X207197857Y-50289819D01*
X207197857Y-50289819D02*
X207293095Y-50242200D01*
X207293095Y-50242200D02*
X207340714Y-50194580D01*
X207340714Y-50194580D02*
X207388333Y-50099342D01*
X207388333Y-50099342D02*
X207388333Y-49908866D01*
X207388333Y-49908866D02*
X207340714Y-49813628D01*
X207340714Y-49813628D02*
X207293095Y-49766009D01*
X207293095Y-49766009D02*
X207197857Y-49718390D01*
X180722200Y-74358332D02*
X180769819Y-74215475D01*
X180769819Y-74215475D02*
X180769819Y-73977380D01*
X180769819Y-73977380D02*
X180722200Y-73882142D01*
X180722200Y-73882142D02*
X180674580Y-73834523D01*
X180674580Y-73834523D02*
X180579342Y-73786904D01*
X180579342Y-73786904D02*
X180484104Y-73786904D01*
X180484104Y-73786904D02*
X180388866Y-73834523D01*
X180388866Y-73834523D02*
X180341247Y-73882142D01*
X180341247Y-73882142D02*
X180293628Y-73977380D01*
X180293628Y-73977380D02*
X180246009Y-74167856D01*
X180246009Y-74167856D02*
X180198390Y-74263094D01*
X180198390Y-74263094D02*
X180150771Y-74310713D01*
X180150771Y-74310713D02*
X180055533Y-74358332D01*
X180055533Y-74358332D02*
X179960295Y-74358332D01*
X179960295Y-74358332D02*
X179865057Y-74310713D01*
X179865057Y-74310713D02*
X179817438Y-74263094D01*
X179817438Y-74263094D02*
X179769819Y-74167856D01*
X179769819Y-74167856D02*
X179769819Y-73929761D01*
X179769819Y-73929761D02*
X179817438Y-73786904D01*
X179769819Y-73453570D02*
X180769819Y-73215475D01*
X180769819Y-73215475D02*
X180055533Y-73024999D01*
X180055533Y-73024999D02*
X180769819Y-72834523D01*
X180769819Y-72834523D02*
X179769819Y-72596428D01*
X179769819Y-71739285D02*
X179769819Y-72215475D01*
X179769819Y-72215475D02*
X180246009Y-72263094D01*
X180246009Y-72263094D02*
X180198390Y-72215475D01*
X180198390Y-72215475D02*
X180150771Y-72120237D01*
X180150771Y-72120237D02*
X180150771Y-71882142D01*
X180150771Y-71882142D02*
X180198390Y-71786904D01*
X180198390Y-71786904D02*
X180246009Y-71739285D01*
X180246009Y-71739285D02*
X180341247Y-71691666D01*
X180341247Y-71691666D02*
X180579342Y-71691666D01*
X180579342Y-71691666D02*
X180674580Y-71739285D01*
X180674580Y-71739285D02*
X180722200Y-71786904D01*
X180722200Y-71786904D02*
X180769819Y-71882142D01*
X180769819Y-71882142D02*
X180769819Y-72120237D01*
X180769819Y-72120237D02*
X180722200Y-72215475D01*
X180722200Y-72215475D02*
X180674580Y-72263094D01*
X186311667Y-66062200D02*
X186454524Y-66109819D01*
X186454524Y-66109819D02*
X186692619Y-66109819D01*
X186692619Y-66109819D02*
X186787857Y-66062200D01*
X186787857Y-66062200D02*
X186835476Y-66014580D01*
X186835476Y-66014580D02*
X186883095Y-65919342D01*
X186883095Y-65919342D02*
X186883095Y-65824104D01*
X186883095Y-65824104D02*
X186835476Y-65728866D01*
X186835476Y-65728866D02*
X186787857Y-65681247D01*
X186787857Y-65681247D02*
X186692619Y-65633628D01*
X186692619Y-65633628D02*
X186502143Y-65586009D01*
X186502143Y-65586009D02*
X186406905Y-65538390D01*
X186406905Y-65538390D02*
X186359286Y-65490771D01*
X186359286Y-65490771D02*
X186311667Y-65395533D01*
X186311667Y-65395533D02*
X186311667Y-65300295D01*
X186311667Y-65300295D02*
X186359286Y-65205057D01*
X186359286Y-65205057D02*
X186406905Y-65157438D01*
X186406905Y-65157438D02*
X186502143Y-65109819D01*
X186502143Y-65109819D02*
X186740238Y-65109819D01*
X186740238Y-65109819D02*
X186883095Y-65157438D01*
X187216429Y-65109819D02*
X187454524Y-66109819D01*
X187454524Y-66109819D02*
X187645000Y-65395533D01*
X187645000Y-65395533D02*
X187835476Y-66109819D01*
X187835476Y-66109819D02*
X188073572Y-65109819D01*
X188883095Y-65109819D02*
X188692619Y-65109819D01*
X188692619Y-65109819D02*
X188597381Y-65157438D01*
X188597381Y-65157438D02*
X188549762Y-65205057D01*
X188549762Y-65205057D02*
X188454524Y-65347914D01*
X188454524Y-65347914D02*
X188406905Y-65538390D01*
X188406905Y-65538390D02*
X188406905Y-65919342D01*
X188406905Y-65919342D02*
X188454524Y-66014580D01*
X188454524Y-66014580D02*
X188502143Y-66062200D01*
X188502143Y-66062200D02*
X188597381Y-66109819D01*
X188597381Y-66109819D02*
X188787857Y-66109819D01*
X188787857Y-66109819D02*
X188883095Y-66062200D01*
X188883095Y-66062200D02*
X188930714Y-66014580D01*
X188930714Y-66014580D02*
X188978333Y-65919342D01*
X188978333Y-65919342D02*
X188978333Y-65681247D01*
X188978333Y-65681247D02*
X188930714Y-65586009D01*
X188930714Y-65586009D02*
X188883095Y-65538390D01*
X188883095Y-65538390D02*
X188787857Y-65490771D01*
X188787857Y-65490771D02*
X188597381Y-65490771D01*
X188597381Y-65490771D02*
X188502143Y-65538390D01*
X188502143Y-65538390D02*
X188454524Y-65586009D01*
X188454524Y-65586009D02*
X188406905Y-65681247D01*
D13*
X193148857Y-136746959D02*
X193148857Y-137775054D01*
X193148857Y-137775054D02*
X193221428Y-137896006D01*
X193221428Y-137896006D02*
X193294000Y-137956483D01*
X193294000Y-137956483D02*
X193439142Y-138016959D01*
X193439142Y-138016959D02*
X193729428Y-138016959D01*
X193729428Y-138016959D02*
X193874571Y-137956483D01*
X193874571Y-137956483D02*
X193947142Y-137896006D01*
X193947142Y-137896006D02*
X194019714Y-137775054D01*
X194019714Y-137775054D02*
X194019714Y-136746959D01*
X195543713Y-138016959D02*
X194672856Y-138016959D01*
X195108285Y-138016959D02*
X195108285Y-136746959D01*
X195108285Y-136746959D02*
X194963142Y-136928387D01*
X194963142Y-136928387D02*
X194817999Y-137049340D01*
X194817999Y-137049340D02*
X194672856Y-137109816D01*
D12*
X194561667Y-64927200D02*
X194704524Y-64974819D01*
X194704524Y-64974819D02*
X194942619Y-64974819D01*
X194942619Y-64974819D02*
X195037857Y-64927200D01*
X195037857Y-64927200D02*
X195085476Y-64879580D01*
X195085476Y-64879580D02*
X195133095Y-64784342D01*
X195133095Y-64784342D02*
X195133095Y-64689104D01*
X195133095Y-64689104D02*
X195085476Y-64593866D01*
X195085476Y-64593866D02*
X195037857Y-64546247D01*
X195037857Y-64546247D02*
X194942619Y-64498628D01*
X194942619Y-64498628D02*
X194752143Y-64451009D01*
X194752143Y-64451009D02*
X194656905Y-64403390D01*
X194656905Y-64403390D02*
X194609286Y-64355771D01*
X194609286Y-64355771D02*
X194561667Y-64260533D01*
X194561667Y-64260533D02*
X194561667Y-64165295D01*
X194561667Y-64165295D02*
X194609286Y-64070057D01*
X194609286Y-64070057D02*
X194656905Y-64022438D01*
X194656905Y-64022438D02*
X194752143Y-63974819D01*
X194752143Y-63974819D02*
X194990238Y-63974819D01*
X194990238Y-63974819D02*
X195133095Y-64022438D01*
X195466429Y-63974819D02*
X195704524Y-64974819D01*
X195704524Y-64974819D02*
X195895000Y-64260533D01*
X195895000Y-64260533D02*
X196085476Y-64974819D01*
X196085476Y-64974819D02*
X196323572Y-63974819D01*
X196752143Y-64974819D02*
X196942619Y-64974819D01*
X196942619Y-64974819D02*
X197037857Y-64927200D01*
X197037857Y-64927200D02*
X197085476Y-64879580D01*
X197085476Y-64879580D02*
X197180714Y-64736723D01*
X197180714Y-64736723D02*
X197228333Y-64546247D01*
X197228333Y-64546247D02*
X197228333Y-64165295D01*
X197228333Y-64165295D02*
X197180714Y-64070057D01*
X197180714Y-64070057D02*
X197133095Y-64022438D01*
X197133095Y-64022438D02*
X197037857Y-63974819D01*
X197037857Y-63974819D02*
X196847381Y-63974819D01*
X196847381Y-63974819D02*
X196752143Y-64022438D01*
X196752143Y-64022438D02*
X196704524Y-64070057D01*
X196704524Y-64070057D02*
X196656905Y-64165295D01*
X196656905Y-64165295D02*
X196656905Y-64403390D01*
X196656905Y-64403390D02*
X196704524Y-64498628D01*
X196704524Y-64498628D02*
X196752143Y-64546247D01*
X196752143Y-64546247D02*
X196847381Y-64593866D01*
X196847381Y-64593866D02*
X197037857Y-64593866D01*
X197037857Y-64593866D02*
X197133095Y-64546247D01*
X197133095Y-64546247D02*
X197180714Y-64498628D01*
X197180714Y-64498628D02*
X197228333Y-64403390D01*
X185036667Y-80802200D02*
X185179524Y-80849819D01*
X185179524Y-80849819D02*
X185417619Y-80849819D01*
X185417619Y-80849819D02*
X185512857Y-80802200D01*
X185512857Y-80802200D02*
X185560476Y-80754580D01*
X185560476Y-80754580D02*
X185608095Y-80659342D01*
X185608095Y-80659342D02*
X185608095Y-80564104D01*
X185608095Y-80564104D02*
X185560476Y-80468866D01*
X185560476Y-80468866D02*
X185512857Y-80421247D01*
X185512857Y-80421247D02*
X185417619Y-80373628D01*
X185417619Y-80373628D02*
X185227143Y-80326009D01*
X185227143Y-80326009D02*
X185131905Y-80278390D01*
X185131905Y-80278390D02*
X185084286Y-80230771D01*
X185084286Y-80230771D02*
X185036667Y-80135533D01*
X185036667Y-80135533D02*
X185036667Y-80040295D01*
X185036667Y-80040295D02*
X185084286Y-79945057D01*
X185084286Y-79945057D02*
X185131905Y-79897438D01*
X185131905Y-79897438D02*
X185227143Y-79849819D01*
X185227143Y-79849819D02*
X185465238Y-79849819D01*
X185465238Y-79849819D02*
X185608095Y-79897438D01*
X185941429Y-79849819D02*
X186179524Y-80849819D01*
X186179524Y-80849819D02*
X186370000Y-80135533D01*
X186370000Y-80135533D02*
X186560476Y-80849819D01*
X186560476Y-80849819D02*
X186798572Y-79849819D01*
X187084286Y-79849819D02*
X187750952Y-79849819D01*
X187750952Y-79849819D02*
X187322381Y-80849819D01*
X188454819Y-27003333D02*
X189169104Y-27003333D01*
X189169104Y-27003333D02*
X189311961Y-27050952D01*
X189311961Y-27050952D02*
X189407200Y-27146190D01*
X189407200Y-27146190D02*
X189454819Y-27289047D01*
X189454819Y-27289047D02*
X189454819Y-27384285D01*
X189454819Y-26003333D02*
X189454819Y-26574761D01*
X189454819Y-26289047D02*
X188454819Y-26289047D01*
X188454819Y-26289047D02*
X188597676Y-26384285D01*
X188597676Y-26384285D02*
X188692914Y-26479523D01*
X188692914Y-26479523D02*
X188740533Y-26574761D01*
X205156667Y-80802200D02*
X205299524Y-80849819D01*
X205299524Y-80849819D02*
X205537619Y-80849819D01*
X205537619Y-80849819D02*
X205632857Y-80802200D01*
X205632857Y-80802200D02*
X205680476Y-80754580D01*
X205680476Y-80754580D02*
X205728095Y-80659342D01*
X205728095Y-80659342D02*
X205728095Y-80564104D01*
X205728095Y-80564104D02*
X205680476Y-80468866D01*
X205680476Y-80468866D02*
X205632857Y-80421247D01*
X205632857Y-80421247D02*
X205537619Y-80373628D01*
X205537619Y-80373628D02*
X205347143Y-80326009D01*
X205347143Y-80326009D02*
X205251905Y-80278390D01*
X205251905Y-80278390D02*
X205204286Y-80230771D01*
X205204286Y-80230771D02*
X205156667Y-80135533D01*
X205156667Y-80135533D02*
X205156667Y-80040295D01*
X205156667Y-80040295D02*
X205204286Y-79945057D01*
X205204286Y-79945057D02*
X205251905Y-79897438D01*
X205251905Y-79897438D02*
X205347143Y-79849819D01*
X205347143Y-79849819D02*
X205585238Y-79849819D01*
X205585238Y-79849819D02*
X205728095Y-79897438D01*
X206061429Y-79849819D02*
X206299524Y-80849819D01*
X206299524Y-80849819D02*
X206490000Y-80135533D01*
X206490000Y-80135533D02*
X206680476Y-80849819D01*
X206680476Y-80849819D02*
X206918572Y-79849819D01*
X207823333Y-80849819D02*
X207251905Y-80849819D01*
X207537619Y-80849819D02*
X207537619Y-79849819D01*
X207537619Y-79849819D02*
X207442381Y-79992676D01*
X207442381Y-79992676D02*
X207347143Y-80087914D01*
X207347143Y-80087914D02*
X207251905Y-80135533D01*
X210208095Y-112729819D02*
X210208095Y-113539342D01*
X210208095Y-113539342D02*
X210255714Y-113634580D01*
X210255714Y-113634580D02*
X210303333Y-113682200D01*
X210303333Y-113682200D02*
X210398571Y-113729819D01*
X210398571Y-113729819D02*
X210589047Y-113729819D01*
X210589047Y-113729819D02*
X210684285Y-113682200D01*
X210684285Y-113682200D02*
X210731904Y-113634580D01*
X210731904Y-113634580D02*
X210779523Y-113539342D01*
X210779523Y-113539342D02*
X210779523Y-112729819D01*
X211160476Y-112729819D02*
X211779523Y-112729819D01*
X211779523Y-112729819D02*
X211446190Y-113110771D01*
X211446190Y-113110771D02*
X211589047Y-113110771D01*
X211589047Y-113110771D02*
X211684285Y-113158390D01*
X211684285Y-113158390D02*
X211731904Y-113206009D01*
X211731904Y-113206009D02*
X211779523Y-113301247D01*
X211779523Y-113301247D02*
X211779523Y-113539342D01*
X211779523Y-113539342D02*
X211731904Y-113634580D01*
X211731904Y-113634580D02*
X211684285Y-113682200D01*
X211684285Y-113682200D02*
X211589047Y-113729819D01*
X211589047Y-113729819D02*
X211303333Y-113729819D01*
X211303333Y-113729819D02*
X211208095Y-113682200D01*
X211208095Y-113682200D02*
X211160476Y-113634580D01*
X206096667Y-128332200D02*
X206239524Y-128379819D01*
X206239524Y-128379819D02*
X206477619Y-128379819D01*
X206477619Y-128379819D02*
X206572857Y-128332200D01*
X206572857Y-128332200D02*
X206620476Y-128284580D01*
X206620476Y-128284580D02*
X206668095Y-128189342D01*
X206668095Y-128189342D02*
X206668095Y-128094104D01*
X206668095Y-128094104D02*
X206620476Y-127998866D01*
X206620476Y-127998866D02*
X206572857Y-127951247D01*
X206572857Y-127951247D02*
X206477619Y-127903628D01*
X206477619Y-127903628D02*
X206287143Y-127856009D01*
X206287143Y-127856009D02*
X206191905Y-127808390D01*
X206191905Y-127808390D02*
X206144286Y-127760771D01*
X206144286Y-127760771D02*
X206096667Y-127665533D01*
X206096667Y-127665533D02*
X206096667Y-127570295D01*
X206096667Y-127570295D02*
X206144286Y-127475057D01*
X206144286Y-127475057D02*
X206191905Y-127427438D01*
X206191905Y-127427438D02*
X206287143Y-127379819D01*
X206287143Y-127379819D02*
X206525238Y-127379819D01*
X206525238Y-127379819D02*
X206668095Y-127427438D01*
X207001429Y-127379819D02*
X207239524Y-128379819D01*
X207239524Y-128379819D02*
X207430000Y-127665533D01*
X207430000Y-127665533D02*
X207620476Y-128379819D01*
X207620476Y-128379819D02*
X207858572Y-127379819D01*
X208191905Y-127475057D02*
X208239524Y-127427438D01*
X208239524Y-127427438D02*
X208334762Y-127379819D01*
X208334762Y-127379819D02*
X208572857Y-127379819D01*
X208572857Y-127379819D02*
X208668095Y-127427438D01*
X208668095Y-127427438D02*
X208715714Y-127475057D01*
X208715714Y-127475057D02*
X208763333Y-127570295D01*
X208763333Y-127570295D02*
X208763333Y-127665533D01*
X208763333Y-127665533D02*
X208715714Y-127808390D01*
X208715714Y-127808390D02*
X208144286Y-128379819D01*
X208144286Y-128379819D02*
X208763333Y-128379819D01*
X196036667Y-51457200D02*
X196179524Y-51504819D01*
X196179524Y-51504819D02*
X196417619Y-51504819D01*
X196417619Y-51504819D02*
X196512857Y-51457200D01*
X196512857Y-51457200D02*
X196560476Y-51409580D01*
X196560476Y-51409580D02*
X196608095Y-51314342D01*
X196608095Y-51314342D02*
X196608095Y-51219104D01*
X196608095Y-51219104D02*
X196560476Y-51123866D01*
X196560476Y-51123866D02*
X196512857Y-51076247D01*
X196512857Y-51076247D02*
X196417619Y-51028628D01*
X196417619Y-51028628D02*
X196227143Y-50981009D01*
X196227143Y-50981009D02*
X196131905Y-50933390D01*
X196131905Y-50933390D02*
X196084286Y-50885771D01*
X196084286Y-50885771D02*
X196036667Y-50790533D01*
X196036667Y-50790533D02*
X196036667Y-50695295D01*
X196036667Y-50695295D02*
X196084286Y-50600057D01*
X196084286Y-50600057D02*
X196131905Y-50552438D01*
X196131905Y-50552438D02*
X196227143Y-50504819D01*
X196227143Y-50504819D02*
X196465238Y-50504819D01*
X196465238Y-50504819D02*
X196608095Y-50552438D01*
X196941429Y-50504819D02*
X197179524Y-51504819D01*
X197179524Y-51504819D02*
X197370000Y-50790533D01*
X197370000Y-50790533D02*
X197560476Y-51504819D01*
X197560476Y-51504819D02*
X197798572Y-50504819D01*
X198084286Y-50504819D02*
X198703333Y-50504819D01*
X198703333Y-50504819D02*
X198370000Y-50885771D01*
X198370000Y-50885771D02*
X198512857Y-50885771D01*
X198512857Y-50885771D02*
X198608095Y-50933390D01*
X198608095Y-50933390D02*
X198655714Y-50981009D01*
X198655714Y-50981009D02*
X198703333Y-51076247D01*
X198703333Y-51076247D02*
X198703333Y-51314342D01*
X198703333Y-51314342D02*
X198655714Y-51409580D01*
X198655714Y-51409580D02*
X198608095Y-51457200D01*
X198608095Y-51457200D02*
X198512857Y-51504819D01*
X198512857Y-51504819D02*
X198227143Y-51504819D01*
X198227143Y-51504819D02*
X198131905Y-51457200D01*
X198131905Y-51457200D02*
X198084286Y-51409580D01*
D14*
X207273096Y-74819904D02*
X207211191Y-74788952D01*
X207211191Y-74788952D02*
X207118334Y-74788952D01*
X207118334Y-74788952D02*
X207025477Y-74819904D01*
X207025477Y-74819904D02*
X206963572Y-74881809D01*
X206963572Y-74881809D02*
X206932619Y-74943714D01*
X206932619Y-74943714D02*
X206901667Y-75067523D01*
X206901667Y-75067523D02*
X206901667Y-75160380D01*
X206901667Y-75160380D02*
X206932619Y-75284190D01*
X206932619Y-75284190D02*
X206963572Y-75346095D01*
X206963572Y-75346095D02*
X207025477Y-75408000D01*
X207025477Y-75408000D02*
X207118334Y-75438952D01*
X207118334Y-75438952D02*
X207180238Y-75438952D01*
X207180238Y-75438952D02*
X207273096Y-75408000D01*
X207273096Y-75408000D02*
X207304048Y-75377047D01*
X207304048Y-75377047D02*
X207304048Y-75160380D01*
X207304048Y-75160380D02*
X207180238Y-75160380D01*
X207582619Y-75438952D02*
X207582619Y-74788952D01*
X207582619Y-74788952D02*
X207954048Y-75438952D01*
X207954048Y-75438952D02*
X207954048Y-74788952D01*
X208263571Y-75438952D02*
X208263571Y-74788952D01*
X208263571Y-74788952D02*
X208418333Y-74788952D01*
X208418333Y-74788952D02*
X208511190Y-74819904D01*
X208511190Y-74819904D02*
X208573095Y-74881809D01*
X208573095Y-74881809D02*
X208604048Y-74943714D01*
X208604048Y-74943714D02*
X208635000Y-75067523D01*
X208635000Y-75067523D02*
X208635000Y-75160380D01*
X208635000Y-75160380D02*
X208604048Y-75284190D01*
X208604048Y-75284190D02*
X208573095Y-75346095D01*
X208573095Y-75346095D02*
X208511190Y-75408000D01*
X208511190Y-75408000D02*
X208418333Y-75438952D01*
X208418333Y-75438952D02*
X208263571Y-75438952D01*
X209532619Y-74788952D02*
X209656428Y-74788952D01*
X209656428Y-74788952D02*
X209718333Y-74819904D01*
X209718333Y-74819904D02*
X209780238Y-74881809D01*
X209780238Y-74881809D02*
X209811190Y-75005619D01*
X209811190Y-75005619D02*
X209811190Y-75222285D01*
X209811190Y-75222285D02*
X209780238Y-75346095D01*
X209780238Y-75346095D02*
X209718333Y-75408000D01*
X209718333Y-75408000D02*
X209656428Y-75438952D01*
X209656428Y-75438952D02*
X209532619Y-75438952D01*
X209532619Y-75438952D02*
X209470714Y-75408000D01*
X209470714Y-75408000D02*
X209408809Y-75346095D01*
X209408809Y-75346095D02*
X209377857Y-75222285D01*
X209377857Y-75222285D02*
X209377857Y-75005619D01*
X209377857Y-75005619D02*
X209408809Y-74881809D01*
X209408809Y-74881809D02*
X209470714Y-74819904D01*
X209470714Y-74819904D02*
X209532619Y-74788952D01*
X210089761Y-74788952D02*
X210089761Y-75315142D01*
X210089761Y-75315142D02*
X210120714Y-75377047D01*
X210120714Y-75377047D02*
X210151666Y-75408000D01*
X210151666Y-75408000D02*
X210213571Y-75438952D01*
X210213571Y-75438952D02*
X210337380Y-75438952D01*
X210337380Y-75438952D02*
X210399285Y-75408000D01*
X210399285Y-75408000D02*
X210430238Y-75377047D01*
X210430238Y-75377047D02*
X210461190Y-75315142D01*
X210461190Y-75315142D02*
X210461190Y-74788952D01*
X210677856Y-74788952D02*
X211049285Y-74788952D01*
X210863571Y-75438952D02*
X210863571Y-74788952D01*
X212256427Y-75438952D02*
X212256427Y-74788952D01*
X212565951Y-75438952D02*
X212565951Y-74788952D01*
X212565951Y-74788952D02*
X212937380Y-75438952D01*
X212937380Y-75438952D02*
X212937380Y-74788952D01*
D12*
X185036667Y-112552200D02*
X185179524Y-112599819D01*
X185179524Y-112599819D02*
X185417619Y-112599819D01*
X185417619Y-112599819D02*
X185512857Y-112552200D01*
X185512857Y-112552200D02*
X185560476Y-112504580D01*
X185560476Y-112504580D02*
X185608095Y-112409342D01*
X185608095Y-112409342D02*
X185608095Y-112314104D01*
X185608095Y-112314104D02*
X185560476Y-112218866D01*
X185560476Y-112218866D02*
X185512857Y-112171247D01*
X185512857Y-112171247D02*
X185417619Y-112123628D01*
X185417619Y-112123628D02*
X185227143Y-112076009D01*
X185227143Y-112076009D02*
X185131905Y-112028390D01*
X185131905Y-112028390D02*
X185084286Y-111980771D01*
X185084286Y-111980771D02*
X185036667Y-111885533D01*
X185036667Y-111885533D02*
X185036667Y-111790295D01*
X185036667Y-111790295D02*
X185084286Y-111695057D01*
X185084286Y-111695057D02*
X185131905Y-111647438D01*
X185131905Y-111647438D02*
X185227143Y-111599819D01*
X185227143Y-111599819D02*
X185465238Y-111599819D01*
X185465238Y-111599819D02*
X185608095Y-111647438D01*
X185941429Y-111599819D02*
X186179524Y-112599819D01*
X186179524Y-112599819D02*
X186370000Y-111885533D01*
X186370000Y-111885533D02*
X186560476Y-112599819D01*
X186560476Y-112599819D02*
X186798572Y-111599819D01*
X187608095Y-111933152D02*
X187608095Y-112599819D01*
X187370000Y-111552200D02*
X187131905Y-112266485D01*
X187131905Y-112266485D02*
X187750952Y-112266485D01*
%TO.C,MPU1*%
D11*
X179270000Y-112140000D02*
X199770000Y-112140000D01*
X199770000Y-96140000D01*
X179270000Y-96140000D01*
X179270000Y-112140000D01*
D15*
%TO.C,SW8*%
X200365000Y-51635000D02*
X200365000Y-54145000D01*
X200365000Y-51635000D02*
X212585000Y-51635000D01*
X200365000Y-56445000D02*
X200365000Y-59045000D01*
X200365000Y-61345000D02*
X200365000Y-63855000D01*
X212585000Y-51635000D02*
X212585000Y-54145000D01*
X212585000Y-56445000D02*
X212585000Y-59045000D01*
X212585000Y-61345000D02*
X212585000Y-63855000D01*
X212585000Y-63855000D02*
X200365000Y-63855000D01*
X210025000Y-57745000D02*
G75*
G02*
X202925000Y-57745000I-3550000J0D01*
G01*
X202925000Y-57745000D02*
G75*
G02*
X210025000Y-57745000I3550000J0D01*
G01*
%TO.C,SW5*%
D11*
X185415000Y-68625000D02*
X181415000Y-68625000D01*
X181415000Y-77625000D01*
X185415000Y-77625000D01*
X185415000Y-68625000D01*
D15*
%TO.C,SW6*%
X181115000Y-51635000D02*
X193335000Y-51635000D01*
X181115000Y-54145000D02*
X181115000Y-51635000D01*
X181115000Y-59045000D02*
X181115000Y-56445000D01*
X181115000Y-63855000D02*
X181115000Y-61345000D01*
X193335000Y-54145000D02*
X193335000Y-51635000D01*
X193335000Y-59045000D02*
X193335000Y-56445000D01*
X193335000Y-63855000D02*
X181115000Y-63855000D01*
X193335000Y-63855000D02*
X193335000Y-61345000D01*
X190775000Y-57745000D02*
G75*
G02*
X183675000Y-57745000I-3550000J0D01*
G01*
X183675000Y-57745000D02*
G75*
G02*
X190775000Y-57745000I3550000J0D01*
G01*
D16*
%TO.C,G\u002A\u002A\u002A*%
G36*
X214552188Y-29845000D02*
G01*
X214552188Y-34847188D01*
X209550000Y-34847188D01*
X204547812Y-34847188D01*
X204547812Y-30202242D01*
X205534319Y-30202242D01*
X205537204Y-30237897D01*
X205545290Y-30295253D01*
X205557681Y-30369918D01*
X205573484Y-30457501D01*
X205591806Y-30553610D01*
X205611751Y-30653854D01*
X205632427Y-30753841D01*
X205652940Y-30849180D01*
X205672395Y-30935480D01*
X205689898Y-31008348D01*
X205704556Y-31063394D01*
X205715475Y-31096227D01*
X205716935Y-31099361D01*
X205732601Y-31125001D01*
X205753372Y-31147095D01*
X205782601Y-31167090D01*
X205823640Y-31186428D01*
X205879839Y-31206555D01*
X205954550Y-31228915D01*
X206051126Y-31254952D01*
X206117943Y-31272171D01*
X206209810Y-31295330D01*
X206282221Y-31312445D01*
X206342583Y-31324586D01*
X206398302Y-31332824D01*
X206456787Y-31338229D01*
X206525443Y-31341871D01*
X206611679Y-31344822D01*
X206623024Y-31345164D01*
X206871048Y-31352604D01*
X206985258Y-31637450D01*
X207019530Y-31722446D01*
X207051253Y-31800223D01*
X207078670Y-31866543D01*
X207100024Y-31917168D01*
X207113557Y-31947860D01*
X207116337Y-31953516D01*
X207134096Y-31977437D01*
X207161403Y-31997835D01*
X207201470Y-32015712D01*
X207257511Y-32032073D01*
X207332740Y-32047920D01*
X207430371Y-32064258D01*
X207507440Y-32075626D01*
X207591302Y-32087936D01*
X207665719Y-32099583D01*
X207726313Y-32109823D01*
X207768703Y-32117911D01*
X207788510Y-32123103D01*
X207789203Y-32123530D01*
X207782505Y-32135636D01*
X207759833Y-32167900D01*
X207722448Y-32218678D01*
X207671607Y-32286326D01*
X207608569Y-32369198D01*
X207534593Y-32465651D01*
X207450937Y-32574041D01*
X207358860Y-32692722D01*
X207259621Y-32820050D01*
X207154478Y-32954381D01*
X207105990Y-33016145D01*
X206997737Y-33154092D01*
X206894123Y-33286468D01*
X206796487Y-33411545D01*
X206706167Y-33527594D01*
X206624498Y-33632886D01*
X206552819Y-33725691D01*
X206492468Y-33804280D01*
X206444780Y-33866925D01*
X206411094Y-33911896D01*
X206392747Y-33937464D01*
X206390009Y-33941859D01*
X206373583Y-33995903D01*
X206369335Y-34062345D01*
X206377036Y-34128721D01*
X206394370Y-34178810D01*
X206435105Y-34227620D01*
X206492922Y-34260672D01*
X206560987Y-34276361D01*
X206632465Y-34273083D01*
X206698611Y-34250256D01*
X206717199Y-34238158D01*
X206756492Y-34210786D01*
X206814822Y-34169347D01*
X206890520Y-34115052D01*
X206981919Y-34049108D01*
X207087349Y-33972725D01*
X207205143Y-33887111D01*
X207333633Y-33793475D01*
X207471150Y-33693027D01*
X207616025Y-33586974D01*
X207766591Y-33476526D01*
X207778391Y-33467861D01*
X208806619Y-32712704D01*
X209039608Y-33005302D01*
X209116429Y-33100444D01*
X209184289Y-33181808D01*
X209241445Y-33247409D01*
X209286154Y-33295265D01*
X209316672Y-33323392D01*
X209323263Y-33327965D01*
X209347701Y-33340704D01*
X209374178Y-33349280D01*
X209408700Y-33354490D01*
X209457275Y-33357130D01*
X209525909Y-33357997D01*
X209550000Y-33358031D01*
X209625456Y-33357523D01*
X209679140Y-33355470D01*
X209717058Y-33351074D01*
X209745217Y-33343539D01*
X209769624Y-33332069D01*
X209776737Y-33327965D01*
X209802251Y-33306700D01*
X209842525Y-33265058D01*
X209895814Y-33205025D01*
X209960376Y-33128583D01*
X210034467Y-33037715D01*
X210060391Y-33005302D01*
X210293380Y-32712704D01*
X211321608Y-33467861D01*
X211472544Y-33578597D01*
X211617917Y-33685032D01*
X211756061Y-33785956D01*
X211885306Y-33880160D01*
X212003984Y-33966435D01*
X212110428Y-34043573D01*
X212202968Y-34110365D01*
X212279937Y-34165602D01*
X212339665Y-34208075D01*
X212380486Y-34236575D01*
X212400730Y-34249894D01*
X212401388Y-34250256D01*
X212469180Y-34273403D01*
X212540100Y-34276319D01*
X212607463Y-34260663D01*
X212664588Y-34228095D01*
X212704789Y-34180273D01*
X212707882Y-34174172D01*
X212725747Y-34114853D01*
X212731035Y-34046289D01*
X212723633Y-33980854D01*
X212709990Y-33941859D01*
X212698124Y-33924500D01*
X212670387Y-33887049D01*
X212628115Y-33831235D01*
X212572647Y-33758789D01*
X212505319Y-33671438D01*
X212427469Y-33570912D01*
X212340433Y-33458940D01*
X212245550Y-33337251D01*
X212144157Y-33207575D01*
X212037591Y-33071639D01*
X211994009Y-33016145D01*
X211886638Y-32879220D01*
X211784609Y-32748564D01*
X211689181Y-32625821D01*
X211601612Y-32512637D01*
X211523161Y-32410655D01*
X211455087Y-32321519D01*
X211398649Y-32246875D01*
X211355104Y-32188367D01*
X211325712Y-32147639D01*
X211311731Y-32126336D01*
X211310797Y-32123530D01*
X211327312Y-32118774D01*
X211366985Y-32111024D01*
X211425437Y-32101025D01*
X211498288Y-32089520D01*
X211581159Y-32077254D01*
X211592560Y-32075626D01*
X211706491Y-32058430D01*
X211795929Y-32042378D01*
X211864088Y-32026466D01*
X211914182Y-32009689D01*
X211949424Y-31991045D01*
X211973030Y-31969530D01*
X211983663Y-31953516D01*
X211993666Y-31931753D01*
X212012176Y-31888405D01*
X212037435Y-31827707D01*
X212067687Y-31753898D01*
X212101173Y-31671216D01*
X212114741Y-31637450D01*
X212228952Y-31352604D01*
X212476976Y-31345164D01*
X212565700Y-31342225D01*
X212635997Y-31338716D01*
X212695271Y-31333567D01*
X212750932Y-31325709D01*
X212810385Y-31314069D01*
X212881039Y-31297579D01*
X212970299Y-31275167D01*
X212982057Y-31272171D01*
X213092738Y-31243362D01*
X213179627Y-31219062D01*
X213246074Y-31197826D01*
X213295431Y-31178210D01*
X213331049Y-31158769D01*
X213356280Y-31138060D01*
X213374475Y-31114638D01*
X213383065Y-31099361D01*
X213393191Y-31070971D01*
X213407225Y-31019599D01*
X213424271Y-30949636D01*
X213443434Y-30865473D01*
X213463819Y-30771501D01*
X213484532Y-30672110D01*
X213504678Y-30571691D01*
X213523362Y-30474635D01*
X213539690Y-30385332D01*
X213552766Y-30308174D01*
X213561696Y-30247549D01*
X213565585Y-30207851D01*
X213565681Y-30203267D01*
X213554550Y-30122029D01*
X213522157Y-30058279D01*
X213469857Y-30013355D01*
X213399004Y-29988596D01*
X213343758Y-29983949D01*
X213318877Y-29985241D01*
X213292100Y-29990089D01*
X213259841Y-29999954D01*
X213218509Y-30016297D01*
X213164515Y-30040578D01*
X213094271Y-30074258D01*
X213004188Y-30118797D01*
X212968162Y-30136794D01*
X212662714Y-30289639D01*
X212263487Y-30289639D01*
X211864260Y-30289639D01*
X211457458Y-30057547D01*
X211050656Y-29825456D01*
X211050656Y-29623055D01*
X211050656Y-29420654D01*
X211182239Y-29289619D01*
X211313821Y-29158583D01*
X211524781Y-29199210D01*
X211598744Y-29214225D01*
X211663416Y-29228804D01*
X211713676Y-29241680D01*
X211744401Y-29251587D01*
X211750994Y-29255180D01*
X211763480Y-29271463D01*
X211788331Y-29306764D01*
X211822657Y-29356876D01*
X211863565Y-29417588D01*
X211895181Y-29465064D01*
X211950873Y-29547309D01*
X211996168Y-29608602D01*
X212034746Y-29651948D01*
X212070286Y-29680357D01*
X212106470Y-29696836D01*
X212146978Y-29704392D01*
X212190043Y-29706050D01*
X212233319Y-29704523D01*
X212269984Y-29698116D01*
X212303163Y-29684090D01*
X212335977Y-29659703D01*
X212371549Y-29622216D01*
X212413000Y-29568889D01*
X212463452Y-29496983D01*
X212514118Y-29421652D01*
X212563657Y-29346842D01*
X212609165Y-29277243D01*
X212647890Y-29217133D01*
X212677082Y-29170787D01*
X212693989Y-29142482D01*
X212695466Y-29139728D01*
X212711046Y-29089754D01*
X212717563Y-29025508D01*
X212714998Y-28958862D01*
X212703333Y-28901691D01*
X212695858Y-28883633D01*
X212677627Y-28854696D01*
X212644778Y-28808903D01*
X212599902Y-28749433D01*
X212545588Y-28679463D01*
X212484428Y-28602170D01*
X212419012Y-28520734D01*
X212351930Y-28438331D01*
X212285774Y-28358139D01*
X212223133Y-28283335D01*
X212166598Y-28217099D01*
X212118761Y-28162608D01*
X212082211Y-28123038D01*
X212059539Y-28101569D01*
X212056721Y-28099620D01*
X212025605Y-28086097D01*
X211975316Y-28071712D01*
X211903556Y-28055944D01*
X211808028Y-28038268D01*
X211727028Y-28024684D01*
X211641848Y-28010491D01*
X211566072Y-27997214D01*
X211503968Y-27985652D01*
X211459805Y-27976608D01*
X211437849Y-27970882D01*
X211436391Y-27970120D01*
X211439118Y-27955879D01*
X211450072Y-27917243D01*
X211468627Y-27856159D01*
X211494157Y-27774574D01*
X211526037Y-27674435D01*
X211563639Y-27557688D01*
X211606339Y-27426281D01*
X211653510Y-27282161D01*
X211704527Y-27127274D01*
X211758763Y-26963568D01*
X211794186Y-26857134D01*
X211869456Y-26630743D01*
X211935727Y-26430079D01*
X211993162Y-26254630D01*
X212041922Y-26103886D01*
X212082169Y-25977337D01*
X212114063Y-25874472D01*
X212137767Y-25794781D01*
X212153442Y-25737752D01*
X212161249Y-25702876D01*
X212162254Y-25693423D01*
X212155427Y-25641426D01*
X212138528Y-25588081D01*
X212133667Y-25577683D01*
X212092848Y-25526214D01*
X212033338Y-25487331D01*
X211961996Y-25462698D01*
X211885684Y-25453978D01*
X211811263Y-25462834D01*
X211754166Y-25485682D01*
X211745747Y-25491693D01*
X211735426Y-25501582D01*
X211722502Y-25516472D01*
X211706270Y-25537486D01*
X211686030Y-25565745D01*
X211661079Y-25602372D01*
X211630714Y-25648489D01*
X211594233Y-25705219D01*
X211550934Y-25773685D01*
X211500114Y-25855008D01*
X211441072Y-25950312D01*
X211373104Y-26060718D01*
X211295509Y-26187348D01*
X211207584Y-26331326D01*
X211108626Y-26493774D01*
X210997934Y-26675814D01*
X210874805Y-26878568D01*
X210738536Y-27103160D01*
X210628673Y-27284327D01*
X210505557Y-27487309D01*
X210386346Y-27683704D01*
X210271837Y-27872206D01*
X210162827Y-28051510D01*
X210060112Y-28220312D01*
X209964488Y-28377306D01*
X209876752Y-28521188D01*
X209797699Y-28650652D01*
X209728127Y-28764395D01*
X209668831Y-28861110D01*
X209620609Y-28939493D01*
X209584255Y-28998238D01*
X209560567Y-29036042D01*
X209550341Y-29051599D01*
X209550000Y-29051937D01*
X209542127Y-29040268D01*
X209520658Y-29006132D01*
X209486389Y-28950833D01*
X209440115Y-28875677D01*
X209382635Y-28781968D01*
X209314743Y-28671011D01*
X209237237Y-28544112D01*
X209150912Y-28402574D01*
X209056565Y-28247704D01*
X208954992Y-28080806D01*
X208846990Y-27903185D01*
X208733354Y-27716145D01*
X208614882Y-27520993D01*
X208492369Y-27319032D01*
X208471326Y-27284327D01*
X208324869Y-27042831D01*
X208192071Y-26824003D01*
X208072230Y-26626722D01*
X207964645Y-26449864D01*
X207868612Y-26292308D01*
X207783430Y-26152931D01*
X207708395Y-26030610D01*
X207642807Y-25924224D01*
X207585961Y-25832649D01*
X207537157Y-25754763D01*
X207495691Y-25689445D01*
X207460862Y-25635571D01*
X207431967Y-25592019D01*
X207408303Y-25557668D01*
X207389169Y-25531393D01*
X207373861Y-25512073D01*
X207361678Y-25498586D01*
X207351918Y-25489809D01*
X207345834Y-25485682D01*
X207278497Y-25460433D01*
X207203386Y-25454186D01*
X207127364Y-25465277D01*
X207057290Y-25492045D01*
X207000026Y-25532824D01*
X206966333Y-25577683D01*
X206947844Y-25628182D01*
X206938162Y-25682455D01*
X206937746Y-25693423D01*
X206941584Y-25717146D01*
X206953208Y-25762760D01*
X206972777Y-25830775D01*
X207000455Y-25921702D01*
X207036401Y-26036052D01*
X207080779Y-26174334D01*
X207133749Y-26337060D01*
X207195472Y-26524740D01*
X207266111Y-26737885D01*
X207305813Y-26857134D01*
X207361752Y-27025383D01*
X207414863Y-27186035D01*
X207464522Y-27337144D01*
X207510103Y-27476761D01*
X207550980Y-27602941D01*
X207586526Y-27713736D01*
X207616116Y-27807200D01*
X207639124Y-27881385D01*
X207654924Y-27934344D01*
X207662891Y-27964131D01*
X207663609Y-27970120D01*
X207647352Y-27974971D01*
X207607908Y-27983325D01*
X207549544Y-27994379D01*
X207476529Y-28007334D01*
X207393129Y-28021387D01*
X207372971Y-28024684D01*
X207259699Y-28043979D01*
X207171780Y-28061008D01*
X207106917Y-28076292D01*
X207062813Y-28090354D01*
X207043279Y-28099620D01*
X207023937Y-28116772D01*
X206990159Y-28152709D01*
X206944536Y-28204253D01*
X206889657Y-28268226D01*
X206828113Y-28341451D01*
X206762495Y-28420751D01*
X206695394Y-28502946D01*
X206629400Y-28584860D01*
X206567103Y-28663314D01*
X206511095Y-28735131D01*
X206463965Y-28797133D01*
X206428305Y-28846142D01*
X206406705Y-28878981D01*
X206404141Y-28883633D01*
X206388714Y-28933430D01*
X206382394Y-28997602D01*
X206385163Y-29064278D01*
X206397003Y-29121585D01*
X206404533Y-29139728D01*
X206419035Y-29164475D01*
X206446296Y-29208004D01*
X206483568Y-29266038D01*
X206528098Y-29334300D01*
X206577137Y-29408514D01*
X206585882Y-29421652D01*
X206646121Y-29510967D01*
X206694781Y-29579439D01*
X206734983Y-29629809D01*
X206769849Y-29664817D01*
X206802502Y-29687201D01*
X206836064Y-29699704D01*
X206873657Y-29705063D01*
X206909956Y-29706050D01*
X206957477Y-29703941D01*
X206997372Y-29695609D01*
X207033321Y-29678046D01*
X207069004Y-29648245D01*
X207108101Y-29603199D01*
X207154291Y-29539898D01*
X207204818Y-29465064D01*
X207248656Y-29399360D01*
X207287974Y-29341254D01*
X207319882Y-29294955D01*
X207341486Y-29264671D01*
X207349005Y-29255180D01*
X207367389Y-29247346D01*
X207408003Y-29235875D01*
X207465727Y-29222034D01*
X207535437Y-29207091D01*
X207575218Y-29199210D01*
X207786178Y-29158583D01*
X207917761Y-29289619D01*
X208049343Y-29420654D01*
X208049343Y-29623055D01*
X208049343Y-29825456D01*
X207642541Y-30057547D01*
X207235739Y-30289639D01*
X206836512Y-30289639D01*
X206437285Y-30289639D01*
X206131838Y-30136794D01*
X206033933Y-30088111D01*
X205957105Y-30050809D01*
X205897783Y-30023433D01*
X205852398Y-30004525D01*
X205817378Y-29992628D01*
X205789155Y-29986286D01*
X205764157Y-29984042D01*
X205757266Y-29983949D01*
X205674831Y-29994871D01*
X205610064Y-30026728D01*
X205564357Y-30078155D01*
X205539105Y-30147789D01*
X205534319Y-30202242D01*
X204547812Y-30202242D01*
X204547812Y-29845000D01*
X204547812Y-24842812D01*
X209550000Y-24842812D01*
X214552188Y-24842812D01*
X214552188Y-29845000D01*
G37*
G36*
X211444801Y-26694472D02*
G01*
X211433370Y-26732172D01*
X211414634Y-26791501D01*
X211389359Y-26870100D01*
X211358310Y-26965609D01*
X211322255Y-27075669D01*
X211281959Y-27197921D01*
X211238188Y-27330006D01*
X211203247Y-27434983D01*
X211157146Y-27573654D01*
X211113799Y-27704853D01*
X211073996Y-27826140D01*
X211038523Y-27935073D01*
X211008169Y-28029212D01*
X210983723Y-28106116D01*
X210965973Y-28163343D01*
X210955707Y-28198454D01*
X210953391Y-28208723D01*
X210955094Y-28227061D01*
X210961988Y-28242701D01*
X210976753Y-28256463D01*
X211002070Y-28269166D01*
X211040619Y-28281630D01*
X211095080Y-28294672D01*
X211168133Y-28309113D01*
X211262457Y-28325771D01*
X211380734Y-28345466D01*
X211423751Y-28352490D01*
X211843078Y-28420766D01*
X212075614Y-28711318D01*
X212137466Y-28788789D01*
X212193445Y-28859267D01*
X212241241Y-28919812D01*
X212278544Y-28967488D01*
X212303045Y-28999356D01*
X212312425Y-29012462D01*
X212307229Y-29027663D01*
X212290521Y-29058548D01*
X212266726Y-29098145D01*
X212240266Y-29139488D01*
X212215563Y-29175607D01*
X212197041Y-29199532D01*
X212190043Y-29205297D01*
X212180227Y-29194381D01*
X212158450Y-29164551D01*
X212127835Y-29120235D01*
X212091502Y-29065860D01*
X212087731Y-29060125D01*
X212049457Y-29003953D01*
X212014627Y-28956666D01*
X211986949Y-28923049D01*
X211970134Y-28907888D01*
X211969554Y-28907670D01*
X211940689Y-28900243D01*
X211890158Y-28889023D01*
X211822548Y-28874888D01*
X211742449Y-28858718D01*
X211654449Y-28841391D01*
X211563136Y-28823786D01*
X211473099Y-28806781D01*
X211388926Y-28791256D01*
X211315207Y-28778090D01*
X211256529Y-28768161D01*
X211217481Y-28762348D01*
X211204740Y-28761192D01*
X211187764Y-28762594D01*
X211170111Y-28768355D01*
X211148958Y-28780806D01*
X211121485Y-28802279D01*
X211084870Y-28835106D01*
X211036292Y-28881619D01*
X210972929Y-28944149D01*
X210922581Y-28994386D01*
X210689387Y-29227580D01*
X210689387Y-29630899D01*
X210689716Y-29757092D01*
X210690766Y-29857787D01*
X210692629Y-29935268D01*
X210695399Y-29991820D01*
X210699170Y-30029727D01*
X210704034Y-30051275D01*
X210706756Y-30056441D01*
X210722263Y-30067925D01*
X210759342Y-30091500D01*
X210815362Y-30125605D01*
X210887691Y-30168678D01*
X210973696Y-30219158D01*
X211070745Y-30275483D01*
X211176206Y-30336091D01*
X211226479Y-30364786D01*
X211728834Y-30650908D01*
X212258394Y-30650908D01*
X212787954Y-30650908D01*
X212955952Y-30566693D01*
X213017869Y-30536347D01*
X213070503Y-30511859D01*
X213109130Y-30495328D01*
X213129025Y-30488855D01*
X213130562Y-30489092D01*
X213131260Y-30505460D01*
X213126355Y-30542527D01*
X213117196Y-30594083D01*
X213105130Y-30653921D01*
X213091507Y-30715833D01*
X213077676Y-30773610D01*
X213064984Y-30821044D01*
X213054782Y-30851928D01*
X213049913Y-30860333D01*
X213031927Y-30866602D01*
X212991644Y-30878064D01*
X212933793Y-30893456D01*
X212863107Y-30911511D01*
X212800215Y-30927091D01*
X212565830Y-30984387D01*
X212283327Y-30984387D01*
X212176548Y-30984960D01*
X212095148Y-30986770D01*
X212036739Y-30989953D01*
X211998934Y-30994645D01*
X211979342Y-31000982D01*
X211978235Y-31001756D01*
X211967123Y-31018986D01*
X211947577Y-31058467D01*
X211921218Y-31116543D01*
X211889666Y-31189556D01*
X211854542Y-31273851D01*
X211822519Y-31353071D01*
X211689393Y-31687017D01*
X211199825Y-31756025D01*
X211063984Y-31775300D01*
X210953141Y-31791543D01*
X210864758Y-31805470D01*
X210796296Y-31817794D01*
X210745218Y-31829231D01*
X210708986Y-31840495D01*
X210685061Y-31852301D01*
X210670905Y-31865364D01*
X210663979Y-31880398D01*
X210661747Y-31898117D01*
X210661597Y-31907572D01*
X210661746Y-31915374D01*
X210662998Y-31923510D01*
X210666559Y-31933596D01*
X210673636Y-31947246D01*
X210685437Y-31966076D01*
X210703169Y-31991702D01*
X210728038Y-32025738D01*
X210761251Y-32069801D01*
X210804016Y-32125505D01*
X210857538Y-32194466D01*
X210923026Y-32278300D01*
X211001686Y-32378621D01*
X211094726Y-32497045D01*
X211203351Y-32635188D01*
X211241268Y-32683400D01*
X211325923Y-32791156D01*
X211405136Y-32892208D01*
X211477284Y-32984472D01*
X211540748Y-33065865D01*
X211593908Y-33134305D01*
X211635142Y-33187710D01*
X211662832Y-33223995D01*
X211675357Y-33241080D01*
X211675930Y-33242119D01*
X211665057Y-33235215D01*
X211633718Y-33213235D01*
X211583833Y-33177569D01*
X211517319Y-33129609D01*
X211436097Y-33070745D01*
X211342085Y-33002368D01*
X211237202Y-32925870D01*
X211123368Y-32842641D01*
X211002501Y-32754072D01*
X210993534Y-32747494D01*
X210871120Y-32657824D01*
X210754704Y-32572825D01*
X210646327Y-32493971D01*
X210548029Y-32422731D01*
X210461851Y-32360577D01*
X210389832Y-32308980D01*
X210334013Y-32269413D01*
X210296434Y-32243345D01*
X210279134Y-32232248D01*
X210278968Y-32232170D01*
X210255544Y-32224001D01*
X210232904Y-32223440D01*
X210208438Y-32232665D01*
X210179535Y-32253851D01*
X210143585Y-32289175D01*
X210097975Y-32340813D01*
X210040096Y-32410942D01*
X209990592Y-32472563D01*
X209800109Y-32711119D01*
X209800109Y-31807060D01*
X209800124Y-31621732D01*
X209800063Y-31462254D01*
X209799770Y-31326688D01*
X209799384Y-31262140D01*
X210191336Y-31262140D01*
X210270148Y-31285057D01*
X210427723Y-31330769D01*
X210577106Y-31373899D01*
X210716129Y-31413831D01*
X210842623Y-31449954D01*
X210954419Y-31481653D01*
X211049347Y-31508314D01*
X211125240Y-31529324D01*
X211179928Y-31544069D01*
X211211241Y-31551936D01*
X211217564Y-31553104D01*
X211233166Y-31543932D01*
X211265036Y-31517719D01*
X211310036Y-31477315D01*
X211365027Y-31425569D01*
X211426871Y-31365331D01*
X211452734Y-31339586D01*
X211523835Y-31267924D01*
X211577021Y-31213029D01*
X211614389Y-31172391D01*
X211638035Y-31143494D01*
X211650059Y-31123827D01*
X211652556Y-31110877D01*
X211649373Y-31103980D01*
X211638822Y-31080131D01*
X211640816Y-31068365D01*
X211646054Y-31054888D01*
X211644885Y-31053862D01*
X211630749Y-31050934D01*
X211592194Y-31042551D01*
X211531922Y-31029308D01*
X211452638Y-31011804D01*
X211357043Y-30990637D01*
X211247842Y-30966403D01*
X211127737Y-30939702D01*
X211015317Y-30914670D01*
X210887257Y-30886306D01*
X210767190Y-30860042D01*
X210657904Y-30836463D01*
X210562184Y-30816157D01*
X210482817Y-30799707D01*
X210422588Y-30787701D01*
X210384285Y-30780725D01*
X210371003Y-30779194D01*
X210359375Y-30793627D01*
X210341067Y-30832247D01*
X210317107Y-30892539D01*
X210288525Y-30971991D01*
X210271348Y-31022525D01*
X210191336Y-31262140D01*
X209799384Y-31262140D01*
X209799090Y-31213096D01*
X209797865Y-31119538D01*
X209795939Y-31044076D01*
X209793157Y-30984771D01*
X209789361Y-30939684D01*
X209784395Y-30906876D01*
X209778103Y-30884409D01*
X209770329Y-30870343D01*
X209760916Y-30862740D01*
X209749709Y-30859661D01*
X209736549Y-30859168D01*
X209723687Y-30859332D01*
X209698813Y-30862701D01*
X209677419Y-30875683D01*
X209655804Y-30902588D01*
X209630267Y-30947728D01*
X209606369Y-30996034D01*
X209583013Y-31042544D01*
X209563598Y-31077434D01*
X209551528Y-31094690D01*
X209550000Y-31095547D01*
X209540432Y-31083934D01*
X209522620Y-31053104D01*
X209499971Y-31009071D01*
X209493630Y-30996034D01*
X209462738Y-30934423D01*
X209438536Y-30894274D01*
X209417324Y-30871277D01*
X209395403Y-30861119D01*
X209376313Y-30859332D01*
X209361368Y-30859153D01*
X209348508Y-30859908D01*
X209337577Y-30863535D01*
X209328417Y-30871975D01*
X209320873Y-30887165D01*
X209314788Y-30911044D01*
X209310005Y-30945551D01*
X209306370Y-30992625D01*
X209303724Y-31054205D01*
X209301912Y-31132230D01*
X209300778Y-31228638D01*
X209300165Y-31345368D01*
X209299917Y-31484359D01*
X209299877Y-31647550D01*
X209299890Y-31807060D01*
X209299890Y-32711119D01*
X209109407Y-32472563D01*
X209041327Y-32388115D01*
X208987354Y-32323689D01*
X208944878Y-32277110D01*
X208911287Y-32246200D01*
X208883970Y-32228784D01*
X208860317Y-32222684D01*
X208837717Y-32225725D01*
X208821031Y-32232170D01*
X208804303Y-32242845D01*
X208767241Y-32268531D01*
X208711884Y-32307756D01*
X208640273Y-32359049D01*
X208554448Y-32420939D01*
X208456449Y-32491955D01*
X208348316Y-32570624D01*
X208232089Y-32655477D01*
X208109808Y-32745041D01*
X208106465Y-32747494D01*
X207985164Y-32836395D01*
X207870757Y-32920057D01*
X207765162Y-32997089D01*
X207670299Y-33066100D01*
X207588087Y-33125699D01*
X207520445Y-33174495D01*
X207469291Y-33211097D01*
X207436546Y-33234114D01*
X207424128Y-33242155D01*
X207424070Y-33242119D01*
X207432402Y-33230347D01*
X207456320Y-33198835D01*
X207494202Y-33149665D01*
X207544428Y-33084919D01*
X207605379Y-33006681D01*
X207675433Y-32917033D01*
X207752971Y-32818057D01*
X207836373Y-32711838D01*
X207858732Y-32683400D01*
X207972555Y-32538663D01*
X208070408Y-32414157D01*
X208153500Y-32308267D01*
X208223036Y-32219377D01*
X208280225Y-32145872D01*
X208326272Y-32086137D01*
X208362385Y-32038555D01*
X208389770Y-32001513D01*
X208409636Y-31973394D01*
X208423188Y-31952582D01*
X208431633Y-31937464D01*
X208436179Y-31926422D01*
X208438033Y-31917843D01*
X208438401Y-31910109D01*
X208438402Y-31907572D01*
X208437498Y-31888344D01*
X208433094Y-31872137D01*
X208422651Y-31858238D01*
X208403631Y-31845930D01*
X208373496Y-31834501D01*
X208329708Y-31823234D01*
X208269729Y-31811415D01*
X208191021Y-31798330D01*
X208091045Y-31783264D01*
X207967263Y-31765503D01*
X207900174Y-31756025D01*
X207410606Y-31687017D01*
X207277480Y-31353071D01*
X207240574Y-31261965D01*
X207205837Y-31178978D01*
X207177387Y-31113507D01*
X207447286Y-31113507D01*
X207451879Y-31127840D01*
X207466500Y-31149493D01*
X207493249Y-31180979D01*
X207534222Y-31224810D01*
X207591516Y-31283499D01*
X207647265Y-31339586D01*
X207710576Y-31402369D01*
X207767773Y-31457899D01*
X207815821Y-31503326D01*
X207851684Y-31535802D01*
X207872329Y-31552474D01*
X207875675Y-31554081D01*
X207892108Y-31550395D01*
X207931900Y-31539955D01*
X207991704Y-31523684D01*
X208068172Y-31502505D01*
X208157954Y-31477342D01*
X208257703Y-31449120D01*
X208306587Y-31435200D01*
X208414570Y-31404364D01*
X208518331Y-31374683D01*
X208613645Y-31347371D01*
X208696284Y-31323639D01*
X208762024Y-31304700D01*
X208806639Y-31291767D01*
X208815898Y-31289055D01*
X208908547Y-31261790D01*
X208828593Y-31022350D01*
X208797936Y-30933545D01*
X208771337Y-30862525D01*
X208749827Y-30811804D01*
X208734435Y-30783898D01*
X208728997Y-30779194D01*
X208711784Y-30781375D01*
X208670249Y-30789090D01*
X208607179Y-30801752D01*
X208525359Y-30818776D01*
X208427576Y-30839575D01*
X208316616Y-30863563D01*
X208195265Y-30890156D01*
X208084682Y-30914670D01*
X207957226Y-30943047D01*
X207838297Y-30969481D01*
X207730600Y-30993375D01*
X207636837Y-31014131D01*
X207559712Y-31031150D01*
X207501927Y-31043836D01*
X207466185Y-31051591D01*
X207455115Y-31053862D01*
X207456227Y-31063021D01*
X207459183Y-31068365D01*
X207458890Y-31089655D01*
X207450626Y-31103980D01*
X207447286Y-31113507D01*
X207177387Y-31113507D01*
X207174891Y-31107764D01*
X207149355Y-31051982D01*
X207130851Y-31015286D01*
X207121764Y-31001756D01*
X207103963Y-30995237D01*
X207068200Y-30990377D01*
X207012087Y-30987040D01*
X206933237Y-30985091D01*
X206829259Y-30984393D01*
X206816672Y-30984387D01*
X206534170Y-30984387D01*
X206299784Y-30927091D01*
X206222213Y-30907813D01*
X206153675Y-30890181D01*
X206098904Y-30875462D01*
X206062628Y-30864920D01*
X206050086Y-30860333D01*
X206042376Y-30844422D01*
X206031249Y-30807695D01*
X206018056Y-30756358D01*
X206004145Y-30696621D01*
X205990864Y-30634690D01*
X205979563Y-30576775D01*
X205971589Y-30529084D01*
X205968292Y-30497824D01*
X205969438Y-30489092D01*
X205983564Y-30492541D01*
X206017676Y-30506605D01*
X206067050Y-30529185D01*
X206126963Y-30558180D01*
X206144048Y-30566693D01*
X206312045Y-30650908D01*
X206841605Y-30650908D01*
X207371165Y-30650908D01*
X207873520Y-30364786D01*
X207981949Y-30302741D01*
X208083168Y-30244265D01*
X208174547Y-30190920D01*
X208253451Y-30144269D01*
X208317250Y-30105872D01*
X208363311Y-30077292D01*
X208389002Y-30060089D01*
X208393244Y-30056441D01*
X208398660Y-30041868D01*
X208402938Y-30012020D01*
X208406172Y-29964614D01*
X208408455Y-29897365D01*
X208409880Y-29807988D01*
X208410540Y-29694198D01*
X208410612Y-29630899D01*
X208410612Y-29227580D01*
X208177419Y-28994386D01*
X208102955Y-28920217D01*
X208045106Y-28863578D01*
X208001051Y-28822137D01*
X207967969Y-28793563D01*
X207943037Y-28775525D01*
X207923434Y-28765689D01*
X207906340Y-28761725D01*
X207895259Y-28761192D01*
X207871566Y-28763831D01*
X207825235Y-28771162D01*
X207760856Y-28782306D01*
X207683016Y-28796384D01*
X207596305Y-28812518D01*
X207505310Y-28829829D01*
X207414621Y-28847437D01*
X207328825Y-28864465D01*
X207252511Y-28880033D01*
X207190269Y-28893263D01*
X207146685Y-28903275D01*
X207130446Y-28907670D01*
X207114396Y-28921578D01*
X207087263Y-28954227D01*
X207052756Y-29000832D01*
X207014583Y-29056608D01*
X207012268Y-29060125D01*
X206975541Y-29115251D01*
X206944224Y-29160756D01*
X206921438Y-29192210D01*
X206910304Y-29205186D01*
X206909956Y-29205297D01*
X206898560Y-29194354D01*
X206877824Y-29166238D01*
X206852169Y-29127918D01*
X206826018Y-29086363D01*
X206803794Y-29048541D01*
X206789921Y-29021422D01*
X206787574Y-29012462D01*
X206797070Y-28999204D01*
X206821662Y-28967221D01*
X206859043Y-28919451D01*
X206906900Y-28858830D01*
X206962925Y-28788297D01*
X207024385Y-28711318D01*
X207256921Y-28420766D01*
X207676249Y-28352490D01*
X207802695Y-28331659D01*
X207904337Y-28314125D01*
X207983856Y-28299069D01*
X208043932Y-28285671D01*
X208087245Y-28273112D01*
X208116475Y-28260574D01*
X208134302Y-28247237D01*
X208143406Y-28232282D01*
X208146467Y-28214890D01*
X208146608Y-28208723D01*
X208142315Y-28191335D01*
X208129961Y-28150045D01*
X208110336Y-28087294D01*
X208084226Y-28005521D01*
X208052420Y-27907169D01*
X208015707Y-27794679D01*
X207974874Y-27670490D01*
X207930710Y-27537044D01*
X207896752Y-27434983D01*
X207850862Y-27297028D01*
X207807868Y-27167123D01*
X207768535Y-27047625D01*
X207733630Y-26940895D01*
X207703918Y-26849291D01*
X207680166Y-26775172D01*
X207663140Y-26720898D01*
X207653607Y-26688829D01*
X207651839Y-26680760D01*
X207659522Y-26691776D01*
X207680723Y-26725137D01*
X207714568Y-26779415D01*
X207760183Y-26853182D01*
X207816694Y-26945010D01*
X207883227Y-27053472D01*
X207958908Y-27177138D01*
X208042863Y-27314582D01*
X208134219Y-27464374D01*
X208232100Y-27625089D01*
X208335634Y-27795296D01*
X208443946Y-27973569D01*
X208544242Y-28138827D01*
X208656734Y-28324089D01*
X208765695Y-28503173D01*
X208870210Y-28674595D01*
X208969364Y-28836869D01*
X209062241Y-28988508D01*
X209147927Y-29128028D01*
X209225506Y-29253943D01*
X209294064Y-29364766D01*
X209352684Y-29459013D01*
X209400453Y-29535197D01*
X209436454Y-29591833D01*
X209459773Y-29627434D01*
X209468940Y-29640049D01*
X209515966Y-29672164D01*
X209565577Y-29677224D01*
X209614011Y-29655229D01*
X209631060Y-29640049D01*
X209642876Y-29623499D01*
X209668153Y-29584651D01*
X209705976Y-29524993D01*
X209755428Y-29446008D01*
X209815595Y-29349184D01*
X209885563Y-29236005D01*
X209964415Y-29107958D01*
X210051236Y-28966527D01*
X210145112Y-28813200D01*
X210245127Y-28649461D01*
X210350366Y-28476797D01*
X210459915Y-28296693D01*
X210555757Y-28138827D01*
X210667605Y-27954546D01*
X210775457Y-27777051D01*
X210878440Y-27607772D01*
X210975678Y-27448135D01*
X211066299Y-27299570D01*
X211149428Y-27163504D01*
X211224191Y-27041364D01*
X211289715Y-26934579D01*
X211345125Y-26844578D01*
X211389547Y-26772787D01*
X211422107Y-26720634D01*
X211441932Y-26689549D01*
X211448160Y-26680760D01*
X211444801Y-26694472D01*
G37*
D17*
%TO.C,U1*%
X179070000Y-130175000D02*
X179070000Y-147955000D01*
X179070000Y-147955000D02*
X209550000Y-147955000D01*
X207010000Y-132715000D02*
X207010000Y-130175000D01*
X209550000Y-130175000D02*
X179070000Y-130175000D01*
X209550000Y-132715000D02*
X207010000Y-132715000D01*
X209550000Y-147955000D02*
X209550000Y-130175000D01*
D15*
%TO.C,SW9*%
X190205000Y-66320000D02*
X190205000Y-68830000D01*
X190205000Y-66320000D02*
X202425000Y-66320000D01*
X190205000Y-71130000D02*
X190205000Y-73730000D01*
X190205000Y-76030000D02*
X190205000Y-78540000D01*
X202425000Y-66320000D02*
X202425000Y-68830000D01*
X202425000Y-71130000D02*
X202425000Y-73730000D01*
X202425000Y-76030000D02*
X202425000Y-78540000D01*
X202425000Y-78540000D02*
X190205000Y-78540000D01*
X199865000Y-72430000D02*
G75*
G02*
X192765000Y-72430000I-3550000J0D01*
G01*
X192765000Y-72430000D02*
G75*
G02*
X199865000Y-72430000I3550000J0D01*
G01*
%TO.C,SW7*%
X180680000Y-82195000D02*
X180680000Y-84705000D01*
X180680000Y-82195000D02*
X192900000Y-82195000D01*
X180680000Y-87005000D02*
X180680000Y-89605000D01*
X180680000Y-91905000D02*
X180680000Y-94415000D01*
X192900000Y-82195000D02*
X192900000Y-84705000D01*
X192900000Y-87005000D02*
X192900000Y-89605000D01*
X192900000Y-91905000D02*
X192900000Y-94415000D01*
X192900000Y-94415000D02*
X180680000Y-94415000D01*
X190340000Y-88305000D02*
G75*
G02*
X183240000Y-88305000I-3550000J0D01*
G01*
X183240000Y-88305000D02*
G75*
G02*
X190340000Y-88305000I3550000J0D01*
G01*
%TO.C,J1*%
X190440000Y-25340000D02*
X191770000Y-25340000D01*
X190440000Y-26670000D02*
X190440000Y-25340000D01*
X193040000Y-25340000D02*
X203260000Y-25340000D01*
X193040000Y-28000000D02*
X193040000Y-25340000D01*
X193040000Y-28000000D02*
X203260000Y-28000000D01*
X203260000Y-28000000D02*
X203260000Y-25340000D01*
%TO.C,SW1*%
X200800000Y-82195000D02*
X200800000Y-84705000D01*
X200800000Y-82195000D02*
X213020000Y-82195000D01*
X200800000Y-87005000D02*
X200800000Y-89605000D01*
X200800000Y-91905000D02*
X200800000Y-94415000D01*
X213020000Y-82195000D02*
X213020000Y-84705000D01*
X213020000Y-87005000D02*
X213020000Y-89605000D01*
X213020000Y-91905000D02*
X213020000Y-94415000D01*
X213020000Y-94415000D02*
X200800000Y-94415000D01*
X210460000Y-88305000D02*
G75*
G02*
X203360000Y-88305000I-3550000J0D01*
G01*
X203360000Y-88305000D02*
G75*
G02*
X210460000Y-88305000I3550000J0D01*
G01*
D18*
%TO.C,U3*%
X214310000Y-96115000D02*
X214310000Y-112165000D01*
X200980000Y-96115000D02*
X214310000Y-96115000D01*
X214310000Y-112165000D02*
X200980000Y-112165000D01*
X200980000Y-112165000D02*
X200980000Y-96115000D01*
D15*
%TO.C,SW2*%
X200900000Y-113905000D02*
X213120000Y-113905000D01*
X200900000Y-116415000D02*
X200900000Y-113905000D01*
X200900000Y-121315000D02*
X200900000Y-118715000D01*
X200900000Y-126125000D02*
X200900000Y-123615000D01*
X213120000Y-116415000D02*
X213120000Y-113905000D01*
X213120000Y-121315000D02*
X213120000Y-118715000D01*
X213120000Y-126125000D02*
X200900000Y-126125000D01*
X213120000Y-126125000D02*
X213120000Y-123615000D01*
X210560000Y-120015000D02*
G75*
G02*
X203460000Y-120015000I-3550000J0D01*
G01*
X203460000Y-120015000D02*
G75*
G02*
X210560000Y-120015000I3550000J0D01*
G01*
%TO.C,SW3*%
X190840000Y-37030000D02*
X203060000Y-37030000D01*
X190840000Y-39540000D02*
X190840000Y-37030000D01*
X190840000Y-44440000D02*
X190840000Y-41840000D01*
X190840000Y-49250000D02*
X190840000Y-46740000D01*
X203060000Y-39540000D02*
X203060000Y-37030000D01*
X203060000Y-44440000D02*
X203060000Y-41840000D01*
X203060000Y-49250000D02*
X190840000Y-49250000D01*
X203060000Y-49250000D02*
X203060000Y-46740000D01*
X200500000Y-43140000D02*
G75*
G02*
X193400000Y-43140000I-3550000J0D01*
G01*
X193400000Y-43140000D02*
G75*
G02*
X200500000Y-43140000I3550000J0D01*
G01*
%TO.C,U2*%
D11*
X205685000Y-66425000D02*
X214685000Y-66425000D01*
X214685000Y-79425000D01*
X205685000Y-79425000D01*
X205685000Y-66425000D01*
D15*
%TO.C,SW4*%
X180680000Y-113945000D02*
X180680000Y-116455000D01*
X180680000Y-113945000D02*
X192900000Y-113945000D01*
X180680000Y-118755000D02*
X180680000Y-121355000D01*
X180680000Y-123655000D02*
X180680000Y-126165000D01*
X192900000Y-113945000D02*
X192900000Y-116455000D01*
X192900000Y-118755000D02*
X192900000Y-121355000D01*
X192900000Y-123655000D02*
X192900000Y-126165000D01*
X192900000Y-126165000D02*
X180680000Y-126165000D01*
X190340000Y-120055000D02*
G75*
G02*
X183240000Y-120055000I-3550000J0D01*
G01*
X183240000Y-120055000D02*
G75*
G02*
X190340000Y-120055000I3550000J0D01*
G01*
%TD*%
D19*
%TO.C,U1*%
X208280000Y-131445000D03*
D20*
X205740000Y-131445000D03*
X203200000Y-131445000D03*
X200660000Y-131445000D03*
X198120000Y-131445000D03*
X195580000Y-131445000D03*
X193040000Y-131445000D03*
X190500000Y-131445000D03*
X187960000Y-131445000D03*
X185420000Y-131445000D03*
X182880000Y-131445000D03*
X180340000Y-131445000D03*
X180340000Y-146685000D03*
X182880000Y-146685000D03*
X185420000Y-146685000D03*
X187960000Y-146685000D03*
X190500000Y-146685000D03*
X193040000Y-146685000D03*
X195580000Y-146685000D03*
X198120000Y-146685000D03*
X200660000Y-146685000D03*
X203200000Y-146685000D03*
X205740000Y-146685000D03*
X208280000Y-146685000D03*
%TD*%
M02*
