%TF.GenerationSoftware,KiCad,Pcbnew,8.0.6*%
%TF.CreationDate,2025-03-08T22:03:20-06:00*%
%TF.ProjectId,fullycustomcontrolle one handv4,66756c6c-7963-4757-9374-6f6d636f6e74,rev?*%
%TF.SameCoordinates,Original*%
%TF.FileFunction,Copper,L2,Bot*%
%TF.FilePolarity,Positive*%
%FSLAX46Y46*%
G04 Gerber Fmt 4.6, Leading zero omitted, Abs format (unit mm)*
G04 Created by KiCad (PCBNEW 8.0.6) date 2025-03-08 22:03:20*
%MOMM*%
%LPD*%
G01*
G04 APERTURE LIST*
%TA.AperFunction,ComponentPad*%
%ADD10O,1.200000X2.000000*%
%TD*%
%TA.AperFunction,ComponentPad*%
%ADD11O,3.200000X1.900000*%
%TD*%
%TA.AperFunction,ComponentPad*%
%ADD12O,2.000000X1.200000*%
%TD*%
%TA.AperFunction,ComponentPad*%
%ADD13R,1.752600X1.752600*%
%TD*%
%TA.AperFunction,ComponentPad*%
%ADD14C,1.752600*%
%TD*%
%TA.AperFunction,ComponentPad*%
%ADD15R,1.700000X1.700000*%
%TD*%
%TA.AperFunction,ComponentPad*%
%ADD16O,1.700000X1.700000*%
%TD*%
%TA.AperFunction,ComponentPad*%
%ADD17C,1.524000*%
%TD*%
%TA.AperFunction,ComponentPad*%
%ADD18R,1.524000X1.524000*%
%TD*%
%TA.AperFunction,ComponentPad*%
%ADD19R,1.500000X2.300000*%
%TD*%
%TA.AperFunction,ComponentPad*%
%ADD20O,1.500000X2.300000*%
%TD*%
%TA.AperFunction,ViaPad*%
%ADD21C,0.600000*%
%TD*%
%TA.AperFunction,Conductor*%
%ADD22C,0.200000*%
%TD*%
G04 APERTURE END LIST*
D10*
%TO.P,MPU1,1,VCC*%
%TO.N,Net-(MPU1-VCC)*%
X180630000Y-110640000D03*
%TO.P,MPU1,2,GND*%
%TO.N,Net-(J1-Pin_1)*%
X183170000Y-110640000D03*
%TO.P,MPU1,3,SCL*%
%TO.N,Net-(MPU1-SCL)*%
X185710000Y-110640000D03*
%TO.P,MPU1,4,SDA*%
%TO.N,Net-(MPU1-SDA)*%
X188250000Y-110640000D03*
%TO.P,MPU1,5,XDA*%
%TO.N,unconnected-(MPU1-XDA-Pad5)*%
X190790000Y-110640000D03*
%TO.P,MPU1,6,XCL*%
%TO.N,unconnected-(MPU1-XCL-Pad6)*%
X193330000Y-110640000D03*
%TO.P,MPU1,7,AD0*%
%TO.N,unconnected-(MPU1-AD0-Pad7)*%
X195870000Y-110640000D03*
%TO.P,MPU1,8,INT*%
%TO.N,unconnected-(MPU1-INT-Pad8)*%
X198410000Y-110640000D03*
%TD*%
D11*
%TO.P,SW8,1,1*%
%TO.N,Net-(SW5-B)*%
X200225000Y-55245000D03*
X212725000Y-55245000D03*
%TO.P,SW8,2,2*%
%TO.N,Net-(U1-B2)*%
X200225000Y-60245000D03*
X212725000Y-60245000D03*
%TD*%
D12*
%TO.P,SW5,1,A*%
%TO.N,Net-(SW5-A)*%
X183515000Y-70485000D03*
%TO.P,SW5,2,B*%
%TO.N,Net-(SW5-B)*%
X183515000Y-73025000D03*
%TO.P,SW5,3,C*%
%TO.N,Net-(SW5-C)*%
X183515000Y-75565000D03*
%TD*%
D11*
%TO.P,SW6,1,1*%
%TO.N,Net-(U1-E6)*%
X193475000Y-60245000D03*
X180975000Y-60245000D03*
%TO.P,SW6,2,2*%
%TO.N,Net-(SW5-B)*%
X193475000Y-55245000D03*
X180975000Y-55245000D03*
%TD*%
D13*
%TO.P,U1,1,TX*%
%TO.N,Net-(SW5-A)*%
X208280000Y-131445000D03*
D14*
%TO.P,U1,2,RX*%
%TO.N,Net-(SW5-C)*%
X205740000Y-131445000D03*
%TO.P,U1,3,GND*%
%TO.N,Net-(SW5-B)*%
X203200000Y-131445000D03*
%TO.P,U1,4,GND*%
%TO.N,Net-(SW9-Pad1)*%
X200660000Y-131445000D03*
%TO.P,U1,5,SDA*%
%TO.N,Net-(U1-SDA)*%
X198120000Y-131445000D03*
%TO.P,U1,6,SCL*%
%TO.N,Net-(U1-SCL)*%
X195580000Y-131445000D03*
%TO.P,U1,7,D4*%
%TO.N,Net-(U1-D4)*%
X193040000Y-131445000D03*
%TO.P,U1,8,C6*%
%TO.N,Net-(U1-C6)*%
X190500000Y-131445000D03*
%TO.P,U1,9,D7*%
%TO.N,Net-(U1-D7)*%
X187960000Y-131445000D03*
%TO.P,U1,10,E6*%
%TO.N,Net-(U1-E6)*%
X185420000Y-131445000D03*
%TO.P,U1,11,B4*%
%TO.N,Net-(U1-B4)*%
X182880000Y-131445000D03*
%TO.P,U1,12,B5*%
%TO.N,Net-(U1-B5)*%
X180340000Y-131445000D03*
%TO.P,U1,13,B6*%
%TO.N,Net-(U1-B6)*%
X180340000Y-146685000D03*
%TO.P,U1,14,B2*%
%TO.N,Net-(U1-B2)*%
X182880000Y-146685000D03*
%TO.P,U1,15,B3*%
%TO.N,unconnected-(U1-B3-Pad15)*%
X185420000Y-146685000D03*
%TO.P,U1,16,B1*%
%TO.N,Net-(J1-Pin_5)*%
X187960000Y-146685000D03*
%TO.P,U1,17,F7*%
%TO.N,Net-(J1-Pin_4)*%
X190500000Y-146685000D03*
%TO.P,U1,18,F6*%
%TO.N,Net-(J1-Pin_3)*%
X193040000Y-146685000D03*
%TO.P,U1,19,F5*%
%TO.N,unconnected-(U1-F5-Pad19)*%
X195580000Y-146685000D03*
%TO.P,U1,20,F4*%
%TO.N,unconnected-(U1-F4-Pad20)*%
X198120000Y-146685000D03*
%TO.P,U1,21,VCC*%
%TO.N,Net-(J1-Pin_2)*%
X200660000Y-146685000D03*
%TO.P,U1,22,RST*%
%TO.N,unconnected-(U1-RST-Pad22)*%
X203200000Y-146685000D03*
%TO.P,U1,23,GND*%
%TO.N,Net-(J1-Pin_1)*%
X205740000Y-146685000D03*
%TO.P,U1,24,RAW*%
%TO.N,unconnected-(U1-RAW-Pad24)*%
X208280000Y-146685000D03*
%TD*%
D11*
%TO.P,SW9,1,1*%
%TO.N,Net-(SW9-Pad1)*%
X190065000Y-69930000D03*
X202565000Y-69930000D03*
%TO.P,SW9,2,2*%
%TO.N,Net-(U1-B6)*%
X190065000Y-74930000D03*
X202565000Y-74930000D03*
%TD*%
%TO.P,SW7,1,1*%
%TO.N,Net-(U1-B4)*%
X180540000Y-85805000D03*
X193040000Y-85805000D03*
%TO.P,SW7,2,2*%
%TO.N,Net-(SW5-B)*%
X180540000Y-90805000D03*
X193040000Y-90805000D03*
%TD*%
D15*
%TO.P,J1,1,Pin_1*%
%TO.N,Net-(J1-Pin_1)*%
X191770000Y-26670000D03*
D16*
%TO.P,J1,2,Pin_2*%
%TO.N,Net-(J1-Pin_2)*%
X194310000Y-26670000D03*
%TO.P,J1,3,Pin_3*%
%TO.N,Net-(J1-Pin_3)*%
X196850000Y-26670000D03*
%TO.P,J1,4,Pin_4*%
%TO.N,Net-(J1-Pin_4)*%
X199390000Y-26670000D03*
%TO.P,J1,5,Pin_5*%
%TO.N,Net-(J1-Pin_5)*%
X201930000Y-26670000D03*
%TD*%
D11*
%TO.P,SW1,1,1*%
%TO.N,Net-(U1-D7)*%
X200660000Y-85805000D03*
X213160000Y-85805000D03*
%TO.P,SW1,2,2*%
%TO.N,Net-(SW5-B)*%
X200660000Y-90805000D03*
X213160000Y-90805000D03*
%TD*%
D17*
%TO.P,U3,GND_1,GND*%
%TO.N,Net-(J1-Pin_1)*%
X202565000Y-102870000D03*
%TO.P,U3,GND_2,GND*%
X212725000Y-102870000D03*
%TO.P,U3,HV,HV*%
%TO.N,Net-(J1-Pin_2)*%
X202565000Y-105410000D03*
D18*
%TO.P,U3,HV1,HV1*%
%TO.N,Net-(U1-SDA)*%
X202565000Y-110490000D03*
D17*
%TO.P,U3,HV2,HV2*%
%TO.N,Net-(U1-SCL)*%
X202565000Y-107950000D03*
%TO.P,U3,HV3,HV3*%
%TO.N,unconnected-(U3-PadHV3)*%
X202565000Y-100330000D03*
%TO.P,U3,HV4,HV4*%
%TO.N,unconnected-(U3-PadHV4)*%
X202565000Y-97790000D03*
%TO.P,U3,LV,LV*%
%TO.N,Net-(MPU1-VCC)*%
X212725000Y-105410000D03*
D18*
%TO.P,U3,LV1,LV1*%
%TO.N,Net-(MPU1-SDA)*%
X212725000Y-110490000D03*
D17*
%TO.P,U3,LV2,LV2*%
%TO.N,Net-(MPU1-SCL)*%
X212725000Y-107950000D03*
%TO.P,U3,LV3,LV3*%
%TO.N,unconnected-(U3-PadLV3)*%
X212725000Y-100330000D03*
%TO.P,U3,LV4,LV4*%
%TO.N,unconnected-(U3-PadLV4)*%
X212725000Y-97790000D03*
%TD*%
D11*
%TO.P,SW2,1,1*%
%TO.N,Net-(U1-D4)*%
X213260000Y-122515000D03*
X200760000Y-122515000D03*
%TO.P,SW2,2,2*%
%TO.N,Net-(SW5-B)*%
X213260000Y-117515000D03*
X200760000Y-117515000D03*
%TD*%
%TO.P,SW3,1,1*%
%TO.N,Net-(U1-B5)*%
X203200000Y-45640000D03*
X190700000Y-45640000D03*
%TO.P,SW3,2,2*%
%TO.N,Net-(SW5-B)*%
X203200000Y-40640000D03*
X190700000Y-40640000D03*
%TD*%
D19*
%TO.P,U2,1,IN*%
%TO.N,Net-(J1-Pin_2)*%
X212735000Y-77925000D03*
D20*
%TO.P,U2,2,OUT*%
%TO.N,Net-(MPU1-VCC)*%
X210235000Y-77925000D03*
%TO.P,U2,3,GND*%
%TO.N,Net-(J1-Pin_1)*%
X207735000Y-77875000D03*
%TD*%
D11*
%TO.P,SW4,1,1*%
%TO.N,Net-(U1-C6)*%
X180540000Y-117555000D03*
X193040000Y-117555000D03*
%TO.P,SW4,2,2*%
%TO.N,Net-(SW5-B)*%
X180540000Y-122555000D03*
X193040000Y-122555000D03*
%TD*%
D21*
%TO.N,Net-(SW5-B)*%
X185355100Y-90805000D03*
%TO.N,Net-(SW5-A)*%
X206375100Y-129933000D03*
X206375100Y-73588900D03*
%TO.N,Net-(SW5-C)*%
X205740000Y-76466700D03*
%TO.N,Net-(U1-B2)*%
X196278700Y-129576100D03*
%TO.N,Net-(J1-Pin_3)*%
X197922600Y-30349400D03*
%TO.N,Net-(U1-B5)*%
X188596800Y-127780000D03*
%TO.N,Net-(U1-D4)*%
X198858300Y-127661600D03*
%TO.N,Net-(U1-D7)*%
X189190100Y-89448100D03*
%TO.N,Net-(J1-Pin_2)*%
X215111000Y-104007800D03*
X195783500Y-71737300D03*
%TO.N,Net-(J1-Pin_1)*%
X207735000Y-40912200D03*
X183170000Y-102870000D03*
%TD*%
D22*
%TO.N,Net-(SW9-Pad1)*%
X202565000Y-69930000D02*
X190065000Y-69930000D01*
%TO.N,Net-(U1-B6)*%
X202565000Y-74930000D02*
X190065000Y-74930000D01*
%TO.N,Net-(SW5-B)*%
X190700000Y-40640000D02*
X203200000Y-40640000D01*
X213260000Y-117515000D02*
X200760000Y-117515000D01*
X198858300Y-118638400D02*
X194941700Y-122555000D01*
X198858300Y-117515000D02*
X198858300Y-118638400D01*
X200760000Y-117515000D02*
X198858300Y-117515000D01*
X180975000Y-55245000D02*
X193475000Y-55245000D01*
X193475000Y-55245000D02*
X200225000Y-55245000D01*
X193148100Y-122555000D02*
X193040000Y-122555000D01*
X193040000Y-122555000D02*
X180540000Y-122555000D01*
X213160000Y-90805000D02*
X200660000Y-90805000D01*
X180540000Y-90805000D02*
X182441700Y-90805000D01*
X200660000Y-90805000D02*
X193040000Y-90805000D01*
X193040000Y-90805000D02*
X185355100Y-90805000D01*
X182441700Y-90805000D02*
X185355100Y-90805000D01*
X212725000Y-55245000D02*
X200225000Y-55245000D01*
X193148100Y-122555000D02*
X194044900Y-122555000D01*
X194044900Y-122555000D02*
X194941700Y-122555000D01*
X203200000Y-130813300D02*
X203200000Y-131445000D01*
X194941700Y-122555000D02*
X203200000Y-130813300D01*
%TO.N,Net-(U1-C6)*%
X193040000Y-117555000D02*
X180540000Y-117555000D01*
%TO.N,Net-(U1-B4)*%
X193040000Y-85805000D02*
X180540000Y-85805000D01*
%TO.N,Net-(SW5-A)*%
X207102000Y-130659900D02*
X206375100Y-129933000D01*
X207102000Y-131445000D02*
X207102000Y-130659900D01*
X183515000Y-70485000D02*
X183515000Y-71386700D01*
X186618900Y-73588900D02*
X206375100Y-73588900D01*
X184416700Y-71386700D02*
X186618900Y-73588900D01*
X183515000Y-71386700D02*
X184416700Y-71386700D01*
X208280000Y-131445000D02*
X207102000Y-131445000D01*
%TO.N,Net-(SW5-C)*%
X183515000Y-75565000D02*
X183515000Y-76466700D01*
X183515000Y-76466700D02*
X205740000Y-76466700D01*
%TO.N,Net-(U1-B2)*%
X212725000Y-60245000D02*
X200225000Y-60245000D01*
X196758000Y-130055400D02*
X196278700Y-129576100D01*
X196758000Y-132807000D02*
X196758000Y-130055400D01*
X182880000Y-146685000D02*
X196758000Y-132807000D01*
%TO.N,Net-(U1-E6)*%
X180975000Y-60245000D02*
X193475000Y-60245000D01*
%TO.N,Net-(J1-Pin_3)*%
X197922600Y-28894300D02*
X197922600Y-30349400D01*
X196850000Y-27821700D02*
X197922600Y-28894300D01*
X196850000Y-26670000D02*
X196850000Y-27821700D01*
%TO.N,Net-(U1-B5)*%
X190700000Y-45640000D02*
X203200000Y-45640000D01*
X184005000Y-127780000D02*
X188596800Y-127780000D01*
X180340000Y-131445000D02*
X184005000Y-127780000D01*
%TO.N,Net-(U1-D4)*%
X200760000Y-122515000D02*
X213260000Y-122515000D01*
X196823400Y-127661600D02*
X198858300Y-127661600D01*
X193040000Y-131445000D02*
X196823400Y-127661600D01*
%TO.N,Net-(U1-D7)*%
X200660000Y-85805000D02*
X198758300Y-85805000D01*
X195115200Y-89448100D02*
X189190100Y-89448100D01*
X198758300Y-85805000D02*
X195115200Y-89448100D01*
X213160000Y-85805000D02*
X200660000Y-85805000D01*
%TO.N,Net-(J1-Pin_2)*%
X203967200Y-104007800D02*
X215111000Y-104007800D01*
X202565000Y-105410000D02*
X203967200Y-104007800D01*
X212735000Y-77925000D02*
X211683300Y-77925000D01*
X205994500Y-71737300D02*
X195783500Y-71737300D01*
X211683300Y-77426100D02*
X205994500Y-71737300D01*
X211683300Y-77925000D02*
X211683300Y-77426100D01*
%TO.N,Net-(MPU1-SCL)*%
X211336700Y-109338300D02*
X185710000Y-109338300D01*
X212725000Y-107950000D02*
X211336700Y-109338300D01*
X185710000Y-110640000D02*
X185710000Y-109338300D01*
%TO.N,Net-(J1-Pin_1)*%
X206876000Y-40912200D02*
X207735000Y-40912200D01*
X192921700Y-26957900D02*
X206876000Y-40912200D01*
X192921700Y-26670000D02*
X192921700Y-26957900D01*
X191770000Y-26670000D02*
X192921700Y-26670000D01*
X212725000Y-102870000D02*
X202565000Y-102870000D01*
X202565000Y-102870000D02*
X183170000Y-102870000D01*
%TO.N,Net-(MPU1-VCC)*%
X211455000Y-106680000D02*
X212725000Y-105410000D01*
X183288300Y-106680000D02*
X211455000Y-106680000D01*
X180630000Y-109338300D02*
X183288300Y-106680000D01*
X180630000Y-110640000D02*
X180630000Y-109338300D01*
%TO.N,Net-(MPU1-SDA)*%
X210209600Y-111941700D02*
X188250000Y-111941700D01*
X211661300Y-110490000D02*
X210209600Y-111941700D01*
X212725000Y-110490000D02*
X211661300Y-110490000D01*
X188250000Y-110640000D02*
X188250000Y-111941700D01*
%TD*%
M02*
