M48
; DRILL file {KiCad 8.0.6} date 2025-03-08T22:03:23-0600
; FORMAT={-:-/ absolute / inch / decimal}
; #@! TF.CreationDate,2025-03-08T22:03:23-06:00
; #@! TF.GenerationSoftware,Kicad,Pcbnew,8.0.6
; #@! TF.FileFunction,Plated,1,2,PTH
FMAT,2
INCH
; #@! TA.AperFunction,Plated,PTH,ViaDrill
T1C0.0118
; #@! TA.AperFunction,Plated,PTH,ComponentDrill
T2C0.0315
; #@! TA.AperFunction,Plated,PTH,ComponentDrill
T3C0.0394
; #@! TA.AperFunction,Plated,PTH,ComponentDrill
T4C0.0400
; #@! TA.AperFunction,Plated,PTH,ComponentDrill
T5C0.0430
; #@! TA.AperFunction,Plated,PTH,ComponentDrill
T6C0.0512
%
G90
G05
T1
X7.2114Y-4.05
X7.2974Y-3.575
X7.4251Y-5.0307
X7.4484Y-3.5216
X7.708Y-2.8243
X7.7275Y-5.1014
X7.7922Y-1.1949
X7.8291Y-5.026
X8.1Y-3.0105
X8.125Y-2.8972
X8.125Y-5.1155
X8.1785Y-1.6107
X8.4689Y-4.0948
T2
X7.1114Y-4.3559
X7.2114Y-4.3559
X7.225Y-2.775
X7.225Y-2.875
X7.225Y-2.975
X7.3114Y-4.3559
X7.4114Y-4.3559
X7.5114Y-4.3559
X7.6114Y-4.3559
X7.7114Y-4.3559
X7.8114Y-4.3559
T3
X7.55Y-1.05
X7.65Y-1.05
X7.75Y-1.05
X7.85Y-1.05
X7.95Y-1.05
X8.1785Y-3.0659
X8.277Y-3.0679
X8.3754Y-3.0679
T4
X7.975Y-3.85
X7.975Y-3.95
X7.975Y-4.05
X7.975Y-4.15
X7.975Y-4.25
X7.975Y-4.35
X8.375Y-3.85
X8.375Y-3.95
X8.375Y-4.05
X8.375Y-4.15
X8.375Y-4.25
X8.375Y-4.35
T5
X7.1Y-5.175
X7.1Y-5.775
X7.2Y-5.175
X7.2Y-5.775
X7.3Y-5.175
X7.3Y-5.775
X7.4Y-5.175
X7.4Y-5.775
X7.5Y-5.175
X7.5Y-5.775
X7.6Y-5.175
X7.6Y-5.775
X7.7Y-5.175
X7.7Y-5.775
X7.8Y-5.175
X7.8Y-5.775
X7.9Y-5.175
X7.9Y-5.775
X8.0Y-5.175
X8.0Y-5.775
X8.1Y-5.175
X8.1Y-5.775
X8.2Y-5.175
X8.2Y-5.775
T6
X7.1079Y-3.3781
X7.1079Y-3.575
X7.1079Y-4.6281
X7.1079Y-4.825
X7.125Y-2.175
X7.125Y-2.3719
X7.4829Y-2.7531
X7.4829Y-2.95
X7.5079Y-1.6
X7.5079Y-1.7969
X7.6Y-3.3781
X7.6Y-3.575
X7.6Y-4.6281
X7.6Y-4.825
X7.6171Y-2.175
X7.6171Y-2.3719
X7.8829Y-2.175
X7.8829Y-2.3719
X7.9Y-3.3781
X7.9Y-3.575
X7.9039Y-4.6266
X7.9039Y-4.8234
X7.975Y-2.7531
X7.975Y-2.95
X8.0Y-1.6
X8.0Y-1.7969
X8.375Y-2.175
X8.375Y-2.3719
X8.3921Y-3.3781
X8.3921Y-3.575
X8.3961Y-4.6266
X8.3961Y-4.8234
M30
