%TF.GenerationSoftware,KiCad,Pcbnew,8.0.3*%
%TF.CreationDate,2024-07-14T23:37:10-05:00*%
%TF.ProjectId,3.3v Pro Micro Long,332e3376-2050-4726-9f20-4d6963726f20,rev?*%
%TF.SameCoordinates,Original*%
%TF.FileFunction,Drillmap*%
%TF.FilePolarity,Positive*%
%FSLAX45Y45*%
G04 Gerber Fmt 4.5, Leading zero omitted, Abs format (unit mm)*
G04 Created by KiCad (PCBNEW 8.0.3) date 2024-07-14 23:37:10*
%MOMM*%
%LPD*%
G01*
G04 APERTURE LIST*
%ADD10C,0.050000*%
%ADD11C,0.200000*%
G04 APERTURE END LIST*
D10*
X12622000Y-7924000D02*
X18772000Y-7924000D01*
X18772000Y-10424000D01*
X12622000Y-10424000D01*
X12622000Y-7924000D01*
D11*
X12880277Y-10737984D02*
X12880277Y-10537984D01*
X12880277Y-10537984D02*
X12927896Y-10537984D01*
X12927896Y-10537984D02*
X12956467Y-10547508D01*
X12956467Y-10547508D02*
X12975515Y-10566555D01*
X12975515Y-10566555D02*
X12985039Y-10585603D01*
X12985039Y-10585603D02*
X12994562Y-10623698D01*
X12994562Y-10623698D02*
X12994562Y-10652270D01*
X12994562Y-10652270D02*
X12985039Y-10690365D01*
X12985039Y-10690365D02*
X12975515Y-10709412D01*
X12975515Y-10709412D02*
X12956467Y-10728460D01*
X12956467Y-10728460D02*
X12927896Y-10737984D01*
X12927896Y-10737984D02*
X12880277Y-10737984D01*
X13080277Y-10737984D02*
X13080277Y-10604650D01*
X13080277Y-10642746D02*
X13089801Y-10623698D01*
X13089801Y-10623698D02*
X13099324Y-10614174D01*
X13099324Y-10614174D02*
X13118372Y-10604650D01*
X13118372Y-10604650D02*
X13137420Y-10604650D01*
X13204086Y-10737984D02*
X13204086Y-10604650D01*
X13204086Y-10537984D02*
X13194562Y-10547508D01*
X13194562Y-10547508D02*
X13204086Y-10557031D01*
X13204086Y-10557031D02*
X13213610Y-10547508D01*
X13213610Y-10547508D02*
X13204086Y-10537984D01*
X13204086Y-10537984D02*
X13204086Y-10557031D01*
X13327896Y-10737984D02*
X13308848Y-10728460D01*
X13308848Y-10728460D02*
X13299324Y-10709412D01*
X13299324Y-10709412D02*
X13299324Y-10537984D01*
X13432658Y-10737984D02*
X13413610Y-10728460D01*
X13413610Y-10728460D02*
X13404086Y-10709412D01*
X13404086Y-10709412D02*
X13404086Y-10537984D01*
X13661229Y-10737984D02*
X13661229Y-10537984D01*
X13661229Y-10537984D02*
X13727896Y-10680841D01*
X13727896Y-10680841D02*
X13794562Y-10537984D01*
X13794562Y-10537984D02*
X13794562Y-10737984D01*
X13975515Y-10737984D02*
X13975515Y-10633222D01*
X13975515Y-10633222D02*
X13965991Y-10614174D01*
X13965991Y-10614174D02*
X13946943Y-10604650D01*
X13946943Y-10604650D02*
X13908848Y-10604650D01*
X13908848Y-10604650D02*
X13889801Y-10614174D01*
X13975515Y-10728460D02*
X13956467Y-10737984D01*
X13956467Y-10737984D02*
X13908848Y-10737984D01*
X13908848Y-10737984D02*
X13889801Y-10728460D01*
X13889801Y-10728460D02*
X13880277Y-10709412D01*
X13880277Y-10709412D02*
X13880277Y-10690365D01*
X13880277Y-10690365D02*
X13889801Y-10671317D01*
X13889801Y-10671317D02*
X13908848Y-10661793D01*
X13908848Y-10661793D02*
X13956467Y-10661793D01*
X13956467Y-10661793D02*
X13975515Y-10652270D01*
X14070753Y-10604650D02*
X14070753Y-10804650D01*
X14070753Y-10614174D02*
X14089801Y-10604650D01*
X14089801Y-10604650D02*
X14127896Y-10604650D01*
X14127896Y-10604650D02*
X14146943Y-10614174D01*
X14146943Y-10614174D02*
X14156467Y-10623698D01*
X14156467Y-10623698D02*
X14165991Y-10642746D01*
X14165991Y-10642746D02*
X14165991Y-10699889D01*
X14165991Y-10699889D02*
X14156467Y-10718936D01*
X14156467Y-10718936D02*
X14146943Y-10728460D01*
X14146943Y-10728460D02*
X14127896Y-10737984D01*
X14127896Y-10737984D02*
X14089801Y-10737984D01*
X14089801Y-10737984D02*
X14070753Y-10728460D01*
X14251705Y-10718936D02*
X14261229Y-10728460D01*
X14261229Y-10728460D02*
X14251705Y-10737984D01*
X14251705Y-10737984D02*
X14242182Y-10728460D01*
X14242182Y-10728460D02*
X14251705Y-10718936D01*
X14251705Y-10718936D02*
X14251705Y-10737984D01*
X14251705Y-10614174D02*
X14261229Y-10623698D01*
X14261229Y-10623698D02*
X14251705Y-10633222D01*
X14251705Y-10633222D02*
X14242182Y-10623698D01*
X14242182Y-10623698D02*
X14251705Y-10614174D01*
X14251705Y-10614174D02*
X14251705Y-10633222D01*
M02*
