M48
; DRILL file {KiCad 8.0.3} date 2024-07-14T23:37:08-0500
; FORMAT={-:-/ absolute / inch / decimal}
; #@! TF.CreationDate,2024-07-14T23:37:08-05:00
; #@! TF.GenerationSoftware,Kicad,Pcbnew,8.0.3
; #@! TF.FileFunction,Plated,1,2,PTH
FMAT,2
INCH
; #@! TA.AperFunction,Plated,PTH,ComponentDrill
T1C0.0394
; #@! TA.AperFunction,Plated,PTH,ComponentDrill
T2C0.0400
; #@! TA.AperFunction,Plated,PTH,ComponentDrill
T3C0.0430
%
G90
G05
T1
X6.4981Y-3.9845
X6.5981Y-3.9845
X6.6981Y-3.9845
X6.9953Y-3.6811
X7.0953Y-3.6811
X7.1953Y-3.6811
X7.2953Y-3.6811
T2
X6.3323Y-3.2087
X6.3323Y-3.6087
X6.4323Y-3.2087
X6.4323Y-3.6087
X6.5323Y-3.2087
X6.5323Y-3.6087
X6.6323Y-3.2087
X6.6323Y-3.6087
X6.7323Y-3.2087
X6.7323Y-3.6087
X6.8323Y-3.2087
X6.8323Y-3.6087
T3
X5.0602Y-3.3071
X5.0602Y-3.9071
X5.1602Y-3.3071
X5.1602Y-3.9071
X5.2602Y-3.3071
X5.2602Y-3.9071
X5.3602Y-3.3071
X5.3602Y-3.9071
X5.4602Y-3.3071
X5.4602Y-3.9071
X5.5602Y-3.3071
X5.5602Y-3.9071
X5.6602Y-3.3071
X5.6602Y-3.9071
X5.7602Y-3.3071
X5.7602Y-3.9071
X5.8602Y-3.3071
X5.8602Y-3.9071
X5.9602Y-3.3071
X5.9602Y-3.9071
X6.0602Y-3.3071
X6.0602Y-3.9071
X6.1602Y-3.3071
X6.1602Y-3.9071
M30
