%TF.GenerationSoftware,KiCad,Pcbnew,8.0.3*%
%TF.CreationDate,2024-07-16T22:19:37-05:00*%
%TF.ProjectId,3.3v Pro Micro Wii Connector,332e3376-2050-4726-9f20-4d6963726f20,rev?*%
%TF.SameCoordinates,Original*%
%TF.FileFunction,Legend,Top*%
%TF.FilePolarity,Positive*%
%FSLAX46Y46*%
G04 Gerber Fmt 4.6, Leading zero omitted, Abs format (unit mm)*
G04 Created by KiCad (PCBNEW 8.0.3) date 2024-07-16 22:19:37*
%MOMM*%
%LPD*%
G01*
G04 APERTURE LIST*
%ADD10C,0.200000*%
%ADD11C,0.250000*%
%ADD12C,0.125000*%
%ADD13C,0.120000*%
%ADD14C,0.127000*%
%ADD15C,0.100000*%
%ADD16C,0.000000*%
%ADD17C,0.381000*%
%ADD18R,1.752600X1.752600*%
%ADD19C,1.752600*%
G04 APERTURE END LIST*
D10*
X188115863Y-95357219D02*
X187639673Y-95357219D01*
X187639673Y-95357219D02*
X187639673Y-94357219D01*
X188973006Y-95357219D02*
X188401578Y-95357219D01*
X188687292Y-95357219D02*
X188687292Y-94357219D01*
X188687292Y-94357219D02*
X188592054Y-94500076D01*
X188592054Y-94500076D02*
X188496816Y-94595314D01*
X188496816Y-94595314D02*
X188401578Y-94642933D01*
D11*
X172529711Y-88854619D02*
X172863044Y-89854619D01*
X172863044Y-89854619D02*
X173196377Y-88854619D01*
X174101139Y-89759380D02*
X174053520Y-89807000D01*
X174053520Y-89807000D02*
X173910663Y-89854619D01*
X173910663Y-89854619D02*
X173815425Y-89854619D01*
X173815425Y-89854619D02*
X173672568Y-89807000D01*
X173672568Y-89807000D02*
X173577330Y-89711761D01*
X173577330Y-89711761D02*
X173529711Y-89616523D01*
X173529711Y-89616523D02*
X173482092Y-89426047D01*
X173482092Y-89426047D02*
X173482092Y-89283190D01*
X173482092Y-89283190D02*
X173529711Y-89092714D01*
X173529711Y-89092714D02*
X173577330Y-88997476D01*
X173577330Y-88997476D02*
X173672568Y-88902238D01*
X173672568Y-88902238D02*
X173815425Y-88854619D01*
X173815425Y-88854619D02*
X173910663Y-88854619D01*
X173910663Y-88854619D02*
X174053520Y-88902238D01*
X174053520Y-88902238D02*
X174101139Y-88949857D01*
X175101139Y-89759380D02*
X175053520Y-89807000D01*
X175053520Y-89807000D02*
X174910663Y-89854619D01*
X174910663Y-89854619D02*
X174815425Y-89854619D01*
X174815425Y-89854619D02*
X174672568Y-89807000D01*
X174672568Y-89807000D02*
X174577330Y-89711761D01*
X174577330Y-89711761D02*
X174529711Y-89616523D01*
X174529711Y-89616523D02*
X174482092Y-89426047D01*
X174482092Y-89426047D02*
X174482092Y-89283190D01*
X174482092Y-89283190D02*
X174529711Y-89092714D01*
X174529711Y-89092714D02*
X174577330Y-88997476D01*
X174577330Y-88997476D02*
X174672568Y-88902238D01*
X174672568Y-88902238D02*
X174815425Y-88854619D01*
X174815425Y-88854619D02*
X174910663Y-88854619D01*
X174910663Y-88854619D02*
X175053520Y-88902238D01*
X175053520Y-88902238D02*
X175101139Y-88949857D01*
D10*
X181889673Y-95357219D02*
X181889673Y-94357219D01*
X181889673Y-94833409D02*
X182461101Y-94833409D01*
X182461101Y-95357219D02*
X182461101Y-94357219D01*
X183461101Y-95357219D02*
X182889673Y-95357219D01*
X183175387Y-95357219D02*
X183175387Y-94357219D01*
X183175387Y-94357219D02*
X183080149Y-94500076D01*
X183080149Y-94500076D02*
X182984911Y-94595314D01*
X182984911Y-94595314D02*
X182889673Y-94642933D01*
X162889047Y-122747275D02*
X163222380Y-123747275D01*
X163222380Y-123747275D02*
X163555713Y-122747275D01*
X164460475Y-123652036D02*
X164412856Y-123699656D01*
X164412856Y-123699656D02*
X164269999Y-123747275D01*
X164269999Y-123747275D02*
X164174761Y-123747275D01*
X164174761Y-123747275D02*
X164031904Y-123699656D01*
X164031904Y-123699656D02*
X163936666Y-123604417D01*
X163936666Y-123604417D02*
X163889047Y-123509179D01*
X163889047Y-123509179D02*
X163841428Y-123318703D01*
X163841428Y-123318703D02*
X163841428Y-123175846D01*
X163841428Y-123175846D02*
X163889047Y-122985370D01*
X163889047Y-122985370D02*
X163936666Y-122890132D01*
X163936666Y-122890132D02*
X164031904Y-122794894D01*
X164031904Y-122794894D02*
X164174761Y-122747275D01*
X164174761Y-122747275D02*
X164269999Y-122747275D01*
X164269999Y-122747275D02*
X164412856Y-122794894D01*
X164412856Y-122794894D02*
X164460475Y-122842513D01*
X165460475Y-123747275D02*
X165127142Y-123271084D01*
X164889047Y-123747275D02*
X164889047Y-122747275D01*
X164889047Y-122747275D02*
X165269999Y-122747275D01*
X165269999Y-122747275D02*
X165365237Y-122794894D01*
X165365237Y-122794894D02*
X165412856Y-122842513D01*
X165412856Y-122842513D02*
X165460475Y-122937751D01*
X165460475Y-122937751D02*
X165460475Y-123080608D01*
X165460475Y-123080608D02*
X165412856Y-123175846D01*
X165412856Y-123175846D02*
X165365237Y-123223465D01*
X165365237Y-123223465D02*
X165269999Y-123271084D01*
X165269999Y-123271084D02*
X164889047Y-123271084D01*
X166317618Y-123699656D02*
X166222380Y-123747275D01*
X166222380Y-123747275D02*
X166031904Y-123747275D01*
X166031904Y-123747275D02*
X165936666Y-123699656D01*
X165936666Y-123699656D02*
X165889047Y-123652036D01*
X165889047Y-123652036D02*
X165841428Y-123556798D01*
X165841428Y-123556798D02*
X165841428Y-123271084D01*
X165841428Y-123271084D02*
X165889047Y-123175846D01*
X165889047Y-123175846D02*
X165936666Y-123128227D01*
X165936666Y-123128227D02*
X166031904Y-123080608D01*
X166031904Y-123080608D02*
X166222380Y-123080608D01*
X166222380Y-123080608D02*
X166317618Y-123128227D01*
X166746190Y-123747275D02*
X166746190Y-122747275D01*
X167174761Y-123747275D02*
X167174761Y-123223465D01*
X167174761Y-123223465D02*
X167127142Y-123128227D01*
X167127142Y-123128227D02*
X167031904Y-123080608D01*
X167031904Y-123080608D02*
X166889047Y-123080608D01*
X166889047Y-123080608D02*
X166793809Y-123128227D01*
X166793809Y-123128227D02*
X166746190Y-123175846D01*
X167650952Y-123747275D02*
X167650952Y-123080608D01*
X167650952Y-122747275D02*
X167603333Y-122794894D01*
X167603333Y-122794894D02*
X167650952Y-122842513D01*
X167650952Y-122842513D02*
X167698571Y-122794894D01*
X167698571Y-122794894D02*
X167650952Y-122747275D01*
X167650952Y-122747275D02*
X167650952Y-122842513D01*
X167984285Y-123080608D02*
X168365237Y-123080608D01*
X168127142Y-122747275D02*
X168127142Y-123604417D01*
X168127142Y-123604417D02*
X168174761Y-123699656D01*
X168174761Y-123699656D02*
X168269999Y-123747275D01*
X168269999Y-123747275D02*
X168365237Y-123747275D01*
X169079523Y-123699656D02*
X168984285Y-123747275D01*
X168984285Y-123747275D02*
X168793809Y-123747275D01*
X168793809Y-123747275D02*
X168698571Y-123699656D01*
X168698571Y-123699656D02*
X168650952Y-123604417D01*
X168650952Y-123604417D02*
X168650952Y-123223465D01*
X168650952Y-123223465D02*
X168698571Y-123128227D01*
X168698571Y-123128227D02*
X168793809Y-123080608D01*
X168793809Y-123080608D02*
X168984285Y-123080608D01*
X168984285Y-123080608D02*
X169079523Y-123128227D01*
X169079523Y-123128227D02*
X169127142Y-123223465D01*
X169127142Y-123223465D02*
X169127142Y-123318703D01*
X169127142Y-123318703D02*
X168650952Y-123413941D01*
X169984285Y-123699656D02*
X169889047Y-123747275D01*
X169889047Y-123747275D02*
X169698571Y-123747275D01*
X169698571Y-123747275D02*
X169603333Y-123699656D01*
X169603333Y-123699656D02*
X169555714Y-123652036D01*
X169555714Y-123652036D02*
X169508095Y-123556798D01*
X169508095Y-123556798D02*
X169508095Y-123271084D01*
X169508095Y-123271084D02*
X169555714Y-123175846D01*
X169555714Y-123175846D02*
X169603333Y-123128227D01*
X169603333Y-123128227D02*
X169698571Y-123080608D01*
X169698571Y-123080608D02*
X169889047Y-123080608D01*
X169889047Y-123080608D02*
X169984285Y-123128227D01*
X170270000Y-123080608D02*
X170650952Y-123080608D01*
X170412857Y-122747275D02*
X170412857Y-123604417D01*
X170412857Y-123604417D02*
X170460476Y-123699656D01*
X170460476Y-123699656D02*
X170555714Y-123747275D01*
X170555714Y-123747275D02*
X170650952Y-123747275D01*
X160841427Y-125261980D02*
X160793808Y-125309600D01*
X160793808Y-125309600D02*
X160650951Y-125357219D01*
X160650951Y-125357219D02*
X160555713Y-125357219D01*
X160555713Y-125357219D02*
X160412856Y-125309600D01*
X160412856Y-125309600D02*
X160317618Y-125214361D01*
X160317618Y-125214361D02*
X160269999Y-125119123D01*
X160269999Y-125119123D02*
X160222380Y-124928647D01*
X160222380Y-124928647D02*
X160222380Y-124785790D01*
X160222380Y-124785790D02*
X160269999Y-124595314D01*
X160269999Y-124595314D02*
X160317618Y-124500076D01*
X160317618Y-124500076D02*
X160412856Y-124404838D01*
X160412856Y-124404838D02*
X160555713Y-124357219D01*
X160555713Y-124357219D02*
X160650951Y-124357219D01*
X160650951Y-124357219D02*
X160793808Y-124404838D01*
X160793808Y-124404838D02*
X160841427Y-124452457D01*
X161269999Y-125357219D02*
X161269999Y-124357219D01*
X161698570Y-125357219D02*
X161698570Y-124833409D01*
X161698570Y-124833409D02*
X161650951Y-124738171D01*
X161650951Y-124738171D02*
X161555713Y-124690552D01*
X161555713Y-124690552D02*
X161412856Y-124690552D01*
X161412856Y-124690552D02*
X161317618Y-124738171D01*
X161317618Y-124738171D02*
X161269999Y-124785790D01*
X162555713Y-125309600D02*
X162460475Y-125357219D01*
X162460475Y-125357219D02*
X162269999Y-125357219D01*
X162269999Y-125357219D02*
X162174761Y-125309600D01*
X162174761Y-125309600D02*
X162127142Y-125214361D01*
X162127142Y-125214361D02*
X162127142Y-124833409D01*
X162127142Y-124833409D02*
X162174761Y-124738171D01*
X162174761Y-124738171D02*
X162269999Y-124690552D01*
X162269999Y-124690552D02*
X162460475Y-124690552D01*
X162460475Y-124690552D02*
X162555713Y-124738171D01*
X162555713Y-124738171D02*
X162603332Y-124833409D01*
X162603332Y-124833409D02*
X162603332Y-124928647D01*
X162603332Y-124928647D02*
X162127142Y-125023885D01*
X163460475Y-125357219D02*
X163460475Y-124833409D01*
X163460475Y-124833409D02*
X163412856Y-124738171D01*
X163412856Y-124738171D02*
X163317618Y-124690552D01*
X163317618Y-124690552D02*
X163127142Y-124690552D01*
X163127142Y-124690552D02*
X163031904Y-124738171D01*
X163460475Y-125309600D02*
X163365237Y-125357219D01*
X163365237Y-125357219D02*
X163127142Y-125357219D01*
X163127142Y-125357219D02*
X163031904Y-125309600D01*
X163031904Y-125309600D02*
X162984285Y-125214361D01*
X162984285Y-125214361D02*
X162984285Y-125119123D01*
X162984285Y-125119123D02*
X163031904Y-125023885D01*
X163031904Y-125023885D02*
X163127142Y-124976266D01*
X163127142Y-124976266D02*
X163365237Y-124976266D01*
X163365237Y-124976266D02*
X163460475Y-124928647D01*
X163936666Y-124690552D02*
X163936666Y-125690552D01*
X163936666Y-124738171D02*
X164031904Y-124690552D01*
X164031904Y-124690552D02*
X164222380Y-124690552D01*
X164222380Y-124690552D02*
X164317618Y-124738171D01*
X164317618Y-124738171D02*
X164365237Y-124785790D01*
X164365237Y-124785790D02*
X164412856Y-124881028D01*
X164412856Y-124881028D02*
X164412856Y-125166742D01*
X164412856Y-125166742D02*
X164365237Y-125261980D01*
X164365237Y-125261980D02*
X164317618Y-125309600D01*
X164317618Y-125309600D02*
X164222380Y-125357219D01*
X164222380Y-125357219D02*
X164031904Y-125357219D01*
X164031904Y-125357219D02*
X163936666Y-125309600D01*
X164984285Y-125357219D02*
X164889047Y-125309600D01*
X164889047Y-125309600D02*
X164841428Y-125261980D01*
X164841428Y-125261980D02*
X164793809Y-125166742D01*
X164793809Y-125166742D02*
X164793809Y-124881028D01*
X164793809Y-124881028D02*
X164841428Y-124785790D01*
X164841428Y-124785790D02*
X164889047Y-124738171D01*
X164889047Y-124738171D02*
X164984285Y-124690552D01*
X164984285Y-124690552D02*
X165127142Y-124690552D01*
X165127142Y-124690552D02*
X165222380Y-124738171D01*
X165222380Y-124738171D02*
X165269999Y-124785790D01*
X165269999Y-124785790D02*
X165317618Y-124881028D01*
X165317618Y-124881028D02*
X165317618Y-125166742D01*
X165317618Y-125166742D02*
X165269999Y-125261980D01*
X165269999Y-125261980D02*
X165222380Y-125309600D01*
X165222380Y-125309600D02*
X165127142Y-125357219D01*
X165127142Y-125357219D02*
X164984285Y-125357219D01*
X166508095Y-125357219D02*
X166508095Y-124357219D01*
X166508095Y-124357219D02*
X167079523Y-125357219D01*
X167079523Y-125357219D02*
X167079523Y-124357219D01*
X167984285Y-124690552D02*
X167984285Y-125357219D01*
X167555714Y-124690552D02*
X167555714Y-125214361D01*
X167555714Y-125214361D02*
X167603333Y-125309600D01*
X167603333Y-125309600D02*
X167698571Y-125357219D01*
X167698571Y-125357219D02*
X167841428Y-125357219D01*
X167841428Y-125357219D02*
X167936666Y-125309600D01*
X167936666Y-125309600D02*
X167984285Y-125261980D01*
X168460476Y-124690552D02*
X168460476Y-125357219D01*
X168460476Y-124785790D02*
X168508095Y-124738171D01*
X168508095Y-124738171D02*
X168603333Y-124690552D01*
X168603333Y-124690552D02*
X168746190Y-124690552D01*
X168746190Y-124690552D02*
X168841428Y-124738171D01*
X168841428Y-124738171D02*
X168889047Y-124833409D01*
X168889047Y-124833409D02*
X168889047Y-125357219D01*
X169793809Y-125309600D02*
X169698571Y-125357219D01*
X169698571Y-125357219D02*
X169508095Y-125357219D01*
X169508095Y-125357219D02*
X169412857Y-125309600D01*
X169412857Y-125309600D02*
X169365238Y-125261980D01*
X169365238Y-125261980D02*
X169317619Y-125166742D01*
X169317619Y-125166742D02*
X169317619Y-124881028D01*
X169317619Y-124881028D02*
X169365238Y-124785790D01*
X169365238Y-124785790D02*
X169412857Y-124738171D01*
X169412857Y-124738171D02*
X169508095Y-124690552D01*
X169508095Y-124690552D02*
X169698571Y-124690552D01*
X169698571Y-124690552D02*
X169793809Y-124738171D01*
X170222381Y-125357219D02*
X170222381Y-124357219D01*
X170650952Y-125357219D02*
X170650952Y-124833409D01*
X170650952Y-124833409D02*
X170603333Y-124738171D01*
X170603333Y-124738171D02*
X170508095Y-124690552D01*
X170508095Y-124690552D02*
X170365238Y-124690552D01*
X170365238Y-124690552D02*
X170270000Y-124738171D01*
X170270000Y-124738171D02*
X170222381Y-124785790D01*
X171555714Y-125357219D02*
X171555714Y-124833409D01*
X171555714Y-124833409D02*
X171508095Y-124738171D01*
X171508095Y-124738171D02*
X171412857Y-124690552D01*
X171412857Y-124690552D02*
X171222381Y-124690552D01*
X171222381Y-124690552D02*
X171127143Y-124738171D01*
X171555714Y-125309600D02*
X171460476Y-125357219D01*
X171460476Y-125357219D02*
X171222381Y-125357219D01*
X171222381Y-125357219D02*
X171127143Y-125309600D01*
X171127143Y-125309600D02*
X171079524Y-125214361D01*
X171079524Y-125214361D02*
X171079524Y-125119123D01*
X171079524Y-125119123D02*
X171127143Y-125023885D01*
X171127143Y-125023885D02*
X171222381Y-124976266D01*
X171222381Y-124976266D02*
X171460476Y-124976266D01*
X171460476Y-124976266D02*
X171555714Y-124928647D01*
X172031905Y-125357219D02*
X172031905Y-124357219D01*
X172127143Y-124976266D02*
X172412857Y-125357219D01*
X172412857Y-124690552D02*
X172031905Y-125071504D01*
X173270000Y-124690552D02*
X173270000Y-125357219D01*
X172841429Y-124690552D02*
X172841429Y-125214361D01*
X172841429Y-125214361D02*
X172889048Y-125309600D01*
X172889048Y-125309600D02*
X172984286Y-125357219D01*
X172984286Y-125357219D02*
X173127143Y-125357219D01*
X173127143Y-125357219D02*
X173222381Y-125309600D01*
X173222381Y-125309600D02*
X173270000Y-125261980D01*
D12*
X188083952Y-106739999D02*
X187433952Y-106739999D01*
X188083952Y-106430475D02*
X187433952Y-106430475D01*
X187433952Y-106430475D02*
X188083952Y-106059046D01*
X188083952Y-106059046D02*
X187433952Y-106059046D01*
X187433952Y-104635237D02*
X187433952Y-104511428D01*
X187433952Y-104511428D02*
X187464904Y-104449523D01*
X187464904Y-104449523D02*
X187526809Y-104387618D01*
X187526809Y-104387618D02*
X187650619Y-104356666D01*
X187650619Y-104356666D02*
X187867285Y-104356666D01*
X187867285Y-104356666D02*
X187991095Y-104387618D01*
X187991095Y-104387618D02*
X188053000Y-104449523D01*
X188053000Y-104449523D02*
X188083952Y-104511428D01*
X188083952Y-104511428D02*
X188083952Y-104635237D01*
X188083952Y-104635237D02*
X188053000Y-104697142D01*
X188053000Y-104697142D02*
X187991095Y-104759047D01*
X187991095Y-104759047D02*
X187867285Y-104789999D01*
X187867285Y-104789999D02*
X187650619Y-104789999D01*
X187650619Y-104789999D02*
X187526809Y-104759047D01*
X187526809Y-104759047D02*
X187464904Y-104697142D01*
X187464904Y-104697142D02*
X187433952Y-104635237D01*
X187433952Y-104078095D02*
X187960142Y-104078095D01*
X187960142Y-104078095D02*
X188022047Y-104047142D01*
X188022047Y-104047142D02*
X188053000Y-104016190D01*
X188053000Y-104016190D02*
X188083952Y-103954285D01*
X188083952Y-103954285D02*
X188083952Y-103830476D01*
X188083952Y-103830476D02*
X188053000Y-103768571D01*
X188053000Y-103768571D02*
X188022047Y-103737618D01*
X188022047Y-103737618D02*
X187960142Y-103706666D01*
X187960142Y-103706666D02*
X187433952Y-103706666D01*
X187433952Y-103490000D02*
X187433952Y-103118571D01*
X188083952Y-103304285D02*
X187433952Y-103304285D01*
X187464904Y-101570952D02*
X187433952Y-101632857D01*
X187433952Y-101632857D02*
X187433952Y-101725714D01*
X187433952Y-101725714D02*
X187464904Y-101818571D01*
X187464904Y-101818571D02*
X187526809Y-101880476D01*
X187526809Y-101880476D02*
X187588714Y-101911429D01*
X187588714Y-101911429D02*
X187712523Y-101942381D01*
X187712523Y-101942381D02*
X187805380Y-101942381D01*
X187805380Y-101942381D02*
X187929190Y-101911429D01*
X187929190Y-101911429D02*
X187991095Y-101880476D01*
X187991095Y-101880476D02*
X188053000Y-101818571D01*
X188053000Y-101818571D02*
X188083952Y-101725714D01*
X188083952Y-101725714D02*
X188083952Y-101663810D01*
X188083952Y-101663810D02*
X188053000Y-101570952D01*
X188053000Y-101570952D02*
X188022047Y-101540000D01*
X188022047Y-101540000D02*
X187805380Y-101540000D01*
X187805380Y-101540000D02*
X187805380Y-101663810D01*
X188083952Y-101261429D02*
X187433952Y-101261429D01*
X187433952Y-101261429D02*
X188083952Y-100890000D01*
X188083952Y-100890000D02*
X187433952Y-100890000D01*
X188083952Y-100580477D02*
X187433952Y-100580477D01*
X187433952Y-100580477D02*
X187433952Y-100425715D01*
X187433952Y-100425715D02*
X187464904Y-100332858D01*
X187464904Y-100332858D02*
X187526809Y-100270953D01*
X187526809Y-100270953D02*
X187588714Y-100240000D01*
X187588714Y-100240000D02*
X187712523Y-100209048D01*
X187712523Y-100209048D02*
X187805380Y-100209048D01*
X187805380Y-100209048D02*
X187929190Y-100240000D01*
X187929190Y-100240000D02*
X187991095Y-100270953D01*
X187991095Y-100270953D02*
X188053000Y-100332858D01*
X188053000Y-100332858D02*
X188083952Y-100425715D01*
X188083952Y-100425715D02*
X188083952Y-100580477D01*
D13*
%TO.C,Connector1*%
X176689000Y-111442000D02*
X176689000Y-113335000D01*
X176689000Y-111442000D02*
X189897000Y-111442000D01*
X176689000Y-117030000D02*
X176689000Y-119570000D01*
X179610000Y-113220000D02*
X179610000Y-111950000D01*
X189897000Y-111442000D02*
X189897000Y-113335000D01*
X189897000Y-117030000D02*
X189897000Y-119570000D01*
D14*
%TO.C,U3*%
X178605000Y-80465000D02*
X191935000Y-80465000D01*
X178605000Y-96515000D02*
X178605000Y-80465000D01*
X191935000Y-80465000D02*
X191935000Y-96515000D01*
X191935000Y-96515000D02*
X178605000Y-96515000D01*
%TO.C,U4*%
D15*
X178670000Y-107990000D02*
X191670000Y-107990000D01*
X191670000Y-98990000D01*
X178670000Y-98990000D01*
X178670000Y-107990000D01*
D16*
%TO.C,G\u002A\u002A\u002A*%
G36*
X171772188Y-116740000D02*
G01*
X171772188Y-121742188D01*
X166770000Y-121742188D01*
X161767812Y-121742188D01*
X161767812Y-117097242D01*
X162754319Y-117097242D01*
X162757204Y-117132897D01*
X162765290Y-117190253D01*
X162777681Y-117264918D01*
X162793484Y-117352501D01*
X162811806Y-117448610D01*
X162831751Y-117548854D01*
X162852427Y-117648841D01*
X162872940Y-117744180D01*
X162892395Y-117830480D01*
X162909898Y-117903348D01*
X162924556Y-117958394D01*
X162935475Y-117991227D01*
X162936935Y-117994361D01*
X162952601Y-118020001D01*
X162973372Y-118042095D01*
X163002601Y-118062090D01*
X163043640Y-118081428D01*
X163099839Y-118101555D01*
X163174550Y-118123915D01*
X163271126Y-118149952D01*
X163337943Y-118167171D01*
X163429810Y-118190330D01*
X163502221Y-118207445D01*
X163562583Y-118219586D01*
X163618302Y-118227824D01*
X163676787Y-118233229D01*
X163745443Y-118236871D01*
X163831679Y-118239822D01*
X163843024Y-118240164D01*
X164091048Y-118247604D01*
X164205258Y-118532450D01*
X164239530Y-118617446D01*
X164271253Y-118695223D01*
X164298670Y-118761543D01*
X164320024Y-118812168D01*
X164333557Y-118842860D01*
X164336337Y-118848516D01*
X164354096Y-118872437D01*
X164381403Y-118892835D01*
X164421470Y-118910712D01*
X164477511Y-118927073D01*
X164552740Y-118942920D01*
X164650371Y-118959258D01*
X164727440Y-118970626D01*
X164811302Y-118982936D01*
X164885719Y-118994583D01*
X164946313Y-119004823D01*
X164988703Y-119012911D01*
X165008510Y-119018103D01*
X165009203Y-119018530D01*
X165002505Y-119030636D01*
X164979833Y-119062900D01*
X164942448Y-119113678D01*
X164891607Y-119181326D01*
X164828569Y-119264198D01*
X164754593Y-119360651D01*
X164670937Y-119469041D01*
X164578860Y-119587722D01*
X164479621Y-119715050D01*
X164374478Y-119849381D01*
X164325990Y-119911145D01*
X164217737Y-120049092D01*
X164114123Y-120181468D01*
X164016487Y-120306545D01*
X163926167Y-120422594D01*
X163844498Y-120527886D01*
X163772819Y-120620691D01*
X163712468Y-120699280D01*
X163664780Y-120761925D01*
X163631094Y-120806896D01*
X163612747Y-120832464D01*
X163610009Y-120836859D01*
X163593583Y-120890903D01*
X163589335Y-120957345D01*
X163597036Y-121023721D01*
X163614370Y-121073810D01*
X163655105Y-121122620D01*
X163712922Y-121155672D01*
X163780987Y-121171361D01*
X163852465Y-121168083D01*
X163918611Y-121145256D01*
X163937199Y-121133158D01*
X163976492Y-121105786D01*
X164034822Y-121064347D01*
X164110520Y-121010052D01*
X164201919Y-120944108D01*
X164307349Y-120867725D01*
X164425143Y-120782111D01*
X164553633Y-120688475D01*
X164691150Y-120588027D01*
X164836025Y-120481974D01*
X164986591Y-120371526D01*
X164998391Y-120362861D01*
X166026619Y-119607704D01*
X166259608Y-119900302D01*
X166336429Y-119995444D01*
X166404289Y-120076808D01*
X166461445Y-120142409D01*
X166506154Y-120190265D01*
X166536672Y-120218392D01*
X166543263Y-120222965D01*
X166567701Y-120235704D01*
X166594178Y-120244280D01*
X166628700Y-120249490D01*
X166677275Y-120252130D01*
X166745909Y-120252997D01*
X166770000Y-120253031D01*
X166845456Y-120252523D01*
X166899140Y-120250470D01*
X166937058Y-120246074D01*
X166965217Y-120238539D01*
X166989624Y-120227069D01*
X166996737Y-120222965D01*
X167022251Y-120201700D01*
X167062525Y-120160058D01*
X167115814Y-120100025D01*
X167180376Y-120023583D01*
X167254467Y-119932715D01*
X167280391Y-119900302D01*
X167513380Y-119607704D01*
X168541608Y-120362861D01*
X168692544Y-120473597D01*
X168837917Y-120580032D01*
X168976061Y-120680956D01*
X169105306Y-120775160D01*
X169223984Y-120861435D01*
X169330428Y-120938573D01*
X169422968Y-121005365D01*
X169499937Y-121060602D01*
X169559665Y-121103075D01*
X169600486Y-121131575D01*
X169620730Y-121144894D01*
X169621388Y-121145256D01*
X169689180Y-121168403D01*
X169760100Y-121171319D01*
X169827463Y-121155663D01*
X169884588Y-121123095D01*
X169924789Y-121075273D01*
X169927882Y-121069172D01*
X169945747Y-121009853D01*
X169951035Y-120941289D01*
X169943633Y-120875854D01*
X169929990Y-120836859D01*
X169918124Y-120819500D01*
X169890387Y-120782049D01*
X169848115Y-120726235D01*
X169792647Y-120653789D01*
X169725319Y-120566438D01*
X169647469Y-120465912D01*
X169560433Y-120353940D01*
X169465550Y-120232251D01*
X169364157Y-120102575D01*
X169257591Y-119966639D01*
X169214009Y-119911145D01*
X169106638Y-119774220D01*
X169004609Y-119643564D01*
X168909181Y-119520821D01*
X168821612Y-119407637D01*
X168743161Y-119305655D01*
X168675087Y-119216519D01*
X168618649Y-119141875D01*
X168575104Y-119083367D01*
X168545712Y-119042639D01*
X168531731Y-119021336D01*
X168530797Y-119018530D01*
X168547312Y-119013774D01*
X168586985Y-119006024D01*
X168645437Y-118996025D01*
X168718288Y-118984520D01*
X168801159Y-118972254D01*
X168812560Y-118970626D01*
X168926491Y-118953430D01*
X169015929Y-118937378D01*
X169084088Y-118921466D01*
X169134182Y-118904689D01*
X169169424Y-118886045D01*
X169193030Y-118864530D01*
X169203663Y-118848516D01*
X169213666Y-118826753D01*
X169232176Y-118783405D01*
X169257435Y-118722707D01*
X169287687Y-118648898D01*
X169321173Y-118566216D01*
X169334741Y-118532450D01*
X169448952Y-118247604D01*
X169696976Y-118240164D01*
X169785700Y-118237225D01*
X169855997Y-118233716D01*
X169915271Y-118228567D01*
X169970932Y-118220709D01*
X170030385Y-118209069D01*
X170101039Y-118192579D01*
X170190299Y-118170167D01*
X170202057Y-118167171D01*
X170312738Y-118138362D01*
X170399627Y-118114062D01*
X170466074Y-118092826D01*
X170515431Y-118073210D01*
X170551049Y-118053769D01*
X170576280Y-118033060D01*
X170594475Y-118009638D01*
X170603065Y-117994361D01*
X170613191Y-117965971D01*
X170627225Y-117914599D01*
X170644271Y-117844636D01*
X170663434Y-117760473D01*
X170683819Y-117666501D01*
X170704532Y-117567110D01*
X170724678Y-117466691D01*
X170743362Y-117369635D01*
X170759690Y-117280332D01*
X170772766Y-117203174D01*
X170781696Y-117142549D01*
X170785585Y-117102851D01*
X170785681Y-117098267D01*
X170774550Y-117017029D01*
X170742157Y-116953279D01*
X170689857Y-116908355D01*
X170619004Y-116883596D01*
X170563758Y-116878949D01*
X170538877Y-116880241D01*
X170512100Y-116885089D01*
X170479841Y-116894954D01*
X170438509Y-116911297D01*
X170384515Y-116935578D01*
X170314271Y-116969258D01*
X170224188Y-117013797D01*
X170188162Y-117031794D01*
X169882714Y-117184639D01*
X169483487Y-117184639D01*
X169084260Y-117184639D01*
X168677458Y-116952547D01*
X168270656Y-116720456D01*
X168270656Y-116518055D01*
X168270656Y-116315654D01*
X168402239Y-116184619D01*
X168533821Y-116053583D01*
X168744781Y-116094210D01*
X168818744Y-116109225D01*
X168883416Y-116123804D01*
X168933676Y-116136680D01*
X168964401Y-116146587D01*
X168970994Y-116150180D01*
X168983480Y-116166463D01*
X169008331Y-116201764D01*
X169042657Y-116251876D01*
X169083565Y-116312588D01*
X169115181Y-116360064D01*
X169170873Y-116442309D01*
X169216168Y-116503602D01*
X169254746Y-116546948D01*
X169290286Y-116575357D01*
X169326470Y-116591836D01*
X169366978Y-116599392D01*
X169410043Y-116601050D01*
X169453319Y-116599523D01*
X169489984Y-116593116D01*
X169523163Y-116579090D01*
X169555977Y-116554703D01*
X169591549Y-116517216D01*
X169633000Y-116463889D01*
X169683452Y-116391983D01*
X169734118Y-116316652D01*
X169783657Y-116241842D01*
X169829165Y-116172243D01*
X169867890Y-116112133D01*
X169897082Y-116065787D01*
X169913989Y-116037482D01*
X169915466Y-116034728D01*
X169931046Y-115984754D01*
X169937563Y-115920508D01*
X169934998Y-115853862D01*
X169923333Y-115796691D01*
X169915858Y-115778633D01*
X169897627Y-115749696D01*
X169864778Y-115703903D01*
X169819902Y-115644433D01*
X169765588Y-115574463D01*
X169704428Y-115497170D01*
X169639012Y-115415734D01*
X169571930Y-115333331D01*
X169505774Y-115253139D01*
X169443133Y-115178335D01*
X169386598Y-115112099D01*
X169338761Y-115057608D01*
X169302211Y-115018038D01*
X169279539Y-114996569D01*
X169276721Y-114994620D01*
X169245605Y-114981097D01*
X169195316Y-114966712D01*
X169123556Y-114950944D01*
X169028028Y-114933268D01*
X168947028Y-114919684D01*
X168861848Y-114905491D01*
X168786072Y-114892214D01*
X168723968Y-114880652D01*
X168679805Y-114871608D01*
X168657849Y-114865882D01*
X168656391Y-114865120D01*
X168659118Y-114850879D01*
X168670072Y-114812243D01*
X168688627Y-114751159D01*
X168714157Y-114669574D01*
X168746037Y-114569435D01*
X168783639Y-114452688D01*
X168826339Y-114321281D01*
X168873510Y-114177161D01*
X168924527Y-114022274D01*
X168978763Y-113858568D01*
X169014186Y-113752134D01*
X169089456Y-113525743D01*
X169155727Y-113325079D01*
X169213162Y-113149630D01*
X169261922Y-112998886D01*
X169302169Y-112872337D01*
X169334063Y-112769472D01*
X169357767Y-112689781D01*
X169373442Y-112632752D01*
X169381249Y-112597876D01*
X169382254Y-112588423D01*
X169375427Y-112536426D01*
X169358528Y-112483081D01*
X169353667Y-112472683D01*
X169312848Y-112421214D01*
X169253338Y-112382331D01*
X169181996Y-112357698D01*
X169105684Y-112348978D01*
X169031263Y-112357834D01*
X168974166Y-112380682D01*
X168965747Y-112386693D01*
X168955426Y-112396582D01*
X168942502Y-112411472D01*
X168926270Y-112432486D01*
X168906030Y-112460745D01*
X168881079Y-112497372D01*
X168850714Y-112543489D01*
X168814233Y-112600219D01*
X168770934Y-112668685D01*
X168720114Y-112750008D01*
X168661072Y-112845312D01*
X168593104Y-112955718D01*
X168515509Y-113082348D01*
X168427584Y-113226326D01*
X168328626Y-113388774D01*
X168217934Y-113570814D01*
X168094805Y-113773568D01*
X167958536Y-113998160D01*
X167848673Y-114179327D01*
X167725557Y-114382309D01*
X167606346Y-114578704D01*
X167491837Y-114767206D01*
X167382827Y-114946510D01*
X167280112Y-115115312D01*
X167184488Y-115272306D01*
X167096752Y-115416188D01*
X167017699Y-115545652D01*
X166948127Y-115659395D01*
X166888831Y-115756110D01*
X166840609Y-115834493D01*
X166804255Y-115893238D01*
X166780567Y-115931042D01*
X166770341Y-115946599D01*
X166770000Y-115946937D01*
X166762127Y-115935268D01*
X166740658Y-115901132D01*
X166706389Y-115845833D01*
X166660115Y-115770677D01*
X166602635Y-115676968D01*
X166534743Y-115566011D01*
X166457237Y-115439112D01*
X166370912Y-115297574D01*
X166276565Y-115142704D01*
X166174992Y-114975806D01*
X166066990Y-114798185D01*
X165953354Y-114611145D01*
X165834882Y-114415993D01*
X165712369Y-114214032D01*
X165691326Y-114179327D01*
X165544869Y-113937831D01*
X165412071Y-113719003D01*
X165292230Y-113521722D01*
X165184645Y-113344864D01*
X165088612Y-113187308D01*
X165003430Y-113047931D01*
X164928395Y-112925610D01*
X164862807Y-112819224D01*
X164805961Y-112727649D01*
X164757157Y-112649763D01*
X164715691Y-112584445D01*
X164680862Y-112530571D01*
X164651967Y-112487019D01*
X164628303Y-112452668D01*
X164609169Y-112426393D01*
X164593861Y-112407073D01*
X164581678Y-112393586D01*
X164571918Y-112384809D01*
X164565834Y-112380682D01*
X164498497Y-112355433D01*
X164423386Y-112349186D01*
X164347364Y-112360277D01*
X164277290Y-112387045D01*
X164220026Y-112427824D01*
X164186333Y-112472683D01*
X164167844Y-112523182D01*
X164158162Y-112577455D01*
X164157746Y-112588423D01*
X164161584Y-112612146D01*
X164173208Y-112657760D01*
X164192777Y-112725775D01*
X164220455Y-112816702D01*
X164256401Y-112931052D01*
X164300779Y-113069334D01*
X164353749Y-113232060D01*
X164415472Y-113419740D01*
X164486111Y-113632885D01*
X164525813Y-113752134D01*
X164581752Y-113920383D01*
X164634863Y-114081035D01*
X164684522Y-114232144D01*
X164730103Y-114371761D01*
X164770980Y-114497941D01*
X164806526Y-114608736D01*
X164836116Y-114702200D01*
X164859124Y-114776385D01*
X164874924Y-114829344D01*
X164882891Y-114859131D01*
X164883609Y-114865120D01*
X164867352Y-114869971D01*
X164827908Y-114878325D01*
X164769544Y-114889379D01*
X164696529Y-114902334D01*
X164613129Y-114916387D01*
X164592971Y-114919684D01*
X164479699Y-114938979D01*
X164391780Y-114956008D01*
X164326917Y-114971292D01*
X164282813Y-114985354D01*
X164263279Y-114994620D01*
X164243937Y-115011772D01*
X164210159Y-115047709D01*
X164164536Y-115099253D01*
X164109657Y-115163226D01*
X164048113Y-115236451D01*
X163982495Y-115315751D01*
X163915394Y-115397946D01*
X163849400Y-115479860D01*
X163787103Y-115558314D01*
X163731095Y-115630131D01*
X163683965Y-115692133D01*
X163648305Y-115741142D01*
X163626705Y-115773981D01*
X163624141Y-115778633D01*
X163608714Y-115828430D01*
X163602394Y-115892602D01*
X163605163Y-115959278D01*
X163617003Y-116016585D01*
X163624533Y-116034728D01*
X163639035Y-116059475D01*
X163666296Y-116103004D01*
X163703568Y-116161038D01*
X163748098Y-116229300D01*
X163797137Y-116303514D01*
X163805882Y-116316652D01*
X163866121Y-116405967D01*
X163914781Y-116474439D01*
X163954983Y-116524809D01*
X163989849Y-116559817D01*
X164022502Y-116582201D01*
X164056064Y-116594704D01*
X164093657Y-116600063D01*
X164129956Y-116601050D01*
X164177477Y-116598941D01*
X164217372Y-116590609D01*
X164253321Y-116573046D01*
X164289004Y-116543245D01*
X164328101Y-116498199D01*
X164374291Y-116434898D01*
X164424818Y-116360064D01*
X164468656Y-116294360D01*
X164507974Y-116236254D01*
X164539882Y-116189955D01*
X164561486Y-116159671D01*
X164569005Y-116150180D01*
X164587389Y-116142346D01*
X164628003Y-116130875D01*
X164685727Y-116117034D01*
X164755437Y-116102091D01*
X164795218Y-116094210D01*
X165006178Y-116053583D01*
X165137761Y-116184619D01*
X165269343Y-116315654D01*
X165269343Y-116518055D01*
X165269343Y-116720456D01*
X164862541Y-116952547D01*
X164455739Y-117184639D01*
X164056512Y-117184639D01*
X163657285Y-117184639D01*
X163351838Y-117031794D01*
X163253933Y-116983111D01*
X163177105Y-116945809D01*
X163117783Y-116918433D01*
X163072398Y-116899525D01*
X163037378Y-116887628D01*
X163009155Y-116881286D01*
X162984157Y-116879042D01*
X162977266Y-116878949D01*
X162894831Y-116889871D01*
X162830064Y-116921728D01*
X162784357Y-116973155D01*
X162759105Y-117042789D01*
X162754319Y-117097242D01*
X161767812Y-117097242D01*
X161767812Y-116740000D01*
X161767812Y-111737812D01*
X166770000Y-111737812D01*
X171772188Y-111737812D01*
X171772188Y-116740000D01*
G37*
G36*
X168664801Y-113589472D02*
G01*
X168653370Y-113627172D01*
X168634634Y-113686501D01*
X168609359Y-113765100D01*
X168578310Y-113860609D01*
X168542255Y-113970669D01*
X168501959Y-114092921D01*
X168458188Y-114225006D01*
X168423247Y-114329983D01*
X168377146Y-114468654D01*
X168333799Y-114599853D01*
X168293996Y-114721140D01*
X168258523Y-114830073D01*
X168228169Y-114924212D01*
X168203723Y-115001116D01*
X168185973Y-115058343D01*
X168175707Y-115093454D01*
X168173391Y-115103723D01*
X168175094Y-115122061D01*
X168181988Y-115137701D01*
X168196753Y-115151463D01*
X168222070Y-115164166D01*
X168260619Y-115176630D01*
X168315080Y-115189672D01*
X168388133Y-115204113D01*
X168482457Y-115220771D01*
X168600734Y-115240466D01*
X168643751Y-115247490D01*
X169063078Y-115315766D01*
X169295614Y-115606318D01*
X169357466Y-115683789D01*
X169413445Y-115754267D01*
X169461241Y-115814812D01*
X169498544Y-115862488D01*
X169523045Y-115894356D01*
X169532425Y-115907462D01*
X169527229Y-115922663D01*
X169510521Y-115953548D01*
X169486726Y-115993145D01*
X169460266Y-116034488D01*
X169435563Y-116070607D01*
X169417041Y-116094532D01*
X169410043Y-116100297D01*
X169400227Y-116089381D01*
X169378450Y-116059551D01*
X169347835Y-116015235D01*
X169311502Y-115960860D01*
X169307731Y-115955125D01*
X169269457Y-115898953D01*
X169234627Y-115851666D01*
X169206949Y-115818049D01*
X169190134Y-115802888D01*
X169189554Y-115802670D01*
X169160689Y-115795243D01*
X169110158Y-115784023D01*
X169042548Y-115769888D01*
X168962449Y-115753718D01*
X168874449Y-115736391D01*
X168783136Y-115718786D01*
X168693099Y-115701781D01*
X168608926Y-115686256D01*
X168535207Y-115673090D01*
X168476529Y-115663161D01*
X168437481Y-115657348D01*
X168424740Y-115656192D01*
X168407764Y-115657594D01*
X168390111Y-115663355D01*
X168368958Y-115675806D01*
X168341485Y-115697279D01*
X168304870Y-115730106D01*
X168256292Y-115776619D01*
X168192929Y-115839149D01*
X168142581Y-115889386D01*
X167909387Y-116122580D01*
X167909387Y-116525899D01*
X167909716Y-116652092D01*
X167910766Y-116752787D01*
X167912629Y-116830268D01*
X167915399Y-116886820D01*
X167919170Y-116924727D01*
X167924034Y-116946275D01*
X167926756Y-116951441D01*
X167942263Y-116962925D01*
X167979342Y-116986500D01*
X168035362Y-117020605D01*
X168107691Y-117063678D01*
X168193696Y-117114158D01*
X168290745Y-117170483D01*
X168396206Y-117231091D01*
X168446479Y-117259786D01*
X168948834Y-117545908D01*
X169478394Y-117545908D01*
X170007954Y-117545908D01*
X170175952Y-117461693D01*
X170237869Y-117431347D01*
X170290503Y-117406859D01*
X170329130Y-117390328D01*
X170349025Y-117383855D01*
X170350562Y-117384092D01*
X170351260Y-117400460D01*
X170346355Y-117437527D01*
X170337196Y-117489083D01*
X170325130Y-117548921D01*
X170311507Y-117610833D01*
X170297676Y-117668610D01*
X170284984Y-117716044D01*
X170274782Y-117746928D01*
X170269913Y-117755333D01*
X170251927Y-117761602D01*
X170211644Y-117773064D01*
X170153793Y-117788456D01*
X170083107Y-117806511D01*
X170020215Y-117822091D01*
X169785830Y-117879387D01*
X169503327Y-117879387D01*
X169396548Y-117879960D01*
X169315148Y-117881770D01*
X169256739Y-117884953D01*
X169218934Y-117889645D01*
X169199342Y-117895982D01*
X169198235Y-117896756D01*
X169187123Y-117913986D01*
X169167577Y-117953467D01*
X169141218Y-118011543D01*
X169109666Y-118084556D01*
X169074542Y-118168851D01*
X169042519Y-118248071D01*
X168909393Y-118582017D01*
X168419825Y-118651025D01*
X168283984Y-118670300D01*
X168173141Y-118686543D01*
X168084758Y-118700470D01*
X168016296Y-118712794D01*
X167965218Y-118724231D01*
X167928986Y-118735495D01*
X167905061Y-118747301D01*
X167890905Y-118760364D01*
X167883979Y-118775398D01*
X167881747Y-118793117D01*
X167881597Y-118802572D01*
X167881746Y-118810374D01*
X167882998Y-118818510D01*
X167886559Y-118828596D01*
X167893636Y-118842246D01*
X167905437Y-118861076D01*
X167923169Y-118886702D01*
X167948038Y-118920738D01*
X167981251Y-118964801D01*
X168024016Y-119020505D01*
X168077538Y-119089466D01*
X168143026Y-119173300D01*
X168221686Y-119273621D01*
X168314726Y-119392045D01*
X168423351Y-119530188D01*
X168461268Y-119578400D01*
X168545923Y-119686156D01*
X168625136Y-119787208D01*
X168697284Y-119879472D01*
X168760748Y-119960865D01*
X168813908Y-120029305D01*
X168855142Y-120082710D01*
X168882832Y-120118995D01*
X168895357Y-120136080D01*
X168895930Y-120137119D01*
X168885057Y-120130215D01*
X168853718Y-120108235D01*
X168803833Y-120072569D01*
X168737319Y-120024609D01*
X168656097Y-119965745D01*
X168562085Y-119897368D01*
X168457202Y-119820870D01*
X168343368Y-119737641D01*
X168222501Y-119649072D01*
X168213534Y-119642494D01*
X168091120Y-119552824D01*
X167974704Y-119467825D01*
X167866327Y-119388971D01*
X167768029Y-119317731D01*
X167681851Y-119255577D01*
X167609832Y-119203980D01*
X167554013Y-119164413D01*
X167516434Y-119138345D01*
X167499134Y-119127248D01*
X167498968Y-119127170D01*
X167475544Y-119119001D01*
X167452904Y-119118440D01*
X167428438Y-119127665D01*
X167399535Y-119148851D01*
X167363585Y-119184175D01*
X167317975Y-119235813D01*
X167260096Y-119305942D01*
X167210592Y-119367563D01*
X167020109Y-119606119D01*
X167020109Y-118702060D01*
X167020124Y-118516732D01*
X167020063Y-118357254D01*
X167019770Y-118221688D01*
X167019384Y-118157140D01*
X167411336Y-118157140D01*
X167490148Y-118180057D01*
X167647723Y-118225769D01*
X167797106Y-118268899D01*
X167936129Y-118308831D01*
X168062623Y-118344954D01*
X168174419Y-118376653D01*
X168269347Y-118403314D01*
X168345240Y-118424324D01*
X168399928Y-118439069D01*
X168431241Y-118446936D01*
X168437564Y-118448104D01*
X168453166Y-118438932D01*
X168485036Y-118412719D01*
X168530036Y-118372315D01*
X168585027Y-118320569D01*
X168646871Y-118260331D01*
X168672734Y-118234586D01*
X168743835Y-118162924D01*
X168797021Y-118108029D01*
X168834389Y-118067391D01*
X168858035Y-118038494D01*
X168870059Y-118018827D01*
X168872556Y-118005877D01*
X168869373Y-117998980D01*
X168858822Y-117975131D01*
X168860816Y-117963365D01*
X168866054Y-117949888D01*
X168864885Y-117948862D01*
X168850749Y-117945934D01*
X168812194Y-117937551D01*
X168751922Y-117924308D01*
X168672638Y-117906804D01*
X168577043Y-117885637D01*
X168467842Y-117861403D01*
X168347737Y-117834702D01*
X168235317Y-117809670D01*
X168107257Y-117781306D01*
X167987190Y-117755042D01*
X167877904Y-117731463D01*
X167782184Y-117711157D01*
X167702817Y-117694707D01*
X167642588Y-117682701D01*
X167604285Y-117675725D01*
X167591003Y-117674194D01*
X167579375Y-117688627D01*
X167561067Y-117727247D01*
X167537107Y-117787539D01*
X167508525Y-117866991D01*
X167491348Y-117917525D01*
X167411336Y-118157140D01*
X167019384Y-118157140D01*
X167019090Y-118108096D01*
X167017865Y-118014538D01*
X167015939Y-117939076D01*
X167013157Y-117879771D01*
X167009361Y-117834684D01*
X167004395Y-117801876D01*
X166998103Y-117779409D01*
X166990329Y-117765343D01*
X166980916Y-117757740D01*
X166969709Y-117754661D01*
X166956549Y-117754168D01*
X166943687Y-117754332D01*
X166918813Y-117757701D01*
X166897419Y-117770683D01*
X166875804Y-117797588D01*
X166850267Y-117842728D01*
X166826369Y-117891034D01*
X166803013Y-117937544D01*
X166783598Y-117972434D01*
X166771528Y-117989690D01*
X166770000Y-117990547D01*
X166760432Y-117978934D01*
X166742620Y-117948104D01*
X166719971Y-117904071D01*
X166713630Y-117891034D01*
X166682738Y-117829423D01*
X166658536Y-117789274D01*
X166637324Y-117766277D01*
X166615403Y-117756119D01*
X166596313Y-117754332D01*
X166581368Y-117754153D01*
X166568508Y-117754908D01*
X166557577Y-117758535D01*
X166548417Y-117766975D01*
X166540873Y-117782165D01*
X166534788Y-117806044D01*
X166530005Y-117840551D01*
X166526370Y-117887625D01*
X166523724Y-117949205D01*
X166521912Y-118027230D01*
X166520778Y-118123638D01*
X166520165Y-118240368D01*
X166519917Y-118379359D01*
X166519877Y-118542550D01*
X166519890Y-118702060D01*
X166519890Y-119606119D01*
X166329407Y-119367563D01*
X166261327Y-119283115D01*
X166207354Y-119218689D01*
X166164878Y-119172110D01*
X166131287Y-119141200D01*
X166103970Y-119123784D01*
X166080317Y-119117684D01*
X166057717Y-119120725D01*
X166041031Y-119127170D01*
X166024303Y-119137845D01*
X165987241Y-119163531D01*
X165931884Y-119202756D01*
X165860273Y-119254049D01*
X165774448Y-119315939D01*
X165676449Y-119386955D01*
X165568316Y-119465624D01*
X165452089Y-119550477D01*
X165329808Y-119640041D01*
X165326465Y-119642494D01*
X165205164Y-119731395D01*
X165090757Y-119815057D01*
X164985162Y-119892089D01*
X164890299Y-119961100D01*
X164808087Y-120020699D01*
X164740445Y-120069495D01*
X164689291Y-120106097D01*
X164656546Y-120129114D01*
X164644128Y-120137155D01*
X164644070Y-120137119D01*
X164652402Y-120125347D01*
X164676320Y-120093835D01*
X164714202Y-120044665D01*
X164764428Y-119979919D01*
X164825379Y-119901681D01*
X164895433Y-119812033D01*
X164972971Y-119713057D01*
X165056373Y-119606838D01*
X165078732Y-119578400D01*
X165192555Y-119433663D01*
X165290408Y-119309157D01*
X165373500Y-119203267D01*
X165443036Y-119114377D01*
X165500225Y-119040872D01*
X165546272Y-118981137D01*
X165582385Y-118933555D01*
X165609770Y-118896513D01*
X165629636Y-118868394D01*
X165643188Y-118847582D01*
X165651633Y-118832464D01*
X165656179Y-118821422D01*
X165658033Y-118812843D01*
X165658401Y-118805109D01*
X165658402Y-118802572D01*
X165657498Y-118783344D01*
X165653094Y-118767137D01*
X165642651Y-118753238D01*
X165623631Y-118740930D01*
X165593496Y-118729501D01*
X165549708Y-118718234D01*
X165489729Y-118706415D01*
X165411021Y-118693330D01*
X165311045Y-118678264D01*
X165187263Y-118660503D01*
X165120174Y-118651025D01*
X164630606Y-118582017D01*
X164497480Y-118248071D01*
X164460574Y-118156965D01*
X164425837Y-118073978D01*
X164397387Y-118008507D01*
X164667286Y-118008507D01*
X164671879Y-118022840D01*
X164686500Y-118044493D01*
X164713249Y-118075979D01*
X164754222Y-118119810D01*
X164811516Y-118178499D01*
X164867265Y-118234586D01*
X164930576Y-118297369D01*
X164987773Y-118352899D01*
X165035821Y-118398326D01*
X165071684Y-118430802D01*
X165092329Y-118447474D01*
X165095675Y-118449081D01*
X165112108Y-118445395D01*
X165151900Y-118434955D01*
X165211704Y-118418684D01*
X165288172Y-118397505D01*
X165377954Y-118372342D01*
X165477703Y-118344120D01*
X165526587Y-118330200D01*
X165634570Y-118299364D01*
X165738331Y-118269683D01*
X165833645Y-118242371D01*
X165916284Y-118218639D01*
X165982024Y-118199700D01*
X166026639Y-118186767D01*
X166035898Y-118184055D01*
X166128547Y-118156790D01*
X166048593Y-117917350D01*
X166017936Y-117828545D01*
X165991337Y-117757525D01*
X165969827Y-117706804D01*
X165954435Y-117678898D01*
X165948997Y-117674194D01*
X165931784Y-117676375D01*
X165890249Y-117684090D01*
X165827179Y-117696752D01*
X165745359Y-117713776D01*
X165647576Y-117734575D01*
X165536616Y-117758563D01*
X165415265Y-117785156D01*
X165304682Y-117809670D01*
X165177226Y-117838047D01*
X165058297Y-117864481D01*
X164950600Y-117888375D01*
X164856837Y-117909131D01*
X164779712Y-117926150D01*
X164721927Y-117938836D01*
X164686185Y-117946591D01*
X164675115Y-117948862D01*
X164676227Y-117958021D01*
X164679183Y-117963365D01*
X164678890Y-117984655D01*
X164670626Y-117998980D01*
X164667286Y-118008507D01*
X164397387Y-118008507D01*
X164394891Y-118002764D01*
X164369355Y-117946982D01*
X164350851Y-117910286D01*
X164341764Y-117896756D01*
X164323963Y-117890237D01*
X164288200Y-117885377D01*
X164232087Y-117882040D01*
X164153237Y-117880091D01*
X164049259Y-117879393D01*
X164036672Y-117879387D01*
X163754170Y-117879387D01*
X163519784Y-117822091D01*
X163442213Y-117802813D01*
X163373675Y-117785181D01*
X163318904Y-117770462D01*
X163282628Y-117759920D01*
X163270086Y-117755333D01*
X163262376Y-117739422D01*
X163251249Y-117702695D01*
X163238056Y-117651358D01*
X163224145Y-117591621D01*
X163210864Y-117529690D01*
X163199563Y-117471775D01*
X163191589Y-117424084D01*
X163188292Y-117392824D01*
X163189438Y-117384092D01*
X163203564Y-117387541D01*
X163237676Y-117401605D01*
X163287050Y-117424185D01*
X163346963Y-117453180D01*
X163364048Y-117461693D01*
X163532045Y-117545908D01*
X164061605Y-117545908D01*
X164591165Y-117545908D01*
X165093520Y-117259786D01*
X165201949Y-117197741D01*
X165303168Y-117139265D01*
X165394547Y-117085920D01*
X165473451Y-117039269D01*
X165537250Y-117000872D01*
X165583311Y-116972292D01*
X165609002Y-116955089D01*
X165613244Y-116951441D01*
X165618660Y-116936868D01*
X165622938Y-116907020D01*
X165626172Y-116859614D01*
X165628455Y-116792365D01*
X165629880Y-116702988D01*
X165630540Y-116589198D01*
X165630612Y-116525899D01*
X165630612Y-116122580D01*
X165397419Y-115889386D01*
X165322955Y-115815217D01*
X165265106Y-115758578D01*
X165221051Y-115717137D01*
X165187969Y-115688563D01*
X165163037Y-115670525D01*
X165143434Y-115660689D01*
X165126340Y-115656725D01*
X165115259Y-115656192D01*
X165091566Y-115658831D01*
X165045235Y-115666162D01*
X164980856Y-115677306D01*
X164903016Y-115691384D01*
X164816305Y-115707518D01*
X164725310Y-115724829D01*
X164634621Y-115742437D01*
X164548825Y-115759465D01*
X164472511Y-115775033D01*
X164410269Y-115788263D01*
X164366685Y-115798275D01*
X164350446Y-115802670D01*
X164334396Y-115816578D01*
X164307263Y-115849227D01*
X164272756Y-115895832D01*
X164234583Y-115951608D01*
X164232268Y-115955125D01*
X164195541Y-116010251D01*
X164164224Y-116055756D01*
X164141438Y-116087210D01*
X164130304Y-116100186D01*
X164129956Y-116100297D01*
X164118560Y-116089354D01*
X164097824Y-116061238D01*
X164072169Y-116022918D01*
X164046018Y-115981363D01*
X164023794Y-115943541D01*
X164009921Y-115916422D01*
X164007574Y-115907462D01*
X164017070Y-115894204D01*
X164041662Y-115862221D01*
X164079043Y-115814451D01*
X164126900Y-115753830D01*
X164182925Y-115683297D01*
X164244385Y-115606318D01*
X164476921Y-115315766D01*
X164896249Y-115247490D01*
X165022695Y-115226659D01*
X165124337Y-115209125D01*
X165203856Y-115194069D01*
X165263932Y-115180671D01*
X165307245Y-115168112D01*
X165336475Y-115155574D01*
X165354302Y-115142237D01*
X165363406Y-115127282D01*
X165366467Y-115109890D01*
X165366608Y-115103723D01*
X165362315Y-115086335D01*
X165349961Y-115045045D01*
X165330336Y-114982294D01*
X165304226Y-114900521D01*
X165272420Y-114802169D01*
X165235707Y-114689679D01*
X165194874Y-114565490D01*
X165150710Y-114432044D01*
X165116752Y-114329983D01*
X165070862Y-114192028D01*
X165027868Y-114062123D01*
X164988535Y-113942625D01*
X164953630Y-113835895D01*
X164923918Y-113744291D01*
X164900166Y-113670172D01*
X164883140Y-113615898D01*
X164873607Y-113583829D01*
X164871839Y-113575760D01*
X164879522Y-113586776D01*
X164900723Y-113620137D01*
X164934568Y-113674415D01*
X164980183Y-113748182D01*
X165036694Y-113840010D01*
X165103227Y-113948472D01*
X165178908Y-114072138D01*
X165262863Y-114209582D01*
X165354219Y-114359374D01*
X165452100Y-114520089D01*
X165555634Y-114690296D01*
X165663946Y-114868569D01*
X165764242Y-115033827D01*
X165876734Y-115219089D01*
X165985695Y-115398173D01*
X166090210Y-115569595D01*
X166189364Y-115731869D01*
X166282241Y-115883508D01*
X166367927Y-116023028D01*
X166445506Y-116148943D01*
X166514064Y-116259766D01*
X166572684Y-116354013D01*
X166620453Y-116430197D01*
X166656454Y-116486833D01*
X166679773Y-116522434D01*
X166688940Y-116535049D01*
X166735966Y-116567164D01*
X166785577Y-116572224D01*
X166834011Y-116550229D01*
X166851060Y-116535049D01*
X166862876Y-116518499D01*
X166888153Y-116479651D01*
X166925976Y-116419993D01*
X166975428Y-116341008D01*
X167035595Y-116244184D01*
X167105563Y-116131005D01*
X167184415Y-116002958D01*
X167271236Y-115861527D01*
X167365112Y-115708200D01*
X167465127Y-115544461D01*
X167570366Y-115371797D01*
X167679915Y-115191693D01*
X167775757Y-115033827D01*
X167887605Y-114849546D01*
X167995457Y-114672051D01*
X168098440Y-114502772D01*
X168195678Y-114343135D01*
X168286299Y-114194570D01*
X168369428Y-114058504D01*
X168444191Y-113936364D01*
X168509715Y-113829579D01*
X168565125Y-113739578D01*
X168609547Y-113667787D01*
X168642107Y-113615634D01*
X168661932Y-113584549D01*
X168668160Y-113575760D01*
X168664801Y-113589472D01*
G37*
D17*
%TO.C,U2*%
X160000000Y-80430000D02*
X160000000Y-110910000D01*
X160000000Y-110910000D02*
X177780000Y-110910000D01*
X162540000Y-80430000D02*
X162540000Y-82970000D01*
X162540000Y-82970000D02*
X160000000Y-82970000D01*
X177780000Y-80430000D02*
X160000000Y-80430000D01*
X177780000Y-110910000D02*
X177780000Y-80430000D01*
%TD*%
D18*
%TO.C,U2*%
X161270000Y-81700000D03*
D19*
X161270000Y-84240000D03*
X161270000Y-86780000D03*
X161270000Y-89320000D03*
X161270000Y-91860000D03*
X161270000Y-94400000D03*
X161270000Y-96940000D03*
X161270000Y-99480000D03*
X161270000Y-102020000D03*
X161270000Y-104560000D03*
X161270000Y-107100000D03*
X161270000Y-109640000D03*
X176510000Y-109640000D03*
X176510000Y-107100000D03*
X176510000Y-104560000D03*
X176510000Y-102020000D03*
X176510000Y-99480000D03*
X176510000Y-96940000D03*
X176510000Y-94400000D03*
X176510000Y-91860000D03*
X176510000Y-89320000D03*
X176510000Y-86780000D03*
X176510000Y-84240000D03*
X176510000Y-81700000D03*
%TD*%
M02*
