%TF.GenerationSoftware,KiCad,Pcbnew,8.0.3*%
%TF.CreationDate,2024-07-16T22:19:37-05:00*%
%TF.ProjectId,3.3v Pro Micro Wii Connector,332e3376-2050-4726-9f20-4d6963726f20,rev?*%
%TF.SameCoordinates,Original*%
%TF.FileFunction,Soldermask,Top*%
%TF.FilePolarity,Negative*%
%FSLAX46Y46*%
G04 Gerber Fmt 4.6, Leading zero omitted, Abs format (unit mm)*
G04 Created by KiCad (PCBNEW 8.0.3) date 2024-07-16 22:19:37*
%MOMM*%
%LPD*%
G01*
G04 APERTURE LIST*
G04 Aperture macros list*
%AMRoundRect*
0 Rectangle with rounded corners*
0 $1 Rounding radius*
0 $2 $3 $4 $5 $6 $7 $8 $9 X,Y pos of 4 corners*
0 Add a 4 corners polygon primitive as box body*
4,1,4,$2,$3,$4,$5,$6,$7,$8,$9,$2,$3,0*
0 Add four circle primitives for the rounded corners*
1,1,$1+$1,$2,$3*
1,1,$1+$1,$4,$5*
1,1,$1+$1,$6,$7*
1,1,$1+$1,$8,$9*
0 Add four rect primitives between the rounded corners*
20,1,$1+$1,$2,$3,$4,$5,0*
20,1,$1+$1,$4,$5,$6,$7,0*
20,1,$1+$1,$6,$7,$8,$9,0*
20,1,$1+$1,$8,$9,$2,$3,0*%
G04 Aperture macros list end*
%ADD10R,1.270000X1.270000*%
%ADD11C,1.270000*%
%ADD12C,3.000000*%
%ADD13C,1.728000*%
%ADD14RoundRect,0.102000X0.762000X0.762000X-0.762000X0.762000X-0.762000X-0.762000X0.762000X-0.762000X0*%
%ADD15R,2.300000X1.500000*%
%ADD16O,2.300000X1.500000*%
%ADD17R,1.752600X1.752600*%
%ADD18C,1.752600*%
G04 APERTURE END LIST*
D10*
%TO.C,Connector1*%
X181134000Y-112585000D03*
D11*
X181134000Y-114490000D03*
X183039000Y-112585000D03*
X183039000Y-114490000D03*
X184944000Y-112585000D03*
X184944000Y-114490000D03*
D12*
X176816000Y-115125000D03*
X176816000Y-121475000D03*
X189770000Y-115125000D03*
X189770000Y-121475000D03*
%TD*%
D13*
%TO.C,U3*%
X180190000Y-87220000D03*
X190350000Y-87220000D03*
X180190000Y-89760000D03*
D14*
X180190000Y-94840000D03*
D13*
X180190000Y-92300000D03*
X180190000Y-84680000D03*
X180190000Y-82140000D03*
X190350000Y-89760000D03*
D14*
X190350000Y-94840000D03*
D13*
X190350000Y-92300000D03*
X190350000Y-84680000D03*
X190350000Y-82140000D03*
%TD*%
D15*
%TO.C,U4*%
X190170000Y-105980000D03*
D16*
X190170000Y-103440000D03*
X190170000Y-100990000D03*
%TD*%
D17*
%TO.C,U2*%
X161270000Y-81700000D03*
D18*
X161270000Y-84240000D03*
X161270000Y-86780000D03*
X161270000Y-89320000D03*
X161270000Y-91860000D03*
X161270000Y-94400000D03*
X161270000Y-96940000D03*
X161270000Y-99480000D03*
X161270000Y-102020000D03*
X161270000Y-104560000D03*
X161270000Y-107100000D03*
X161270000Y-109640000D03*
X176510000Y-109640000D03*
X176510000Y-107100000D03*
X176510000Y-104560000D03*
X176510000Y-102020000D03*
X176510000Y-99480000D03*
X176510000Y-96940000D03*
X176510000Y-94400000D03*
X176510000Y-91860000D03*
X176510000Y-89320000D03*
X176510000Y-86780000D03*
X176510000Y-84240000D03*
X176510000Y-81700000D03*
%TD*%
M02*
